<?xml version="1.0" encoding="utf-8"?>
<!-- Generator: Adobe Illustrator 21.0.2, SVG Export Plug-In . SVG Version: 6.00 Build 0)  -->
<svg version="1.1" id="Ebene_1" xmlns="http://www.w3.org/2000/svg" xmlns:xlink="http://www.w3.org/1999/xlink" x="0px" y="0px"
	 viewBox="0 0 244 68" style="enable-background:new 0 0 244 68;" xml:space="preserve">
<style type="text/css">
	.st0{fill:#999999;}
	.st1{fill:#333333;}
	.st2{fill:#FF8700;}
</style>
<title>Zeichenfläche 1</title>
<path class="st0" d="M78.8,60.8c-1.8,0-3.7-0.1-3.7-0.1V45.6c0,0,2-0.1,3.4-0.1c2.6,0,4.1,1.1,4.1,3.9c0.1,1.3-0.5,2.6-1.7,3.2
	c0.9,0.3,2.1,1.1,2.1,3.5C83.1,59.7,81.4,60.8,78.8,60.8z M78.8,47c-0.6,0-1.2,0-1.8,0.1V52h1.8c0.9,0,2-0.1,2-2.4
	C80.8,47.8,80.5,47,78.8,47z M79.1,53.5h-2v5.6c0,0,1.1,0.1,2,0.1c1.2,0,2.1-0.4,2.1-3C81.2,54.4,80.6,53.5,79.1,53.5z"/>
<path class="st0" d="M90.3,60.8c-3.6,0-4.5-2.6-4.5-7.9c0-5.1,0.9-7.5,4.5-7.5c3.5,0,4.5,2.5,4.5,7.5C94.8,58.2,93.8,60.8,90.3,60.8
	z M90.3,47c-1.9,0-2.6,1.3-2.6,6.1s0.6,6.2,2.6,6.2c1.9,0,2.6-1.5,2.6-6.2S92.2,47,90.3,47L90.3,47z"/>
<path class="st0" d="M102,60.8c-3.6,0-4.5-2.6-4.5-7.9c0-5.1,0.9-7.5,4.5-7.5c3.5,0,4.5,2.5,4.5,7.5C106.6,58.2,105.6,60.8,102,60.8
	z M102,47c-1.9,0-2.6,1.3-2.6,6.1s0.6,6.2,2.6,6.2c1.9,0,2.6-1.5,2.6-6.2S104,47,102,47L102,47z"/>
<path class="st0" d="M113,47.2v13.4h-1.9V47.2h-3.3v-1.6h8.5v1.6H113z"/>
<path class="st0" d="M120.3,60.8c-0.8,0-1.7-0.1-2.5-0.3v-1.6c0.9,0.2,1.8,0.3,2.7,0.3c1.5,0,2.1-0.9,2.1-2.6c0-2.1-0.6-2.7-1.7-2.9
	c-2.4-0.5-3.3-1.5-3.3-4.1c0-3.1,1.8-4.2,4.2-4.2c0.8,0,1.5,0.1,2.3,0.3v1.6c-0.8-0.2-1.7-0.3-2.5-0.3c-1.1,0-2.1,0.9-2.1,2
	c0,0.1,0,0.2,0,0.4c0,1.7,0.3,2.2,1.7,2.5c2.1,0.4,3.4,1.3,3.4,4.5C124.6,60,122.9,60.8,120.3,60.8z"/>
<path class="st0" d="M131.2,47.2v13.4h-1.9V47.2H126v-1.6h8.5v1.6H131.2z"/>
<path class="st0" d="M142.4,54.1l3,6.5h-2.1l-2.8-6.3h-1.9v6.2h-1.9V45.6c0,0,1.8-0.1,3.6-0.1c3.3,0,4.2,1.7,4.2,4.4
	C144.5,52.1,143.9,53.5,142.4,54.1z M140.6,47c-0.7,0-1.3,0-2,0.1v5.7h2c1.2,0,2-0.5,2-2.9C142.6,47.9,142.1,47,140.6,47L140.6,47z"
	/>
<path class="st0" d="M154.3,60.7l-0.8-3.8h-4.2l-0.8,3.8h-1.9l3.6-15.1h2.5l3.6,15.1L154.3,60.7z M151.3,47l-1.7,8.2h3.5L151.3,47z"
	/>
<path class="st0" d="M162.2,55h-1.8v5.7h-1.9V45.6c0,0,1.8-0.1,3.6-0.1c3.3,0,4.2,2,4.2,4.7C166.4,53.4,165.3,55,162.2,55z
	 M162.5,47c-0.7,0-1.3,0-2,0.1v6.3h2c1.2,0,2-0.8,2-3.1C164.5,48.1,164,47,162.5,47L162.5,47z"/>
<path class="st0" d="M178.6,55h-1.8v5.7h-1.9V45.6c0,0,1.8-0.1,3.6-0.1c3.3,0,4.2,2,4.2,4.7C182.8,53.4,181.7,55,178.6,55z
	 M178.8,47c-0.7,0-1.3,0-2,0.1v6.3h2c1.2,0,2-0.8,2-3.1C180.9,48.1,180.4,47,178.8,47L178.8,47z"/>
<path class="st0" d="M191.3,60.7l-0.8-3.8h-4.2l-0.8,3.8h-1.9l3.6-15.1h2.5l3.6,15.1L191.3,60.7z M188.4,47l-1.7,8.2h3.5L188.4,47z"
	/>
<path class="st0" d="M201.5,60.4c-0.8,0.2-1.6,0.3-2.4,0.4c-3.1,0-4.3-1.5-4.3-7.9s1.5-7.4,4.6-7.4c0.7,0,1.4,0.1,2.1,0.3v1.6
	c-0.8-0.2-1.7-0.3-2.5-0.3c-1.6,0-2.3,0.8-2.3,6c0,5.4,0.8,6.2,2.3,6.2c0.8,0,1.7-0.1,2.5-0.3L201.5,60.4z"/>
<path class="st0" d="M210.3,60.7l-3.3-6.9l-0.8,1.3v5.6h-1.9V45.6h1.9v6.6l4-6.6h2l-4.1,6.6l4.3,8.5L210.3,60.7z"/>
<path class="st0" d="M221.4,60.7l-0.8-3.8h-4.2l-0.8,3.8h-1.9l3.6-15.1h2.5l3.6,15.1L221.4,60.7z M218.4,47l-1.7,8.2h3.5L218.4,47z"
	/>
<path class="st0" d="M232.6,60.4c-1.1,0.2-2.2,0.4-3.4,0.4c-3.3,0-4.5-1.5-4.5-7.9s1.6-7.5,5-7.5c0.8,0,1.6,0.1,2.4,0.3v1.5
	c-0.9-0.2-1.9-0.3-2.8-0.3c-1.8,0-2.7,0.8-2.7,6c0,5.4,0.7,6.2,2.5,6.2c0.6,0,1.1-0.1,1.7-0.1v-4.7h-1.9v-1.6h3.7L232.6,60.4z"/>
<path class="st0" d="M235.9,60.7V45.6h7.1v1.6h-5.2v4.9h4.7v1.6h-4.7v5.4h5.2v1.6L235.9,60.7z"/>
<path class="st1" d="M86.1,13.7v22.5h-5.3V13.7h-5.6V9h16.5v4.7H86.1z"/>
<path class="st1" d="M105,24.2v12h-5.4v-12L92.4,9h5.8l4.3,10.5l4.3-10.5h5.5L105,24.2z"/>
<path class="st1" d="M123,26.8h-2.2v9.4h-5.3V9c0,0,3.9-0.4,7.2-0.4c7,0,9,3.3,9,9.1C131.6,24.4,128.6,26.8,123,26.8z M123.3,13.2
	c-0.8,0-1.7,0.1-2.5,0.2v8.7h2.4c1.8,0,3-1.7,3-4.3C126.2,14.9,125.5,13.2,123.3,13.2L123.3,13.2z"/>
<path class="st1" d="M144,36.6c-7.7,0-9.1-4.8-9.1-14.3c0-9.1,1.6-13.7,9.1-13.7s9.1,4.5,9.1,13.7C153.1,31.8,151.7,36.6,144,36.6z
	 M144,12.8c-2.8,0-3.7,1.7-3.7,9.7s0.9,9.9,3.7,9.9c2.8,0,3.7-2.1,3.7-9.9S146.8,12.8,144,12.8L144,12.8z"/>
<path class="st1" d="M162.9,36.5c-1.8-0.1-3.7-0.3-5.5-0.7v-4.3c1.6,0.4,3.2,0.6,4.9,0.7c1.9,0,3.1-1.3,3.1-3.7c0-3-0.8-4.3-3.1-4.3
	h-3v-4.2h2.6c2.2,0,3.1-1.4,3.1-3.7s-0.8-3.3-2.7-3.3c-1.5,0.1-3.1,0.3-4.6,0.7V9.3c1.7-0.4,3.4-0.6,5.1-0.7c5,0,7.4,1.8,7.4,7.7
	c0,2.3-0.8,4.7-2.9,5.5c2.1,0.4,3.4,2.4,3.4,6.3C170.5,34.6,167.2,36.5,162.9,36.5z"/>
<path class="st1" d="M199.5,35.9c-1.5,0.3-3.1,0.5-4.7,0.6c-6,0-8.6-2.5-8.6-14.3s3.2-13.4,9.1-13.4c1.4,0.1,2.8,0.2,4.2,0.5v4.7
	c-1.5-0.4-3.1-0.5-4.7-0.6c-2.3,0-3.2,1-3.2,9.1s0.9,9.4,3.2,9.4c1.6,0,3.2-0.2,4.7-0.6L199.5,35.9z"/>
<path class="st1" d="M219.4,36.2V12.9L216,27h-4l-3.5-14.1v23.3h-4.8V9h8.1l2.3,10.5L216.5,9h7.7v27.2H219.4z"/>
<path class="st1" d="M233.7,36.4c-1.9,0-3.7-0.2-5.5-0.6v-4.6c1.7,0.4,3.4,0.6,5.1,0.6c2.4,0,4-0.9,4-3.4c0-2.8-1.2-3.7-3.3-4.2
	c-4.3-0.9-6-3.3-6-7.8c0-5.8,3.3-7.8,9.3-7.8c1.6,0,3.2,0.2,4.8,0.6v4.6c-1.7-0.3-3.5-0.5-5.2-0.6c-2.2,0-3.5,0.8-3.5,2.8
	c0,2.5,0.6,3,3.1,3.5c3.7,0.8,6.3,2.7,6.3,8.5C242.6,35.4,238.8,36.4,233.7,36.4z"/>
<path class="st2" d="M45.8,43.4c-0.8,0.3-1.7,0.4-2.5,0.4c-7.6,0-18.8-26.6-18.8-35.5c0-3.3,0.8-4.4,1.9-5.3
	C17,4.1,5.8,7.5,2.3,11.8C1.4,13.3,0.9,15,1,16.8C1,30.6,15.8,62,26.2,62C31,62,39.1,54.1,45.8,43.4"/>
<path class="st2" d="M41,2c9.6,0,19.3,1.6,19.3,7c0,11-7,24.4-10.6,24.4c-6.4,0-14.3-17.7-14.3-26.6C35.4,2.8,36.9,2,41,2"/>
</svg>
