<svg xmlns="http://www.w3.org/2000/svg" viewBox="0 0 244 68"><path fill="#fff" d="M78.8 60.8c-1.8 0-3.7-.1-3.7-.1V45.6s2-.1 3.4-.1c2.6 0 4.1 1.1 4.1 3.9.1 1.3-.5 2.6-1.7 3.2.9.3 2.1 1.1 2.1 3.5.1 3.6-1.6 4.7-4.2 4.7m0-13.8c-.6 0-1.2 0-1.8.1V52h1.8c.9 0 2-.1 2-2.4 0-1.8-.3-2.6-2-2.6m.3 6.5h-2v5.6s1.1.1 2 .1c1.2 0 2.1-.4 2.1-3 0-1.8-.6-2.7-2.1-2.7m11.2 7.3c-3.6 0-4.5-2.6-4.5-7.9 0-5.1.9-7.5 4.5-7.5 3.5 0 4.5 2.5 4.5 7.5 0 5.3-1 7.9-4.5 7.9m0-13.8c-1.9 0-2.6 1.3-2.6 6.1s.6 6.2 2.6 6.2c1.9 0 2.6-1.5 2.6-6.2s-.7-6.1-2.6-6.1M102 60.8c-3.6 0-4.5-2.6-4.5-7.9 0-5.1.9-7.5 4.5-7.5 3.5 0 4.5 2.5 4.5 7.5.1 5.3-.9 7.9-4.5 7.9m0-13.8c-1.9 0-2.6 1.3-2.6 6.1s.6 6.2 2.6 6.2c1.9 0 2.6-1.5 2.6-6.2S104 47 102 47m11 .2v13.4h-1.9V47.2h-3.3v-1.6h8.5v1.6zm7.3 13.6c-.8 0-1.7-.1-2.5-.3v-1.6q1.35.3 2.7.3c1.5 0 2.1-.9 2.1-2.6 0-2.1-.6-2.7-1.7-2.9-2.4-.5-3.3-1.5-3.3-4.1 0-3.1 1.8-4.2 4.2-4.2.8 0 1.5.1 2.3.3v1.6c-.8-.2-1.7-.3-2.5-.3-1.1 0-2.1.9-2.1 2v.4c0 1.7.3 2.2 1.7 2.5 2.1.4 3.4 1.3 3.4 4.5 0 3.6-1.7 4.4-4.3 4.4m10.9-13.6v13.4h-1.9V47.2H126v-1.6h8.5v1.6zm11.2 6.9 3 6.5h-2.1l-2.8-6.3h-1.9v6.2h-1.9V45.6s1.8-.1 3.6-.1c3.3 0 4.2 1.7 4.2 4.4 0 2.2-.6 3.6-2.1 4.2m-1.8-7.1c-.7 0-1.3 0-2 .1v5.7h2c1.2 0 2-.5 2-2.9 0-2-.5-2.9-2-2.9m13.7 13.7-.8-3.8h-4.2l-.8 3.8h-1.9l3.6-15.1h2.5l3.6 15.1zm-3-13.7-1.7 8.2h3.5zm10.9 8h-1.8v5.7h-1.9V45.6s1.8-.1 3.6-.1c3.3 0 4.2 2 4.2 4.7.1 3.2-1 4.8-4.1 4.8m.3-8c-.7 0-1.3 0-2 .1v6.3h2c1.2 0 2-.8 2-3.1 0-2.2-.5-3.3-2-3.3m16.1 8h-1.8v5.7h-1.9V45.6s1.8-.1 3.6-.1c3.3 0 4.2 2 4.2 4.7.1 3.2-1 4.8-4.1 4.8m.2-8c-.7 0-1.3 0-2 .1v6.3h2c1.2 0 2-.8 2-3.1.1-2.2-.4-3.3-2-3.3m12.5 13.7-.8-3.8h-4.2l-.8 3.8h-1.9l3.6-15.1h2.5l3.6 15.1zM188.4 47l-1.7 8.2h3.5zm13.1 13.4c-.8.2-1.6.3-2.4.4-3.1 0-4.3-1.5-4.3-7.9s1.5-7.4 4.6-7.4q1.05 0 2.1.3v1.6c-.8-.2-1.7-.3-2.5-.3-1.6 0-2.3.8-2.3 6 0 5.4.8 6.2 2.3 6.2.8 0 1.7-.1 2.5-.3zm8.8.3-3.3-6.9-.8 1.3v5.6h-1.9V45.6h1.9v6.6l4-6.6h2l-4.1 6.6 4.3 8.5zm11.1 0-.8-3.8h-4.2l-.8 3.8h-1.9l3.6-15.1h2.5l3.6 15.1zm-3-13.7-1.7 8.2h3.5zm14.2 13.4c-1.1.2-2.2.4-3.4.4-3.3 0-4.5-1.5-4.5-7.9s1.6-7.5 5-7.5q1.2 0 2.4.3v1.5c-.9-.2-1.9-.3-2.8-.3-1.8 0-2.7.8-2.7 6 0 5.4.7 6.2 2.5 6.2.6 0 1.1-.1 1.7-.1v-4.7h-1.9v-1.6h3.7zm3.3.3V45.6h7.1v1.6h-5.2v4.9h4.7v1.6h-4.7v5.4h5.2v1.6zm-149.8-47v22.5h-5.3V13.7h-5.6V9h16.5v4.7zM105 24.2v12h-5.4v-12L92.4 9h5.8l4.3 10.5L106.8 9h5.5zm18 2.6h-2.2v9.4h-5.3V9s3.9-.4 7.2-.4c7 0 9 3.3 9 9.1-.1 6.7-3.1 9.1-8.7 9.1m.3-13.6c-.8 0-1.7.1-2.5.2v8.7h2.4c1.8 0 3-1.7 3-4.3 0-2.9-.7-4.6-2.9-4.6M144 36.6c-7.7 0-9.1-4.8-9.1-14.3 0-9.1 1.6-13.7 9.1-13.7s9.1 4.5 9.1 13.7c0 9.5-1.4 14.3-9.1 14.3m0-23.8c-2.8 0-3.7 1.7-3.7 9.7s.9 9.9 3.7 9.9 3.7-2.1 3.7-9.9-.9-9.7-3.7-9.7m18.9 23.7c-1.8-.1-3.7-.3-5.5-.7v-4.3c1.6.4 3.2.6 4.9.7 1.9 0 3.1-1.3 3.1-3.7 0-3-.8-4.3-3.1-4.3h-3V20h2.6c2.2 0 3.1-1.4 3.1-3.7s-.8-3.3-2.7-3.3c-1.5.1-3.1.3-4.6.7V9.3c1.7-.4 3.4-.6 5.1-.7 5 0 7.4 1.8 7.4 7.7 0 2.3-.8 4.7-2.9 5.5 2.1.4 3.4 2.4 3.4 6.3-.2 6.5-3.5 8.4-7.8 8.4m36.6-.6c-1.5.3-3.1.5-4.7.6-6 0-8.6-2.5-8.6-14.3s3.2-13.4 9.1-13.4c1.4.1 2.8.2 4.2.5V14c-1.5-.4-3.1-.5-4.7-.6-2.3 0-3.2 1-3.2 9.1s.9 9.4 3.2 9.4c1.6 0 3.2-.2 4.7-.6zm19.9.3V12.9L216 27h-4l-3.5-14.1v23.3h-4.8V9h8.1l2.3 10.5L216.5 9h7.7v27.2zm14.3.2c-1.9 0-3.7-.2-5.5-.6v-4.6q2.55.6 5.1.6c2.4 0 4-.9 4-3.4 0-2.8-1.2-3.7-3.3-4.2-4.3-.9-6-3.3-6-7.8 0-5.8 3.3-7.8 9.3-7.8q2.4 0 4.8.6v4.6c-1.7-.3-3.5-.5-5.2-.6-2.2 0-3.5.8-3.5 2.8 0 2.5.6 3 3.1 3.5 3.7.8 6.3 2.7 6.3 8.5-.2 7.4-4 8.4-9.1 8.4m-187.9 7c-.8.3-1.7.4-2.5.4-7.6 0-18.8-26.6-18.8-35.5 0-3.3.8-4.4 1.9-5.3C17 4.1 5.8 7.5 2.3 11.8 1.4 13.3.9 15 1 16.8 1 30.6 15.8 62 26.2 62c4.8 0 12.9-7.9 19.6-18.6M41 2c9.6 0 19.3 1.6 19.3 7 0 11-7 24.4-10.6 24.4-6.4 0-14.3-17.7-14.3-26.6 0-4 1.5-4.8 5.6-4.8"/></svg>