<?xml version="1.0" encoding="UTF-8" standalone="no"?>
<svg
   xmlns:dc="http://purl.org/dc/elements/1.1/"
   xmlns:cc="http://creativecommons.org/ns#"
   xmlns:rdf="http://www.w3.org/1999/02/22-rdf-syntax-ns#"
   xmlns:svg="http://www.w3.org/2000/svg"
   xmlns="http://www.w3.org/2000/svg"
   xmlns:sodipodi="http://sodipodi.sourceforge.net/DTD/sodipodi-0.dtd"
   xmlns:inkscape="http://www.inkscape.org/namespaces/inkscape"
   viewBox="0 0 16 16"
   id="svg2"
   version="1.1"
   inkscape:version="0.91 r13725"
   sodipodi:docname="content-beside-text-img-intext-right.svg">
  <metadata
     id="metadata26">
    <rdf:RDF>
      <cc:Work
         rdf:about="">
        <dc:format>image/svg+xml</dc:format>
        <dc:type
           rdf:resource="http://purl.org/dc/dcmitype/StillImage" />
        <dc:title></dc:title>
      </cc:Work>
    </rdf:RDF>
  </metadata>
  <defs
     id="defs24" />
  <sodipodi:namedview
     pagecolor="#ffffff"
     bordercolor="#666666"
     borderopacity="1"
     objecttolerance="10"
     gridtolerance="10"
     guidetolerance="10"
     inkscape:pageopacity="0"
     inkscape:pageshadow="2"
     inkscape:window-width="1304"
     inkscape:window-height="698"
     id="namedview22"
     showgrid="false"
     showguides="true"
     inkscape:guide-bbox="true"
     inkscape:zoom="14.75"
     inkscape:cx="-0.44067797"
     inkscape:cy="8"
     inkscape:window-x="367"
     inkscape:window-y="150"
     inkscape:window-maximized="0"
     inkscape:current-layer="svg2">
    <sodipodi:guide
       position="2.9830508,6.6440678"
       orientation="1,0"
       id="guide8102" />
  </sodipodi:namedview>
  <path
     fill="#FFF"
     d="M1 1h14v14H1z"
     id="path4" />
  <path
     fill="#999"
     d="M14 2v12H2V2h12m1-1H1v14h14V1z"
     id="path6" />
  <path
     fill="#59F"
     d="M7 7h6v6H7V7z"
     id="path8" />
  <path
     fill="#FFF"
     d="M11 12H8l.75-1 .75-1 .75 1 .75 1z"
     id="path10" />
  <path
     fill="#FFF"
     d="M12 12H9.333l.667-.667.667-.666.666.666L12 12z"
     id="path12" />
  <ellipse
     fill="#FFF"
     cx="11.5"
     cy="9.5"
     rx=".5"
     ry=".5"
     id="ellipse14" />
  <g
     id="g16">
    <path
       inkscape:connector-curvature="0"
       style="fill:#b9b9b9"
       d="m 2.9562092,8.885214 2.8813559,0 0,1 -2.8813559,0 z"
       id="path18-8-1" />
    <path
       inkscape:connector-curvature="0"
       style="fill:#b9b9b9"
       d="m 2.9899756,6.9576267 2.8813559,0 0,1 -2.8813559,0 z"
       id="path18-8" />
    <path
       fill="#B9B9B9"
       d="M3 5h10v1H3z"
       id="path18" />
    <path
       fill="#666"
       d="M3 3h10v1H3z"
       id="path20" />
  </g>
  <path
     inkscape:connector-curvature="0"
     style="fill:#b9b9b9"
     d="m 2.9951197,10.791829 2.8813559,0 0,1 -2.8813559,0 z"
     id="path18-8-1-4" />
</svg>
