<svg xmlns="http://www.w3.org/2000/svg" viewBox="0 0 512 512"><path d="M114.383 64.895C171.703 108.075 233.367 195.614 256 242.59v124.08c0-2.641-1.016.343-3.203 6.773-11.813 34.812-57.953 170.68-163.461 62.062C33.78 378.317 59.5 321.13 160.625 303.864c-57.852 9.875-122.89-6.446-140.734-70.43C14.75 215.028 6 101.653 6 86.34 6 9.637 73.023 33.747 114.383 64.895m283.234 0C340.297 108.075 278.633 195.614 256 242.59v124.08c0-2.641 1.016.343 3.203 6.773 11.813 34.812 57.953 170.68 163.461 62.062 55.555-57.187 29.836-114.375-71.289-131.64 57.852 9.875 122.89-6.446 140.734-70.43C497.25 215.028 506 101.653 506 86.34c0-76.703-67.016-52.593-108.383-21.445"/></svg>