<svg xmlns="http://www.w3.org/2000/svg" viewBox="0 0 512 512"><path d="M326.57 66c-4.9 8.698-9.298 17.695-13.297 26.893a387.4 387.4 0 0 0-114.77 0c-3.899-9.198-8.398-18.195-13.296-26.893A417.8 417.8 0 0 0 81.734 97.891C16.35 194.766-1.345 289.141 7.454 382.217c38.289 28.292 81.178 49.886 126.866 63.683 10.297-13.797 19.395-28.493 27.193-43.788-14.797-5.499-29.093-12.397-42.79-20.395 3.6-2.6 7.099-5.299 10.498-7.898 80.279 37.79 173.255 37.79 253.633 0 3.4 2.8 6.899 5.499 10.498 7.898-13.697 8.098-27.993 14.896-42.889 20.495 7.798 15.296 16.895 29.992 27.193 43.788 45.687-13.796 88.575-35.29 126.868-63.583 10.395-107.972-17.797-201.547-74.484-284.425A411.4 411.4 0 0 0 326.67 66.2zM172.71 324.932c-24.694 0-45.188-22.394-45.188-50.087s19.694-50.187 45.088-50.187 45.588 22.594 45.188 50.187-19.895 50.087-45.088 50.087m166.556 0c-24.794 0-45.088-22.394-45.088-50.087s19.695-50.187 45.088-50.187 45.488 22.594 45.088 50.187-19.895 50.087-45.088 50.087"/></svg>