<svg xmlns="http://www.w3.org/2000/svg" viewBox="0 0 512 512"><path d="M438.4 102.4l-60.8-60.8c-6.4-6.4-12.8-9.6-22.4-9.6H80c-9.6 0-16 6.4-16 16v416c0 9.6 6.4 16 16 16h352c9.6 0 16-6.4 16-16V124.8c0-9.6-3.2-16-9.6-22.4zM416 448H96V64h224v80c0 9.6 6.4 16 16 16h80v288zm-64-320V64l64 64h-64z"/><path d="M288 280v48c13.248 0 24-10.752 24-24s-10.752-24-24-24z"/><path d="M288 224v32c26.464 0 48 21.536 48 48s-21.536 48-48 48v32c44.192 0 80-35.808 80-80s-35.808-80-80-80zm-80 128h-48v-96h48l48-32v160z"/></svg>