<?xml version="1.0" encoding="utf-8"?>
<!-- Generator: Adobe Illustrator 22.0.1, SVG Export Plug-In . SVG Version: 6.00 Build 0)  -->
<svg version="1.1" id="Ebene_1" xmlns="http://www.w3.org/2000/svg" xmlns:xlink="http://www.w3.org/1999/xlink" x="0px" y="0px"
	 viewBox="0 0 512 512" style="enable-background:new 0 0 512 512;" xml:space="preserve">
<path d="M319.7,0H80c-8.8,0-16,7.2-16,16v480c0,8.8,7.2,16,16,16h352c8.8,0,16-7.2,16-16V128.3c0-8.5-3.4-16.6-9.4-22.6L342.4,9.4
	C336.4,3.4,328.2,0,319.7,0z M320,32l96,96h-96V32z M416,480H96V32h192v112c0,8.8,7.2,16,16,16h112V480z"/>
<g>
	<path d="M166,401.5c0-17,16.6-32.3,40.1-32.3c7,0,13.9,1.6,16.2,3.2V235.8h15.3l1.2,39.1v100.7c0,30.8-20.3,46.8-45.6,46.8
		C179.1,422.4,166,415.5,166,401.5z M222.4,235.8l103.6-16v42.1l-103.6,16V235.8z M253.1,388c0-17,16.5-32.3,39.9-32.3
		c7,0,13.9,1.6,16.2,3.2V223.8l16.7-1.5v139.8c0,31-20.5,46.8-45.8,46.8C266,408.9,253.1,402,253.1,388z"/>
</g>
</svg>
