<svg xmlns="http://www.w3.org/2000/svg" viewBox="0 0 512 512"><path d="M319.7 0H80c-8.8 0-16 7.2-16 16v480c0 8.8 7.2 16 16 16h352c8.8 0 16-7.2 16-16V128.3c0-8.5-3.4-16.6-9.4-22.6L342.4 9.4c-6-6-14.2-9.4-22.7-9.4zm.3 32l96 96h-96V32zm96 448H96V32h192v112c0 8.8 7.2 16 16 16h112v320z"/><path d="M166 401.5c0-17 16.6-32.3 40.1-32.3 7 0 13.9 1.6 16.2 3.2V235.8h15.3l1.2 39.1v100.7c0 30.8-20.3 46.8-45.6 46.8-14.1 0-27.2-6.9-27.2-20.9zm56.4-165.7l103.6-16v42.1l-103.6 16v-42.1zM253.1 388c0-17 16.5-32.3 39.9-32.3 7 0 13.9 1.6 16.2 3.2V223.8l16.7-1.5v139.8c0 31-20.5 46.8-45.8 46.8-14.1 0-27-6.9-27-20.9z"/></svg>