<?xml version="1.0" encoding="utf-8"?>
<!-- Generator: Adobe Illustrator 22.0.1, SVG Export Plug-In . SVG Version: 6.00 Build 0)  -->
<svg version="1.1" id="Ebene_1" xmlns="http://www.w3.org/2000/svg" xmlns:xlink="http://www.w3.org/1999/xlink" x="0px" y="0px"
	 viewBox="0 0 512 512" style="enable-background:new 0 0 512 512;" xml:space="preserve">
<path d="M256,6.3C114.6,6.3,0,120.9,0,262.3c0,113.1,73.4,209.1,175.1,242.9c12.8,2.4,17.5-5.6,17.5-12.3c0-6.1-0.2-26.3-0.4-47.7
	C121,460.7,106,415,106,415c-11.6-29.6-28.4-37.5-28.4-37.5c-23.2-15.9,1.8-15.6,1.8-15.6c25.7,1.8,39.2,26.4,39.2,26.4
	c22.8,39.1,59.9,27.8,74.5,21.3c2.3-16.5,8.9-27.8,16.3-34.2C152.4,369,92.7,347,92.7,248.9c0-28,10-50.8,26.4-68.7
	c-2.7-6.4-11.4-32.5,2.5-67.7c0,0,21.5-6.9,70.4,26.2c20.4-5.7,42.3-8.5,64.1-8.6c21.7,0.1,43.7,2.9,64.1,8.6
	c48.9-33.1,70.3-26.2,70.3-26.2c13.9,35.3,5.2,61.3,2.5,67.7c16.4,17.9,26.4,40.8,26.4,68.7c0,98.3-59.9,120-116.9,126.3
	c9.2,8,17.4,23.5,17.4,47.4c0,34.3-0.3,61.8-0.3,70.3c0,6.8,4.6,14.8,17.6,12.3C438.7,471.3,512,375.4,512,262.3
	C512,120.9,397.4,6.3,256,6.3z"/>
</svg>
