<svg xmlns="http://www.w3.org/2000/svg" viewBox="0 0 512 512"><path d="M256 32C132.3 32 32 132.3 32 256c0 99 64.2 183 153.2 212.5 11.2 2.1 15.3-4.9 15.3-10.8 0-5.3-.2-23-.3-41.7-62.3 13.6-75.4-26.4-75.4-26.4-10.2-25.9-24.8-32.8-24.8-32.8-20.3-13.9 1.6-13.7 1.6-13.7 22.5 1.6 34.3 23.1 34.3 23.1 19.9 34.2 52.4 24.3 65.2 18.6 2-14.4 7.8-24.3 14.3-29.9-49.9-5.6-102.1-24.8-102.1-110.7 0-24.5 8.8-44.4 23.1-60.1-2.4-5.6-10-28.4 2.2-59.2 0 0 18.8-6 61.6 22.9 17.8-5 37-7.4 56.1-7.5 19 .1 38.2 2.5 56.1 7.5 42.8-29 61.5-22.9 61.5-22.9 12.2 30.9 4.6 53.6 2.2 59.2 14.4 15.7 23.1 35.7 23.1 60.1 0 86-52.4 105-102.3 110.5 8.1 7 15.2 20.6 15.2 41.5 0 30-.3 54.1-.3 61.5 0 6 4 13 15.4 10.8C415.9 438.9 480 355 480 256c0-123.7-100.3-224-224-224z"/></svg>