<?xml version="1.0" encoding="utf-8"?>
<!-- Generator: Adobe Illustrator 22.0.1, SVG Export Plug-In . SVG Version: 6.00 Build 0)  -->
<svg version="1.1" id="Ebene_1" xmlns="http://www.w3.org/2000/svg" xmlns:xlink="http://www.w3.org/1999/xlink" x="0px" y="0px"
	 viewBox="0 0 512 512" style="enable-background:new 0 0 512 512;" xml:space="preserve">
<path d="M162.9,232.7v55.9h92.4c-3.7,24-27.9,70.3-92.4,70.3c-55.6,0-101-46.1-101-102.9s45.4-102.9,101-102.9
	c31.7,0,52.8,13.5,64.9,25.1l44.2-42.6c-28.4-26.5-65.2-42.6-109.1-42.6C72.8,93.1,0,165.9,0,256.1s72.8,162.9,162.9,162.9
	c94,0,156.4-66.1,156.4-159.2c0-10.7-1.2-18.9-2.6-27L162.9,232.7L162.9,232.7z"/>
<path d="M512,228h-48v-48h-48v48h-48v48h48v48h48v-48h48V228z"/>
</svg>
