<svg xmlns="http://www.w3.org/2000/svg" viewBox="0 0 512 512"><path d="M256.1 46.1c68.4 0 76.5.3 103.5 1.5 25 1.1 38.5 5.3 47.5 8.8 11.9 4.6 20.5 10.2 29.4 19.1 9 9 14.5 17.5 19.2 29.4 3.5 9 7.7 22.6 8.8 47.5 1.2 27 1.5 35.1 1.5 103.4s-.3 76.5-1.5 103.4c-1.1 25-5.3 38.5-8.8 47.5-4.6 11.9-10.2 20.5-19.1 29.4-9 9-17.5 14.5-29.4 19.2-9 3.5-22.6 7.7-47.5 8.8-27 1.2-35.1 1.5-103.5 1.5s-76.5-.3-103.5-1.5c-25-1.1-38.5-5.3-47.5-8.8-11.9-4.6-20.5-10.2-29.4-19.1-9-9-14.5-17.5-19.2-29.4-3.5-9-7.7-22.6-8.8-47.5-1.2-27-1.5-35.1-1.5-103.4s.3-76.5 1.5-103.4c1.1-25 5.3-38.5 8.8-47.5 4.6-11.9 10.2-20.5 19.1-29.4 9-9 17.5-14.5 29.4-19.2 9-3.5 22.6-7.7 47.5-8.8 27-1.2 35.1-1.5 103.5-1.5zm0-46.1c-69.5 0-78.2.3-105.6 1.5-27.2 1.2-45.9 5.6-62.1 11.9C71.5 20 57.2 28.7 43 43 28.7 57.2 20 71.5 13.4 88.3c-6.3 16.3-10.7 34.9-11.9 62.1C.3 177.9 0 186.5 0 256.1s.3 78.2 1.5 105.5c1.2 27.2 5.6 45.9 11.9 62.1 6.6 16.9 15.3 31.2 29.6 45.4 14.2 14.2 28.5 23 45.3 29.5 16.3 6.3 34.9 10.7 62.1 11.9 27.3 1.2 36 1.5 105.6 1.5s78.3-.3 105.6-1.5c27.2-1.2 45.9-5.6 62.1-11.9 16.8-6.5 31.1-15.3 45.3-29.5 14.2-14.2 23-28.5 29.5-45.3 6.3-16.3 10.7-34.9 11.9-62.1 1.2-27.3 1.5-36 1.5-105.5s-.3-78.2-1.5-105.5c-1.2-27.2-5.6-45.9-11.9-62.1-6.3-17-15-31.3-29.3-45.5-14.2-14.2-28.5-23-45.3-29.5-16.3-6.4-34.9-10.8-62.1-12C334.4.3 325.7 0 256.1 0z"/><path d="M256.1 124.5c-72.6 0-131.6 58.9-131.6 131.5s58.9 131.5 131.6 131.5S387.7 328.6 387.7 256c0-72.5-58.9-131.5-131.6-131.5zm0 216.9c-47.1 0-85.3-38.2-85.3-85.3s38.2-85.3 85.3-85.3 85.3 38.2 85.3 85.3-38.1 85.3-85.3 85.3zm167.5-222.1c0 17-13.8 30.7-30.7 30.7s-30.7-13.7-30.7-30.7 13.8-30.7 30.7-30.7 30.7 13.8 30.7 30.7z"/></svg>