<svg xmlns="http://www.w3.org/2000/svg" viewBox="0 0 512 512"><path d="M256.1 72.3c59.9 0 67 .3 90.6 1.3 21.9 1 33.7 4.6 41.6 7.7 10.4 4 17.9 8.9 25.7 16.7 7.9 7.9 12.7 15.3 16.8 25.7 3.1 7.9 6.7 19.8 7.7 41.6 1.1 23.6 1.3 30.7 1.3 90.5s-.3 66.9-1.3 90.5c-1 21.9-4.6 33.7-7.7 41.6-4 10.4-8.9 17.9-16.7 25.7-7.9 7.9-15.3 12.7-25.7 16.8-7.9 3.1-19.8 6.7-41.6 7.7-23.6 1.1-30.7 1.3-90.6 1.3s-67-.3-90.6-1.3c-21.9-1-33.7-4.6-41.6-7.7-10.4-4-17.9-8.9-25.7-16.7-7.9-7.9-12.7-15.3-16.8-25.7-3.1-7.9-6.7-19.8-7.7-41.6-1.1-23.6-1.3-30.7-1.3-90.5s.3-66.9 1.3-90.5c1-21.9 4.6-33.7 7.7-41.6 4-10.4 8.9-17.9 16.7-25.7 7.9-7.9 15.3-12.7 25.7-16.8 7.9-3.1 19.8-6.7 41.6-7.7 23.7-1 30.8-1.3 90.6-1.3zm0-40.3c-60.8 0-68.4.3-92.4 1.3-23.8 1-40.2 4.9-54.3 10.4-14.8 5.8-27.3 13.4-39.7 25.9C57.2 82 49.6 94.5 43.8 109.2c-5.5 14.3-9.4 30.5-10.4 54.3-1.1 24.1-1.3 31.6-1.3 92.5s.3 68.4 1.3 92.3c1.1 23.8 4.9 40.2 10.4 54.3 5.8 14.8 13.4 27.3 25.9 39.7 12.4 12.4 24.9 20.1 39.6 25.8 14.3 5.5 30.5 9.4 54.3 10.4 23.9 1.1 31.5 1.3 92.4 1.3s68.5-.3 92.4-1.3c23.8-1.1 40.2-4.9 54.3-10.4 14.7-5.7 27.2-13.4 39.6-25.8 12.4-12.4 20.1-24.9 25.8-39.6 5.5-14.3 9.4-30.5 10.4-54.3 1.1-23.9 1.3-31.5 1.3-92.3s-.3-68.4-1.3-92.3c-1.1-23.8-4.9-40.2-10.4-54.3-5.5-14.9-13.1-27.4-25.6-39.8-12.4-12.4-24.9-20.1-39.6-25.8-14.3-5.6-30.5-9.5-54.3-10.5-23.9-1.1-31.6-1.4-92.5-1.4z"/><path d="M256.1 140.9C192.6 140.9 141 192.5 141 256s51.5 115.1 115.2 115.1S371.3 319.5 371.3 256c0-63.4-51.5-115.1-115.2-115.1zm0 189.8c-41.2 0-74.7-33.4-74.7-74.6s33.4-74.6 74.7-74.6 74.7 33.4 74.7 74.6-33.4 74.6-74.7 74.6zm146.6-194.3c0 14.9-12.1 26.9-26.9 26.9-14.8 0-26.9-12-26.9-26.9s12.1-26.9 26.9-26.9c14.8 0 26.9 12.1 26.9 26.9z"/></svg>