<svg xmlns="http://www.w3.org/2000/svg" viewBox="0 0 512 512"><g><path d="M256 32C132.288 32 32 132.288 32 256s100.288 224 224 224 224-100.288 224-224S379.712 32 256 32m103.828 152.338c-3.371 35.42-17.957 121.374-25.378 161.045-3.14 16.786-9.323 22.414-15.308 22.965-13.008 1.197-22.886-8.597-35.485-16.855-19.715-12.923-30.853-20.968-49.989-33.579-22.116-14.574-7.779-22.584 4.825-35.675 3.298-3.426 60.612-55.557 61.722-60.287.139-.591.268-2.796-1.042-3.96s-3.243-.766-4.638-.449q-2.966.673-94.484 62.451-13.41 9.208-24.292 8.973c-7.998-.173-23.383-4.522-34.82-8.24-14.028-4.56-25.177-6.971-24.206-14.715q.758-6.05 16.664-12.376 97.95-42.675 130.632-56.269c62.207-25.874 75.133-30.369 83.558-30.517 1.853-.033 5.996.427 8.68 2.604 2.266 1.839 2.89 4.323 3.188 6.066s.67 5.715.375 8.818z"/></g></svg>