<svg xmlns="http://www.w3.org/2000/svg" viewBox="0 0 512 512"><path d="M172.8 438.4c169.6 0 262.4-140.8 262.4-262.4v-12.8c19.2-12.8 32-28.8 44.8-48-16 6.4-35.2 12.8-51.2 16 19.2-12.8 32-28.8 41.6-51.2-19.2 9.6-38.4 19.2-57.6 22.4-16-19.2-41.6-28.8-67.2-28.8-51.2 0-92.8 41.6-92.8 92.8 0 6.4 0 12.8 3.2 22.4-80-6.4-147.2-41.6-192-99.2-9.6 16-12.8 32-12.8 48 0 32 16 60.8 41.6 76.8-16 0-28.8-3.2-41.6-12.8 0 44.8 32 83.2 73.6 89.6-9.6 3.2-16 6.4-25.6 6.4-6.4 0-12.8 0-16-3.2 12.8 35.2 44.8 64 86.4 64-32 25.6-70.4 38.4-115.2 38.4H32c41.6 25.6 89.6 41.6 140.8 41.6"/></svg>