<svg xmlns="http://www.w3.org/2000/svg" viewBox="0 0 512 512"><path d="M512 97.2c-18.8 8.4-39.1 14-60.3 16.5 21.7-13 38.3-33.6 46.2-58.1-20.3 12-42.8 20.8-66.7 25.5C412 60.7 384.7 48 354.5 48c-58 0-105 47-105 105 0 8.2.9 16.2 2.7 23.9-87.3-4.4-164.7-46.2-216.5-109.8-9 15.5-14.2 33.6-14.2 52.8 0 36.4 18.5 68.6 46.7 87.4-17.2-.5-33.4-5.3-47.6-13.1v1.3c0 50.9 36.2 93.4 84.3 103-8.8 2.4-18.1 3.7-27.7 3.7-6.8 0-13.3-.7-19.8-1.9 13.4 41.7 52.2 72.1 98.1 73-36 28.2-81.2 45-130.5 45-8.5 0-16.8-.5-25.1-1.5C46.6 446.7 101.8 464 161.1 464c193.2 0 298.8-160.1 298.8-298.8 0-4.6-.1-9.1-.3-13.6 20.5-14.8 38.3-33.3 52.4-54.4z"/></svg>