<svg xmlns="http://www.w3.org/2000/svg" viewBox="0 0 512 512"><path d="M479.8 151.8c-2 43.6-32.5 103.3-91.4 179.1-60.9 79.2-112.4 118.8-154.6 118.8-26.1 0-48.2-24.1-66.2-72.3-12.1-44.2-24.1-88.4-36.1-132.6-13.4-48.2-27.7-72.3-43.1-72.3-3.3 0-15.1 7.1-35.2 21.1L32 166.5c22.1-19.4 43.9-38.9 65.4-58.3C126.9 82.8 149 69.4 163.8 68c34.8-3.3 56.4 20.5 64.4 71.5 8.7 55 14.7 89.3 18.1 102.6 10.1 45.7 21.1 68.5 33.2 68.5 9.4 0 23.5-14.8 42.3-44.5 18.7-29.6 28.8-52.2 30.2-67.6 2.7-25.6-7.4-38.4-30.2-38.4-10.8 0-21.8 2.5-33.2 7.4 22.1-72.1 64.1-107.1 126.2-105.1 45.9 1.2 67.7 31.1 65 89.4z"/></svg>