<svg xmlns="http://www.w3.org/2000/svg" viewBox="0 0 512 512"><path d="M511.7 136.9c-2.3 49.8-37.1 118.1-104.4 204.7-69.6 90.4-128.5 135.7-176.7 135.7-29.8 0-55.1-27.5-75.7-82.6-13.8-50.5-27.5-101-41.3-151.5-15.3-55.1-31.7-82.6-49.3-82.6-3.8 0-17.2 8.1-40.2 24.1L0 153.7c25.3-22.2 50.2-44.4 74.7-66.6 33.7-29.1 59-44.4 75.9-46 39.8-3.8 64.4 23.4 73.6 81.7 9.9 62.9 16.8 102 20.7 117.3 11.5 52.2 24.1 78.3 37.9 78.3 10.7 0 26.8-16.9 48.3-50.8 21.4-33.8 32.9-59.6 34.5-77.3 3.1-29.2-8.4-43.9-34.5-43.9-12.3 0-24.9 2.8-37.9 8.4 25.2-82.4 73.2-122.4 144.2-120.1 52.5 1.4 77.4 35.5 74.3 102.2z"/></svg>