<svg xmlns="http://www.w3.org/2000/svg" viewBox="0 0 512 512"><path d="M469.7 141c3.1-10.4 0-18-14.8-18h-49c-12.5 0-18.2 6.6-21.3 13.9 0 0-24.9 60.8-60.2 100.2-11.4 11.4-16.6 15.1-22.8 15.1-3.1 0-7.8-3.6-7.8-14V141c0-12.5-3.5-18-13.8-18h-77c-7.8 0-12.5 5.8-12.5 11.3 0 11.8 17.7 14.5 19.5 47.8v72.2c0 15.8-2.9 18.7-9.1 18.7-16.6 0-57-61-81-130.8-4.7-13.6-9.4-19.1-21.9-19.1H49c-14 0-16.8 6.6-16.8 13.9 0 13 16.6 77.4 77.4 162.5 40.5 58.2 97.6 89.7 149.5 89.7 31.2 0 35-7 35-19.1v-44c0-14 2.9-16.8 12.8-16.8 7.3 0 19.7 3.6 48.8 31.7 33.2 33.2 38.7 48.1 57.4 48.1h49c14 0 21-7 17-20.8-4.4-13.8-20.3-33.7-41.3-57.4-11.4-13.5-28.6-28-33.7-35.3-7.3-9.3-5.2-13.5 0-21.8-.3-.1 59.4-84.2 65.6-112.8z" fill-rule="evenodd" clip-rule="evenodd"/></svg>