<?xml version="1.0" encoding="utf-8"?>
<!-- Generator: Adobe Illustrator 23.0.2, SVG Export Plug-In . SVG Version: 6.00 Build 0)  -->
<svg version="1.1" id="Ebene_1" xmlns="http://www.w3.org/2000/svg" xmlns:xlink="http://www.w3.org/1999/xlink" x="0px" y="0px"
	 viewBox="0 0 512 512" enable-background="new 0 0 512 512" xml:space="preserve">
<path fill-rule="evenodd" clip-rule="evenodd" d="M500.25,124.55c3.56-11.87,0-20.59-16.94-20.59H427.3
	c-14.24,0-20.81,7.53-24.37,15.84c0,0-28.48,69.43-68.84,114.53c-13.05,13.05-18.99,17.21-26.11,17.21c-3.56,0-8.9-4.15-8.9-16.02
	V124.55c0-14.24-3.95-20.59-15.82-20.59h-88.02c-8.9,0-14.25,6.61-14.25,12.87c0,13.5,20.18,16.61,22.25,54.59v82.49
	c0,18.08-3.27,21.36-10.39,21.36c-18.99,0-65.18-69.74-92.57-149.54c-5.37-15.51-10.75-21.78-25.07-21.78H19.2
	c-16,0-19.2,7.53-19.2,15.84c0,14.84,18.99,88.42,88.42,185.74c46.29,66.46,111.5,102.49,170.84,102.49c35.6,0,40.01-8,40.01-21.79
	v-50.23c0-16,3.37-19.2,14.65-19.2c8.31,0,22.55,4.15,55.78,36.2c37.98,37.98,44.24,55.02,65.6,55.02h56.01
	c16,0,24.01-8,19.39-23.79c-5.05-15.74-23.18-38.57-47.24-65.64c-13.06-15.43-32.64-32.04-38.57-40.35
	c-8.31-10.68-5.93-15.43,0-24.92C424.89,253.33,493.13,157.19,500.25,124.55z"/>
</svg>
