<svg xmlns="http://www.w3.org/2000/svg" viewBox="0 0 512 512"><path fill-rule="evenodd" clip-rule="evenodd" d="M500.25 124.55c3.56-11.87 0-20.59-16.94-20.59H427.3c-14.24 0-20.81 7.53-24.37 15.84 0 0-28.48 69.43-68.84 114.53-13.05 13.05-18.99 17.21-26.11 17.21-3.56 0-8.9-4.15-8.9-16.02V124.55c0-14.24-3.95-20.59-15.82-20.59h-88.02c-8.9 0-14.25 6.61-14.25 12.87 0 13.5 20.18 16.61 22.25 54.59v82.49c0 18.08-3.27 21.36-10.39 21.36-18.99 0-65.18-69.74-92.57-149.54-5.37-15.51-10.75-21.78-25.07-21.78H19.2c-16 0-19.2 7.53-19.2 15.84 0 14.84 18.99 88.42 88.42 185.74 46.29 66.46 111.5 102.49 170.84 102.49 35.6 0 40.01-8 40.01-21.79V336c0-16 3.37-19.2 14.65-19.2 8.31 0 22.55 4.15 55.78 36.2 37.98 37.98 44.24 55.02 65.6 55.02h56.01c16 0 24.01-8 19.39-23.79-5.05-15.74-23.18-38.57-47.24-65.64-13.06-15.43-32.64-32.04-38.57-40.35-8.31-10.68-5.93-15.43 0-24.92 0 .01 68.24-96.13 75.36-128.77z"/></svg>