<svg xmlns="http://www.w3.org/2000/svg" viewBox="0 0 512 512"><path fill-rule="evenodd" d="M433.147 77.802C386.151 30.746 323.647 4.818 257.05 4.794 119.82 4.794 8.137 116.467 8.089 253.732c-.024 43.88 11.448 86.711 33.233 124.457L6 507.206l131.977-34.618c36.36 19.84 77.305 30.284 118.966 30.297h.107c137.206 0 248.903-111.685 248.95-248.95.024-66.525-25.844-129.065-72.853-176.121zM257.05 460.842h-.083c-37.125-.011-73.545-9.992-105.321-28.84l-7.557-4.488-78.32 20.543 20.902-76.363-4.918-7.83c-20.71-32.946-31.657-71.026-31.633-110.12.047-114.083 92.87-206.907 207.015-206.907 55.268.024 107.22 21.57 146.289 60.689 39.07 39.106 60.569 91.105 60.545 146.385-.048 114.096-92.87 206.92-206.919 206.92zm113.499-154.968c-6.22-3.116-36.802-18.157-42.509-20.234-5.705-2.077-9.847-3.115-13.99 3.116-4.142 6.231-16.067 20.245-19.696 24.387-3.629 4.154-7.258 4.668-13.478 1.551-6.218-3.115-26.26-9.68-50.027-30.869-18.49-16.497-30.978-36.861-34.606-43.093-3.63-6.23-.382-9.597 2.72-12.689 2.794-2.793 6.22-7.27 9.336-10.899s4.143-6.23 6.219-10.373c2.078-4.154 1.039-7.782-.512-10.899-1.553-3.115-13.99-33.734-19.184-46.184-5.05-12.128-10.182-10.481-13.99-10.684-3.63-.18-7.77-.215-11.925-.215s-10.888 1.552-16.593 7.783c-5.706 6.23-21.774 21.284-21.774 51.89s22.288 60.2 25.403 64.355c3.115 4.154 43.868 66.979 106.264 93.933 14.839 6.41 26.43 10.242 35.465 13.107 14.899 4.739 28.459 4.07 39.178 2.47 11.95-1.79 36.803-15.052 41.983-29.58s5.18-26.99 3.63-29.58c-1.552-2.59-5.706-4.154-11.925-7.27z"/></svg>