<?xml version="1.0" encoding="utf-8"?>
<!-- Generator: Adobe Illustrator 22.0.1, SVG Export Plug-In . SVG Version: 6.00 Build 0)  -->
<svg version="1.1" id="Ebene_1" xmlns="http://www.w3.org/2000/svg" xmlns:xlink="http://www.w3.org/1999/xlink" x="0px" y="0px"
	 viewBox="0 0 512 512" style="enable-background:new 0 0 512 512;" xml:space="preserve">
<path d="M77.8,101.1c-4.4,0-8.2,1.6-10.1,4.6c-1.9,3.2-1.6,7.2,0.4,11.3l49.9,86.4c0.1,0.2,0.1,0.3,0,0.4L39.6,342.3
	c-2,4.1-1.9,8.2,0,11.3c1.9,3,5.2,5,9.6,5H123c11,0,16.4-7.5,20.1-14.3c0,0,76.7-135.7,79.7-141c-0.3-0.5-50.8-88.5-50.8-88.5
	c-3.7-6.5-9.2-13.8-20.6-13.8L77.8,101.1L77.8,101.1z"/>
<path d="M388,0c-11,0-15.8,6.9-19.8,14.1c0,0-159.1,282-164.3,291.3c0.3,0.5,104.9,192.5,104.9,192.5c3.7,6.5,9.3,14.1,20.6,14.1
	h73.8c4.4,0,7.9-1.7,9.8-4.7c2-3.2,1.9-7.3-0.2-11.4l-104-190.3c-0.1-0.2-0.1-0.3,0-0.5l163.5-289c2-4.1,2.1-8.2,0.2-11.4
	c-1.9-3-5.4-4.7-9.8-4.7L388,0L388,0z"/>
</svg>
