<svg xmlns="http://www.w3.org/2000/svg" viewBox="0 0 512 512"><path d="M100.1 120.5c-3.8 0-7.2 1.4-8.8 4-1.7 2.8-1.4 6.3.4 9.9l43.7 75.6c.1.2.1.3 0 .3L66.6 331.5c-1.8 3.6-1.7 7.2 0 9.9 1.7 2.6 4.6 4.4 8.4 4.4h64.6c9.6 0 14.3-6.6 17.6-12.5 0 0 67.1-118.7 69.7-123.4-.3-.4-44.5-77.4-44.5-77.4-3.2-5.7-8-12.1-18-12.1l-64.3.1zM371.5 32c-9.6 0-13.8 6-17.3 12.3 0 0-139.2 246.8-143.8 254.9.3.4 91.8 168.4 91.8 168.4 3.2 5.7 8.1 12.3 18 12.3h64.6c3.9 0 6.9-1.5 8.6-4.1 1.8-2.8 1.7-6.4-.2-10l-91-166.5c-.1-.2-.1-.3 0-.4L445.3 46.1c1.8-3.6 1.8-7.2.2-10-1.7-2.6-4.7-4.1-8.6-4.1h-65.4z"/></svg>