<?xml version="1.0" encoding="utf-8"?>
<!-- Generator: Adobe Illustrator 22.0.1, SVG Export Plug-In . SVG Version: 6.00 Build 0)  -->
<svg version="1.1" id="Ebene_1" xmlns="http://www.w3.org/2000/svg" xmlns:xlink="http://www.w3.org/1999/xlink" x="0px" y="0px"
	 viewBox="0 0 512 512" style="enable-background:new 0 0 512 512;" xml:space="preserve">
<path d="M506.8,153.6c0,0-5-35.3-20.4-50.8c-19.5-20.4-41.3-20.5-51.3-21.7C363.5,76,256,76,256,76h-0.2c0,0-107.5,0-179.1,5.2
	c-10,1.2-31.8,1.3-51.3,21.7C10,118.4,5.1,153.6,5.1,153.6S0,195.1,0,236.5v38.8c0,41.4,5.1,82.9,5.1,82.9s5,35.3,20.3,50.8
	c19.5,20.4,45.1,19.7,56.5,21.9c41,3.9,174.1,5.1,174.1,5.1s107.6-0.2,179.2-5.3c10-1.2,31.8-1.3,51.3-21.7
	c15.4-15.5,20.4-50.8,20.4-50.8s5.1-41.4,5.1-82.9v-38.8C511.9,195.2,506.8,153.7,506.8,153.6L506.8,153.6z M203,322.4V178.5
	l138.3,72.2C341.3,250.8,203,322.4,203,322.4z"/>
</svg>
