<svg id="Ebene_1" data-name="Ebene 1" xmlns="http://www.w3.org/2000/svg" viewBox="0 0 30 30"><defs><style>.cls-1{fill:#ff8700;}.cls-2{fill:#fff;}</style></defs><title>backend-logo</title><path class="cls-1" d="M21,15.1c.44,0,1.23-.09,2-.1,1.35-1.37,3-5.24,3-8.55,0-2-3.58-2.6-7.16-2.6-1.5,0-2.08.29-2.08,1.79C16.76,8.45,18.9,13.62,21,15.1Z"/><path class="cls-1" d="M12,17.13V15.28l1.85-.14s1-.08,1.83-.11c-1.65-3.09-3-7-3-8.86,0-1.21.29-1.62.69-2-3.46.4-7.62,1.68-8.95,3.29A3.23,3.23,0,0,0,4,9.34C4,13.9,8.32,23.6,12,25.72Z"/><path class="cls-2" d="M23.24,22.85h-.71v3H20.82V17.13s1.26-.12,2.3-.12C25.38,17,26,18,26,19.91,26,22.1,25.05,22.85,23.24,22.85Zm.1-4.35a3.42,3.42,0,0,0-.81.07v2.81h.79c.59,0,.95-.54.95-1.38S24.05,18.5,23.34,18.5Z"/><path class="cls-2" d="M16.47,26c-1,0-2.47-.11-2.47-.11V17.13S15.45,17,16.27,17c2,0,2.76.7,2.76,2.37,0,1.19-.57,1.62-1.11,1.77.66.07,1.35.67,1.35,2C19.26,25.5,18.05,26,16.47,26Zm.07-7.47a8.35,8.35,0,0,0-.84,0v2h.66c.7,0,1-.31,1-1.07S17,18.5,16.54,18.5ZM16.46,22h-.75v2.47s.44,0,.9,0c.69,0,.92-.49.92-1.28C17.53,22.24,17,22,16.46,22Z"/></svg>