<svg xmlns="http://www.w3.org/2000/svg" viewBox="0 0 280 100"><path d="M96.77 79.41c-1.81 0-3.66-.15-3.66-.15V64.17s2-.15 3.41-.15c2.59 0 4.14 1.06 4.14 3.94a3.35 3.35 0 01-1.72 3.25c.86.3 2.09 1.08 2.09 3.49-.03 3.61-1.67 4.71-4.26 4.71zm0-13.84a11.71 11.71 0 00-1.77.13v4.85h1.79c.86 0 2-.15 2-2.44-.01-1.78-.4-2.54-2.02-2.54zM97 72.1h-2v5.63s1.08.11 2 .11c1.16 0 2.13-.45 2.13-3C99.1 73 98.56 72.1 97 72.1zm11.22 7.31c-3.56 0-4.5-2.59-4.5-7.87 0-5.06.95-7.52 4.5-7.52s4.5 2.46 4.5 7.52c0 5.28-.95 7.87-4.5 7.87zm0-13.82c-1.94 0-2.59 1.31-2.59 6.06s.65 6.19 2.59 6.19 2.59-1.55 2.59-6.19-.65-6.05-2.59-6.05zM120 79.41c-3.56 0-4.5-2.59-4.5-7.87 0-5.06.95-7.52 4.5-7.52s4.5 2.46 4.5 7.52c.03 5.28-.92 7.87-4.5 7.87zm0-13.82c-1.94 0-2.59 1.31-2.59 6.06s.65 6.19 2.59 6.19 2.59-1.55 2.59-6.19S122 65.6 120 65.6zm11 .22v13.45h-1.88V65.81h-3.32v-1.64h8.51v1.64zm7.28 13.6a11.38 11.38 0 01-2.5-.32v-1.58a10.71 10.71 0 002.72.32c1.49 0 2.13-.86 2.13-2.65 0-2.09-.58-2.69-1.75-2.93-2.39-.5-3.3-1.53-3.3-4.07 0-3.08 1.77-4.16 4.25-4.16a9.72 9.72 0 012.28.32v1.57a12.23 12.23 0 00-2.5-.32 2.06 2.06 0 00-2.11 2.35c0 1.75.3 2.24 1.66 2.52 2.07.43 3.38 1.34 3.38 4.5.01 3.59-1.69 4.45-4.26 4.45zm10.93-13.6v13.45h-1.88V65.81H144v-1.64h8.51v1.64zm11.14 6.9l3 6.55h-2.07l-2.8-6.26h-1.92v6.25h-1.88V64.17s1.85-.15 3.64-.15c3.28 0 4.18 1.75 4.18 4.4.01 2.22-.62 3.68-2.15 4.29zm-1.77-7.13a14.72 14.72 0 00-2 .13v5.73h2c1.21 0 2-.52 2-2.87.01-2.09-.46-3-1.99-3zm13.69 13.68l-.82-3.81h-4.2l-.84 3.81h-1.92l3.64-15.09h2.48l3.58 15.09zm-2.93-13.66l-1.75 8.23h3.51zm10.91 7.97h-1.81v5.69h-1.88V64.17s1.85-.15 3.64-.15c3.28 0 4.22 2 4.22 4.68.01 3.3-1.11 4.87-4.17 4.87zm.22-8a14.72 14.72 0 00-2 .13V72h2c1.21 0 2-.8 2-3.15.04-2.15-.47-3.28-2.01-3.28zm16.16 8h-1.81v5.69h-1.88V64.17s1.85-.15 3.64-.15c3.28 0 4.22 2 4.22 4.68.01 3.3-1.11 4.87-4.17 4.87zm.22-8a14.72 14.72 0 00-2 .13V72h2c1.21 0 2-.8 2-3.15.04-2.15-.48-3.28-2.01-3.28zm12.49 13.69l-.82-3.81h-4.2l-.84 3.81h-1.92l3.64-15.09h2.48l3.58 15.09zm-2.93-13.66l-1.75 8.23h3.51zm13.1 13.4a11.9 11.9 0 01-2.39.37c-3.08 0-4.35-1.51-4.35-7.93s1.46-7.44 4.61-7.44a9.42 9.42 0 012.13.3v1.59a11.6 11.6 0 00-2.52-.28c-1.57 0-2.31.78-2.31 6 0 5.43.78 6.16 2.33 6.16a12.23 12.23 0 002.5-.32zm8.82.26L225 72.34l-.78 1.29v5.63h-1.88V64.17h1.88v6.62l4-6.62h2l-4.1 6.6 4.31 8.49zm11.08 0l-.82-3.81h-4.2l-.84 3.81h-1.92l3.64-15.09h2.48l3.58 15.09zm-2.93-13.66l-1.75 8.23h3.51zM250.7 79a17.88 17.88 0 01-3.38.37c-3.3 0-4.48-1.51-4.48-7.93s1.59-7.46 5-7.46a12.94 12.94 0 012.41.3v1.55a15.27 15.27 0 00-2.8-.28c-1.85 0-2.69.82-2.69 6 0 5.43.75 6.21 2.46 6.21a12.15 12.15 0 001.7-.15V72.9H247v-1.57h3.71zm3.3.26V64.17h7.07v1.57h-5.19v4.94h4.66v1.57h-4.66v5.43h5.19v1.57z" fill="#999"/><path d="M104 32.23v22.53h-5.29V32.23h-5.6v-4.71h16.54v4.71zm19 10.54v12h-5.45v-12l-7.16-15.25h5.76L120.5 38l4.32-10.51h5.49zm18 2.61h-2.22v9.38h-5.33V27.52s3.93-.39 7.16-.39c7 0 9 3.27 9 9.07-.04 6.8-3 9.18-8.61 9.18zm.31-13.58a10.65 10.65 0 00-2.53.23v8.75h2.45c1.83 0 3-1.67 3-4.32-.07-3.03-.73-4.66-2.95-4.66zM162 55.15c-7.7 0-9.1-4.79-9.1-14.32 0-9.14 1.63-13.7 9.1-13.7s9.1 4.55 9.1 13.7c-.01 9.53-1.41 14.32-9.1 14.32zm0-23.81c-2.76 0-3.7 1.71-3.7 9.69s.93 9.92 3.7 9.92 3.7-2.06 3.7-9.92-.95-9.7-3.7-9.7zm18.86 23.77a37 37 0 01-5.49-.66v-4.32a26.67 26.67 0 004.86.66c1.87 0 3.07-1.32 3.07-3.74 0-3-.78-4.32-3.15-4.32h-3v-4.24h2.61c2.22 0 3.11-1.36 3.11-3.7s-.78-3.31-2.72-3.31a22.67 22.67 0 00-4.59.66v-4.31a30.23 30.23 0 015.1-.66c5 0 7.39 1.79 7.39 7.74 0 2.33-.78 4.75-2.92 5.49 2.14.43 3.39 2.41 3.39 6.26 0 6.54-3.34 8.45-7.66 8.45zm36.65-.66a26.3 26.3 0 01-4.71.58c-6 0-8.64-2.49-8.64-14.32s3.19-13.46 9.14-13.46a23.55 23.55 0 014.2.54v4.71a23.25 23.25 0 00-4.71-.58c-2.26 0-3.23 1-3.23 9.07s.86 9.38 3.23 9.38a24.2 24.2 0 004.71-.58zm19.93.31V31.45l-3.35 14.16h-4l-3.5-14.16v23.31h-4.79V27.52h8.09L232.18 38l2.33-10.47h7.74v27.23zm14.28.24a26.43 26.43 0 01-5.53-.58v-4.6a25.8 25.8 0 005.14.62c2.41 0 4-.9 4-3.39 0-2.84-1.21-3.74-3.31-4.16-4.32-.9-6-3.27-6-7.82 0-5.76 3.31-7.82 9.26-7.82a22.78 22.78 0 014.83.58v4.59a29.34 29.34 0 00-5.21-.58c-2.22 0-3.46.82-3.46 2.8 0 2.49.62 3 3.07 3.54 3.74.78 6.26 2.69 6.26 8.48-.06 7.34-3.88 8.34-9.05 8.34z" fill="#333"/><path d="M64.36 61.51a8.36 8.36 0 01-2.57.37c-7.73 0-19.09-27-19.09-36 0-3.31.78-4.42 1.89-5.36-9.46 1.1-20.82 4.58-24.45 9a8.83 8.83 0 00-1.26 5c0 14 15 45.89 25.55 45.89 4.89 0 13.14-8 19.92-18.93m-4.92-41.92c9.78 0 19.56 1.58 19.56 7.1 0 11.2-7.1 24.77-10.73 24.77-6.47 0-14.51-18-14.51-27 0-4.1 1.58-4.89 5.68-4.89" fill="#ff8700"/></svg>