<svg id="Ebene_1" data-name="Ebene 1" xmlns="http://www.w3.org/2000/svg" viewBox="0 0 280 100"><defs><style>.cls-1{fill:#999;}.cls-2{fill:#333;}.cls-3{fill:#ff8700;}</style></defs><title>Zeichenfläche 1</title><path class="cls-1" d="M96.77,79.41c-1.81,0-3.66-.15-3.66-.15V64.17s2-.15,3.41-.15c2.59,0,4.14,1.06,4.14,3.94a3.35,3.35,0,0,1-1.72,3.25c.86.3,2.09,1.08,2.09,3.49C101,78.31,99.36,79.41,96.77,79.41Zm0-13.84A11.71,11.71,0,0,0,95,65.7v4.85h1.79c.86,0,2-.15,2-2.44C98.78,66.33,98.39,65.57,96.77,65.57ZM97,72.1H95v5.63s1.08.11,2,.11c1.16,0,2.13-.45,2.13-3C99.1,73,98.56,72.1,97,72.1Z"/><path class="cls-1" d="M108.22,79.41c-3.56,0-4.5-2.59-4.5-7.87,0-5.06.95-7.52,4.5-7.52s4.5,2.46,4.5,7.52C112.72,76.82,111.77,79.41,108.22,79.41Zm0-13.82c-1.94,0-2.59,1.31-2.59,6.06s.65,6.19,2.59,6.19,2.59-1.55,2.59-6.19S110.16,65.6,108.22,65.6Z"/><path class="cls-1" d="M120,79.41c-3.56,0-4.5-2.59-4.5-7.87,0-5.06.95-7.52,4.5-7.52s4.5,2.46,4.5,7.52C124.53,76.82,123.58,79.41,120,79.41Zm0-13.82c-1.94,0-2.59,1.31-2.59,6.06s.65,6.19,2.59,6.19,2.59-1.55,2.59-6.19S122,65.6,120,65.6Z"/><path class="cls-1" d="M131,65.81V79.26h-1.88V65.81h-3.32V64.17h8.51v1.64Z"/><path class="cls-1" d="M138.28,79.41a11.38,11.38,0,0,1-2.5-.32V77.51a10.71,10.71,0,0,0,2.72.32c1.49,0,2.13-.86,2.13-2.65,0-2.09-.58-2.69-1.75-2.93-2.39-.5-3.3-1.53-3.3-4.07,0-3.08,1.77-4.16,4.25-4.16a9.72,9.72,0,0,1,2.28.32v1.57a12.23,12.23,0,0,0-2.5-.32,2.06,2.06,0,0,0-2.11,2.35c0,1.75.3,2.24,1.66,2.52,2.07.43,3.38,1.34,3.38,4.5C142.55,78.55,140.85,79.41,138.28,79.41Z"/><path class="cls-1" d="M149.21,65.81V79.26h-1.88V65.81H144V64.17h8.51v1.64Z"/><path class="cls-1" d="M160.35,72.71l3,6.55h-2.07L158.48,73h-1.92v6.25h-1.88V64.17s1.85-.15,3.64-.15c3.28,0,4.18,1.75,4.18,4.4C162.51,70.64,161.88,72.1,160.35,72.71Zm-1.77-7.13a14.72,14.72,0,0,0-2,.13v5.73h2c1.21,0,2-.52,2-2.87C160.59,66.48,160.12,65.57,158.59,65.57Z"/><path class="cls-1" d="M172.27,79.26l-.82-3.81h-4.2l-.84,3.81h-1.92l3.64-15.09h2.48l3.58,15.09ZM169.34,65.6l-1.75,8.23h3.51Z"/><path class="cls-1" d="M180.25,73.57h-1.81v5.69h-1.88V64.17s1.85-.15,3.64-.15c3.28,0,4.22,2,4.22,4.68C184.43,72,183.31,73.57,180.25,73.57Zm.22-8a14.72,14.72,0,0,0-2,.13V72h2c1.21,0,2-.8,2-3.15C182.51,66.7,182,65.57,180.46,65.57Z"/><path class="cls-1" d="M196.63,73.57h-1.81v5.69h-1.88V64.17s1.85-.15,3.64-.15c3.28,0,4.22,2,4.22,4.68C200.81,72,199.69,73.57,196.63,73.57Zm.22-8a14.72,14.72,0,0,0-2,.13V72h2c1.21,0,2-.8,2-3.15C198.89,66.7,198.37,65.57,196.84,65.57Z"/><path class="cls-1" d="M209.34,79.26l-.82-3.81h-4.2l-.84,3.81h-1.92l3.64-15.09h2.48l3.58,15.09ZM206.41,65.6l-1.75,8.23h3.51Z"/><path class="cls-1" d="M219.51,79a11.9,11.9,0,0,1-2.39.37c-3.08,0-4.35-1.51-4.35-7.93S214.23,64,217.38,64a9.42,9.42,0,0,1,2.13.3v1.59a11.6,11.6,0,0,0-2.52-.28c-1.57,0-2.31.78-2.31,6,0,5.43.78,6.16,2.33,6.16a12.23,12.23,0,0,0,2.5-.32Z"/><path class="cls-1" d="M228.33,79.26,225,72.34l-.78,1.29v5.63h-1.88V64.17h1.88v6.62l4-6.62h2l-4.1,6.6,4.31,8.49Z"/><path class="cls-1" d="M239.41,79.26l-.82-3.81h-4.2l-.84,3.81h-1.92l3.64-15.09h2.48l3.58,15.09ZM236.48,65.6l-1.75,8.23h3.51Z"/><path class="cls-1" d="M250.7,79a17.88,17.88,0,0,1-3.38.37c-3.3,0-4.48-1.51-4.48-7.93s1.59-7.46,5-7.46a12.94,12.94,0,0,1,2.41.3v1.55a15.27,15.27,0,0,0-2.8-.28c-1.85,0-2.69.82-2.69,6,0,5.43.75,6.21,2.46,6.21a12.15,12.15,0,0,0,1.7-.15V72.9H247V71.33h3.71Z"/><path class="cls-1" d="M254,79.26V64.17h7.07v1.57h-5.19v4.94h4.66v1.57h-4.66v5.43h5.19v1.57Z"/><path class="cls-2" d="M104,32.23V54.76H98.71V32.23h-5.6V27.52h16.54v4.71Z"/><path class="cls-2" d="M123,42.77v12h-5.45v-12l-7.16-15.25h5.76L120.5,38l4.32-10.51h5.49Z"/><path class="cls-2" d="M141,45.38h-2.22v9.38h-5.33V27.52s3.93-.39,7.16-.39c7,0,9,3.27,9,9.07C149.57,43,146.61,45.38,141,45.38Zm.31-13.58a10.65,10.65,0,0,0-2.53.23v8.75h2.45c1.83,0,3-1.67,3-4.32C144.16,33.43,143.5,31.8,141.28,31.8Z"/><path class="cls-2" d="M162,55.15c-7.7,0-9.1-4.79-9.1-14.32,0-9.14,1.63-13.7,9.1-13.7s9.1,4.55,9.1,13.7C171.09,50.36,169.69,55.15,162,55.15Zm0-23.81c-2.76,0-3.7,1.71-3.7,9.69s.93,9.92,3.7,9.92,3.7-2.06,3.7-9.92S164.75,31.33,162,31.33Z"/><path class="cls-2" d="M180.86,55.11a37,37,0,0,1-5.49-.66V50.13a26.67,26.67,0,0,0,4.86.66c1.87,0,3.07-1.32,3.07-3.74,0-3-.78-4.32-3.15-4.32h-3V38.49h2.61c2.22,0,3.11-1.36,3.11-3.7s-.78-3.31-2.72-3.31a22.67,22.67,0,0,0-4.59.66V27.83a30.23,30.23,0,0,1,5.1-.66c5,0,7.39,1.79,7.39,7.74,0,2.33-.78,4.75-2.92,5.49,2.14.43,3.39,2.41,3.39,6.26C188.52,53.2,185.18,55.11,180.86,55.11Z"/><path class="cls-2" d="M217.51,54.45a26.3,26.3,0,0,1-4.71.58c-6,0-8.64-2.49-8.64-14.32s3.19-13.46,9.14-13.46a23.55,23.55,0,0,1,4.2.54V32.5a23.25,23.25,0,0,0-4.71-.58c-2.26,0-3.23,1-3.23,9.07s.86,9.38,3.23,9.38a24.2,24.2,0,0,0,4.71-.58Z"/><path class="cls-2" d="M237.44,54.76V31.45l-3.35,14.16h-4l-3.5-14.16V54.76H221.8V27.52h8.09L232.18,38l2.33-10.47h7.74V54.76Z"/><path class="cls-2" d="M251.72,55a26.43,26.43,0,0,1-5.53-.58V49.82a25.8,25.8,0,0,0,5.14.62c2.41,0,4-.9,4-3.39,0-2.84-1.21-3.74-3.31-4.16-4.32-.9-6-3.27-6-7.82,0-5.76,3.31-7.82,9.26-7.82a22.78,22.78,0,0,1,4.83.58v4.59a29.34,29.34,0,0,0-5.21-.58c-2.22,0-3.46.82-3.46,2.8,0,2.49.62,3,3.07,3.54,3.74.78,6.26,2.69,6.26,8.48C260.71,54,256.89,55,251.72,55Z"/><path class="cls-3" d="M64.36,61.51a8.36,8.36,0,0,1-2.57.37c-7.73,0-19.09-27-19.09-36,0-3.31.78-4.42,1.89-5.36-9.46,1.1-20.82,4.58-24.45,9a8.83,8.83,0,0,0-1.26,5c0,14,15,45.89,25.55,45.89,4.89,0,13.14-8,19.92-18.93"/><path class="cls-3" d="M59.43,19.56c9.78,0,19.56,1.58,19.56,7.1,0,11.2-7.1,24.77-10.73,24.77-6.47,0-14.51-18-14.51-27,0-4.1,1.58-4.89,5.68-4.89"/></svg>