<?xml version="1.0" encoding="utf-8"?>
<!-- Generator: Adobe Illustrator 20.1.0, SVG Export Plug-In . SVG Version: 6.00 Build 0)  -->
<svg version="1.1" xmlns="http://www.w3.org/2000/svg" xmlns:xlink="http://www.w3.org/1999/xlink" x="0px" y="0px"
	 viewBox="0 0 16 16" enable-background="new 0 0 16 16" xml:space="preserve">
<path fill="#323232" d="M8,1C4.1,1,1,4.1,1,8s3.1,7,7,7s7-3.1,7-7S11.9,1,8,1z M8,10c-1.1,0-2-0.9-2-2s0.9-2,2-2s2,0.9,2,2
	S9.1,10,8,10z"/>
<g opacity="0.15">
	<path fill="#FFFFFF" d="M9.9,7.5C10,7.7,10,7.8,10,8c0,1.1-0.9,2-2,2c-0.2,0-0.3,0-0.5-0.1l3.1,4.5c1.7-0.7,3.1-2.1,3.8-3.8
		L9.9,7.5z"/>
	<path fill="#FFFFFF" d="M6,8c0-1.1,0.9-2,2-2c0.2,0,0.3,0,0.5,0.1L5.4,1.5C3.6,2.2,2.2,3.6,1.5,5.4l4.5,3.1C6,8.3,6,8.2,6,8z"/>
</g>
<path fill="#1A1A1A" d="M8,2c3.3,0,6,2.7,6,6s-2.7,6-6,6s-6-2.7-6-6S4.7,2,8,2 M8,1C4.1,1,1,4.1,1,8s3.1,7,7,7s7-3.1,7-7S11.9,1,8,1
	L8,1z"/>
<path fill="#1E1E1E" d="M8,7c0.6,0,1,0.4,1,1S8.6,9,8,9S7,8.6,7,8S7.4,7,8,7 M8,6C6.9,6,6,6.9,6,8s0.9,2,2,2s2-0.9,2-2S9.1,6,8,6
	L8,6z"/>
</svg>
