<?xml version="1.0" encoding="utf-8"?>
<!-- Generator: Adobe Illustrator 22.1.0, SVG Export Plug-In . SVG Version: 6.00 Build 0)  -->
<svg version="1.1" id="Ebene_1" xmlns="http://www.w3.org/2000/svg" xmlns:xlink="http://www.w3.org/1999/xlink" x="0px" y="0px"
	 viewBox="0 0 16 16" enable-background="new 0 0 16 16" xml:space="preserve">
<rect x="1" y="1" fill="#FFFFFF" width="14" height="14"/>
<path fill="#999999" d="M14,2v12H2V2H14 M15,1H1v14h14V1L15,1z"/>
<g>
	<path fill="#5599FF" d="M3,5h6v6H3V5z"/>
	<path fill="#FFFFFF" d="M7,10H4l0.8-1l0.8-1l0.8,1L7,10z"/>
	<path fill="#FFFFFF" d="M8,10H5.3L6,9.3l0.7-0.7l0.7,0.7L8,10z"/>
	<ellipse fill="#FFFFFF" cx="7.5" cy="7.5" rx="0.5" ry="0.5"/>
</g>
<g>
	<rect x="10" y="5" fill="#B9B9B9" width="3" height="1"/>
	<rect x="10" y="7" fill="#B9B9B9" width="3" height="1"/>
	<rect x="10" y="9" fill="#B9B9B9" width="3" height="1"/>
	<rect x="10" y="11" fill="#B9B9B9" width="3" height="1"/>
	<rect x="10" y="3" fill="#666666" width="3" height="1"/>
</g>
</svg>
