<?xml version="1.0" encoding="utf-8"?>
<!-- Generator: Adobe Illustrator 22.1.0, SVG Export Plug-In . SVG Version: 6.00 Build 0)  -->
<svg version="1.1" id="Ebene_1" xmlns="http://www.w3.org/2000/svg" xmlns:xlink="http://www.w3.org/1999/xlink" x="0px" y="0px"
	 viewBox="0 0 16 16" enable-background="new 0 0 16 16" xml:space="preserve">
<g>
	<rect x="2" y="1" fill="#FFFFFF" width="8" height="12"/>
	<path fill="#CACACA" d="M2,1h8v6H2V1z"/>
	<path opacity="0.5" fill="#FFFFFF" enable-background="new    " d="M7,6H4l0.8-1l0.8-1l0.8,1L7,6z"/>
	<path opacity="0.5" fill="#FFFFFF" enable-background="new    " d="M8,6H5.3L6,5.3l0.7-0.7l0.7,0.7L8,6z"/>
	<ellipse opacity="0.5" fill="#FFFFFF" enable-background="new    " cx="7.5" cy="3.5" rx="0.5" ry="0.5"/>
	<rect x="4" y="9" fill="#B9B9B9" width="2" height="1"/>
	<rect x="4" y="8" fill="#B9B9B9" width="4" height="1"/>
	<path fill="#999999" d="M2,1v12h8V1H2z M9,12H3V2h6V12z"/>
</g>
<g>
	<rect x="6" y="3" fill="#FFFFFF" width="8" height="12"/>
	<path fill="#5599FF" d="M6,3h8v6H6V3z"/>
	<path opacity="0.5" fill="#FFFFFF" enable-background="new    " d="M11,8H8l0.8-1l0.8-1l0.8,1L11,8z"/>
	<path opacity="0.5" fill="#FFFFFF" enable-background="new    " d="M12,8H9.3L10,7.3l0.7-0.7l0.7,0.7L12,8z"/>
	<ellipse opacity="0.5" fill="#FFFFFF" enable-background="new    " cx="11.5" cy="5.5" rx="0.5" ry="0.5"/>
	<rect x="8" y="11" fill="#B9B9B9" width="2" height="1"/>
	<rect x="8" y="10" fill="#B9B9B9" width="4" height="1"/>
	<path fill="#666666" d="M6,3v12h8V3H6z M13,14H7V4h6V14z"/>
</g>
</svg>
