<?xml version="1.0" encoding="utf-8"?>
<!-- Generator: Adobe Illustrator 19.1.1, SVG Export Plug-In . SVG Version: 6.00 Build 0)  -->
<svg version="1.1" xmlns="http://www.w3.org/2000/svg" xmlns:xlink="http://www.w3.org/1999/xlink" x="0px" y="0px"
	 viewBox="0 0 16 16" enable-background="new 0 0 16 16" xml:space="preserve">
<rect x="1" y="3" fill="#CCCCCC" width="14" height="10"/>
<path fill="#999999" d="M14,4v8H2V4H14 M15,3H1v10h14V3L15,3z"/>
<rect x="3" y="2" fill="#FFFFFF" width="10" height="12"/>
<path fill="#666666" d="M12,3v10H4V3H12 M13,2H3v12h10V2L13,2z"/>
<path fill="#5599FF" d="M5,4h6v8H5V4z"/>
<path fill="#FFFFFF" d="M9,11H6l0.8-1l0.8-1l0.8,1L9,11z"/>
<path fill="#FFFFFF" d="M10,11H7.3L8,10.3l0.7-0.7l0.7,0.7L10,11z"/>
<ellipse fill="#FFFFFF" cx="9.5" cy="8.5" rx="0.5" ry="0.5"/>
</svg>
