<?xml version="1.0" encoding="utf-8"?>
<!-- Generator: Adobe Illustrator 19.1.1, SVG Export Plug-In . SVG Version: 6.00 Build 0)  -->
<svg version="1.1" xmlns="http://www.w3.org/2000/svg" xmlns:xlink="http://www.w3.org/1999/xlink" x="0px" y="0px"
	 viewBox="0 0 16 16" enable-background="new 0 0 16 16" xml:space="preserve">
<rect x="1" y="3" fill="#CCCCCC" width="14" height="10"/>
<path fill="#999999" d="M14,4v8H2V4H14 M15,3H1v10h14V3L15,3z"/>
<rect x="3" y="2" fill="#FFFFFF" width="10" height="12"/>
<path fill="#666666" d="M12,3v10H4V3H12 M13,2H3v12h10V2L13,2z"/>
<path fill="#F16529" d="M5,8.4V7.6l2-2.1v1.1L5.8,8L7,9.4v1.1L5,8.4z M11,8.4l-2,2.1V9.4L10.2,8L9,6.6V5.5l2,2.1V8.4z"/>
</svg>
