<?xml version="1.0" encoding="UTF-8" standalone="no"?>
<!-- Generator: Adobe Illustrator 19.1.1, SVG Export Plug-In . SVG Version: 6.00 Build 0)  -->

<svg
   xmlns:dc="http://purl.org/dc/elements/1.1/"
   xmlns:cc="http://creativecommons.org/ns#"
   xmlns:rdf="http://www.w3.org/1999/02/22-rdf-syntax-ns#"
   xmlns:svg="http://www.w3.org/2000/svg"
   xmlns="http://www.w3.org/2000/svg"
   xmlns:sodipodi="http://sodipodi.sourceforge.net/DTD/sodipodi-0.dtd"
   xmlns:inkscape="http://www.inkscape.org/namespaces/inkscape"
   version="1.1"
   x="0px"
   y="0px"
   viewBox="0 0 16 16"
   enable-background="new 0 0 16 16"
   xml:space="preserve"
   id="svg8091"
   inkscape:version="0.91 r13725"
   sodipodi:docname="content-images-layout-col-bottom.svg"><metadata
     id="metadata8109"><rdf:RDF><cc:Work
         rdf:about=""><dc:format>image/svg+xml</dc:format><dc:type
           rdf:resource="http://purl.org/dc/dcmitype/StillImage" /><dc:title></dc:title></cc:Work></rdf:RDF></metadata><defs
     id="defs8107" /><sodipodi:namedview
     pagecolor="#ffffff"
     bordercolor="#666666"
     borderopacity="1"
     objecttolerance="10"
     gridtolerance="10"
     guidetolerance="10"
     inkscape:pageopacity="0"
     inkscape:pageshadow="2"
     inkscape:window-width="1608"
     inkscape:window-height="731"
     id="namedview8105"
     showgrid="false"
     showguides="false"
     inkscape:guide-bbox="true"
     inkscape:zoom="8"
     inkscape:cx="-0.44067797"
     inkscape:cy="4.4644661"
     inkscape:window-x="0"
     inkscape:window-y="0"
     inkscape:window-maximized="0"
     inkscape:current-layer="svg8091"><sodipodi:guide
       position="10.3125,12.9375"
       orientation="0,1"
       id="guide12635" /><sodipodi:guide
       position="-28.8125,6.125"
       orientation="1,0"
       id="guide12637" /></sodipodi:namedview><path
     d="M 1,15 1,1 15,1 15,15 1,15 Z"
     id="path8093"
     inkscape:connector-curvature="0"
     style="fill:#ffffff" /><path
     d="M 1,15 15,15 15,1 1,1 1,15 Z M 2,14 2,2 14,2 14,14 2,14 Z"
     id="path8095"
     inkscape:connector-curvature="0"
     style="fill:#999999" /><path
     style="fill:#5599ff"
     inkscape:connector-curvature="0"
     d="m 7.1983476,8.0446521 0,4.3403109 c 0,0.434031 -0.2063509,0.723385 -0.5158773,0.723385 l -3.0952638,0 c -0.3095264,0 -0.5158773,-0.289354 -0.5158773,-0.723385 l 0,-4.3403109 c 0,-0.4340311 0.2063509,-0.7233851 0.5158773,-0.7233851 l 3.0952638,0 c 0.3095264,0 0.5158773,0.289354 0.5158773,0.7233851 z"
     id="path8101" /><path
     style="opacity:0.25"
     inkscape:connector-curvature="0"
     d="m 4.1030838,8.7680372 2.0635092,0 0,2.8935408 -2.0635092,0 0,-2.8935408 m -1.0317546,-0.7233851 0,4.3403109 c 0,0.434031 0.2063509,0.723385 0.5158773,0.723385 l 3.0952638,0 c 0.3095264,0 0.5158773,-0.289354 0.5158773,-0.723385 l 0,-4.3403109 c 0,-0.4340311 -0.2063509,-0.7233851 -0.5158773,-0.7233851 l -3.0952638,0 c -0.3095264,0 -0.5158773,0.289354 -0.5158773,0.7233851 l 0,0 z"
     id="path8103" /><path
     id="path12589"
     d="m 7.1724589,3.3193647 0,2.467262 c 0,0.2467262 -0.2063509,0.4112103 -0.5158773,0.4112103 l -3.0952638,0 c -0.3095264,0 -0.5158773,-0.1644841 -0.5158773,-0.4112103 l 0,-2.467262 c 0,-0.2467262 0.2063509,-0.4112103 0.5158773,-0.4112103 l 3.0952638,0 c 0.3095264,0 0.5158773,0.1644841 0.5158773,0.4112103 z"
     inkscape:connector-curvature="0"
     style="fill:#5599ff" /><path
     id="path12591"
     d="m 4.0771951,3.7305751 2.0635092,0 0,1.6448413 -2.0635092,0 0,-1.6448413 m -1.0317546,-0.4112104 0,2.467262 c 0,0.2467262 0.2063509,0.4112103 0.5158773,0.4112103 l 3.0952638,0 c 0.3095264,0 0.5158773,-0.1644841 0.5158773,-0.4112103 l 0,-2.467262 c 0,-0.2467262 -0.2063509,-0.4112103 -0.5158773,-0.4112103 l -3.0952638,0 c -0.3095264,0 -0.5158773,0.1644841 -0.5158773,0.4112103 l 0,0 z"
     inkscape:connector-curvature="0"
     style="opacity:0.25" /><path
     id="path12601"
     d="m 13.018779,10.175188 0,2.514137 c 0,0.251414 -0.206351,0.419023 -0.515877,0.419023 l -3.0952642,0 c -0.3095264,0 -0.5158773,-0.167609 -0.5158773,-0.419023 l 0,-2.514137 c 0,-0.2514135 0.2063509,-0.4190226 0.5158773,-0.4190226 l 3.0952642,0 c 0.309526,0 0.515877,0.1676091 0.515877,0.4190226 z"
     inkscape:connector-curvature="0"
     style="fill:#5599ff" /><path
     id="path12603"
     d="m 9.9235151,10.594211 2.0635089,0 0,1.676091 -2.0635089,0 0,-1.676091 m -1.0317546,-0.419023 0,2.514137 c 0,0.251414 0.2063509,0.419023 0.5158773,0.419023 l 3.0952642,0 c 0.309526,0 0.515877,-0.167609 0.515877,-0.419023 l 0,-2.514137 c 0,-0.2514135 -0.206351,-0.4190226 -0.515877,-0.4190226 l -3.0952642,0 c -0.3095264,0 -0.5158773,0.1676091 -0.5158773,0.4190226 l 0,0 z"
     inkscape:connector-curvature="0"
     style="opacity:0.25" /><path
     style="fill:#5599ff"
     inkscape:connector-curvature="0"
     d="m 13.107167,5.6797033 0,2.5755498 c 0,0.257555 -0.206351,0.4292583 -0.515877,0.4292583 l -3.0952637,0 c -0.3095264,0 -0.5158773,-0.1717033 -0.5158773,-0.4292583 l 0,-2.5755498 c 0,-0.257555 0.2063509,-0.4292583 0.5158773,-0.4292583 l 3.0952637,0 c 0.309526,0 0.515877,0.1717033 0.515877,0.4292583 z"
     id="path12607" /><path
     style="opacity:0.25"
     inkscape:connector-curvature="0"
     d="m 10.011904,6.1089616 2.063509,0 0,1.7170332 -2.063509,0 0,-1.7170332 m -1.031755,-0.4292583 0,2.5755498 c 0,0.257555 0.2063509,0.4292583 0.5158773,0.4292583 l 3.0952637,0 c 0.309526,0 0.515877,-0.1717033 0.515877,-0.4292583 l 0,-2.5755498 c 0,-0.257555 -0.206351,-0.4292583 -0.515877,-0.4292583 l -3.0952637,0 c -0.3095264,0 -0.5158773,0.1717033 -0.5158773,0.4292583 l 0,0 z"
     id="path12609" /></svg>