<?xml version="1.0" encoding="UTF-8" standalone="no"?>
<!-- Generator: Adobe Illustrator 19.1.1, SVG Export Plug-In . SVG Version: 6.00 Build 0)  -->

<svg
   xmlns:dc="http://purl.org/dc/elements/1.1/"
   xmlns:cc="http://creativecommons.org/ns#"
   xmlns:rdf="http://www.w3.org/1999/02/22-rdf-syntax-ns#"
   xmlns:svg="http://www.w3.org/2000/svg"
   xmlns="http://www.w3.org/2000/svg"
   xmlns:sodipodi="http://sodipodi.sourceforge.net/DTD/sodipodi-0.dtd"
   xmlns:inkscape="http://www.inkscape.org/namespaces/inkscape"
   version="1.1"
   x="0px"
   y="0px"
   viewBox="0 0 16 16"
   enable-background="new 0 0 16 16"
   xml:space="preserve"
   id="svg8091"
   inkscape:version="0.91 r13725"
   sodipodi:docname="content-images-layout-grid.svg"><metadata
     id="metadata8109"><rdf:RDF><cc:Work
         rdf:about=""><dc:format>image/svg+xml</dc:format><dc:type
           rdf:resource="http://purl.org/dc/dcmitype/StillImage" /><dc:title></dc:title></cc:Work></rdf:RDF></metadata><defs
     id="defs8107" /><sodipodi:namedview
     pagecolor="#ffffff"
     bordercolor="#666666"
     borderopacity="1"
     objecttolerance="10"
     gridtolerance="10"
     guidetolerance="10"
     inkscape:pageopacity="0"
     inkscape:pageshadow="2"
     inkscape:window-width="1608"
     inkscape:window-height="731"
     id="namedview8105"
     showgrid="false"
     showguides="true"
     inkscape:guide-bbox="true"
     inkscape:zoom="16"
     inkscape:cx="-0.44067797"
     inkscape:cy="4.4644661"
     inkscape:window-x="0"
     inkscape:window-y="0"
     inkscape:window-maximized="0"
     inkscape:current-layer="svg8091"><sodipodi:guide
       position="10.3125,12.9375"
       orientation="0,1"
       id="guide12635" /><sodipodi:guide
       position="-28.8125,6.125"
       orientation="1,0"
       id="guide12637" /></sodipodi:namedview><path
     fill="#FFFFFF"
     d="M1,1h14v14H1V1z"
     id="path8093" /><path
     fill="#999999"
     d="M1,1v14h14V1H1z M2,2h12v12H2V2z"
     id="path8095" /><g
     id="g12583"
     transform="matrix(1.0324777,0,0,1.0317546,-3.3032141,-1.0556894)"><path
       id="path8101"
       d="m 9.5,8 -3,0 C 6.2,8 6,7.8 6,7.5 l 0,-3 C 6,4.2 6.2,4 6.5,4 l 3,0 C 9.8,4 10,4.2 10,4.5 l 0,3 C 10,7.8 9.8,8 9.5,8 Z"
       inkscape:connector-curvature="0"
       style="fill:#5599ff" /><path
       id="path8103"
       d="M 9,5 9,7 7,7 7,5 9,5 M 9.5,4 6.5,4 C 6.2,4 6,4.2 6,4.5 l 0,3 C 6,7.8 6.2,8 6.5,8 l 3,0 C 9.8,8 10,7.8 10,7.5 l 0,-3 C 10,4.2 9.8,4 9.5,4 l 0,0 z"
       inkscape:connector-curvature="0"
       style="opacity:0.25" /></g><g
     transform="matrix(1.0324777,0,0,1.0317546,2.7670687,-1.0815777)"
     id="g12587"><path
       style="fill:#5599ff"
       inkscape:connector-curvature="0"
       d="m 9.5,8 -3,0 C 6.2,8 6,7.8 6,7.5 l 0,-3 C 6,4.2 6.2,4 6.5,4 l 3,0 C 9.8,4 10,4.2 10,4.5 l 0,3 C 10,7.8 9.8,8 9.5,8 Z"
       id="path12589" /><path
       style="opacity:0.25"
       inkscape:connector-curvature="0"
       d="M 9,5 9,7 7,7 7,5 9,5 M 9.5,4 6.5,4 C 6.2,4 6,4.2 6,4.5 l 0,3 C 6,7.8 6.2,8 6.5,8 l 3,0 C 9.8,8 10,7.8 10,7.5 l 0,-3 C 10,4.2 9.8,4 9.5,4 l 0,0 z"
       id="path12591" /></g><g
     transform="matrix(1.0324777,0,0,1.0317546,-3.3032141,4.7647426)"
     id="g12599"><path
       style="fill:#5599ff"
       inkscape:connector-curvature="0"
       d="m 9.5,8 -3,0 C 6.2,8 6,7.8 6,7.5 l 0,-3 C 6,4.2 6.2,4 6.5,4 l 3,0 C 9.8,4 10,4.2 10,4.5 l 0,3 C 10,7.8 9.8,8 9.5,8 Z"
       id="path12601" /><path
       style="opacity:0.25"
       inkscape:connector-curvature="0"
       d="M 9,5 9,7 7,7 7,5 9,5 M 9.5,4 6.5,4 C 6.2,4 6,4.2 6,4.5 l 0,3 C 6,7.8 6.2,8 6.5,8 l 3,0 C 9.8,8 10,7.8 10,7.5 l 0,-3 C 10,4.2 9.8,4 9.5,4 l 0,0 z"
       id="path12603" /></g><g
     id="g12605"
     transform="matrix(1.0324777,0,0,1.0317546,2.7670687,4.853131)"><path
       id="path12607"
       d="m 9.5,8 -3,0 C 6.2,8 6,7.8 6,7.5 l 0,-3 C 6,4.2 6.2,4 6.5,4 l 3,0 C 9.8,4 10,4.2 10,4.5 l 0,3 C 10,7.8 9.8,8 9.5,8 Z"
       inkscape:connector-curvature="0"
       style="fill:#5599ff" /><path
       id="path12609"
       d="M 9,5 9,7 7,7 7,5 9,5 M 9.5,4 6.5,4 C 6.2,4 6,4.2 6,4.5 l 0,3 C 6,7.8 6.2,8 6.5,8 l 3,0 C 9.8,8 10,7.8 10,7.5 l 0,-3 C 10,4.2 9.8,4 9.5,4 l 0,0 z"
       inkscape:connector-curvature="0"
       style="opacity:0.25" /></g></svg>