<?xml version="1.0" encoding="UTF-8" standalone="no"?>
<!-- Generator: Adobe Illustrator 19.1.1, SVG Export Plug-In . SVG Version: 6.00 Build 0)  -->

<svg
   xmlns:dc="http://purl.org/dc/elements/1.1/"
   xmlns:cc="http://creativecommons.org/ns#"
   xmlns:rdf="http://www.w3.org/1999/02/22-rdf-syntax-ns#"
   xmlns:svg="http://www.w3.org/2000/svg"
   xmlns="http://www.w3.org/2000/svg"
   xmlns:sodipodi="http://sodipodi.sourceforge.net/DTD/sodipodi-0.dtd"
   xmlns:inkscape="http://www.inkscape.org/namespaces/inkscape"
   version="1.1"
   x="0px"
   y="0px"
   viewBox="0 0 16 16"
   enable-background="new 0 0 16 16"
   xml:space="preserve"
   id="svg8091"
   inkscape:version="0.91 r13725"
   sodipodi:docname="content-images-layout-col-top.svg"><metadata
     id="metadata8109"><rdf:RDF><cc:Work
         rdf:about=""><dc:format>image/svg+xml</dc:format><dc:type
           rdf:resource="http://purl.org/dc/dcmitype/StillImage" /><dc:title /></cc:Work></rdf:RDF></metadata><defs
     id="defs8107" /><sodipodi:namedview
     pagecolor="#ffffff"
     bordercolor="#666666"
     borderopacity="1"
     objecttolerance="10"
     gridtolerance="10"
     guidetolerance="10"
     inkscape:pageopacity="0"
     inkscape:pageshadow="2"
     inkscape:window-width="1608"
     inkscape:window-height="731"
     id="namedview8105"
     showgrid="false"
     showguides="false"
     inkscape:guide-bbox="true"
     inkscape:zoom="8"
     inkscape:cx="-30.815678"
     inkscape:cy="4.4644661"
     inkscape:window-x="0"
     inkscape:window-y="0"
     inkscape:window-maximized="0"
     inkscape:current-layer="svg8091"><sodipodi:guide
       position="10.3125,12.9375"
       orientation="0,1"
       id="guide12635" /><sodipodi:guide
       position="-28.8125,6.125"
       orientation="1,0"
       id="guide12637" /></sodipodi:namedview><path
     d="M 1,1 1,15 15,15 15,1 1,1 Z"
     id="path8093"
     inkscape:connector-curvature="0"
     style="fill:#ffffff" /><path
     d="M 1,1 15,1 15,15 1,15 1,1 Z M 2,2 2,14 14,14 14,2 2,2 Z"
     id="path8095"
     inkscape:connector-curvature="0"
     style="fill:#999999" /><path
     style="fill:#5599ff"
     inkscape:connector-curvature="0"
     d="m 7.1983476,7.9553479 0,-4.3403106 c 0,-0.4340311 -0.2063509,-0.7233851 -0.5158773,-0.7233851 l -3.0952638,0 c -0.3095264,0 -0.5158773,0.289354 -0.5158773,0.7233851 l 0,4.3403106 c 0,0.4340311 0.2063509,0.7233851 0.5158773,0.7233851 l 3.0952638,0 c 0.3095264,0 0.5158773,-0.289354 0.5158773,-0.7233851 z"
     id="path8101" /><path
     style="opacity:0.25"
     inkscape:connector-curvature="0"
     d="m 4.1030838,7.2319628 2.0635092,0 0,-2.8935404 -2.0635092,0 0,2.8935404 m -1.0317546,0.7233851 0,-4.3403106 c 0,-0.4340311 0.2063509,-0.7233851 0.5158773,-0.7233851 l 3.0952638,0 c 0.3095264,0 0.5158773,0.289354 0.5158773,0.7233851 l 0,4.3403106 c 0,0.4340311 -0.2063509,0.7233851 -0.5158773,0.7233851 l -3.0952638,0 c -0.3095264,0 -0.5158773,-0.289354 -0.5158773,-0.7233851 l 0,0 z"
     id="path8103" /><path
     id="path12589"
     d="m 7.1724589,12.680635 0,-2.467262 c 0,-0.2467259 -0.2063509,-0.41121 -0.5158773,-0.41121 l -3.0952638,0 c -0.3095264,0 -0.5158773,0.1644841 -0.5158773,0.41121 l 0,2.467262 c 0,0.246726 0.2063509,0.411211 0.5158773,0.411211 l 3.0952638,0 c 0.3095264,0 0.5158773,-0.164485 0.5158773,-0.411211 z"
     inkscape:connector-curvature="0"
     style="fill:#5599ff" /><path
     id="path12591"
     d="m 4.0771951,12.269425 2.0635092,0 0,-1.644841 -2.0635092,0 0,1.644841 m -1.0317546,0.41121 0,-2.467262 c 0,-0.2467259 0.2063509,-0.41121 0.5158773,-0.41121 l 3.0952638,0 c 0.3095264,0 0.5158773,0.1644841 0.5158773,0.41121 l 0,2.467262 c 0,0.246726 -0.2063509,0.411211 -0.5158773,0.411211 l -3.0952638,0 c -0.3095264,0 -0.5158773,-0.164485 -0.5158773,-0.411211 l 0,0 z"
     inkscape:connector-curvature="0"
     style="opacity:0.25" /><path
     id="path12601"
     d="m 13.018779,5.8248118 0,-2.514137 c 0,-0.2514137 -0.206351,-0.4190228 -0.515877,-0.4190228 l -3.0952642,0 c -0.3095264,0 -0.5158773,0.1676091 -0.5158773,0.4190228 l 0,2.514137 c 0,0.2514137 0.2063509,0.4190228 0.5158773,0.4190228 l 3.0952642,0 c 0.309526,0 0.515877,-0.1676091 0.515877,-0.4190228 z"
     inkscape:connector-curvature="0"
     style="fill:#5599ff" /><path
     id="path12603"
     d="m 9.9235151,5.4057889 2.0635089,0 0,-1.6760913 -2.0635089,0 0,1.6760913 m -1.0317546,0.4190229 0,-2.514137 c 0,-0.2514137 0.2063509,-0.4190228 0.5158773,-0.4190228 l 3.0952642,0 c 0.309526,0 0.515877,0.1676091 0.515877,0.4190228 l 0,2.514137 c 0,0.2514137 -0.206351,0.4190228 -0.515877,0.4190228 l -3.0952642,0 c -0.3095264,0 -0.5158773,-0.1676091 -0.5158773,-0.4190228 l 0,0 z"
     inkscape:connector-curvature="0"
     style="opacity:0.25" /><path
     style="fill:#5599ff"
     inkscape:connector-curvature="0"
     d="m 13.107167,10.320297 0,-2.5755501 c 0,-0.257555 -0.206351,-0.4292583 -0.515877,-0.4292583 l -3.0952637,0 c -0.3095264,0 -0.5158773,0.1717033 -0.5158773,0.4292583 l 0,2.5755501 c 0,0.257555 0.2063509,0.429258 0.5158773,0.429258 l 3.0952637,0 c 0.309526,0 0.515877,-0.171703 0.515877,-0.429258 z"
     id="path12607" /><path
     style="opacity:0.25"
     inkscape:connector-curvature="0"
     d="m 10.011904,9.8910384 2.063509,0 0,-1.7170332 -2.063509,0 0,1.7170332 m -1.031755,0.4292586 0,-2.5755501 c 0,-0.257555 0.2063509,-0.4292583 0.5158773,-0.4292583 l 3.0952637,0 c 0.309526,0 0.515877,0.1717033 0.515877,0.4292583 l 0,2.5755501 c 0,0.257555 -0.206351,0.429258 -0.515877,0.429258 l -3.0952637,0 c -0.3095264,0 -0.5158773,-0.171703 -0.5158773,-0.429258 l 0,0 z"
     id="path12609" /></svg>