<?xml version="1.0" encoding="UTF-8" standalone="no"?>
<svg
   xmlns:dc="http://purl.org/dc/elements/1.1/"
   xmlns:cc="http://creativecommons.org/ns#"
   xmlns:rdf="http://www.w3.org/1999/02/22-rdf-syntax-ns#"
   xmlns:svg="http://www.w3.org/2000/svg"
   xmlns="http://www.w3.org/2000/svg"
   xmlns:sodipodi="http://sodipodi.sourceforge.net/DTD/sodipodi-0.dtd"
   xmlns:inkscape="http://www.inkscape.org/namespaces/inkscape"
   viewBox="0 0 16 16"
   id="svg2"
   version="1.1"
   inkscape:version="0.91 r13725"
   sodipodi:docname="content-beside-text-img-intext-left.svg">
  <metadata
     id="metadata26">
    <rdf:RDF>
      <cc:Work
         rdf:about="">
        <dc:format>image/svg+xml</dc:format>
        <dc:type
           rdf:resource="http://purl.org/dc/dcmitype/StillImage" />
        <dc:title></dc:title>
      </cc:Work>
    </rdf:RDF>
  </metadata>
  <defs
     id="defs24" />
  <sodipodi:namedview
     pagecolor="#ffffff"
     bordercolor="#666666"
     borderopacity="1"
     objecttolerance="10"
     gridtolerance="10"
     guidetolerance="10"
     inkscape:pageopacity="0"
     inkscape:pageshadow="2"
     inkscape:window-width="1304"
     inkscape:window-height="698"
     id="namedview22"
     showgrid="false"
     showguides="true"
     inkscape:guide-bbox="true"
     inkscape:zoom="27.55"
     inkscape:cx="7.1902672"
     inkscape:cy="8"
     inkscape:window-x="367"
     inkscape:window-y="150"
     inkscape:window-maximized="0"
     inkscape:current-layer="svg2">
    <sodipodi:guide
       position="12.958258,4.646098"
       orientation="1,0"
       id="guide8102" />
  </sodipodi:namedview>
  <path
     fill="#FFF"
     d="M1 1h14v14H1z"
     id="path4" />
  <path
     fill="#999"
     d="M14 2v12H2V2h12m1-1H1v14h14V1z"
     id="path6" />
  <path
     d="m 2.9952013,6.9637024 6,0 0,5.9999996 -6,0 0,-5.9999996 z"
     id="path8"
     inkscape:connector-curvature="0"
     style="fill:#5599ff" />
  <path
     d="m 6.9952013,11.963702 -3,0 0.75,-1 0.75,-0.9999996 0.75,0.9999996 0.75,1 z"
     id="path10"
     inkscape:connector-curvature="0"
     style="fill:#ffffff" />
  <path
     d="m 7.9952013,11.963702 -2.667,0 0.667,-0.667 0.667,-0.666 0.666,0.666 0.667,0.667 z"
     id="path12"
     inkscape:connector-curvature="0"
     style="fill:#ffffff" />
  <circle
     cx="7.4952016"
     cy="9.4637022"
     id="ellipse14"
     r="0.5"
     style="fill:#ffffff" />
  <g
     id="g16">
    <path
       inkscape:connector-curvature="0"
       style="fill:#b9b9b9"
       d="m 10.070547,8.885214 2.881356,0 0,1 -2.881356,0 z"
       id="path18-8-1" />
    <path
       inkscape:connector-curvature="0"
       style="fill:#b9b9b9"
       d="m 10.068016,6.9939243 2.881355,0 0,1 -2.881355,0 z"
       id="path18-8" />
    <path
       fill="#B9B9B9"
       d="M3 5h10v1H3z"
       id="path18" />
    <path
       fill="#666"
       d="M3 3h10v1H3z"
       id="path20" />
  </g>
  <path
     inkscape:connector-curvature="0"
     style="fill:#b9b9b9"
     d="m 10.036862,10.900722 2.881356,0 0,1 -2.881356,0 z"
     id="path18-8-1-4" />
</svg>
