<?xml version="1.0" encoding="UTF-8" standalone="no"?>
<!-- Generator: Adobe Illustrator 19.1.1, SVG Export Plug-In . SVG Version: 6.00 Build 0)  -->

<svg
   xmlns:dc="http://purl.org/dc/elements/1.1/"
   xmlns:cc="http://creativecommons.org/ns#"
   xmlns:rdf="http://www.w3.org/1999/02/22-rdf-syntax-ns#"
   xmlns:svg="http://www.w3.org/2000/svg"
   xmlns="http://www.w3.org/2000/svg"
   xmlns:sodipodi="http://sodipodi.sourceforge.net/DTD/sodipodi-0.dtd"
   xmlns:inkscape="http://www.inkscape.org/namespaces/inkscape"
   version="1.1"
   x="0px"
   y="0px"
   viewBox="0 0 16 16"
   enable-background="new 0 0 16 16"
   xml:space="preserve"
   id="svg8091"
   inkscape:version="0.91 r13725"
   sodipodi:docname="content-images-layout-row-right.svg"><metadata
     id="metadata8109"><rdf:RDF><cc:Work
         rdf:about=""><dc:format>image/svg+xml</dc:format><dc:type
           rdf:resource="http://purl.org/dc/dcmitype/StillImage" /><dc:title /></cc:Work></rdf:RDF></metadata><defs
     id="defs8107" /><sodipodi:namedview
     pagecolor="#ffffff"
     bordercolor="#666666"
     borderopacity="1"
     objecttolerance="10"
     gridtolerance="10"
     guidetolerance="10"
     inkscape:pageopacity="0"
     inkscape:pageshadow="2"
     inkscape:window-width="1608"
     inkscape:window-height="731"
     id="namedview8105"
     showgrid="false"
     showguides="false"
     inkscape:guide-bbox="true"
     inkscape:zoom="16"
     inkscape:cx="-15.628178"
     inkscape:cy="4.4644661"
     inkscape:window-x="0"
     inkscape:window-y="0"
     inkscape:window-maximized="0"
     inkscape:current-layer="svg8091"><sodipodi:guide
       position="10.3125,12.9375"
       orientation="0,1"
       id="guide12635" /><sodipodi:guide
       position="-28.8125,6.125"
       orientation="1,0"
       id="guide12637" /></sodipodi:namedview><path
     d="M 15,1 1,1 1,15 15,15 15,1 Z"
     id="path8093"
     inkscape:connector-curvature="0"
     style="fill:#ffffff" /><path
     d="M 15,1 15,15 1,15 1,1 15,1 Z M 14,2 2,2 2,14 14,14 14,2 Z"
     id="path8095"
     inkscape:connector-curvature="0"
     style="fill:#999999" /><path
     style="fill:#5599ff"
     inkscape:connector-curvature="0"
     d="m 8.0446521,7.1983474 4.3403109,0 c 0.434031,0 0.723385,-0.2063509 0.723385,-0.5158773 l 0,-3.0952638 c 0,-0.3095264 -0.289354,-0.5158773 -0.723385,-0.5158773 l -4.3403109,0 c -0.4340311,0 -0.7233851,0.2063509 -0.7233851,0.5158773 l 0,3.0952638 c 0,0.3095264 0.289354,0.5158773 0.7233851,0.5158773 z"
     id="path8101" /><path
     style="opacity:0.25"
     inkscape:connector-curvature="0"
     d="m 8.7680372,4.1030836 0,2.0635092 2.8935408,0 0,-2.0635092 -2.8935408,0 M 8.0446521,3.071329 l 4.3403109,0 c 0.434031,0 0.723385,0.2063509 0.723385,0.5158773 l 0,3.0952638 c 0,0.3095264 -0.289354,0.5158773 -0.723385,0.5158773 l -4.3403109,0 c -0.4340311,0 -0.7233851,-0.2063509 -0.7233851,-0.5158773 l 0,-3.0952638 c 0,-0.3095264 0.289354,-0.5158773 0.7233851,-0.5158773 l 0,0 z"
     id="path8103" /><path
     id="path12589"
     d="m 3.3193647,7.1724591 2.467262,0 c 0.2467262,0 0.4112103,-0.2063509 0.4112103,-0.5158773 l 0,-3.0952638 c 0,-0.3095264 -0.1644841,-0.5158773 -0.4112103,-0.5158773 l -2.467262,0 c -0.2467262,0 -0.4112103,0.2063509 -0.4112103,0.5158773 l 0,3.0952638 c 0,0.3095264 0.1644841,0.5158773 0.4112103,0.5158773 z"
     inkscape:connector-curvature="0"
     style="fill:#5599ff" /><path
     id="path12591"
     d="m 3.7305751,4.0771953 0,2.0635092 1.6448413,0 0,-2.0635092 -1.6448413,0 m -0.4112104,-1.0317546 2.467262,0 c 0.2467262,0 0.4112103,0.2063509 0.4112103,0.5158773 l 0,3.0952638 c 0,0.3095264 -0.1644841,0.5158773 -0.4112103,0.5158773 l -2.467262,0 c -0.2467262,0 -0.4112103,-0.2063509 -0.4112103,-0.5158773 l 0,-3.0952638 c 0,-0.3095264 0.1644841,-0.5158773 0.4112103,-0.5158773 l 0,0 z"
     inkscape:connector-curvature="0"
     style="opacity:0.25" /><path
     id="path12601"
     d="m 10.175188,13.018779 2.514137,0 c 0.251414,0 0.419023,-0.206351 0.419023,-0.515877 l 0,-3.0952637 c 0,-0.3095264 -0.167609,-0.5158773 -0.419023,-0.5158773 l -2.514137,0 c -0.2514135,0 -0.4190226,0.2063509 -0.4190226,0.5158773 l 0,3.0952637 c 0,0.309526 0.1676091,0.515877 0.4190226,0.515877 z"
     inkscape:connector-curvature="0"
     style="fill:#5599ff" /><path
     id="path12603"
     d="m 10.594211,9.9235156 0,2.0635094 1.676091,0 0,-2.0635094 -1.676091,0 m -0.419023,-1.0317546 2.514137,0 c 0.251414,0 0.419023,0.2063509 0.419023,0.5158773 l 0,3.0952637 c 0,0.309526 -0.167609,0.515877 -0.419023,0.515877 l -2.514137,0 c -0.2514135,0 -0.4190226,-0.206351 -0.4190226,-0.515877 l 0,-3.0952637 c 0,-0.3095264 0.1676091,-0.5158773 0.4190226,-0.5158773 l 0,0 z"
     inkscape:connector-curvature="0"
     style="opacity:0.25" /><path
     style="fill:#5599ff"
     inkscape:connector-curvature="0"
     d="m 5.6797033,13.107168 2.5755498,0 c 0.257555,0 0.4292583,-0.206351 0.4292583,-0.515877 l 0,-3.0952643 c 0,-0.3095264 -0.1717033,-0.5158773 -0.4292583,-0.5158773 l -2.5755498,0 c -0.257555,0 -0.4292583,0.2063509 -0.4292583,0.5158773 l 0,3.0952643 c 0,0.309526 0.1717033,0.515877 0.4292583,0.515877 z"
     id="path12607" /><path
     style="opacity:0.25"
     inkscape:connector-curvature="0"
     d="m 6.1089616,10.011904 0,2.063509 1.7170332,0 0,-2.063509 -1.7170332,0 m -0.4292583,-1.0317546 2.5755498,0 c 0.257555,0 0.4292583,0.2063509 0.4292583,0.5158773 l 0,3.0952643 c 0,0.309526 -0.1717033,0.515877 -0.4292583,0.515877 l -2.5755498,0 c -0.257555,0 -0.4292583,-0.206351 -0.4292583,-0.515877 l 0,-3.0952643 c 0,-0.3095264 0.1717033,-0.5158773 0.4292583,-0.5158773 l 0,0 z"
     id="path12609" /></svg>