<?xml version="1.0" encoding="utf-8"?>
<!-- Generator: Adobe Illustrator 22.1.0, SVG Export Plug-In . SVG Version: 6.00 Build 0)  -->
<svg version="1.1" id="Ebene_1" xmlns="http://www.w3.org/2000/svg" xmlns:xlink="http://www.w3.org/1999/xlink" x="0px" y="0px"
	 viewBox="0 0 16 16" enable-background="new 0 0 16 16" xml:space="preserve">
<path fill="#45B058" d="M1,1h14v14H1V1z"/>
<path opacity="0.2" d="M1,1v14h14V1H1z M2,2h12v12H2V2z"/>
<path fill="#FFFFFF" d="M3,3h10v2H3V3z"/>
<path opacity="0.5" fill="#FFFFFF" d="M7,6h2v1H7V6z"/>
<path opacity="0.5" fill="#FFFFFF" d="M7,8h2v1H7V8z"/>
<path opacity="0.5" fill="#FFFFFF" d="M7,10h2v1H7V10z"/>
<path opacity="0.5" fill="#FFFFFF" d="M7,12h2v1H7V12z"/>
<path opacity="0.5" fill="#FFFFFF" d="M10,6h3v1h-3V6z"/>
<path opacity="0.5" fill="#FFFFFF" d="M10,8h3v1h-3V8z"/>
<path opacity="0.5" fill="#FFFFFF" d="M10,10h3v1h-3V10z"/>
<path opacity="0.5" fill="#FFFFFF" d="M10,12h3v1h-3V12z"/>
<path opacity="0.5" fill="#FFFFFF" d="M3,6h3v1H3V6z"/>
<path opacity="0.5" fill="#FFFFFF" d="M3,8h3v1H3V8z"/>
<path opacity="0.5" fill="#FFFFFF" d="M3,10h3v1H3V10z"/>
<path opacity="0.5" fill="#FFFFFF" d="M3,12h3v1H3V12z"/>
</svg>
