<svg xmlns="http://www.w3.org/2000/svg" viewBox="0 0 16 16"><path fill="#CCC" d="M1 3h14v10H1z"/><path fill="#999" d="M14 4v8H2V4h12m1-1H1v10h14V3z"/><path fill="#FFF" d="M3 2h10v12H3z"/><path fill="#666" d="M12 3v10H4V3h8m1-1H3v12h10V2z"/><path fill="#B9B9B9" d="M5 9h6v1H5zm0 2h6v1H5z"/><path fill="#59F" d="M9.5 8h-3c-.3 0-.5-.2-.5-.5v-3c0-.3.2-.5.5-.5h3c.3 0 .5.2.5.5v3c0 .3-.2.5-.5.5z"/><path opacity=".25" d="M9 5v2H7V5h2m.5-1h-3c-.3 0-.5.2-.5.5v3c0 .3.2.5.5.5h3c.3 0 .5-.2.5-.5v-3c0-.3-.2-.5-.5-.5z"/></svg>