<?xml version="1.0" encoding="utf-8"?>
<!-- Generator: Adobe Illustrator 22.0.1, SVG Export Plug-In . SVG Version: 6.00 Build 0)  -->
<svg version="1.1" id="Ebene_1" xmlns="http://www.w3.org/2000/svg" xmlns:xlink="http://www.w3.org/1999/xlink" x="0px" y="0px"
	 viewBox="0 0 16 16" enable-background="new 0 0 16 16" xml:space="preserve">
<path fill="#FFFFFF" d="M2,1h12v14H2V1z"/>
<path fill="#999999" d="M2,1v14h12V1H2z M3,2h10v12H3V2z"/>
<rect x="4" y="6" fill="#666666" width="2" height="1"/>
<rect x="4" y="3" fill="#5599FF" width="2" height="3"/>
<rect x="4" y="12" fill="#666666" width="2" height="1"/>
<rect x="4" y="9" fill="#5599FF" width="2" height="3"/>
<rect x="7" y="6" fill="#666666" width="2" height="1"/>
<rect x="7" y="3" fill="#5599FF" width="2" height="3"/>
<rect x="7" y="12" fill="#666666" width="2" height="1"/>
<rect x="7" y="9" fill="#5599FF" width="2" height="3"/>
<rect x="10" y="6" fill="#666666" width="2" height="1"/>
<rect x="10" y="3" fill="#5599FF" width="2" height="3"/>
<rect x="10" y="12" fill="#666666" width="2" height="1"/>
<rect x="10" y="9" fill="#5599FF" width="2" height="3"/>
</svg>
