<svg xmlns="http://www.w3.org/2000/svg" viewBox="0 0 16 16"><path fill="#FFF" d="M2 1h12v14H2V1z"/><path fill="#999" d="M2 1v14h12V1H2zm1 1h10v12H3V2z"/><path fill="#666" d="M4 6h2v1H4z"/><path fill="#59F" d="M4 3h2v3H4z"/><path fill="#666" d="M4 12h2v1H4z"/><path fill="#59F" d="M4 9h2v3H4z"/><path fill="#666" d="M7 6h2v1H7z"/><path fill="#59F" d="M7 3h2v3H7z"/><path fill="#666" d="M7 12h2v1H7z"/><path fill="#59F" d="M7 9h2v3H7z"/><path fill="#666" d="M10 6h2v1h-2z"/><path fill="#59F" d="M10 3h2v3h-2z"/><path fill="#666" d="M10 12h2v1h-2z"/><path fill="#59F" d="M10 9h2v3h-2z"/></svg>