<?xml version="1.0" encoding="utf-8"?>
<!-- Generator: Adobe Illustrator 22.0.1, SVG Export Plug-In . SVG Version: 6.00 Build 0)  -->
<svg version="1.1" id="Ebene_1" xmlns="http://www.w3.org/2000/svg" xmlns:xlink="http://www.w3.org/1999/xlink" x="0px" y="0px"
	 viewBox="0 0 16 16" enable-background="new 0 0 16 16" xml:space="preserve">
<path fill="#FFFFFF" d="M2,1h12v14H2V1z"/>
<path fill="#999999" d="M2,1v14h12V1H2z M3,2h10v12H3V2z"/>
<rect x="4" y="8" fill="#CCCCCC" width="2" height="2"/>
<rect x="4" y="3" fill="#666666" width="8" height="1"/>
<rect x="4" y="5" fill="#CCCCCC" width="2" height="2"/>
<rect x="4" y="11" fill="#CCCCCC" width="2" height="2"/>
<rect x="7" y="5" fill="#FFFFFF" width="8" height="11"/>
<path fill="#5599FF" d="M7,5h8v6H7V5z"/>
<path opacity="0.5" fill="#FFFFFF" d="M12,10H9l0.8-1l0.8-1l0.8,1L12,10z"/>
<path opacity="0.5" fill="#FFFFFF" d="M13,10h-2.7L11,9.3l0.7-0.7l0.7,0.7L13,10z"/>
<ellipse opacity="0.5" fill="#FFFFFF" cx="12.5" cy="7.5" rx="0.5" ry="0.5"/>
<rect x="9" y="13" fill="#B9B9B9" width="2" height="1"/>
<rect x="9" y="12" fill="#B9B9B9" width="4" height="1"/>
<path fill="#666666" d="M7,5v11h8V5H7z M14,15H8V6h6V15z"/>
</svg>
