<?xml version="1.0" encoding="utf-8"?>
<!-- Generator: Adobe Illustrator 22.0.1, SVG Export Plug-In . SVG Version: 6.00 Build 0)  -->
<svg version="1.1" id="Ebene_1" xmlns="http://www.w3.org/2000/svg" xmlns:xlink="http://www.w3.org/1999/xlink" x="0px" y="0px"
	 viewBox="0 0 16 16" enable-background="new 0 0 16 16" xml:space="preserve">
<polygon fill="#999999" points="9,3 6,3 5,3 5,4 5,6 6,6 6,4 9,4 "/>
<polygon fill="#999999" points="6,12 6,10 5,10 5,12 5,13 6,13 9,13 9,12 "/>
<path fill="#FFFFFF" d="M3,6h4v4H3V6z"/>
<path fill="#666666" d="M3,6v4h4V6H3z M4,7h2v2H4V7z"/>
<path fill="#FFFFFF" d="M9,2h4v4H9V2z"/>
<path fill="#666666" d="M9,2v4h4V2H9z M10,3h2v2h-2V3z"/>
<path fill="#FFFFFF" d="M9,10h4v4H9V10z"/>
<path fill="#666666" d="M9,10v4h4v-4H9z M10,11h2v2h-2V11z"/>
</svg>
