<?xml version="1.0" encoding="utf-8"?>
<!-- Generator: Adobe Illustrator 20.0.0, SVG Export Plug-In . SVG Version: 6.00 Build 0)  -->
<svg version="1.1" id="Ebene_1" xmlns="http://www.w3.org/2000/svg" xmlns:xlink="http://www.w3.org/1999/xlink" x="0px" y="0px"
	 viewBox="0 0 16 16" enable-background="new 0 0 16 16" xml:space="preserve">
<path fill="#FFFFFF" d="M1,1h14v14H1V1z"/>
<path fill="#999999" d="M1,1v14h14V1H1z M2,2h12v12H2V2z"/>
<path fill="#666666" d="M3,3h10v2H3V3z"/>
<path fill="#B9B9B9" d="M8.5,6H13v1H8.5V6z M8.5,8H13v1H8.5V8z M8.5,10H13v1H8.5V10z M8.5,12H13v1H8.5V12z"/>
<path fill="#B9B9B9" d="M3,6h4.5v1H3V6z M3,8h4.5v1H3V8z M3,10h4.5v1H3V10z M3,12h4.5v1H3V12z"/>
</svg>
