<?xml version="1.0" encoding="utf-8"?>
<!-- Generator: Adobe Illustrator 22.1.0, SVG Export Plug-In . SVG Version: 6.00 Build 0)  -->
<svg version="1.1" id="Ebene_1" xmlns="http://www.w3.org/2000/svg" xmlns:xlink="http://www.w3.org/1999/xlink" x="0px" y="0px"
	 viewBox="0 0 16 16" enable-background="new 0 0 16 16" xml:space="preserve">
<rect x="6" y="5" fill="#FFFFFF" width="7" height="6"/>
<path fill="#666666" d="M12,6v4H7V6H12 M13,5H6v6h7V5L13,5z"/>
<rect x="7" y="6" fill="#5599FF" width="2" height="4"/>
<polygon fill="#999999" points="5,3.5 5,2.5 4,2.5 4,1 3,1 3,15 4,15 4,13.5 5,13.5 5,12.5 4,12.5 4,8.5 5,8.5 5,7.5 4,7.5 4,3.5 
	"/>
<rect x="6" y="2.5" fill="#999999" width="1" height="1"/>
<rect x="8" y="2.5" fill="#999999" width="1" height="1"/>
<rect x="10" y="2.5" fill="#999999" width="1" height="1"/>
<rect x="6" y="12.5" fill="#999999" width="1" height="1"/>
<rect x="8" y="12.5" fill="#999999" width="1" height="1"/>
<rect x="10" y="12.5" fill="#999999" width="1" height="1"/>
</svg>
