<?xml version="1.0" encoding="utf-8"?>
<!-- Generator: Adobe Illustrator 22.1.0, SVG Export Plug-In . SVG Version: 6.00 Build 0)  -->
<svg version="1.1" id="Ebene_1" xmlns="http://www.w3.org/2000/svg" xmlns:xlink="http://www.w3.org/1999/xlink" x="0px" y="0px"
	 width="32px" height="32px" viewBox="0 0 32 32" style="enable-background:new 0 0 32 32;" xml:space="preserve">
<path d="M16,0.6c2.1,0,4.1,0.4,6,1.2s3.5,1.9,4.9,3.3c1.4,1.4,2.5,3,3.3,4.9c0.8,1.9,1.2,3.9,1.2,6c0,2.1-0.4,4.1-1.2,6
	c-0.8,1.9-1.9,3.5-3.3,4.9s-3,2.5-4.9,3.3c-1.9,0.8-3.9,1.2-6,1.2s-4.1-0.4-6-1.2c-1.9-0.8-3.5-1.9-4.9-3.3s-2.5-3-3.3-4.9
	c-0.8-1.9-1.2-3.9-1.2-6c0-2.1,0.4-4.1,1.2-6s1.9-3.5,3.3-4.9s3-2.5,4.9-3.3S13.9,0.6,16,0.6z M16,27.4V4.6c-2.1,0-4,0.5-5.7,1.5
	s-3.1,2.4-4.1,4.1S4.6,13.9,4.6,16s0.5,4,1.5,5.7c1,1.8,2.4,3.1,4.1,4.1S13.9,27.4,16,27.4L16,27.4z"/>
</svg>
