<svg fill="currentColor" xmlns="http://www.w3.org/2000/svg" width="32" height="32" viewBox="0 0 32 32"><path d="M13.5 6V3.5c0-.3.1-.6.4-.9s.5-.4.9-.4h15c.3 0 .6.1.9.4s.3.6.3.9V6c0 .3-.1.6-.4.9s-.5.4-.9.4h-15c-.3 0-.6-.1-.9-.4s-.3-.5-.3-.9zm-10 7.5V11c0-.3.1-.6.4-.9.2-.2.5-.4.9-.4h25c.3 0 .6.1.9.4.2.2.4.5.4.9v2.5c0 .3-.1.6-.4.9s-.5.4-.9.4h-25c-.3 0-.6-.1-.9-.4s-.4-.5-.4-.9zm5 7.5v-2.5c0-.3.1-.6.4-.9.2-.2.5-.4.9-.4h20c.3 0 .6.1.9.4.2.2.4.5.4.9V21c0 .3-.1.6-.4.9s-.5.4-.9.4h-20c-.3 0-.6-.1-.9-.4-.3-.3-.4-.6-.4-.9zM1 28.5V26c0-.3.1-.6.4-.9s.5-.4.9-.4h27.5c.3 0 .6.1.9.4s.3.5.3.9v2.5c0 .3-.1.6-.4.9-.2.2-.5.4-.9.4H2.3c-.3 0-.6-.1-.9-.4s-.4-.6-.4-.9z"/></svg>