<svg fill="currentColor" xmlns="http://www.w3.org/2000/svg" width="32" height="32" viewBox="0 0 32 32"><path d="M7.3 2.2h17.5c.3 0 .6.1.9.4.2.3.3.6.3.9V6c0 .3-.1.6-.4.9-.2.2-.5.4-.9.4H7.3c-.3 0-.6-.1-.9-.4-.3-.3-.4-.5-.4-.9V3.5c0-.3.1-.6.4-.9.2-.2.5-.4.9-.4zm-5 7.5h27.5c.3 0 .6.1.9.4s.3.6.3.9v2.5c0 .3-.1.6-.4.9s-.5.4-.9.4H2.3c-.3 0-.6-.1-.9-.4s-.4-.5-.4-.9V11c0-.3.1-.6.4-.9.2-.2.5-.4.9-.4zm5 7.5h17.5c.3 0 .6.1.9.4.2.2.4.5.4.9V21c0 .3-.1.6-.4.9s-.5.4-.9.4H7.3c-.3 0-.6-.1-.9-.4-.3-.3-.4-.6-.4-.9v-2.5c0-.3.1-.6.4-.9.2-.2.5-.4.9-.4zm-5 7.5h27.5c.3 0 .6.1.9.4s.3.5.3.9v2.5c0 .3-.1.6-.4.9-.2.2-.5.4-.9.4H2.3c-.3 0-.6-.1-.9-.4s-.4-.6-.4-.9V26c0-.3.1-.6.4-.9s.5-.4.9-.4z"/></svg>