<?xml version="1.0" encoding="utf-8"?>
<!-- Generator: Adobe Illustrator 22.1.0, SVG Export Plug-In . SVG Version: 6.00 Build 0)  -->
<svg version="1.1" id="Ebene_1" xmlns="http://www.w3.org/2000/svg" xmlns:xlink="http://www.w3.org/1999/xlink" x="0px" y="0px"
	 width="32px" height="32px" viewBox="0 0 32 32" style="enable-background:new 0 0 32 32;" xml:space="preserve">
<path d="M13.5,6V3.5c0-0.3,0.1-0.6,0.4-0.9s0.5-0.4,0.9-0.4h15c0.3,0,0.6,0.1,0.9,0.4S31,3.2,31,3.5V6c0,0.3-0.1,0.6-0.4,0.9
	s-0.5,0.4-0.9,0.4h-15c-0.3,0-0.6-0.1-0.9-0.4S13.5,6.4,13.5,6z M3.5,13.5V11c0-0.3,0.1-0.6,0.4-0.9c0.2-0.2,0.5-0.4,0.9-0.4h25
	c0.3,0,0.6,0.1,0.9,0.4c0.2,0.2,0.4,0.5,0.4,0.9v2.5c0,0.3-0.1,0.6-0.4,0.9s-0.5,0.4-0.9,0.4h-25c-0.3,0-0.6-0.1-0.9-0.4
	S3.5,13.9,3.5,13.5z M8.5,21v-2.5c0-0.3,0.1-0.6,0.4-0.9c0.2-0.2,0.5-0.4,0.9-0.4h20c0.3,0,0.6,0.1,0.9,0.4c0.2,0.2,0.4,0.5,0.4,0.9
	V21c0,0.3-0.1,0.6-0.4,0.9s-0.5,0.4-0.9,0.4h-20c-0.3,0-0.6-0.1-0.9-0.4C8.6,21.6,8.5,21.3,8.5,21z M1,28.5V26
	c0-0.3,0.1-0.6,0.4-0.9s0.5-0.4,0.9-0.4h27.5c0.3,0,0.6,0.1,0.9,0.4S31,25.6,31,26v2.5c0,0.3-0.1,0.6-0.4,0.9
	c-0.2,0.2-0.5,0.4-0.9,0.4H2.3c-0.3,0-0.6-0.1-0.9-0.4S1,28.8,1,28.5z"/>
</svg>
