<?xml version="1.0" encoding="utf-8"?>
<!-- Generator: Adobe Illustrator 22.1.0, SVG Export Plug-In . SVG Version: 6.00 Build 0)  -->
<svg version="1.1" id="Ebene_1" xmlns="http://www.w3.org/2000/svg" xmlns:xlink="http://www.w3.org/1999/xlink" x="0px" y="0px"
	 width="32px" height="32px" viewBox="0 0 32 32" style="enable-background:new 0 0 32 32;" xml:space="preserve">
<path d="M1.4,15.2L14.7,4.3C15,4.1,15.2,4,15.4,4.1c0.2,0.1,0.3,0.3,0.3,0.7v7.4h14c0.4,0,0.7,0.1,0.9,0.4c0.2,0.2,0.4,0.5,0.4,0.9
	v5.1c0,0.4-0.1,0.7-0.4,0.9c-0.2,0.2-0.5,0.4-0.9,0.4h-14v7.4c0,0.4-0.1,0.6-0.3,0.7c-0.2,0.1-0.4,0-0.7-0.2L1.4,16.8
	C1.1,16.6,1,16.3,1,16C1,15.7,1.1,15.4,1.4,15.2L1.4,15.2z"/>
</svg>
