<?xml version="1.0" encoding="utf-8"?>
<!-- Generator: Adobe Illustrator 22.1.0, SVG Export Plug-In . SVG Version: 6.00 Build 0)  -->
<svg version="1.1" id="Ebene_1" xmlns="http://www.w3.org/2000/svg" xmlns:xlink="http://www.w3.org/1999/xlink" x="0px" y="0px"
	 width="32px" height="32px" viewBox="0 0 32 32" style="enable-background:new 0 0 32 32;" xml:space="preserve">
<path d="M16.8,1.4l10.9,13.3c0.2,0.3,0.3,0.5,0.2,0.7c-0.1,0.2-0.3,0.3-0.7,0.3h-7.4v14c0,0.4-0.1,0.7-0.4,0.9
	c-0.2,0.2-0.5,0.4-0.9,0.4h-5.1c-0.4,0-0.7-0.1-0.9-0.4c-0.2-0.2-0.4-0.5-0.4-0.9v-14H4.8c-0.4,0-0.6-0.1-0.7-0.3
	c-0.1-0.2,0-0.4,0.2-0.7L15.2,1.4C15.4,1.1,15.7,1,16,1C16.3,1,16.6,1.1,16.8,1.4L16.8,1.4z"/>
</svg>
