<?xml version="1.0" encoding="utf-8"?>
<!-- Generator: Adobe Illustrator 22.1.0, SVG Export Plug-In . SVG Version: 6.00 Build 0)  -->
<svg version="1.1" id="Ebene_1" xmlns="http://www.w3.org/2000/svg" xmlns:xlink="http://www.w3.org/1999/xlink" x="0px" y="0px"
	 width="32px" height="32px" viewBox="0 0 32 32" style="enable-background:new 0 0 32 32;" xml:space="preserve">
<path d="M17.3,4.3l13.3,10.9c0.3,0.2,0.4,0.5,0.4,0.8s-0.1,0.6-0.4,0.8L17.3,27.7c-0.3,0.2-0.5,0.3-0.7,0.2
	c-0.2-0.1-0.3-0.3-0.3-0.7v-7.4h-14c-0.4,0-0.7-0.1-0.9-0.4C1.1,19.2,1,18.9,1,18.5v-5.1c0-0.4,0.1-0.7,0.4-0.9
	c0.2-0.2,0.5-0.4,0.9-0.4h14V4.8c0-0.4,0.1-0.6,0.3-0.7S17,4.1,17.3,4.3L17.3,4.3z"/>
</svg>
