<?xml version="1.0" encoding="utf-8"?>
<!-- Generator: Adobe Illustrator 22.1.0, SVG Export Plug-In . SVG Version: 6.00 Build 0)  -->
<svg version="1.1" id="Ebene_1" xmlns="http://www.w3.org/2000/svg" xmlns:xlink="http://www.w3.org/1999/xlink" x="0px" y="0px"
	 width="32px" height="32px" viewBox="0 0 32 32" style="enable-background:new 0 0 32 32;" xml:space="preserve">
<path d="M13.5,1h5.1c0.4,0,0.7,0.1,0.9,0.4c0.2,0.2,0.4,0.5,0.4,0.9v14h7.4c0.4,0,0.6,0.1,0.7,0.3c0.1,0.2,0,0.4-0.2,0.7L16.8,30.6
	C16.6,30.9,16.3,31,16,31s-0.6-0.1-0.8-0.4L4.3,17.3C4.1,17,4,16.8,4.1,16.6s0.3-0.3,0.7-0.3h7.4v-14c0-0.4,0.1-0.7,0.4-0.9
	C12.8,1.1,13.1,1,13.5,1L13.5,1z"/>
</svg>
