<svg fill="currentColor" xmlns="http://www.w3.org/2000/svg" width="32" height="32" viewBox="0 0 32 32"><path d="M16 2.7h.9c.3 0 .6.1.8.1h.3c.2 0 .3.1.5.3s.2.3.2.5v6l4.2-4.2c.1-.1.3-.2.5-.2s.4 0 .5.2l2.8 2.8c.1.1.2.3.2.5s-.1.4-.2.5l-4.2 4.2h6c.2 0 .3.1.5.2s.2.3.3.5c.1.7.2 1.4.2 2v.9c0 .3-.1.6-.1.8v.3c0 .2-.1.3-.3.5s-.3.2-.5.2h-6l4.2 4.2c.1.1.2.3.2.5s0 .4-.2.5L24 26.8c-.1.1-.3.2-.5.2s-.4-.1-.5-.2l-4.2-4.2v6c0 .2-.1.3-.2.5s-.3.2-.5.3c-.7.1-1.4.2-2 .2h-.9c-.3 0-.6-.1-.8-.1h-.3c-.2 0-.3-.1-.5-.3-.1-.2-.2-.3-.2-.5v-6l-4.2 4.2c-.1.1-.3.2-.5.2s-.4 0-.5-.2l-2.8-2.8c-.1-.1-.2-.3-.2-.5s.1-.4.2-.5l4.2-4.2h-6c-.2 0-.3-.1-.5-.2s-.2-.5-.3-.7c-.1-.7-.2-1.4-.2-2v-.9c0-.3.1-.6.1-.8V14c0-.2.1-.3.3-.5.2-.1.3-.2.5-.2h6L5.4 9.1c-.2-.1-.2-.3-.3-.5s0-.4.2-.5l2.8-2.8c.1-.1.3-.2.5-.2s.4.1.5.2l4.2 4.2v-6c0-.2.1-.3.2-.5s.3-.2.5-.3h2z"/></svg>