<?xml version="1.0" encoding="utf-8"?>
<!-- Generator: Adobe Illustrator 22.1.0, SVG Export Plug-In . SVG Version: 6.00 Build 0)  -->
<svg version="1.1" id="Ebene_1" xmlns="http://www.w3.org/2000/svg" xmlns:xlink="http://www.w3.org/1999/xlink" x="0px" y="0px"
	 width="32px" height="32px" viewBox="0 0 32 32" style="enable-background:new 0 0 32 32;" xml:space="preserve">
<path d="M16,2.7c0.3,0,0.6,0,0.9,0s0.6,0.1,0.8,0.1H18c0.2,0,0.3,0.1,0.5,0.3s0.2,0.3,0.2,0.5v6l4.2-4.2c0.1-0.1,0.3-0.2,0.5-0.2
	s0.4,0,0.5,0.2l2.8,2.8c0.1,0.1,0.2,0.3,0.2,0.5s-0.1,0.4-0.2,0.5l-4.2,4.2h6c0.2,0,0.3,0.1,0.5,0.2c0.2,0.1,0.2,0.3,0.3,0.5
	c0.1,0.7,0.2,1.4,0.2,2c0,0.3,0,0.6,0,0.9s-0.1,0.6-0.1,0.8v0.3c0,0.2-0.1,0.3-0.3,0.5s-0.3,0.2-0.5,0.2h-6l4.2,4.2
	c0.1,0.1,0.2,0.3,0.2,0.5s0,0.4-0.2,0.5L24,26.8c-0.1,0.1-0.3,0.2-0.5,0.2s-0.4-0.1-0.5-0.2l-4.2-4.2v6c0,0.2-0.1,0.3-0.2,0.5
	s-0.3,0.2-0.5,0.3c-0.7,0.1-1.4,0.2-2,0.2c-0.3,0-0.6,0-0.9,0c-0.3,0-0.6-0.1-0.8-0.1h-0.3c-0.2,0-0.3-0.1-0.5-0.3
	c-0.1-0.2-0.2-0.3-0.2-0.5v-6l-4.2,4.2c-0.1,0.1-0.3,0.2-0.5,0.2s-0.4,0-0.5-0.2l-2.8-2.8c-0.1-0.1-0.2-0.3-0.2-0.5s0.1-0.4,0.2-0.5
	l4.2-4.2h-6c-0.2,0-0.3-0.1-0.5-0.2S2.9,18.2,2.8,18c-0.1-0.7-0.2-1.4-0.2-2c0-0.3,0-0.6,0-0.9s0.1-0.6,0.1-0.8V14
	c0-0.2,0.1-0.3,0.3-0.5c0.2-0.1,0.3-0.2,0.5-0.2h6L5.4,9.1C5.2,9,5.2,8.8,5.1,8.6s0-0.4,0.2-0.5l2.8-2.8c0.1-0.1,0.3-0.2,0.5-0.2
	S9,5.2,9.1,5.3l4.2,4.2v-6c0-0.2,0.1-0.3,0.2-0.5s0.3-0.2,0.5-0.3C14.7,2.7,15.4,2.7,16,2.7z"/>
</svg>
