<?xml version="1.0" encoding="utf-8"?>
<!-- Generator: Adobe Illustrator 22.1.0, SVG Export Plug-In . SVG Version: 6.00 Build 0)  -->
<svg version="1.1" id="Ebene_1" xmlns="http://www.w3.org/2000/svg" xmlns:xlink="http://www.w3.org/1999/xlink" x="0px" y="0px"
	 width="32px" height="32px" viewBox="0 0 32 32" style="enable-background:new 0 0 32 32;" xml:space="preserve">
<path d="M29.9,2.7v26.7c0,0.4-0.1,0.6-0.3,0.7c-0.2,0.1-0.4,0-0.7-0.3L16.6,17.7v11.7c0,0.4-0.1,0.6-0.3,0.7c-0.2,0.1-0.4,0-0.7-0.3
	L2.5,16.9c-0.3-0.2-0.4-0.6-0.4-0.9c0-0.4,0.1-0.7,0.4-0.9L15.6,2.3C15.9,2,16.1,1.9,16.3,2c0.2,0.1,0.3,0.3,0.3,0.7v11.7L28.9,2.3
	C29.2,2,29.4,1.9,29.6,2C29.8,2.1,29.9,2.3,29.9,2.7L29.9,2.7z"/>
</svg>
