<svg fill="currentColor" xmlns="http://www.w3.org/2000/svg" width="32" height="32" viewBox="0 0 32 32"><path d="M14.8 1h2.4c.3 0 .6.1.7.3s.2.4.1.7l-.5.9c1.4.3 2.6 1 3.6 2.1s1.7 2.2 1.9 3.5l1.6 8.2 3 4.3h.4c.3 0 .6.1.8.4s.3.5.3.9c0 .3-.1.7-.3 1-.2.3-.5.6-.8.7-.1.1-.3.1-.6.2s-.8.3-1.6.5-1.7.4-2.6.6c-.9.2-2 .3-3.3.5s-2.6.2-3.9.2c-.9 0-1.9 0-2.9-.1s-1.8-.2-2.6-.3c-.8-.1-1.5-.2-2.2-.4s-1.3-.3-1.8-.4c-.5-.2-1-.3-1.4-.4-.4-.1-.7-.2-.9-.3L4 24c-.3-.1-.6-.4-.8-.7-.2-.3-.3-.7-.3-1 0-.3.1-.6.3-.9.2-.3.5-.4.8-.4h.4l3-4.3L9 8.5c.2-1.3.9-2.4 1.9-3.5s2.2-1.7 3.6-2.1l-.5-.8c-.1-.3-.1-.6.1-.8.2-.2.4-.3.7-.3zm-1.4 27.3c.8.1 1.7.2 2.6.2.9 0 1.7-.1 2.5-.2-.2.8-.5 1.5-1 2s-1 .8-1.6.8-1.1-.3-1.6-.8c-.3-.6-.7-1.2-.9-2z"/></svg>