<?xml version="1.0" encoding="utf-8"?>
<!-- Generator: Adobe Illustrator 22.1.0, SVG Export Plug-In . SVG Version: 6.00 Build 0)  -->
<svg version="1.1" id="Ebene_1" xmlns="http://www.w3.org/2000/svg" xmlns:xlink="http://www.w3.org/1999/xlink" x="0px" y="0px"
	 width="32px" height="32px" viewBox="0 0 32 32" style="enable-background:new 0 0 32 32;" xml:space="preserve">
<path d="M14.8,1h2.4c0.3,0,0.6,0.1,0.7,0.3S18.1,1.7,18,2l-0.5,0.9c1.4,0.3,2.6,1,3.6,2.1c1,1.1,1.7,2.2,1.9,3.5l1.6,8.2l3,4.3H28
	c0.3,0,0.6,0.1,0.8,0.4s0.3,0.5,0.3,0.9c0,0.3-0.1,0.7-0.3,1c-0.2,0.3-0.5,0.6-0.8,0.7c-0.1,0.1-0.3,0.1-0.6,0.2s-0.8,0.3-1.6,0.5
	c-0.8,0.2-1.7,0.4-2.6,0.6c-0.9,0.2-2,0.3-3.3,0.5S17.3,26,16,26c-0.9,0-1.9,0-2.9-0.1c-1-0.1-1.8-0.2-2.6-0.3
	c-0.8-0.1-1.5-0.2-2.2-0.4S7,24.9,6.5,24.8c-0.5-0.2-1-0.3-1.4-0.4c-0.4-0.1-0.7-0.2-0.9-0.3L4,24c-0.3-0.1-0.6-0.4-0.8-0.7
	c-0.2-0.3-0.3-0.7-0.3-1c0-0.3,0.1-0.6,0.3-0.9C3.4,21.1,3.7,21,4,21h0.4l3-4.3L9,8.5C9.2,7.2,9.9,6.1,10.9,5s2.2-1.7,3.6-2.1
	L14,2.1c-0.1-0.3-0.1-0.6,0.1-0.8C14.3,1.1,14.5,1,14.8,1L14.8,1z M13.4,28.3c0.8,0.1,1.7,0.2,2.6,0.2c0.9,0,1.7-0.1,2.5-0.2
	c-0.2,0.8-0.5,1.5-1,2c-0.5,0.5-1,0.8-1.6,0.8s-1.1-0.3-1.6-0.8C14,29.7,13.6,29.1,13.4,28.3z"/>
</svg>
