<svg fill="currentColor" xmlns="http://www.w3.org/2000/svg" width="32" height="32" viewBox="0 0 32 32"><path d="M21 15c.1 0 .2.1.4.1.2.1.5.2.9.4s.9.4 1.3.7.8.6 1.3 1 .9.9 1.3 1.4c.4.5.6 1.1.9 1.8s.4 1.4.4 2.2c0 1.1-.2 2.2-.7 3.1-.5 1-1.1 1.8-1.8 2.4-.7.6-1.6 1.2-2.5 1.7-.9.5-1.8.8-2.7 1-.9.2-1.8.3-2.5.3H4.7v-2.2c.7-.1 1.3-.4 1.8-.8s.7-1 .7-1.6V4.8c0-.2 0-.4-.1-.6-.1-.2-.2-.4-.3-.5s-.2-.2-.4-.3c-.2-.2-.4-.3-.7-.3-.3-.1-.6-.2-1-.3V1h11.8c1 0 1.9.2 2.9.5s1.9.8 2.7 1.4 1.5 1.4 2 2.4.8 2 .8 3.1c0 .8-.1 1.7-.4 2.4-.3.8-.6 1.4-.9 1.9-.4.5-.8.9-1.1 1.3-.4.4-.7.6-1 .8l-.5.2zm-8.9-1.5h3.5c1.3 0 2.4-.4 3.3-1.2.9-.8 1.3-1.8 1.3-3.1 0-.7-.1-1.3-.2-1.8s-.4-1-.7-1.4c-.4-.4-.9-.8-1.6-1-.7-.2-1.6-.3-2.6-.3h-3v8.8zm0 12.5h5.4c1.3 0 2.3-.4 3-1.3.7-.8 1-1.9 1-3.3 0-1.5-.5-2.8-1.6-3.9-1-1.1-2.3-1.6-3.9-1.6h-4V26z"/></svg>