<?xml version="1.0" encoding="utf-8"?>
<!-- Generator: Adobe Illustrator 22.1.0, SVG Export Plug-In . SVG Version: 6.00 Build 0)  -->
<svg version="1.1" id="Ebene_1" xmlns="http://www.w3.org/2000/svg" xmlns:xlink="http://www.w3.org/1999/xlink" x="0px" y="0px"
	 width="32px" height="32px" viewBox="0 0 32 32" style="enable-background:new 0 0 32 32;" xml:space="preserve">
<path d="M21,15c0.1,0,0.2,0.1,0.4,0.1c0.2,0.1,0.5,0.2,0.9,0.4c0.4,0.2,0.9,0.4,1.3,0.7s0.8,0.6,1.3,1s0.9,0.9,1.3,1.4
	c0.4,0.5,0.6,1.1,0.9,1.8s0.4,1.4,0.4,2.2c0,1.1-0.2,2.2-0.7,3.1c-0.5,1-1.1,1.8-1.8,2.4c-0.7,0.6-1.6,1.2-2.5,1.7
	c-0.9,0.5-1.8,0.8-2.7,1c-0.9,0.2-1.8,0.3-2.5,0.3H4.7v-2.2c0.7-0.1,1.3-0.4,1.8-0.8c0.5-0.4,0.7-1,0.7-1.6V5.7c0-0.4,0-0.7,0-0.9
	c0-0.2,0-0.4-0.1-0.6C7,4,6.9,3.8,6.8,3.7S6.6,3.5,6.4,3.4C6.2,3.2,6,3.1,5.7,3.1C5.4,3,5.1,2.9,4.7,2.8V1l11.8,0
	c1,0,1.9,0.2,2.9,0.5c1,0.3,1.9,0.8,2.7,1.4s1.5,1.4,2,2.4s0.8,2,0.8,3.1c0,0.8-0.1,1.7-0.4,2.4c-0.3,0.8-0.6,1.4-0.9,1.9
	c-0.4,0.5-0.8,0.9-1.1,1.3c-0.4,0.4-0.7,0.6-1,0.8L21,15z M12.1,13.5h3.5c1.3,0,2.4-0.4,3.3-1.2c0.9-0.8,1.3-1.8,1.3-3.1
	c0-0.7-0.1-1.3-0.2-1.8s-0.4-1-0.7-1.4c-0.4-0.4-0.9-0.8-1.6-1c-0.7-0.2-1.6-0.3-2.6-0.3h-3L12.1,13.5L12.1,13.5z M12.1,26h5.4
	c1.3,0,2.3-0.4,3-1.3c0.7-0.8,1-1.9,1-3.3c0-1.5-0.5-2.8-1.6-3.9c-1-1.1-2.3-1.6-3.9-1.6h-4V26z"/>
</svg>
