<?xml version="1.0" encoding="utf-8"?>
<!-- Generator: Adobe Illustrator 22.1.0, SVG Export Plug-In . SVG Version: 6.00 Build 0)  -->
<svg version="1.1" id="Ebene_1" xmlns="http://www.w3.org/2000/svg" xmlns:xlink="http://www.w3.org/1999/xlink" x="0px" y="0px"
	 width="32px" height="32px" viewBox="0 0 32 32" style="enable-background:new 0 0 32 32;" xml:space="preserve">
<path d="M7.3,1h20.6c1.2,0,1.9,0.6,1.9,1.9v22.5c0,0.4-0.1,0.8-0.4,1.1L27.7,28c-0.1,0.1-0.2,0.2-0.3,0.1c-0.1,0-0.1-0.1-0.1-0.3
	V4.1c0-0.2-0.1-0.3-0.2-0.4s-0.3-0.2-0.4-0.2H9.1C8.7,3.5,8.4,3.7,8.1,4L6.5,5.6C6.3,5.7,6.3,5.8,6.3,5.9C6.4,6,6.5,6,6.6,6h17.5
	c0.2,0,0.3,0.1,0.4,0.2c0.1,0.1,0.2,0.3,0.2,0.4v23.7c0,0.2-0.1,0.3-0.2,0.4S24.3,31,24.1,31H2.9c-0.2,0-0.3-0.1-0.4-0.2
	s-0.2-0.3-0.2-0.4V6c0-0.4,0.1-0.8,0.4-1.1l3.5-3.5C6.5,1.2,6.8,1,7.3,1L7.3,1z"/>
</svg>
