<?xml version="1.0" encoding="utf-8"?>
<!-- Generator: Adobe Illustrator 22.1.0, SVG Export Plug-In . SVG Version: 6.00 Build 0)  -->
<svg version="1.1" id="Ebene_1" xmlns="http://www.w3.org/2000/svg" xmlns:xlink="http://www.w3.org/1999/xlink" x="0px" y="0px"
	 width="32px" height="32px" viewBox="0 0 32 32" style="enable-background:new 0 0 32 32;" xml:space="preserve">
<path d="M13.5,2.3h5c0.7,0,1.3,0.2,1.8,0.7C20.8,3.5,21,4.1,21,4.8v2.5h7.5c0.7,0,1.3,0.2,1.8,0.7C30.8,8.5,31,9.1,31,9.8v10H18.5
	v-2.5h-5v2.5H1v-10C1,9.1,1.2,8.5,1.7,8s1.1-0.7,1.8-0.7H11V4.8c0-0.7,0.2-1.3,0.7-1.8C12.2,2.5,12.8,2.3,13.5,2.3L13.5,2.3z
	 M13.5,4.8v2.5h5V4.8H13.5z M31,22.2v5c0,0.7-0.2,1.3-0.7,1.8c-0.5,0.5-1.1,0.7-1.8,0.7h-25c-0.7,0-1.3-0.2-1.8-0.7S1,27.9,1,27.2
	v-5H31L31,22.2z"/>
</svg>
