<?xml version="1.0" encoding="utf-8"?>
<!-- Generator: Adobe Illustrator 22.1.0, SVG Export Plug-In . SVG Version: 6.00 Build 0)  -->
<svg version="1.1" id="Ebene_1" xmlns="http://www.w3.org/2000/svg" xmlns:xlink="http://www.w3.org/1999/xlink" x="0px" y="0px"
	 width="32px" height="32px" viewBox="0 0 32 32" style="enable-background:new 0 0 32 32;" xml:space="preserve">
<path d="M29.8,4.5c0.3,0,0.6,0.1,0.8,0.3S31,5.3,31,5.6v19.6c0,0.3-0.1,0.6-0.3,0.8s-0.5,0.3-0.8,0.3c-0.3,0-0.6-0.1-0.8-0.3
	s-0.3-0.5-0.3-0.8V5.6c0-0.3,0.1-0.6,0.3-0.8S29.5,4.5,29.8,4.5z M26.4,25.2l-15.6-4.6H9.9L11,27c0,0.2,0,0.4-0.1,0.5
	c-0.1,0.1-0.4,0.1-0.7,0.1H8.1c-0.3,0-0.6-0.1-0.8-0.3c-0.2-0.2-0.4-0.5-0.4-0.8c-0.8-5.2-1.3-7.9-1.3-8.1v-5.9c0-0.2,0-0.4,0-0.5
	c0-0.1,0.1-0.2,0.1-0.3c0.1-0.1,0.2-0.1,0.4-0.1h4.6l15.6-5.8L26.4,25.2L26.4,25.2z M3.3,12.5v5.8c-0.1,0-0.1,0-0.3,0
	c-0.1,0-0.3-0.1-0.6-0.1C2.2,18.1,2,18,1.8,17.8s-0.4-0.4-0.6-0.7C1.1,16.8,1,16.4,1,16v-1.2c0-0.4,0.1-0.8,0.2-1.1
	c0.2-0.3,0.4-0.5,0.6-0.7c0.2-0.2,0.4-0.3,0.7-0.4c0.2-0.1,0.4-0.1,0.6-0.2L3.3,12.5z"/>
</svg>
