<svg xmlns="http://www.w3.org/2000/svg" width="32" height="32" fill="currentColor" viewBox="0 0 32 32"><path d="M29.8 4.5c.3 0 .6.1.8.3s.4.5.4.8v19.6c0 .3-.1.6-.3.8s-.5.3-.8.3-.6-.1-.8-.3-.3-.5-.3-.8V5.6c0-.3.1-.6.3-.8s.4-.3.7-.3m-3.4 20.7-15.6-4.6h-.9L11 27c0 .2 0 .4-.1.5s-.4.1-.7.1H8.1c-.3 0-.6-.1-.8-.3s-.4-.5-.4-.8c-.8-5.2-1.3-7.9-1.3-8.1V12c0-.1.1-.2.1-.3.1-.1.2-.1.4-.1h4.6l15.6-5.8zM3.3 12.5v5.8H3c-.1 0-.3-.1-.6-.1-.2-.1-.4-.2-.6-.4s-.4-.4-.6-.7c-.1-.3-.2-.7-.2-1.1v-1.2c0-.4.1-.8.2-1.1.2-.3.4-.5.6-.7s.4-.3.7-.4c.2-.1.4-.1.6-.2z"/></svg>