<?xml version="1.0" encoding="utf-8"?>
<!-- Generator: Adobe Illustrator 22.1.0, SVG Export Plug-In . SVG Version: 6.00 Build 0)  -->
<svg version="1.1" id="Ebene_1" xmlns="http://www.w3.org/2000/svg" xmlns:xlink="http://www.w3.org/1999/xlink" x="0px" y="0px"
	 width="32px" height="32px" viewBox="0 0 32 32" style="enable-background:new 0 0 32 32;" xml:space="preserve">
<path d="M23.5,1H26c0.3,0,0.6,0.1,0.9,0.4c0.2,0.2,0.4,0.5,0.4,0.9v1.2h1.2c0.3,0,0.6,0.1,0.9,0.4s0.4,0.5,0.4,0.9v3.7H2.3V4.8
	c0-0.3,0.1-0.6,0.4-0.9s0.5-0.4,0.9-0.4h1.2V2.3c0-0.3,0.1-0.6,0.4-0.9C5.4,1.1,5.7,1,6,1h2.5c0.3,0,0.6,0.1,0.9,0.4
	c0.2,0.2,0.4,0.5,0.4,0.9v1.2h12.5V2.3c0-0.3,0.1-0.6,0.4-0.9C22.9,1.1,23.2,1,23.5,1L23.5,1z M29.7,11v18.7c0,0.3-0.1,0.6-0.4,0.9
	c-0.2,0.2-0.5,0.4-0.9,0.4h-25c-0.3,0-0.6-0.1-0.9-0.4s-0.4-0.5-0.4-0.9V11H29.7L29.7,11z M4.8,16v2.5h2.5V16H4.8z M9.8,16v2.5h2.5
	V16H9.8z M14.7,16v2.5h2.5V16H14.7z M19.8,16v2.5h2.5V16H19.8z M24.7,16v2.5h2.5V16H24.7z M4.8,21v2.5h2.5V21C7.3,21,4.8,21,4.8,21z
	 M9.8,21v2.5h2.5V21C12.3,21,9.8,21,9.8,21z M14.7,21v2.5h2.5V21C17.3,21,14.7,21,14.7,21z M19.8,21v2.5h2.5V21
	C22.3,21,19.8,21,19.8,21z M24.7,21v2.5h2.5V21C27.3,21,24.7,21,24.7,21z M4.8,26v2.5h2.5V26H4.8z M9.8,26v2.5h2.5V26H9.8z M14.7,26
	v2.5h2.5V26H14.7z M19.8,26v2.5h2.5V26H19.8z M24.7,26v2.5h2.5V26H24.7z"/>
</svg>
