<svg fill="currentColor" xmlns="http://www.w3.org/2000/svg" width="32" height="32" viewBox="0 0 32 32"><path d="M23.5 1H26c.3 0 .6.1.9.4.2.2.4.5.4.9v1.2h1.2c.3 0 .6.1.9.4s.4.5.4.9v3.7H2.3V4.8c0-.3.1-.6.4-.9s.5-.4.9-.4h1.2V2.3c0-.3.1-.6.4-.9.2-.3.5-.4.8-.4h2.5c.3 0 .6.1.9.4.2.2.4.5.4.9v1.2h12.5V2.3c0-.3.1-.6.4-.9.2-.3.5-.4.8-.4zm6.2 10v18.7c0 .3-.1.6-.4.9-.2.2-.5.4-.9.4h-25c-.3 0-.6-.1-.9-.4s-.4-.5-.4-.9V11h27.6zM4.8 16v2.5h2.5V16H4.8zm5 0v2.5h2.5V16H9.8zm4.9 0v2.5h2.5V16h-2.5zm5.1 0v2.5h2.5V16h-2.5zm4.9 0v2.5h2.5V16h-2.5zM4.8 21v2.5h2.5V21H4.8zm5 0v2.5h2.5V21H9.8zm4.9 0v2.5h2.5V21h-2.5zm5.1 0v2.5h2.5V21h-2.5zm4.9 0v2.5h2.5V21h-2.5zM4.8 26v2.5h2.5V26H4.8zm5 0v2.5h2.5V26H9.8zm4.9 0v2.5h2.5V26h-2.5zm5.1 0v2.5h2.5V26h-2.5zm4.9 0v2.5h2.5V26h-2.5z"/></svg>