<svg xmlns="http://www.w3.org/2000/svg" width="32" height="32" fill="currentColor" viewBox="0 0 32 32"><path d="M23.5 1H26c.3 0 .6.1.9.4.2.2.4.5.4.9v1.2h1.2c.3 0 .6.1.9.4s.4.5.4.9v3.7H2.3V4.8c0-.3.1-.6.4-.9s.5-.4.9-.4h1.2V2.3c0-.3.1-.6.4-.9.2-.3.5-.4.8-.4h2.5c.3 0 .6.1.9.4.2.2.4.5.4.9v1.2h12.5V2.3c0-.3.1-.6.4-.9.2-.3.5-.4.8-.4m6.2 10v18.7c0 .3-.1.6-.4.9-.2.2-.5.4-.9.4h-25c-.3 0-.6-.1-.9-.4s-.4-.5-.4-.9V11zM4.8 16v2.5h2.5V16zm5 0v2.5h2.5V16zm4.9 0v2.5h2.5V16zm5.1 0v2.5h2.5V16zm4.9 0v2.5h2.5V16zM4.8 21v2.5h2.5V21zm5 0v2.5h2.5V21zm4.9 0v2.5h2.5V21zm5.1 0v2.5h2.5V21zm4.9 0v2.5h2.5V21zM4.8 26v2.5h2.5V26zm5 0v2.5h2.5V26zm4.9 0v2.5h2.5V26zm5.1 0v2.5h2.5V26zm4.9 0v2.5h2.5V26z"/></svg>