<svg fill="currentColor" xmlns="http://www.w3.org/2000/svg" width="32" height="32" viewBox="0 0 32 32"><path d="M13.5 3.5h5c.9 0 1.8.2 2.6.5s1.4.8 1.8 1.2.8 1 1.1 1.5c.3.5.5.9.6 1.3l.1.5h3.7c.7 0 1.3.2 1.8.7.6.5.8 1.1.8 1.8v15c0 .7-.2 1.3-.7 1.8-.5.5-1.1.7-1.8.7h-25c-.7 0-1.3-.2-1.8-.7-.5-.5-.7-1.1-.7-1.8V11c0-.7.2-1.3.7-1.8.5-.5 1.1-.7 1.8-.7h3.7c0-.1.1-.3.2-.5.1-.3.3-.7.6-1.2.3-.6.7-1.1 1.1-1.5.4-.4 1-.8 1.8-1.2.8-.4 1.7-.6 2.6-.6zm10 7.5v2.5H26V11h-2.5zM16 12.7c-1.6 0-2.9.6-4.1 1.7s-1.7 2.5-1.7 4.1c0 1.6.6 2.9 1.7 4.1 1.1 1.1 2.5 1.7 4.1 1.7s2.9-.6 4.1-1.7c1.1-1.1 1.7-2.5 1.7-4.1 0-1.6-.6-2.9-1.7-4.1s-2.5-1.7-4.1-1.7zm0 3.2c.7 0 1.3.2 1.8.7.5.5.7 1.1.7 1.8s-.2 1.3-.7 1.8c-.5.5-1.1.7-1.8.7s-1.3-.2-1.8-.7c-.5-.5-.7-1.1-.7-1.8s.2-1.3.7-1.8c.5-.4 1.1-.7 1.8-.7z"/></svg>