<?xml version="1.0" encoding="utf-8"?>
<!-- Generator: Adobe Illustrator 22.1.0, SVG Export Plug-In . SVG Version: 6.00 Build 0)  -->
<svg version="1.1" id="Ebene_1" xmlns="http://www.w3.org/2000/svg" xmlns:xlink="http://www.w3.org/1999/xlink" x="0px" y="0px"
	 width="32px" height="32px" viewBox="0 0 32 32" style="enable-background:new 0 0 32 32;" xml:space="preserve">
<path d="M13.5,3.5h5c0.9,0,1.8,0.2,2.6,0.5s1.4,0.8,1.8,1.2s0.8,1,1.1,1.5c0.3,0.5,0.5,0.9,0.6,1.3l0.1,0.5h3.7
	c0.7,0,1.3,0.2,1.8,0.7C30.8,9.7,31,10.3,31,11v15c0,0.7-0.2,1.3-0.7,1.8c-0.5,0.5-1.1,0.7-1.8,0.7h-25c-0.7,0-1.3-0.2-1.8-0.7
	C1.2,27.3,1,26.7,1,26V11c0-0.7,0.2-1.3,0.7-1.8c0.5-0.5,1.1-0.7,1.8-0.7h3.7c0-0.1,0.1-0.3,0.2-0.5C7.5,7.7,7.7,7.3,8,6.8
	c0.3-0.6,0.7-1.1,1.1-1.5c0.4-0.4,1-0.8,1.8-1.2C11.7,3.7,12.6,3.5,13.5,3.5L13.5,3.5z M23.5,11v2.5H26V11H23.5z M16,12.7
	c-1.6,0-2.9,0.6-4.1,1.7s-1.7,2.5-1.7,4.1c0,1.6,0.6,2.9,1.7,4.1c1.1,1.1,2.5,1.7,4.1,1.7s2.9-0.6,4.1-1.7c1.1-1.1,1.7-2.5,1.7-4.1
	c0-1.6-0.6-2.9-1.7-4.1S17.6,12.7,16,12.7z M16,15.9c0.7,0,1.3,0.2,1.8,0.7c0.5,0.5,0.7,1.1,0.7,1.8c0,0.7-0.2,1.3-0.7,1.8
	c-0.5,0.5-1.1,0.7-1.8,0.7c-0.7,0-1.3-0.2-1.8-0.7c-0.5-0.5-0.7-1.1-0.7-1.8c0-0.7,0.2-1.3,0.7-1.8C14.7,16.2,15.3,15.9,16,15.9z"/>
</svg>
