<svg xmlns="http://www.w3.org/2000/svg" width="32" height="32" fill="currentColor" viewBox="0 0 32 32"><path d="M13.5 3.5h5c.9 0 1.8.2 2.6.5s1.4.8 1.8 1.2.8 1 1.1 1.5.5.9.6 1.3l.1.5h3.7c.7 0 1.3.2 1.8.7.6.5.8 1.1.8 1.8v15c0 .7-.2 1.3-.7 1.8s-1.1.7-1.8.7h-25c-.7 0-1.3-.2-1.8-.7S1 26.7 1 26V11c0-.7.2-1.3.7-1.8s1.1-.7 1.8-.7h3.7c0-.1.1-.3.2-.5q.15-.45.6-1.2c.3-.6.7-1.1 1.1-1.5q.6-.6 1.8-1.2c.8-.4 1.7-.6 2.6-.6m10 7.5v2.5H26V11zM16 12.7c-1.6 0-2.9.6-4.1 1.7s-1.7 2.5-1.7 4.1.6 2.9 1.7 4.1c1.1 1.1 2.5 1.7 4.1 1.7s2.9-.6 4.1-1.7c1.1-1.1 1.7-2.5 1.7-4.1s-.6-2.9-1.7-4.1-2.5-1.7-4.1-1.7m0 3.2c.7 0 1.3.2 1.8.7s.7 1.1.7 1.8-.2 1.3-.7 1.8-1.1.7-1.8.7-1.3-.2-1.8-.7-.7-1.1-.7-1.8.2-1.3.7-1.8c.5-.4 1.1-.7 1.8-.7"/></svg>