<?xml version="1.0" encoding="utf-8"?>
<!-- Generator: Adobe Illustrator 22.1.0, SVG Export Plug-In . SVG Version: 6.00 Build 0)  -->
<svg version="1.1" id="Ebene_1" xmlns="http://www.w3.org/2000/svg" xmlns:xlink="http://www.w3.org/1999/xlink" x="0px" y="0px"
	 width="32px" height="32px" viewBox="0 0 32 32" style="enable-background:new 0 0 32 32;" xml:space="preserve">
<path d="M9.9,2h8.9c1,0,2.1,0.2,3.2,0.6l-4.5,4.5H8.6c-0.7,0-1.3,0.2-1.8,0.7S6.1,9,6.1,9.7v12.7c0,0.7,0.2,1.3,0.7,1.8
	s1.1,0.7,1.8,0.7h12.7c0.7,0,1.3-0.2,1.8-0.7s0.7-1.1,0.7-1.8v-1.8l5.1-5.1v5.6c0,2.8-0.8,5-2.3,6.5C25,29.2,22.8,30,20.1,30H9.9
	c-2.8,0-5-0.8-6.5-2.3C1.8,26.1,1,23.9,1,21.1V10.9c0-2.8,0.8-5,2.3-6.5S7.1,2,9.9,2L9.9,2z M17.3,13.7l10-10
	c0.1-0.1,0.3-0.2,0.4-0.2s0.3,0.1,0.4,0.2l2.6,2.6C30.9,6.4,31,6.5,31,6.7c0,0.2-0.1,0.3-0.2,0.4L17.3,20.7
	c-0.1,0.1-0.3,0.2-0.4,0.2c-0.2,0-0.3-0.1-0.4-0.2l-6.3-6.3C10,14.3,10,14.1,10,13.9s0.1-0.3,0.2-0.4l2.6-2.6
	c0.1-0.1,0.3-0.2,0.4-0.2s0.3,0.1,0.4,0.2l2.8,2.8c0.1,0.1,0.3,0.2,0.5,0.2C17,13.9,17.2,13.9,17.3,13.7L17.3,13.7z"/>
</svg>
