<svg fill="currentColor" xmlns="http://www.w3.org/2000/svg" width="32" height="32" viewBox="0 0 32 32"><path d="M9.9 2h8.9c1 0 2.1.2 3.2.6l-4.5 4.5H8.6c-.7 0-1.3.2-1.8.7S6.1 9 6.1 9.7v12.7c0 .7.2 1.3.7 1.8s1.1.7 1.8.7h12.7c.7 0 1.3-.2 1.8-.7s.7-1.1.7-1.8v-1.8l5.1-5.1v5.6c0 2.8-.8 5-2.3 6.5-1.6 1.6-3.8 2.4-6.5 2.4H9.9c-2.8 0-5-.8-6.5-2.3C1.8 26.1 1 23.9 1 21.1V10.9c0-2.8.8-5 2.3-6.5S7.1 2 9.9 2zm7.4 11.7l10-10c.1-.1.3-.2.4-.2s.3.1.4.2l2.6 2.6c.2.1.3.2.3.4s-.1.3-.2.4L17.3 20.7c-.1.1-.3.2-.4.2-.2 0-.3-.1-.4-.2l-6.3-6.3c-.2-.1-.2-.3-.2-.5s.1-.3.2-.4l2.6-2.6c.1-.1.3-.2.4-.2s.3.1.4.2l2.8 2.8c.1.1.3.2.5.2.1 0 .3 0 .4-.2z"/></svg>