<svg fill="currentColor" xmlns="http://www.w3.org/2000/svg" width="32" height="32" viewBox="0 0 32 32"><path d="M16 1c2 0 4 .4 5.8 1.2 1.9.8 3.5 1.8 4.8 3.2 1.3 1.3 2.4 2.9 3.2 4.8C30.6 12 31 14 31 16s-.4 4-1.2 5.8c-.8 1.9-1.9 3.4-3.2 4.8s-2.9 2.4-4.8 3.2C20 30.6 18 31 16 31s-4-.4-5.8-1.2-3.5-1.8-4.8-3.2-2.4-2.9-3.2-4.8C1.4 20 1 18 1 16s.4-4 1.2-5.8S4 6.7 5.4 5.4 8.3 3 10.2 2.2 14 1 16 1zm6.6 14l-5.8-7.1c-.2-.3-.5-.4-.8-.4s-.6.1-.8.4L9.4 15c-.2.3-.3.5-.2.7.1.2.3.3.6.3h3.6v7.1c0 .2.1.3.2.5s.3.2.5.2H18c.2 0 .3-.1.5-.2s.2-.3.2-.5V16h3.6c.4 0 .6-.1.7-.3-.1-.2-.2-.4-.4-.7z"/></svg>