<svg fill="currentColor" xmlns="http://www.w3.org/2000/svg" width="32" height="32" viewBox="0 0 32 32"><path d="M16 1c2 0 4 .4 5.8 1.2 1.9.8 3.5 1.8 4.8 3.2 1.3 1.3 2.4 2.9 3.2 4.8C30.6 12 31 14 31 16s-.4 4-1.2 5.8c-.8 1.9-1.9 3.4-3.2 4.8s-2.9 2.4-4.8 3.2C20 30.6 18 31 16 31s-4-.4-5.8-1.2-3.5-1.8-4.8-3.2-2.4-2.9-3.2-4.8C1.4 20 1 18 1 16s.4-4 1.2-5.8S4 6.7 5.4 5.4 8.3 3 10.2 2.2 14 1 16 1zm8.1 14.2L17 9.4c-.3-.2-.5-.3-.7-.2s-.3.3-.3.6v3.6H8.9c-.2 0-.3.1-.5.2s-.2.3-.2.5V18c0 .2.1.3.2.5s.3.2.5.2H16v3.6c0 .4.1.6.3.7.2.1.4 0 .7-.2l7.1-5.8c.3-.2.4-.5.4-.8.1-.5-.1-.8-.4-1z"/></svg>