<svg fill="currentColor" xmlns="http://www.w3.org/2000/svg" width="32" height="32" viewBox="0 0 32 32"><path d="M16 1c2 0 4 .4 5.8 1.2 1.9.8 3.5 1.8 4.8 3.2 1.3 1.3 2.4 2.9 3.2 4.8C30.6 12 31 14 31 16s-.4 4-1.2 5.8c-.8 1.9-1.9 3.4-3.2 4.8s-2.9 2.4-4.8 3.2C20 30.6 18 31 16 31s-4-.4-5.8-1.2-3.5-1.8-4.8-3.2-2.4-2.9-3.2-4.8C1.4 20 1 18 1 16s.4-4 1.2-5.8S4 6.7 5.4 5.4 8.3 3 10.2 2.2 14 1 16 1zm1.9 7.2H14c-.2 0-.3.1-.5.2-.1.1-.2.3-.2.5V16H9.8c-.4 0-.6.1-.7.3s0 .4.2.7l5.8 7.1c.2.3.5.4.8.4.3 0 .6-.1.8-.4l5.8-7.1c.2-.3.3-.5.2-.7-.1-.2-.3-.3-.7-.3h-3.6V8.9c0-.2-.1-.3-.2-.5.1-.1-.1-.2-.3-.2z"/></svg>