<?xml version="1.0" encoding="utf-8"?>
<!-- Generator: Adobe Illustrator 22.1.0, SVG Export Plug-In . SVG Version: 6.00 Build 0)  -->
<svg version="1.1" id="Ebene_1" xmlns="http://www.w3.org/2000/svg" xmlns:xlink="http://www.w3.org/1999/xlink" x="0px" y="0px"
	 width="32px" height="32px" viewBox="0 0 32 32" style="enable-background:new 0 0 32 32;" xml:space="preserve">
<path d="M16,1c2,0,4,0.4,5.8,1.2C23.7,3,25.3,4,26.6,5.4c1.3,1.3,2.4,2.9,3.2,4.8C30.6,12,31,14,31,16c0,2-0.4,4-1.2,5.8
	c-0.8,1.9-1.9,3.4-3.2,4.8s-2.9,2.4-4.8,3.2C20,30.6,18,31,16,31s-4-0.4-5.8-1.2S6.7,28,5.4,26.6S3,23.7,2.2,21.8C1.4,20,1,18,1,16
	s0.4-4,1.2-5.8S4,6.7,5.4,5.4S8.3,3,10.2,2.2S14,1,16,1z M24.1,15.2L17,9.4c-0.3-0.2-0.5-0.3-0.7-0.2S16,9.5,16,9.8v3.6H8.9
	c-0.2,0-0.3,0.1-0.5,0.2s-0.2,0.3-0.2,0.5v3.9c0,0.2,0.1,0.3,0.2,0.5s0.3,0.2,0.5,0.2H16v3.6c0,0.4,0.1,0.6,0.3,0.7
	c0.2,0.1,0.4,0,0.7-0.2l7.1-5.8c0.3-0.2,0.4-0.5,0.4-0.8C24.6,15.7,24.4,15.4,24.1,15.2z"/>
</svg>
