<?xml version="1.0" encoding="utf-8"?>
<!-- Generator: Adobe Illustrator 22.1.0, SVG Export Plug-In . SVG Version: 6.00 Build 0)  -->
<svg version="1.1" id="Ebene_1" xmlns="http://www.w3.org/2000/svg" xmlns:xlink="http://www.w3.org/1999/xlink" x="0px" y="0px"
	 width="32px" height="32px" viewBox="0 0 32 32" style="enable-background:new 0 0 32 32;" xml:space="preserve">
<path d="M13.4,5.8c1.9,0,3.6,0.5,5.2,1.5c1.6,1,2.7,2.4,3.5,4.1c0.8-0.2,1.5-0.4,2.3-0.4c2.1,0,3.9,0.7,5.3,2.2
	c1.5,1.5,2.2,3.3,2.2,5.4s-0.7,3.9-2.2,5.4s-3.2,2.2-5.3,2.2H5c-1.4,0-2.5-0.5-3.5-1.5S0,22.5,0,21.1C0,20,0.4,19,1.1,18
	c0.7-0.9,1.7-1.5,2.8-1.8c0-0.2-0.1-0.5-0.1-1c0-2.6,0.9-4.9,2.8-6.8S10.8,5.8,13.4,5.8z"/>
</svg>
