<svg fill="currentColor" xmlns="http://www.w3.org/2000/svg" width="32" height="32" viewBox="0 0 32 32"><path d="M13.6 1.5c1.7 0 3.4.5 4.8 1.5 1.5 1 2.6 2.2 3.3 3.8.7-.2 1.4-.4 2.2-.4 2 0 3.6.7 5 2.1 1.4 1.4 2.1 3.1 2.1 5 0 1.6-.5 3.1-1.5 4.4-1 1.3-2.2 2.2-3.6 2.7l-9.2-8.8c-.2-.3-.5-.4-.8-.4s-.6.1-.8.4l-9.3 8.9h-.1c-1.3 0-2.4-.5-3.3-1.4S1 17.3 1 16c0-1.1.3-2.1 1-3 .7-.9 1.6-1.4 2.6-1.6v-.9c0-1.6.4-3.1 1.2-4.5S7.7 3.5 9 2.7s2.9-1.2 4.6-1.2zm3.1 15.2l5.4 5.5c.2.3.3.5.2.7-.1.2-.3.3-.6.3h-3.3v6.7c0 .2-.1.3-.2.4s-.3.2-.4.2h-3.6c-.2 0-.3-.1-.4-.2s-.2-.3-.2-.4v-6.7h-3.3c-.3 0-.6-.1-.6-.3s0-.4.2-.7c3.2-3.3 5-5.2 5.4-5.5.3-.3.6-.5.8-.5 0 0 .3.2.6.5z"/></svg>