<?xml version="1.0" encoding="utf-8"?>
<!-- Generator: Adobe Illustrator 22.1.0, SVG Export Plug-In . SVG Version: 6.00 Build 0)  -->
<svg version="1.1" id="Ebene_1" xmlns="http://www.w3.org/2000/svg" xmlns:xlink="http://www.w3.org/1999/xlink" x="0px" y="0px"
	 width="32px" height="32px" viewBox="0 0 32 32" style="enable-background:new 0 0 32 32;" xml:space="preserve">
<path d="M13.6,1.5C15.3,1.5,17,2,18.4,3c1.5,1,2.6,2.2,3.3,3.8c0.7-0.2,1.4-0.4,2.2-0.4c2,0,3.6,0.7,5,2.1c1.4,1.4,2.1,3.1,2.1,5
	c0,1.6-0.5,3.1-1.5,4.4c-1,1.3-2.2,2.2-3.6,2.7l-9.2-8.8c-0.2-0.3-0.5-0.4-0.8-0.4s-0.6,0.1-0.8,0.4l-9.3,8.9H5.7
	c-1.3,0-2.4-0.5-3.3-1.4S1,17.3,1,16c0-1.1,0.3-2.1,1-3c0.7-0.9,1.6-1.4,2.6-1.6c0-0.3,0-0.6,0-0.9C4.6,8.9,5,7.4,5.8,6
	s1.9-2.5,3.2-3.3S11.9,1.5,13.6,1.5L13.6,1.5z M16.7,16.7l5.4,5.5c0.2,0.3,0.3,0.5,0.2,0.7c-0.1,0.2-0.3,0.3-0.6,0.3h-3.3v6.7
	c0,0.2-0.1,0.3-0.2,0.4s-0.3,0.2-0.4,0.2h-3.6c-0.2,0-0.3-0.1-0.4-0.2s-0.2-0.3-0.2-0.4v-6.7h-3.3c-0.3,0-0.6-0.1-0.6-0.3
	s0-0.4,0.2-0.7c3.2-3.3,5-5.2,5.4-5.5c0.3-0.3,0.6-0.5,0.8-0.5C16.1,16.2,16.4,16.4,16.7,16.7L16.7,16.7z"/>
</svg>
