<?xml version="1.0" encoding="utf-8"?>
<!-- Generator: Adobe Illustrator 22.1.0, SVG Export Plug-In . SVG Version: 6.00 Build 0)  -->
<svg version="1.1" id="Ebene_1" xmlns="http://www.w3.org/2000/svg" xmlns:xlink="http://www.w3.org/1999/xlink" x="0px" y="0px"
	 width="32px" height="32px" viewBox="0 0 32 32" style="enable-background:new 0 0 32 32;" xml:space="preserve">
<path d="M13.6,1.5C15.4,1.5,17,2,18.5,3s2.6,2.2,3.3,3.8c0.7-0.2,1.4-0.3,2.2-0.3c1.9,0,3.6,0.7,5,2.1c1.4,1.4,2.1,3.1,2.1,5
	c0,2-0.7,3.6-2.1,5s-3,2.1-5,2.1h-3.1v-6.1c0-0.3-0.1-0.6-0.4-0.9c-0.2-0.2-0.5-0.4-0.9-0.4h-7.3c-0.3,0-0.6,0.1-0.9,0.4
	c-0.2,0.2-0.4,0.5-0.4,0.9v6.1H5.7c-1.3,0-2.4-0.5-3.3-1.4S1,17.3,1,16c0-1.1,0.3-2.1,1-3c0.7-0.9,1.6-1.4,2.6-1.6
	c0-0.3,0-0.6,0-0.9C4.6,8.9,5,7.4,5.8,6s1.9-2.5,3.3-3.3S12,1.5,13.6,1.5L13.6,1.5z M14.1,15.9h3.7c0.2,0,0.3,0.1,0.4,0.2
	c0.1,0.1,0.2,0.3,0.2,0.4v6.7h3.3c0.3,0,0.6,0.1,0.6,0.3c0.1,0.2,0,0.4-0.2,0.7l-5.4,5.9c-0.2,0.3-0.5,0.4-0.8,0.4
	c-0.3,0-0.6-0.1-0.8-0.4l-5.4-5.9c-0.2-0.3-0.3-0.5-0.2-0.7c0.1-0.2,0.3-0.3,0.6-0.3h3.3v-6.7c0-0.2,0.1-0.3,0.2-0.4
	C13.8,15.9,14,15.9,14.1,15.9z"/>
</svg>
