<svg fill="currentColor" xmlns="http://www.w3.org/2000/svg" width="32" height="32" viewBox="0 0 32 32"><path d="M13.6 1.5c1.8 0 3.4.5 4.9 1.5s2.6 2.2 3.3 3.8c.7-.2 1.4-.3 2.2-.3 1.9 0 3.6.7 5 2.1 1.4 1.4 2.1 3.1 2.1 5 0 2-.7 3.6-2.1 5s-3 2.1-5 2.1h-3.1v-6.1c0-.3-.1-.6-.4-.9-.2-.2-.5-.4-.9-.4h-7.3c-.3 0-.6.1-.9.4-.2.2-.4.5-.4.9v6.1H5.7c-1.3 0-2.4-.5-3.3-1.4S1 17.3 1 16c0-1.1.3-2.1 1-3 .7-.9 1.6-1.4 2.6-1.6v-.9c0-1.6.4-3.1 1.2-4.5s1.9-2.5 3.3-3.3 2.9-1.2 4.5-1.2zm.5 14.4h3.7c.2 0 .3.1.4.2.1.1.2.3.2.4v6.7h3.3c.3 0 .6.1.6.3.1.2 0 .4-.2.7l-5.4 5.9c-.2.3-.5.4-.8.4-.3 0-.6-.1-.8-.4l-5.4-5.9c-.2-.3-.3-.5-.2-.7.1-.2.3-.3.6-.3h3.3v-6.7c0-.2.1-.3.2-.4.2-.2.4-.2.5-.2z"/></svg>