<svg fill="currentColor" xmlns="http://www.w3.org/2000/svg" width="32" height="32" viewBox="0 0 32 32"><path d="M16 .7c.6 0 1.2 0 2 .1l1 4.1h.1c.9.2 1.7.6 2.5 1l.2.1 3.6-2.1c1.1.9 2 1.8 2.8 2.8L26 10.3l.1.1c.4.8.8 1.6 1 2.5v.2l4.1 1c.1.8.1 1.4.1 1.9 0 .6 0 1.3-.1 2l-4.1 1v.2c-.3.9-.6 1.7-1 2.5H26l2.1 3.6c-.9 1.1-1.8 2-2.8 2.8L21.8 26h-.2c-.8.4-1.6.8-2.5 1l-.1.1-1 4c-.8.1-1.4.1-2 .1-.6 0-1.2 0-2-.1l-1-4-.1-.1c-.9-.2-1.7-.6-2.5-1h-.2l-3.6 2.2c-1.1-.9-2-1.8-2.8-2.8L6 21.7l-.1-.1c-.4-.8-.8-1.6-1-2.5V19l-4-1c-.1-.7-.2-1.4-.2-2 0-.6.1-1.2.2-1.9l4-1 .1-.2c.2-.9.6-1.7 1-2.5v-.1L3.9 6.7c.8-1.1 1.8-2 2.8-2.8L10.2 6h.2c.8-.4 1.6-.8 2.5-1h.1l1-4.1c.8-.1 1.5-.2 2-.2zm0 9.6c-1.6 0-2.9.6-4.1 1.7s-1.7 2.5-1.7 4c0 1.6.6 2.9 1.7 4s2.5 1.7 4.1 1.7c1.6 0 2.9-.6 4.1-1.7 1.1-1.1 1.7-2.5 1.7-4 0-1.6-.6-2.9-1.7-4s-2.5-1.7-4.1-1.7z"/></svg>