<?xml version="1.0" encoding="utf-8"?>
<!-- Generator: Adobe Illustrator 22.1.0, SVG Export Plug-In . SVG Version: 6.00 Build 0)  -->
<svg version="1.1" id="Ebene_1" xmlns="http://www.w3.org/2000/svg" xmlns:xlink="http://www.w3.org/1999/xlink" x="0px" y="0px"
	 width="32px" height="32px" viewBox="0 0 32 32" style="enable-background:new 0 0 32 32;" xml:space="preserve">
<path d="M16,0.7c0.6,0,1.2,0,2,0.1l1,4.1l0.1,0c0.9,0.2,1.7,0.6,2.5,1L21.8,6l3.6-2.1c1.1,0.9,2,1.8,2.8,2.8L26,10.3l0.1,0.1
	c0.4,0.8,0.8,1.6,1,2.5l0,0.2l4.1,1c0.1,0.8,0.1,1.4,0.1,1.9c0,0.6,0,1.3-0.1,2l-4.1,1l0,0.2c-0.3,0.9-0.6,1.7-1,2.5L26,21.7
	l2.1,3.6c-0.9,1.1-1.8,2-2.8,2.8L21.8,26L21.6,26c-0.8,0.4-1.6,0.8-2.5,1L19,27.1l-1,4c-0.8,0.1-1.4,0.1-2,0.1c-0.6,0-1.2,0-2-0.1
	l-1-4l-0.1-0.1c-0.9-0.2-1.7-0.6-2.5-1L10.2,26l-3.6,2.2c-1.1-0.9-2-1.8-2.8-2.8L6,21.7l-0.1-0.1c-0.4-0.8-0.8-1.6-1-2.5L4.9,19
	l-4-1c-0.1-0.7-0.2-1.4-0.2-2c0-0.6,0.1-1.2,0.2-1.9l4-1l0.1-0.2c0.2-0.9,0.6-1.7,1-2.5L6,10.3L3.9,6.7c0.8-1.1,1.8-2,2.8-2.8
	L10.2,6L10.4,6c0.8-0.4,1.6-0.8,2.5-1l0.1,0l1-4.1C14.8,0.8,15.5,0.7,16,0.7L16,0.7z M16,10.3c-1.6,0-2.9,0.6-4.1,1.7
	s-1.7,2.5-1.7,4c0,1.6,0.6,2.9,1.7,4c1.1,1.1,2.5,1.7,4.1,1.7c1.6,0,2.9-0.6,4.1-1.7c1.1-1.1,1.7-2.5,1.7-4c0-1.6-0.6-2.9-1.7-4
	S17.6,10.3,16,10.3z"/>
</svg>
