<?xml version="1.0" encoding="utf-8"?>
<!-- Generator: Adobe Illustrator 22.1.0, SVG Export Plug-In . SVG Version: 6.00 Build 0)  -->
<svg version="1.1" id="Ebene_1" xmlns="http://www.w3.org/2000/svg" xmlns:xlink="http://www.w3.org/1999/xlink" x="0px" y="0px"
	 width="32px" height="32px" viewBox="0 0 32 32" style="enable-background:new 0 0 32 32;" xml:space="preserve">
<path d="M10.7,1.3h10.7c2.9,0,5.2,0.8,6.9,2.5s2.5,3.9,2.5,6.9v10.7c0,2.9-0.8,5.2-2.5,6.8c-1.6,1.7-3.9,2.5-6.9,2.5H10.7
	c-2.9,0-5.2-0.8-6.8-2.5s-2.5-3.9-2.5-6.8V10.7c0-2.9,0.8-5.2,2.5-6.9S7.7,1.3,10.7,1.3L10.7,1.3z M22.7,6.7H9.3
	C8.6,6.7,8,6.9,7.5,7.5S6.7,8.6,6.7,9.3v13.3c0,0.7,0.3,1.4,0.8,1.9s1.2,0.8,1.9,0.8h13.3c0.7,0,1.4-0.3,1.9-0.8s0.8-1.2,0.8-1.9
	V9.3c0-0.7-0.3-1.4-0.8-1.9C24,6.9,23.4,6.7,22.7,6.7z M16.8,12.2l5.1,6.7c0.2,0.3,0.3,0.5,0.2,0.7c-0.1,0.2-0.3,0.3-0.7,0.3H10.7
	c-0.4,0-0.6-0.1-0.7-0.3c-0.1-0.2,0-0.5,0.2-0.7l5.1-6.7c0.2-0.3,0.5-0.5,0.8-0.5C16.3,11.7,16.6,11.9,16.8,12.2L16.8,12.2z"/>
</svg>
