<svg fill="currentColor" xmlns="http://www.w3.org/2000/svg" width="32" height="32" viewBox="0 0 32 32"><path d="M10.7 1.3h10.7c2.9 0 5.2.8 6.9 2.5s2.5 3.9 2.5 6.9v10.7c0 2.9-.8 5.2-2.5 6.8-1.6 1.7-3.9 2.5-6.9 2.5H10.7c-2.9 0-5.2-.8-6.8-2.5s-2.5-3.9-2.5-6.8V10.7c0-2.9.8-5.2 2.5-6.9s3.8-2.5 6.8-2.5zm12 5.4H9.3c-.7 0-1.3.2-1.8.8s-.8 1.1-.8 1.8v13.3a2.732 2.732 0 002.7 2.7h13.3a2.732 2.732 0 002.7-2.7V9.3c0-.7-.3-1.4-.8-1.9-.6-.5-1.2-.7-1.9-.7zm-5.9 5.5l5.1 6.7c.2.3.3.5.2.7-.1.2-.3.3-.7.3H10.7c-.4 0-.6-.1-.7-.3-.1-.2 0-.5.2-.7l5.1-6.7c.2-.3.5-.5.8-.5.2 0 .5.2.7.5z"/></svg>