<?xml version="1.0" encoding="utf-8"?>
<!-- Generator: Adobe Illustrator 22.1.0, SVG Export Plug-In . SVG Version: 6.00 Build 0)  -->
<svg version="1.1" id="Ebene_1" xmlns="http://www.w3.org/2000/svg" xmlns:xlink="http://www.w3.org/1999/xlink" x="0px" y="0px"
	 width="32px" height="32px" viewBox="0 0 32 32" style="enable-background:new 0 0 32 32;" xml:space="preserve">
<path d="M19.3,4h10c0.4,0,0.7,0.1,0.9,0.4c0.3,0.3,0.4,0.6,0.4,0.9v4h-2.8L20,11.9V9.3L14.7,4H4l2.7-2.7h10L19.3,4z M4,6.7h8
	c0.7,0,1.4,0.3,1.9,0.8c0.5,0.5,0.8,1.2,0.8,1.9v13.3c0,0.7-0.3,1.4-0.8,1.9c-0.5,0.5-1.2,0.8-1.9,0.8H4c-0.7,0-1.4-0.3-1.9-0.8
	s-0.8-1.2-0.8-1.9V9.3c0-0.7,0.3-1.4,0.8-1.9S3.3,6.7,4,6.7z M4,9.3v5.3h8V9.3C12,9.3,4,9.3,4,9.3z M30.7,16.4L20,19.9v-4.3
	l10.7-3.5V16.4z M4,17.3v5.3h8v-5.3C12,17.3,4,17.3,4,17.3z M30.7,20.1v6.6c0,0.4-0.1,0.7-0.4,0.9C30,27.9,29.7,28,29.3,28h-10
	l-2.7,2.7h-10L4,28h10.7l5.3-5.3h2.8L30.7,20.1z"/>
</svg>
