<svg fill="currentColor" xmlns="http://www.w3.org/2000/svg" width="32" height="32" viewBox="0 0 32 32"><path d="M19.3 4h10c.4 0 .7.1.9.4.3.3.4.6.4.9v4h-2.8L20 11.9V9.3L14.7 4H4l2.7-2.7h10L19.3 4zM4 6.7h8a2.732 2.732 0 0 1 2.7 2.7v13.3a2.732 2.732 0 0 1-2.7 2.7H4a2.732 2.732 0 0 1-2.7-2.7V9.3c0-.7.3-1.4.8-1.9s1.2-.7 1.9-.7zm0 2.6v5.3h8V9.3H4zm26.7 7.1L20 19.9v-4.3l10.7-3.5v4.3zM4 17.3v5.3h8v-5.3H4zm26.7 2.8v6.6c0 .4-.1.7-.4.9-.3.3-.6.4-1 .4h-10l-2.7 2.7h-10L4 28h10.7l5.3-5.3h2.8l7.9-2.6z"/></svg>