<svg fill="currentColor" xmlns="http://www.w3.org/2000/svg" width="32" height="32" viewBox="0 0 32 32"><path d="M16 1c2 0 4 .4 5.8 1.2 1.9.8 3.4 1.9 4.8 3.2 1.3 1.3 2.4 2.9 3.2 4.8S31 14 31 16s-.4 4-1.2 5.8c-.8 1.9-1.9 3.4-3.2 4.8-1.3 1.3-2.9 2.4-4.8 3.2C20 30.6 18 31 16 31s-4-.4-5.8-1.2c-1.9-.8-3.4-1.9-4.8-3.2S3 23.7 2.2 21.8C1.4 20 1 18 1 16s.4-4 1.2-5.8 1.9-3.4 3.2-4.8S8.3 3 10.2 2.2 14 1 16 1zm0 4.3c-1.9 0-3.7.5-5.4 1.4S7.7 9 6.7 10.6 5.3 14.1 5.3 16c0 1.9.5 3.7 1.4 5.4 1 1.6 2.3 2.9 3.9 3.9s3.4 1.4 5.4 1.4 3.7-.5 5.4-1.4 2.9-2.3 3.9-3.9 1.4-3.4 1.4-5.4c0-1.9-.5-3.7-1.4-5.4-1-1.6-2.3-2.9-3.9-3.9S17.9 5.3 16 5.3zm5.1 8.2h-7.6v5.1h7.6v2.5h-7.6L11 18.6v-5.1l2.5-2.5h7.6v2.5z"/></svg>