<?xml version="1.0" encoding="utf-8"?>
<!-- Generator: Adobe Illustrator 22.1.0, SVG Export Plug-In . SVG Version: 6.00 Build 0)  -->
<svg version="1.1" id="Ebene_1" xmlns="http://www.w3.org/2000/svg" xmlns:xlink="http://www.w3.org/1999/xlink" x="0px" y="0px"
	 width="32px" height="32px" viewBox="0 0 32 32" style="enable-background:new 0 0 32 32;" xml:space="preserve">
<path d="M16,1c2,0,4,0.4,5.8,1.2c1.9,0.8,3.4,1.9,4.8,3.2c1.3,1.3,2.4,2.9,3.2,4.8S31,14,31,16c0,2-0.4,4-1.2,5.8
	c-0.8,1.9-1.9,3.4-3.2,4.8c-1.3,1.3-2.9,2.4-4.8,3.2C20,30.6,18,31,16,31s-4-0.4-5.8-1.2c-1.9-0.8-3.4-1.9-4.8-3.2S3,23.7,2.2,21.8
	C1.4,20,1,18,1,16s0.4-4,1.2-5.8s1.9-3.4,3.2-4.8S8.3,3,10.2,2.2S14,1,16,1z M16,5.3c-1.9,0-3.7,0.5-5.4,1.4S7.7,9,6.7,10.6
	S5.3,14.1,5.3,16c0,1.9,0.5,3.7,1.4,5.4c1,1.6,2.3,2.9,3.9,3.9s3.4,1.4,5.4,1.4s3.7-0.5,5.4-1.4s2.9-2.3,3.9-3.9
	c1-1.6,1.4-3.4,1.4-5.4c0-1.9-0.5-3.7-1.4-5.4c-1-1.6-2.3-2.9-3.9-3.9S17.9,5.3,16,5.3z M21.1,13.5h-7.6v5.1h7.6v2.5h-7.6l-2.5-2.5
	v-5.1l2.5-2.5h7.6C21.1,10.9,21.1,13.5,21.1,13.5z"/>
</svg>
