<?xml version="1.0" encoding="utf-8"?>
<!-- Generator: Adobe Illustrator 22.1.0, SVG Export Plug-In . SVG Version: 6.00 Build 0)  -->
<svg version="1.1" id="Ebene_1" xmlns="http://www.w3.org/2000/svg" xmlns:xlink="http://www.w3.org/1999/xlink" x="0px" y="0px"
	 width="32px" height="32px" viewBox="0 0 32 32" style="enable-background:new 0 0 32 32;" xml:space="preserve">
<path d="M2.3,4.7h27.5c0.3,0,0.6,0.1,0.9,0.4C30.9,5.4,31,5.7,31,6v3.7H1V6c0-0.3,0.1-0.6,0.4-0.9C1.6,4.9,1.9,4.7,2.3,4.7L2.3,4.7z
	 M31,12.2V26c0,0.3-0.1,0.6-0.4,0.9c-0.2,0.2-0.5,0.4-0.9,0.4H2.3c-0.3,0-0.6-0.1-0.9-0.4C1.1,26.6,1,26.3,1,26V12.2H31L31,12.2z
	 M3.5,19.7v5h10v-5C13.5,19.7,3.5,19.7,3.5,19.7z"/>
</svg>
