<?xml version="1.0" encoding="utf-8"?>
<!-- Generator: Adobe Illustrator 22.1.0, SVG Export Plug-In . SVG Version: 6.00 Build 0)  -->
<svg version="1.1" id="Ebene_1" xmlns="http://www.w3.org/2000/svg" xmlns:xlink="http://www.w3.org/1999/xlink" x="0px" y="0px"
	 width="32px" height="32px" viewBox="0 0 32 32" style="enable-background:new 0 0 32 32;" xml:space="preserve">
<path d="M21.3,4.2l6.9-2.9C28.6,1,29,0.9,29.3,1.1c0.3,0.2,0.5,0.5,0.5,1v27.6c0,0.3-0.1,0.6-0.4,0.9c-0.2,0.2-0.5,0.4-0.9,0.4h-5
	c-0.3,0-0.6-0.1-0.9-0.4c-0.2-0.2-0.4-0.5-0.4-0.9v-9.9c-0.1,0-0.2-0.1-0.3-0.1c-0.1-0.1-0.3-0.2-0.6-0.4s-0.5-0.5-0.7-0.7
	c-0.2-0.3-0.4-0.6-0.6-1c-0.2-0.4-0.3-0.9-0.3-1.4v-9c0-0.5,0.2-1.1,0.5-1.6S20.9,4.5,21.3,4.2L21.3,4.2z M13.5,1
	c0.4,0,0.7,0.1,0.9,0.3c0.2,0.2,0.3,0.4,0.4,0.6l0,0.3v11.2c0,0.5-0.1,1-0.3,1.5c-0.2,0.5-0.4,1-0.6,1.4c-0.2,0.4-0.5,0.8-0.7,1.1
	s-0.5,0.6-0.6,0.8l-0.3,0.3v11.2c0,0.3-0.1,0.6-0.4,0.9C11.6,30.9,11.4,31,11,31H6c-0.3,0-0.6-0.1-0.9-0.4c-0.2-0.2-0.4-0.5-0.4-0.9
	V18.6c-0.1-0.1-0.2-0.2-0.3-0.3c-0.1-0.1-0.3-0.4-0.6-0.8s-0.5-0.8-0.7-1.1C2.9,16,2.7,15.5,2.5,15c-0.2-0.5-0.3-1-0.3-1.5V2.3
	c0,0,0-0.1,0-0.1c0-0.1,0-0.2,0.1-0.3c0.1-0.1,0.1-0.3,0.2-0.4C2.7,1.4,2.8,1.3,3,1.2C3.1,1.1,3.3,1,3.5,1c0.3,0,0.6,0.1,0.8,0.3
	c0.2,0.2,0.3,0.4,0.4,0.6l0.1,0.3V11h2.5V2.1c0,0,0-0.1,0.1-0.3c0-0.2,0.1-0.3,0.2-0.4c0.1,0,0.2-0.1,0.4-0.3C8,1,8.3,1,8.5,1
	c0.4,0,0.7,0.1,0.9,0.3c0.2,0.2,0.3,0.4,0.3,0.6l0,0.3V11h2.5V2.3c0,0,0-0.1,0-0.1c0-0.1,0-0.2,0.1-0.3c0-0.1,0.1-0.3,0.2-0.4
	c0.1-0.1,0.2-0.2,0.4-0.3S13.3,1,13.5,1L13.5,1z"/>
</svg>
