<svg fill="currentColor" xmlns="http://www.w3.org/2000/svg" width="32" height="32" viewBox="0 0 32 32"><path d="M21.3 4.2l6.9-2.9c.4-.3.8-.4 1.1-.2.3.2.5.5.5 1v27.6c0 .3-.1.6-.4.9-.2.2-.5.4-.9.4h-5c-.3 0-.6-.1-.9-.4-.2-.2-.4-.5-.4-.9v-9.9c-.1 0-.2-.1-.3-.1-.1-.1-.3-.2-.6-.4s-.5-.5-.7-.7c-.2-.3-.4-.6-.6-1-.2-.4-.3-.9-.3-1.4v-9c0-.5.2-1.1.5-1.6s.7-1.1 1.1-1.4zM13.5 1c.4 0 .7.1.9.3.2.2.3.4.4.6v11.5c0 .5-.1 1-.3 1.5-.2.5-.4 1-.6 1.4-.2.4-.5.8-.7 1.1s-.5.6-.6.8l-.3.3v11.2c0 .3-.1.6-.4.9-.3.3-.5.4-.9.4H6c-.3 0-.6-.1-.9-.4-.2-.2-.4-.5-.4-.9V18.6l-.3-.3c-.1-.1-.3-.4-.6-.8s-.5-.8-.7-1.1c-.2-.4-.4-.9-.6-1.4-.2-.5-.3-1-.3-1.5V2.2c0-.1 0-.2.1-.3.1-.1.1-.3.2-.4.2-.1.3-.2.5-.3.1-.1.3-.2.5-.2.3 0 .6.1.8.3.2.2.3.4.4.6l.1.3V11h2.5V2.1s0-.1.1-.3c0-.2.1-.3.2-.4.1 0 .2-.1.4-.3 0-.1.3-.1.5-.1.4 0 .7.1.9.3.2.2.3.4.3.6V11h2.5V2.2c0-.1 0-.2.1-.3 0-.1.1-.3.2-.4.1-.1.2-.2.4-.3s.4-.2.6-.2z"/></svg>