<svg xmlns="http://www.w3.org/2000/svg" width="32" height="32" fill="currentColor" viewBox="0 0 32 32"><path d="M16 1c2 0 4 .4 5.8 1.2s3.4 1.9 4.8 3.2c1.3 1.3 2.4 2.9 3.2 4.8C30.6 12 31 14 31 16s-.4 4-1.2 5.8c-.8 1.9-1.9 3.5-3.2 4.8s-2.9 2.4-4.8 3.2C20 30.6 18 31 16 31s-4-.4-5.8-1.2-3.5-1.8-4.8-3.2C4 25.3 3 23.7 2.2 21.8 1.4 20 1 18 1 16s.4-4 1.2-5.8S4 6.7 5.4 5.4 8.3 3 10.2 2.2 14 1 16 1m0 4.6c-1.9 0-3.6.5-5.2 1.4S7.9 9.2 7 10.8c-1 1.6-1.4 3.3-1.4 5.2s.5 3.6 1.4 5.2 2.2 2.9 3.8 3.8 3.3 1.4 5.2 1.4 3.6-.5 5.2-1.4 2.9-2.2 3.8-3.8 1.4-3.3 1.4-5.2-.5-3.6-1.4-5.2-2.2-2.9-3.8-3.8-3.3-1.4-5.2-1.4m-3.6 2.6c.4 0 .7.1 1 .4s.4.6.4 1-.1.7-.4 1-.6.4-1 .4-.7-.1-1-.4-.4-.6-.4-1 .1-.7.4-1 .7-.4 1-.4m7.6 0c.4 0 .7.1 1 .4s.4.6.4 1-.1.7-.4 1-.6.4-1 .4c-.2 0-.5-.1-.7-.3l-1.4 3.6c.3.4.4.8.4 1.3q0 .9-.6 1.5t-1.5.6c-.9 0-1.1-.2-1.5-.6q-.6-.6-.6-1.5c0-.5.2-1 .5-1.4s.8-.7 1.3-.7l3.1-3.2c-.2-.2-.2-.5-.2-.7 0-.4.1-.7.4-1 .1-.2.4-.4.8-.4m-10.3 5c.4 0 .7.1 1 .4s.4.6.4 1-.1.7-.4 1-.6.4-1 .4-.7-.1-1-.4-.4-.6-.4-1 .1-.7.4-1 .6-.4 1-.4m12.8 0c.4 0 .7.1 1 .4s.4.6.4 1-.1.7-.4 1-.6.4-1 .4-.7-.1-1-.4-.4-.6-.4-1 .1-.7.4-1 .6-.4 1-.4"/></svg>