<?xml version="1.0" encoding="utf-8"?>
<!-- Generator: Adobe Illustrator 22.1.0, SVG Export Plug-In . SVG Version: 6.00 Build 0)  -->
<svg version="1.1" id="Ebene_1" xmlns="http://www.w3.org/2000/svg" xmlns:xlink="http://www.w3.org/1999/xlink" x="0px" y="0px"
	 width="32px" height="32px" viewBox="0 0 32 32" style="enable-background:new 0 0 32 32;" xml:space="preserve">
<path d="M16,1c2,0,4,0.4,5.8,1.2s3.4,1.9,4.8,3.2c1.3,1.3,2.4,2.9,3.2,4.8C30.6,12,31,14,31,16s-0.4,4-1.2,5.8
	c-0.8,1.9-1.9,3.5-3.2,4.8c-1.3,1.3-2.9,2.4-4.8,3.2C20,30.6,18,31,16,31s-4-0.4-5.8-1.2S6.7,28,5.4,26.6C4,25.3,3,23.7,2.2,21.8
	C1.4,20,1,18,1,16c0-2,0.4-4,1.2-5.8S4,6.7,5.4,5.4S8.3,3,10.2,2.2S14,1,16,1z M16,5.6c-1.9,0-3.6,0.5-5.2,1.4S7.9,9.2,7,10.8
	C6,12.4,5.6,14.1,5.6,16c0,1.9,0.5,3.6,1.4,5.2c0.9,1.6,2.2,2.9,3.8,3.8c1.6,0.9,3.3,1.4,5.2,1.4c1.9,0,3.6-0.5,5.2-1.4
	c1.6-0.9,2.9-2.2,3.8-3.8c0.9-1.6,1.4-3.3,1.4-5.2c0-1.9-0.5-3.6-1.4-5.2S22.8,7.9,21.2,7S17.9,5.6,16,5.6z M12.4,8.2
	c0.4,0,0.7,0.1,1,0.4s0.4,0.6,0.4,1s-0.1,0.7-0.4,1c-0.3,0.3-0.6,0.4-1,0.4c-0.4,0-0.7-0.1-1-0.4c-0.3-0.3-0.4-0.6-0.4-1
	s0.1-0.7,0.4-1S12.1,8.2,12.4,8.2z M20,8.2c0.4,0,0.7,0.1,1,0.4c0.3,0.3,0.4,0.6,0.4,1s-0.1,0.7-0.4,1c-0.3,0.3-0.6,0.4-1,0.4
	c-0.2,0-0.5-0.1-0.7-0.3l-1.4,3.6c0.3,0.4,0.4,0.8,0.4,1.3c0,0.6-0.2,1.1-0.6,1.5c-0.4,0.4-0.9,0.6-1.5,0.6c-0.6,0-1.1-0.2-1.5-0.6
	c-0.4-0.4-0.6-0.9-0.6-1.5c0-0.5,0.2-1,0.5-1.4c0.3-0.4,0.8-0.7,1.3-0.7l3.1-3.2c-0.2-0.2-0.2-0.5-0.2-0.7c0-0.4,0.1-0.7,0.4-1
	C19.3,8.4,19.6,8.2,20,8.2L20,8.2z M9.7,13.2c0.4,0,0.7,0.1,1,0.4c0.3,0.3,0.4,0.6,0.4,1c0,0.4-0.1,0.7-0.4,1
	c-0.3,0.3-0.6,0.4-1,0.4c-0.4,0-0.7-0.1-1-0.4c-0.3-0.3-0.4-0.6-0.4-1c0-0.4,0.1-0.7,0.4-1C9,13.3,9.3,13.2,9.7,13.2z M22.5,13.2
	c0.4,0,0.7,0.1,1,0.4s0.4,0.6,0.4,1c0,0.4-0.1,0.7-0.4,1s-0.6,0.4-1,0.4c-0.4,0-0.7-0.1-1-0.4c-0.3-0.3-0.4-0.6-0.4-1s0.1-0.7,0.4-1
	C21.8,13.3,22.1,13.2,22.5,13.2z"/>
</svg>
