<?xml version="1.0" encoding="utf-8"?>
<!-- Generator: Adobe Illustrator 22.1.0, SVG Export Plug-In . SVG Version: 6.00 Build 0)  -->
<svg version="1.1" id="Ebene_1" xmlns="http://www.w3.org/2000/svg" xmlns:xlink="http://www.w3.org/1999/xlink" x="0px" y="0px"
	 width="32px" height="32px" viewBox="0 0 32 32" style="enable-background:new 0 0 32 32;" xml:space="preserve">
<path d="M16,1c2,0,4,0.4,5.8,1.2s3.5,1.9,4.8,3.2c1.3,1.3,2.4,2.9,3.2,4.8S31,14,31,16c0,2-0.4,4-1.2,5.8c-0.8,1.9-1.9,3.5-3.2,4.8
	s-2.9,2.4-4.8,3.2S18,31,16,31s-4-0.4-5.8-1.2S6.7,28,5.4,26.6S3,23.7,2.2,21.8C1.4,20,1,18,1,16s0.4-4,1.2-5.8S4,6.7,5.4,5.4
	S8.3,3,10.2,2.2S14,1,16,1z M16,4.9c-2,0-3.9,0.5-5.6,1.5c-1.7,1-3.1,2.3-4,4S4.9,14,4.9,16c0,2,0.5,3.9,1.5,5.6c1,1.7,2.3,3.1,4,4
	c1.7,1,3.6,1.5,5.6,1.5s3.9-0.5,5.6-1.5c1.7-1,3.1-2.3,4-4c1-1.7,1.5-3.6,1.5-5.6c0-2-0.5-3.9-1.5-5.6s-2.3-3.1-4-4
	C19.9,5.4,18,4.9,16,4.9z M14.1,8.2h3.9c0.2,0,0.3,0.1,0.5,0.2s0.2,0.3,0.2,0.5V16h3.6c0.4,0,0.6,0.1,0.7,0.3c0.1,0.2,0,0.4-0.2,0.7
	l-5.8,7.1c-0.2,0.3-0.5,0.4-0.8,0.4s-0.6-0.1-0.8-0.4L9.4,17c-0.2-0.3-0.3-0.5-0.2-0.7C9.3,16.1,9.5,16,9.8,16h3.6V8.9
	c0-0.2,0.1-0.3,0.2-0.5C13.7,8.3,13.9,8.2,14.1,8.2z"/>
</svg>
