<?xml version="1.0" encoding="utf-8"?>
<!-- Generator: Adobe Illustrator 22.1.0, SVG Export Plug-In . SVG Version: 6.00 Build 0)  -->
<svg version="1.1" id="Ebene_1" xmlns="http://www.w3.org/2000/svg" xmlns:xlink="http://www.w3.org/1999/xlink" x="0px" y="0px"
	 width="32px" height="32px" viewBox="0 0 32 32" style="enable-background:new 0 0 32 32;" xml:space="preserve">
<path d="M13.5,1h5c0.3,0,0.6,0.1,0.9,0.4c0.2,0.2,0.4,0.5,0.4,0.9v11.3h4.8c0.3,0,0.5,0.1,0.6,0.3c0.1,0.2,0,0.4-0.2,0.7l-8.2,10
	c-0.2,0.3-0.5,0.4-0.8,0.4c-0.3,0-0.6-0.1-0.8-0.4L7,14.5c-0.2-0.3-0.3-0.5-0.2-0.7s0.3-0.3,0.6-0.3h4.8V2.3c0-0.4,0.1-0.6,0.4-0.9
	C12.9,1.1,13.2,1,13.5,1L13.5,1z M27.9,21h1.2c0.2,0,0.3,0.1,0.4,0.2c0.1,0.1,0.2,0.3,0.2,0.4v8.7c0,0.2-0.1,0.3-0.2,0.4
	S29.3,31,29.1,31H2.9c-0.2,0-0.3-0.1-0.4-0.2c-0.1-0.1-0.2-0.3-0.2-0.4v-8.7c0-0.2,0.1-0.3,0.2-0.4C2.6,21.1,2.7,21,2.9,21h1.2
	c0.2,0,0.3,0.1,0.4,0.2s0.2,0.3,0.2,0.4V26h22.5v-4.4c0-0.2,0.1-0.3,0.2-0.4S27.7,21,27.9,21z"/>
</svg>
