<svg fill="currentColor" xmlns="http://www.w3.org/2000/svg" width="32" height="32" viewBox="0 0 32 32"><path d="M13.5 1h5c.3 0 .6.1.9.4.2.2.4.5.4.9v11.3h4.8c.3 0 .5.1.6.3.1.2 0 .4-.2.7l-8.2 10c-.2.3-.5.4-.8.4-.3 0-.6-.1-.8-.4L7 14.5c-.2-.3-.3-.5-.2-.7s.3-.3.6-.3h4.8V2.3c0-.4.1-.6.4-.9.3-.3.6-.4.9-.4zm14.4 20h1.2c.2 0 .3.1.4.2.1.1.2.3.2.4v8.7c0 .2-.1.3-.2.4s-.2.3-.4.3H2.9c-.2 0-.3-.1-.4-.2-.1-.1-.2-.3-.2-.4v-8.7c0-.2.1-.3.2-.4.1-.2.2-.3.4-.3h1.2c.2 0 .3.1.4.2s.2.3.2.4V26h22.5v-4.4c0-.2.1-.3.2-.4s.3-.2.5-.2z"/></svg>