<?xml version="1.0" encoding="utf-8"?>
<!-- Generator: Adobe Illustrator 22.1.0, SVG Export Plug-In . SVG Version: 6.00 Build 0)  -->
<svg version="1.1" id="Ebene_1" xmlns="http://www.w3.org/2000/svg" xmlns:xlink="http://www.w3.org/1999/xlink" x="0px" y="0px"
	 width="32px" height="32px" viewBox="0 0 32 32" style="enable-background:new 0 0 32 32;" xml:space="preserve">
<path d="M1,5.5l4.2-4.2C5.5,1.1,5.8,1,6.2,1c0.4,0.1,0.7,0.2,1,0.6l3.6,5C11,6.9,11.1,7.3,11,7.7c-0.1,0.4-0.2,0.8-0.5,1.1l-3.1,3
	c1.7,2.4,3.7,4.7,5.9,6.9s4.4,4.1,6.9,5.8l3.1-3c0.3-0.3,0.7-0.5,1.1-0.5c0.4,0,0.8,0.1,1.1,0.3l4.9,3.5c0.3,0.2,0.5,0.6,0.6,1
	s-0.1,0.7-0.3,1L26.4,31c-0.1,0-0.1,0-0.2,0c-0.1,0-0.4,0-0.8-0.1c-0.4,0-0.8-0.1-1.2-0.2c-0.4-0.1-1-0.2-1.6-0.4
	c-0.7-0.2-1.3-0.4-2-0.7c-0.7-0.3-1.4-0.6-2.3-1.1c-0.9-0.5-1.7-1-2.6-1.5c-0.9-0.6-1.8-1.3-2.9-2.1s-2-1.8-3.1-2.8
	c-1.3-1.3-2.4-2.6-3.4-3.9c-1-1.3-1.8-2.5-2.4-3.6s-1.1-2.1-1.5-3.1S1.7,9.8,1.5,9.1S1.2,7.8,1.1,7.2S1,6.2,1,6L1,5.5z"/>
</svg>
