<svg xmlns="http://www.w3.org/2000/svg" width="32" height="32" fill="currentColor" viewBox="0 0 32 32"><path d="m1 5.5 4.2-4.2c.3-.2.6-.3 1-.3.4.1.7.2 1 .6l3.6 5c.2.3.3.7.2 1.1s-.2.8-.5 1.1l-3.1 3c1.7 2.4 3.7 4.7 5.9 6.9s4.4 4.1 6.9 5.8l3.1-3c.3-.3.7-.5 1.1-.5s.8.1 1.1.3l4.9 3.5c.3.2.5.6.6 1s-.1.7-.3 1L26.4 31h-.2c-.1 0-.4 0-.8-.1-.4 0-.8-.1-1.2-.2s-1-.2-1.6-.4c-.7-.2-1.3-.4-2-.7s-1.4-.6-2.3-1.1-1.7-1-2.6-1.5c-.9-.6-1.8-1.3-2.9-2.1s-2-1.8-3.1-2.8c-1.3-1.3-2.4-2.6-3.4-3.9q-1.5-1.95-2.4-3.6c-.9-1.65-1.1-2.1-1.5-3.1s-.7-1.7-.9-2.4-.3-1.3-.4-1.9S1 6.2 1 6z"/></svg>