<svg fill="currentColor" xmlns="http://www.w3.org/2000/svg" width="32" height="32" viewBox="0 0 32 32"><path d="M25.4 5.1L28 2.3h.9c.2 0 .4.1.6.2s.5.3.7.5c.4.4.6.7.7 1 .1.3.1.6 0 .8l-.1.2-2.6 2.8-2.8-2.7zM9.5 3h9.8c.8 0 1.7.1 2.6.3l-4.6 4.6h-9c-.7 0-1.2.2-1.7.7s-.7 1.1-.7 1.7v12.2c0 .7.2 1.2.7 1.7s1.1.7 1.7.7h12.2c.7 0 1.2-.2 1.7-.7s.7-1.1.7-1.7v-4.4l4.9-4.9v8.1c0 2.7-.8 4.8-2.3 6.3-1.5 1.5-3.6 2.3-6.3 2.3H9.5c-2.7 0-4.8-.8-6.3-2.3S1 24 1 21.3v-9.8c0-2.7.8-4.8 2.3-6.3S6.9 3 9.5 3zm16.1 7.2L16.8 19l-3.9 1.2 1.3-4.1 8.7-8.7 2.7 2.8z"/></svg>