<?xml version="1.0" encoding="utf-8"?>
<!-- Generator: Adobe Illustrator 22.1.0, SVG Export Plug-In . SVG Version: 6.00 Build 0)  -->
<svg version="1.1" id="Ebene_1" xmlns="http://www.w3.org/2000/svg" xmlns:xlink="http://www.w3.org/1999/xlink" x="0px" y="0px"
	 width="32px" height="32px" viewBox="0 0 32 32" style="enable-background:new 0 0 32 32;" xml:space="preserve">
<path d="M25.4,5.1L28,2.3c0,0,0.1,0,0.1,0s0.2,0,0.3,0c0.2,0,0.3,0,0.5,0c0.2,0,0.4,0.1,0.6,0.2s0.5,0.3,0.7,0.5
	c0.4,0.4,0.6,0.7,0.7,1c0.1,0.3,0.1,0.6,0,0.8L30.8,5l-2.6,2.8L25.4,5.1z M9.5,3h9.8c0.8,0,1.7,0.1,2.6,0.3l-4.6,4.6h-9
	c-0.7,0-1.2,0.2-1.7,0.7s-0.7,1.1-0.7,1.7v12.2c0,0.7,0.2,1.2,0.7,1.7s1.1,0.7,1.7,0.7h12.2c0.7,0,1.2-0.2,1.7-0.7s0.7-1.1,0.7-1.7
	v-4.4l4.9-4.9v8.1c0,2.7-0.8,4.8-2.3,6.3c-1.5,1.5-3.6,2.3-6.3,2.3H9.5c-2.7,0-4.8-0.8-6.3-2.3S1,24,1,21.3v-9.8
	c0-2.7,0.8-4.8,2.3-6.3S6.9,3,9.5,3z M25.6,10.2l-8.8,8.8l-3.9,1.2l1.3-4.1l8.7-8.7L25.6,10.2z"/>
</svg>
