<?xml version="1.0" encoding="utf-8"?>
<!-- Generator: Adobe Illustrator 22.1.0, SVG Export Plug-In . SVG Version: 6.00 Build 0)  -->
<svg version="1.1" id="Ebene_1" xmlns="http://www.w3.org/2000/svg" xmlns:xlink="http://www.w3.org/1999/xlink" x="0px" y="0px"
	 width="32px" height="32px" viewBox="0 0 32 32" style="enable-background:new 0 0 32 32;" xml:space="preserve">
<path d="M17,4.5l13.4,14.4c0.3,0.3,0.4,0.5,0.3,0.7c-0.1,0.2-0.3,0.3-0.7,0.3H2.1c-0.4,0-0.6-0.1-0.7-0.3c-0.1-0.2,0-0.4,0.3-0.7
	L15,4.5c0.3-0.3,0.6-0.4,1-0.4C16.4,4.1,16.7,4.2,17,4.5L17,4.5z M2.7,22.6h26.7c0.4,0,0.7,0.1,0.9,0.4c0.3,0.3,0.4,0.6,0.4,0.9v2.7
	c0,0.4-0.1,0.7-0.4,0.9s-0.6,0.4-0.9,0.4H2.7c-0.4,0-0.7-0.1-0.9-0.4S1.3,27,1.3,26.6v-2.7c0-0.4,0.1-0.7,0.4-0.9
	C2,22.7,2.3,22.6,2.7,22.6z"/>
</svg>
