<?xml version="1.0" encoding="utf-8"?>
<!-- Generator: Adobe Illustrator 22.1.0, SVG Export Plug-In . SVG Version: 6.00 Build 0)  -->
<svg version="1.1" id="Ebene_1" xmlns="http://www.w3.org/2000/svg" xmlns:xlink="http://www.w3.org/1999/xlink" x="0px" y="0px"
	 width="32px" height="32px" viewBox="0 0 32 32" style="enable-background:new 0 0 32 32;" xml:space="preserve">
<path d="M1.6,3.5h28.8c0.2,0,0.3,0,0.3,0.1s0,0.2-0.1,0.3L16.4,18.1c-0.1,0.1-0.3,0.2-0.4,0.2c-0.2,0-0.3-0.1-0.4-0.2L1.5,3.9
	C1.3,3.8,1.3,3.7,1.3,3.6C1.4,3.5,1.5,3.5,1.6,3.5L1.6,3.5z M1.5,8.9l6.6,6.6c0.1,0.1,0.2,0.3,0.2,0.4s-0.1,0.3-0.2,0.4L1.5,23
	c-0.1,0.1-0.2,0.2-0.3,0.1C1,23.1,1,23,1,22.9V9.1C1,9,1,8.9,1.1,8.8C1.2,8.8,1.3,8.8,1.5,8.9L1.5,8.9z M23.9,15.5l6.6-6.6
	c0.1-0.1,0.2-0.2,0.3-0.1C31,8.9,31,9,31,9.1v13.8c0,0.2,0,0.3-0.1,0.3c-0.1,0-0.2,0-0.3-0.1l-6.6-6.6c-0.1-0.1-0.2-0.3-0.2-0.4
	S23.8,15.7,23.9,15.5L23.9,15.5z M21.4,18.9l9.1,9.1c0.1,0.1,0.2,0.2,0.1,0.3c0,0.1-0.1,0.1-0.3,0.1H1.6c-0.2,0-0.3,0-0.3-0.1
	c0-0.1,0-0.2,0.1-0.3l9.1-9.1c0.1-0.1,0.3-0.2,0.4-0.2s0.3,0.1,0.4,0.2l4.1,4.1c0.1,0.1,0.3,0.2,0.4,0.2c0.2,0,0.3-0.1,0.5-0.2
	l4.1-4.1c0.1-0.1,0.3-0.2,0.4-0.2C21.2,18.8,21.3,18.8,21.4,18.9L21.4,18.9z"/>
</svg>
