<svg fill="currentColor" xmlns="http://www.w3.org/2000/svg" width="32" height="32" viewBox="0 0 32 32"><path d="M1.6 3.5h28.8c.2 0 .3 0 .3.1s0 .2-.1.3L16.4 18.1c-.1.1-.3.2-.4.2-.2 0-.3-.1-.4-.2L1.5 3.9c-.2-.1-.2-.2-.2-.3.1-.1.2-.1.3-.1zm-.1 5.4l6.6 6.6c.1.1.2.3.2.4s-.1.3-.2.4L1.5 23c-.1.1-.2.2-.3.1-.2 0-.2-.1-.2-.2V9.1c0-.1 0-.2.1-.3.1 0 .2 0 .4.1zm22.4 6.6l6.6-6.6c.1-.1.2-.2.3-.1.2.1.2.2.2.3v13.8c0 .2 0 .3-.1.3s-.2 0-.3-.1L24 16.5c-.1-.1-.2-.3-.2-.4s0-.4.1-.6zm-2.5 3.4l9.1 9.1c.1.1.2.2.1.3 0 .1-.1.1-.3.1H1.6c-.2 0-.3 0-.3-.1s0-.2.1-.3l9.1-9.1c.1-.1.3-.2.4-.2s.3.1.4.2l4.1 4.1c.1.1.3.2.4.2.2 0 .3-.1.5-.2l4.1-4.1c.1-.1.3-.2.4-.2.4.1.5.1.6.2z"/></svg>