<?xml version="1.0" encoding="utf-8"?>
<!-- Generator: Adobe Illustrator 22.1.0, SVG Export Plug-In . SVG Version: 6.00 Build 0)  -->
<svg version="1.1" id="Ebene_1" xmlns="http://www.w3.org/2000/svg" xmlns:xlink="http://www.w3.org/1999/xlink" x="0px" y="0px"
	 width="32px" height="32px" viewBox="0 0 32 32" style="enable-background:new 0 0 32 32;" xml:space="preserve">
<path d="M18.8,1c4.1,0,7,1.6,8.9,4.8c1,1.7,1.6,3.5,1.7,5.3h-4.6c0-0.8-0.1-1.4-0.4-2.1c-0.3-0.6-0.7-1.1-1.1-1.5
	c-0.4-0.4-0.9-0.7-1.5-1c-0.5-0.3-1-0.5-1.5-0.6c-0.5-0.1-0.9-0.2-1.3-0.2c-0.3,0-0.7,0-1,0.1c-0.4,0.1-0.8,0.3-1.2,0.5
	c-0.5,0.3-0.9,0.6-1.3,1s-0.8,0.9-1.2,1.6c-0.4,0.7-0.7,1.4-1,2.3h9.5l-2.5,2.5h-7.5c-0.1,0.8-0.2,1.7-0.2,2.5h10.2l-2.5,2.5h-7.5
	c0.2,1.2,0.4,2.3,0.8,3.3c0.4,1,0.8,1.7,1.3,2.3c0.5,0.6,1,1,1.5,1.4c0.6,0.4,1,0.6,1.5,0.7c0.4,0.1,0.8,0.2,1.2,0.2
	c0.4,0,0.8-0.1,1.3-0.2c0.5-0.1,1-0.3,1.5-0.6c0.5-0.3,1-0.6,1.5-1c0.4-0.4,0.8-0.9,1.1-1.5c0.3-0.6,0.4-1.3,0.4-2h4.4
	c-0.5,2.9-1.6,5.2-3.2,7c-1.8,2-4.1,2.9-6.9,2.9c-3.5,0-6.2-1.3-8.1-4c-0.6-0.8-1.2-1.9-1.7-3.3c-0.6-1.4-0.9-3.1-1.1-5.1H2.6
	L5.1,16H8c0-0.8,0.1-1.6,0.2-2.5H2.6L5.1,11h3.4c0.3-1.5,0.8-2.7,1.3-3.9c0.5-1.1,1-2,1.6-2.6C13.3,2.2,15.8,1,18.8,1L18.8,1z"/>
</svg>
