<svg fill="currentColor" xmlns="http://www.w3.org/2000/svg" width="32" height="32" viewBox="0 0 32 32"><path d="M18.8 1c4.1 0 7 1.6 8.9 4.8 1 1.7 1.6 3.5 1.7 5.3h-4.6c0-.8-.1-1.4-.4-2.1-.3-.6-.7-1.1-1.1-1.5-.4-.4-.9-.7-1.5-1-.5-.3-1-.5-1.5-.6-.5-.1-.9-.2-1.3-.2-.3 0-.7 0-1 .1-.4.1-.8.3-1.2.5-.5.3-.9.6-1.3 1s-.8.9-1.2 1.6c-.4.7-.7 1.4-1 2.3h9.5l-2.5 2.5h-7.5c-.1.8-.2 1.7-.2 2.5h10.2l-2.5 2.5h-7.5c.2 1.2.4 2.3.8 3.3s.8 1.7 1.3 2.3c.5.6 1 1 1.5 1.4.6.4 1 .6 1.5.7.4.1.8.2 1.2.2.4 0 .8-.1 1.3-.2s1-.3 1.5-.6 1-.6 1.5-1c.4-.4.8-.9 1.1-1.5.3-.6.4-1.3.4-2h4.4c-.5 2.9-1.6 5.2-3.2 7-1.8 2-4.1 2.9-6.9 2.9-3.5 0-6.2-1.3-8.1-4-.6-.8-1.2-1.9-1.7-3.3-.6-1.4-.9-3.1-1.1-5.1H2.6L5.1 16H8c0-.8.1-1.6.2-2.5H2.6L5.1 11h3.4c.3-1.5.8-2.7 1.3-3.9.5-1.1 1-2 1.6-2.6C13.3 2.2 15.8 1 18.8 1z"/></svg>