<?xml version="1.0" encoding="utf-8"?>
<!-- Generator: Adobe Illustrator 22.1.0, SVG Export Plug-In . SVG Version: 6.00 Build 0)  -->
<svg version="1.1" id="Ebene_1" xmlns="http://www.w3.org/2000/svg" xmlns:xlink="http://www.w3.org/1999/xlink" x="0px" y="0px"
	 width="32px" height="32px" viewBox="0 0 32 32" style="enable-background:new 0 0 32 32;" xml:space="preserve">
<path d="M16,1c2,0,4,0.4,5.8,1.2s3.5,1.9,4.8,3.2c1.3,1.3,2.4,2.9,3.2,4.8S31,14,31,16c0,2-0.4,4-1.2,5.8c-0.8,1.9-1.9,3.5-3.2,4.8
	s-2.9,2.4-4.8,3.2S18,31,16,31s-4-0.4-5.8-1.2S6.7,28,5.4,26.6S3,23.7,2.2,21.8C1.4,20,1,18,1,16s0.4-4,1.2-5.8S4,6.7,5.4,5.4
	S8.3,3,10.2,2.2S14,1,16,1z M18.7,8.2h-5.4c-0.3,0-0.6,0.1-0.8,0.4c-0.2,0.3-0.3,0.6-0.2,0.9l1.5,7.9c0.1,0.3,0.3,0.6,0.6,0.9
	c0.3,0.3,0.6,0.4,1,0.4h1.4c0.3,0,0.7-0.1,1-0.4c0.3-0.3,0.5-0.6,0.6-0.9l1.5-7.9c0.1-0.3,0-0.6-0.2-0.9S19.1,8.2,18.7,8.2L18.7,8.2
	z M17.9,21.2h-3.9c-0.2,0-0.3,0.1-0.5,0.2c-0.1,0.1-0.2,0.3-0.2,0.5v3.9c0,0.2,0.1,0.3,0.2,0.5c0.1,0.1,0.3,0.2,0.5,0.2h3.9
	c0.2,0,0.3-0.1,0.5-0.2s0.2-0.3,0.2-0.5v-3.9c0-0.2-0.1-0.3-0.2-0.5S18.1,21.2,17.9,21.2z"/>
</svg>
