<?xml version="1.0" encoding="utf-8"?>
<!-- Generator: Adobe Illustrator 22.1.0, SVG Export Plug-In . SVG Version: 6.00 Build 0)  -->
<svg version="1.1" id="Ebene_1" xmlns="http://www.w3.org/2000/svg" xmlns:xlink="http://www.w3.org/1999/xlink" x="0px" y="0px"
	 width="32px" height="32px" viewBox="0 0 32 32" style="enable-background:new 0 0 32 32;" xml:space="preserve">
<path d="M11,1l15,0c0.3,0,0.6,0.1,0.9,0.4c0.2,0.2,0.4,0.5,0.4,0.9l0,14.9c0,0.3-0.1,0.6-0.3,0.6c-0.2,0.1-0.4,0-0.6-0.3l-5.2-5.2
	l-3.9,3.9L12,11l3.9-3.9l-5.2-5.2c-0.2-0.2-0.3-0.4-0.3-0.6C10.4,1.1,10.6,1,11,1z M15.3,18.2l-1.9,1.9c-0.2,0.2-0.5,0.3-0.9,0.3
	c-0.3,0-0.6-0.1-0.9-0.3l-3.6-3.6c-0.2-0.2-0.3-0.5-0.3-0.9c0-0.3,0.1-0.6,0.3-0.9l1.9-1.9L15.3,18.2z M3.5,23.5h25
	c0.3,0,0.6,0.1,0.9,0.4c0.2,0.2,0.4,0.5,0.4,0.9V31H2.3v-6.3c0-0.3,0.1-0.6,0.4-0.9C2.9,23.6,3.2,23.5,3.5,23.5L3.5,23.5z M24.7,26
	v1.2h2.5V26H24.7z"/>
</svg>
