<?xml version="1.0" encoding="utf-8"?>
<!-- Generator: Adobe Illustrator 22.1.0, SVG Export Plug-In . SVG Version: 6.00 Build 0)  -->
<svg version="1.1" id="Ebene_1" xmlns="http://www.w3.org/2000/svg" xmlns:xlink="http://www.w3.org/1999/xlink" x="0px" y="0px"
	 width="32px" height="32px" viewBox="0 0 32 32" style="enable-background:new 0 0 32 32;" xml:space="preserve">
<path d="M16,4.4c1.3,0,2.6,0.2,3.8,0.5c1.2,0.4,2.3,0.8,3.3,1.4c1,0.6,1.9,1.2,2.7,1.9c0.9,0.7,1.6,1.5,2.2,2.2s1.2,1.5,1.6,2.2
	c0.4,0.7,0.8,1.4,1,1.9c0.2,0.6,0.3,1,0.3,1.4s-0.1,0.8-0.3,1.4c-0.2,0.6-0.6,1.2-1,1.9c-0.5,0.7-1,1.5-1.6,2.2
	c-0.6,0.8-1.4,1.5-2.2,2.2c-0.9,0.7-1.8,1.4-2.7,1.9c-1,0.6-2.1,1-3.3,1.4c-1.2,0.4-2.5,0.5-3.8,0.5c-1.3,0-2.5-0.2-3.8-0.5
	c-1.2-0.4-2.3-0.8-3.3-1.4c-1-0.6-1.9-1.2-2.7-1.9c-0.9-0.7-1.6-1.5-2.2-2.2c-0.6-0.8-1.2-1.5-1.6-2.2s-0.8-1.4-1-1.9
	C1.1,16.8,1,16.3,1,16c0-0.3,0.1-0.8,0.3-1.4s0.6-1.2,1-1.9s1-1.5,1.6-2.2s1.4-1.5,2.2-2.2s1.8-1.4,2.7-1.9s2.1-1,3.3-1.4
	C13.4,4.5,14.7,4.4,16,4.4L16,4.4z M22.8,10.6c-0.2-0.2-0.4-0.3-0.4-0.3c0,0,0,0.2,0.1,0.5c0.4,0.9,0.6,1.8,0.6,2.8
	c0,1.9-0.7,3.6-2.1,5s-3.1,2.1-5,2.1s-3.6-0.7-5-2.1s-2.1-3.1-2.1-5c0-0.9,0.2-1.8,0.5-2.7c0.1-0.3,0.2-0.5,0.1-0.5
	c-0.1,0-0.2,0-0.4,0.3c-1.1,1.1-2.4,2.5-3.8,4.3c-0.2,0.3-0.3,0.6-0.4,1c0,0.4,0,0.7,0.2,1c0.3,0.6,0.7,1.1,1.1,1.7
	c0.4,0.6,0.9,1.2,1.7,1.9c0.7,0.7,1.4,1.4,2.2,1.9s1.6,1,2.7,1.4s2.1,0.6,3.1,0.6c1.1,0,2.1-0.2,3.1-0.6s1.9-0.8,2.7-1.4
	c0.7-0.5,1.5-1.2,2.2-1.9c0.7-0.7,1.3-1.4,1.7-1.9c0.4-0.5,0.8-1.1,1.1-1.7c0.2-0.3,0.2-0.6,0.2-1c0-0.4-0.1-0.7-0.3-1
	C25.2,13.2,23.9,11.7,22.8,10.6L22.8,10.6z M12.4,13l-0.8,0.8c-0.2,0.2-0.4,0.5-0.5,0.9c-0.1,0.4,0,0.7,0.1,1c0.6,1.1,1.3,2,2.2,2.7
	c0.3,0.2,0.6,0.3,0.9,0.3c0.4,0,0.6-0.2,0.9-0.4l0.8-0.8c0.2-0.2,0.3-0.5,0.3-0.8c0-0.3-0.2-0.6-0.4-0.8c-0.7-0.7-1.4-1.6-2.1-2.8
	c-0.2-0.3-0.4-0.4-0.7-0.5C12.9,12.7,12.7,12.8,12.4,13L12.4,13z"/>
</svg>
