<?xml version="1.0" encoding="utf-8"?>
<!-- Generator: Adobe Illustrator 22.1.0, SVG Export Plug-In . SVG Version: 6.00 Build 0)  -->
<svg version="1.1" id="Ebene_1" xmlns="http://www.w3.org/2000/svg" xmlns:xlink="http://www.w3.org/1999/xlink" x="0px" y="0px"
	 width="32px" height="32px" viewBox="0 0 32 32" style="enable-background:new 0 0 32 32;" xml:space="preserve">
<path d="M15.8,30.2h-3.5l0.7-2.8c-1.4-0.3-2.8-0.9-4.1-1.6s-2.5-1.6-3.4-2.5s-1.7-1.8-2.4-2.8c-0.7-1-1.2-1.8-1.6-2.6
	C1.2,17,1,16.4,1,16c0-0.3,0.1-0.8,0.3-1.4s0.6-1.2,1-1.9c0.4-0.7,1-1.5,1.6-2.2c0.6-0.8,1.4-1.5,2.2-2.2s1.8-1.4,2.7-1.9
	s2.1-1,3.3-1.4c1.2-0.4,2.5-0.5,3.8-0.5c1,0,1.9,0.1,3,0.4l0.8-2.9h3.5L15.8,30.2z M24.1,12l1.1-4.3c1.7,1.3,3.1,2.8,4.2,4.5
	S31,15.2,31,16c0,0.4-0.2,1-0.5,1.7c-0.3,0.7-0.8,1.5-1.4,2.4c-0.6,0.9-1.4,1.8-2.2,2.6c-0.8,0.9-1.8,1.7-3,2.5
	c-1.2,0.8-2.4,1.4-3.7,1.8l1.1-4.1c1.2-0.8,2.3-1.7,3.2-2.8s1.7-2.1,2.3-3.1c0.2-0.3,0.2-0.6,0.2-1c0-0.4-0.1-0.7-0.3-1
	C25.8,14,24.9,12.9,24.1,12L24.1,12z M9.2,10.7c-1.1,1.1-2.4,2.5-3.8,4.3c-0.2,0.3-0.3,0.6-0.4,1s0,0.7,0.2,1
	c0.3,0.5,0.6,0.9,0.9,1.4c0.3,0.5,0.8,1,1.3,1.7s1.1,1.2,1.7,1.7c0.6,0.5,1.3,1,2.1,1.4c0.8,0.4,1.6,0.8,2.5,1l1-3.6
	c-1.7-0.3-3.1-1.1-4.2-2.4c-1.1-1.3-1.7-2.8-1.7-4.6c0-0.9,0.2-1.8,0.5-2.7c0.1-0.3,0.2-0.5,0.1-0.5S9.4,10.5,9.2,10.7L9.2,10.7z
	 M12.4,13l-0.8,0.8c-0.2,0.2-0.4,0.5-0.5,0.9c-0.1,0.4,0,0.7,0.1,1c0.6,1.1,1.3,2,2.2,2.7c0.3,0.2,0.6,0.3,0.9,0.3
	c0.4,0,0.6-0.2,0.9-0.4l0.3-0.3l0.5-2L15.9,16c-0.7-0.7-1.4-1.6-2.1-2.8c-0.2-0.3-0.4-0.4-0.7-0.5C12.9,12.7,12.7,12.8,12.4,13
	L12.4,13z"/>
</svg>
