<svg fill="currentColor" xmlns="http://www.w3.org/2000/svg" width="32" height="32" viewBox="0 0 32 32"><path d="M15.8 30.2h-3.5l.7-2.8c-1.4-.3-2.8-.9-4.1-1.6s-2.5-1.6-3.4-2.5-1.7-1.8-2.4-2.8c-.7-1-1.2-1.8-1.6-2.6C1.2 17 1 16.4 1 16c0-.3.1-.8.3-1.4s.6-1.2 1-1.9 1-1.5 1.6-2.2c.6-.8 1.4-1.5 2.2-2.2s1.8-1.4 2.7-1.9 2.1-1 3.3-1.4c1.2-.4 2.5-.5 3.8-.5 1 0 1.9.1 3 .4l.8-2.9h3.5l-7.4 28.2zM24.1 12l1.1-4.3c1.7 1.3 3.1 2.8 4.2 4.5s1.6 3 1.6 3.8c0 .4-.2 1-.5 1.7s-.8 1.5-1.4 2.4c-.6.9-1.4 1.8-2.2 2.6-.8.9-1.8 1.7-3 2.5s-2.4 1.4-3.7 1.8l1.1-4.1c1.2-.8 2.3-1.7 3.2-2.8s1.7-2.1 2.3-3.1c.2-.3.2-.6.2-1s-.1-.7-.3-1c-.9-1-1.8-2.1-2.6-3zM9.2 10.7c-1.1 1.1-2.4 2.5-3.8 4.3-.2.3-.3.6-.4 1s0 .7.2 1c.3.5.6.9.9 1.4.3.5.8 1 1.3 1.7s1.1 1.2 1.7 1.7c.6.5 1.3 1 2.1 1.4.8.4 1.6.8 2.5 1l1-3.6c-1.7-.3-3.1-1.1-4.2-2.4-1.1-1.3-1.7-2.8-1.7-4.6 0-.9.2-1.8.5-2.7.1-.3.2-.5.1-.5s0 .1-.2.3zm3.2 2.3l-.8.8c-.2.2-.4.5-.5.9-.1.4 0 .7.1 1 .6 1.1 1.3 2 2.2 2.7.3.2.6.3.9.3.4 0 .6-.2.9-.4l.3-.3.5-2h-.1c-.7-.7-1.4-1.6-2.1-2.8-.2-.3-.4-.4-.7-.5-.2 0-.4.1-.7.3z"/></svg>