<svg fill="currentColor" xmlns="http://www.w3.org/2000/svg" width="32" height="32" viewBox="0 0 32 32"><path d="M16 4.4c1.3 0 2.6.2 3.8.5 1.2.4 2.3.8 3.3 1.4 1 .6 1.9 1.2 2.7 1.9.9.7 1.6 1.5 2.2 2.2s1.2 1.5 1.6 2.2c.4.7.8 1.4 1 1.9.2.6.3 1 .3 1.4s-.1.8-.3 1.4c-.2.6-.6 1.2-1 1.9-.5.7-1 1.5-1.6 2.2-.6.8-1.4 1.5-2.2 2.2-.9.7-1.8 1.4-2.7 1.9-1 .6-2.1 1-3.3 1.4-1.2.4-2.5.5-3.8.5-1.3 0-2.5-.2-3.8-.5-1.2-.4-2.3-.8-3.3-1.4-1-.6-1.9-1.2-2.7-1.9-.9-.7-1.6-1.5-2.2-2.2-.6-.8-1.2-1.5-1.6-2.2s-.8-1.4-1-1.9c-.3-.5-.4-1-.4-1.3 0-.3.1-.8.3-1.4s.6-1.2 1-1.9 1-1.5 1.6-2.2S5.3 9 6.1 8.3s1.8-1.4 2.7-1.9 2.1-1 3.3-1.4c1.3-.5 2.6-.6 3.9-.6zm6.8 6.2c-.2-.2-.4-.3-.4-.3s0 .2.1.5c.4.9.6 1.8.6 2.8 0 1.9-.7 3.6-2.1 5s-3.1 2.1-5 2.1-3.6-.7-5-2.1-2.1-3.1-2.1-5c0-.9.2-1.8.5-2.7.1-.3.2-.5.1-.5s-.2 0-.4.3C8 11.8 6.7 13.2 5.3 15c-.2.3-.3.6-.4 1 0 .4 0 .7.2 1 .3.6.7 1.1 1.1 1.7.4.6.9 1.2 1.7 1.9.7.7 1.4 1.4 2.2 1.9s1.6 1 2.7 1.4 2.1.6 3.1.6c1.1 0 2.1-.2 3.1-.6s1.9-.8 2.7-1.4c.7-.5 1.5-1.2 2.2-1.9.7-.7 1.3-1.4 1.7-1.9.4-.5.8-1.1 1.1-1.7.2-.3.2-.6.2-1s-.1-.7-.3-1c-1.4-1.8-2.7-3.3-3.8-4.4zM12.4 13l-.8.8c-.2.2-.4.5-.5.9-.1.4 0 .7.1 1 .6 1.1 1.3 2 2.2 2.7.3.2.6.3.9.3.4 0 .6-.2.9-.4l.8-.8c.2-.2.3-.5.3-.8 0-.3-.2-.6-.4-.8-.7-.7-1.4-1.6-2.1-2.8-.2-.3-.4-.4-.7-.5-.2.1-.4.2-.7.4z"/></svg>