<?xml version="1.0" encoding="utf-8"?>
<!-- Generator: Adobe Illustrator 22.1.0, SVG Export Plug-In . SVG Version: 6.00 Build 0)  -->
<svg version="1.1" id="Ebene_1" xmlns="http://www.w3.org/2000/svg" xmlns:xlink="http://www.w3.org/1999/xlink" x="0px" y="0px"
	 width="32px" height="32px" viewBox="0 0 32 32" style="enable-background:new 0 0 32 32;" xml:space="preserve">
<path d="M2.9,6h18.8c0.5,0,1,0.2,1.3,0.6c0.4,0.4,0.5,0.8,0.6,1.3v16.2c0,0.5-0.2,1-0.6,1.3c-0.4,0.4-0.8,0.5-1.3,0.6H2.9
	c-0.5,0-1-0.2-1.3-0.6S1,24.6,1,24.1V7.9c0-0.5,0.2-1,0.6-1.3S2.4,6,2.9,6z M31,23.5L23.5,16L31,8.5V23.5z"/>
</svg>
