<?xml version="1.0" encoding="utf-8"?>
<!-- Generator: Adobe Illustrator 22.1.0, SVG Export Plug-In . SVG Version: 6.00 Build 0)  -->
<svg version="1.1" id="Ebene_1" xmlns="http://www.w3.org/2000/svg" xmlns:xlink="http://www.w3.org/1999/xlink" x="0px" y="0px"
	 width="32px" height="32px" viewBox="0 0 32 32" style="enable-background:new 0 0 32 32;" xml:space="preserve">
<path d="M2.3,2.2h2.5c0.3,0,0.6,0.1,0.9,0.4S6,3.2,6,3.5v10.9L17.6,3.1c0.2-0.2,0.5-0.3,0.6-0.3c0.2,0.1,0.3,0.3,0.3,0.6v10.9
	L30.1,3.1c0.2-0.2,0.5-0.3,0.6-0.3C30.9,2.9,31,3.1,31,3.5v25c0,0.3-0.1,0.6-0.3,0.6c-0.2,0.1-0.4,0-0.6-0.3L18.5,17.6v10.9
	c0,0.3-0.1,0.6-0.3,0.6c-0.2,0.1-0.4,0-0.6-0.3L6,17.6v10.9c0,0.3-0.1,0.6-0.4,0.9c-0.2,0.2-0.5,0.4-0.9,0.4H2.3
	c-0.3,0-0.6-0.1-0.9-0.4S1,28.8,1,28.5v-25c0-0.3,0.1-0.6,0.4-0.9S1.9,2.2,2.3,2.2z"/>
</svg>
