<?xml version="1.0" encoding="utf-8"?>
<!-- Generator: Adobe Illustrator 22.1.0, SVG Export Plug-In . SVG Version: 6.00 Build 0)  -->
<svg version="1.1" id="Ebene_1" xmlns="http://www.w3.org/2000/svg" xmlns:xlink="http://www.w3.org/1999/xlink" x="0px" y="0px"
	 width="32px" height="32px" viewBox="0 0 32 32" style="enable-background:new 0 0 32 32;" xml:space="preserve">
<path d="M27.1,2.3l2.5,0c0.3,0,0.6,0.1,0.9,0.4c0.2,0.2,0.4,0.5,0.4,0.9L31,28.4c0,0.3-0.1,0.6-0.4,0.9c-0.2,0.2-0.5,0.4-0.9,0.4
	l-2.5,0c-0.3,0-0.6-0.1-0.9-0.4c-0.2-0.2-0.4-0.5-0.4-0.9l0-10.9L14.4,28.9c-0.2,0.2-0.4,0.3-0.6,0.3c-0.2-0.1-0.3-0.3-0.3-0.6
	l0-10.9L2,29c-0.2,0.2-0.5,0.3-0.6,0.2s-0.3-0.3-0.3-0.6L1,3.7c0-0.3,0.1-0.6,0.3-0.6c0.2-0.1,0.4,0,0.6,0.3l11.6,11.2l0-10.9
	c0-0.3,0.1-0.5,0.3-0.6c0.2-0.1,0.4,0,0.6,0.2l11.6,11.2l0-10.9c0-0.3,0.1-0.6,0.4-0.9S26.8,2.3,27.1,2.3L27.1,2.3z"/>
</svg>
