<?xml version="1.0" encoding="utf-8"?>
<!-- Generator: Adobe Illustrator 22.1.0, SVG Export Plug-In . SVG Version: 6.00 Build 0)  -->
<svg version="1.1" id="Ebene_1" xmlns="http://www.w3.org/2000/svg" xmlns:xlink="http://www.w3.org/1999/xlink" x="0px" y="0px"
	 width="32px" height="32px" viewBox="0 0 32 32" style="enable-background:new 0 0 32 32;" xml:space="preserve">
<path d="M17.3,1v10c0,0.7,0.2,1.3,0.7,1.8c0.5,0.5,1.1,0.7,1.8,0.7h7.5v16.2c0,0.3-0.1,0.6-0.4,0.9C26.6,30.9,26.3,31,26,31H6
	c-0.3,0-0.6-0.1-0.9-0.4s-0.4-0.5-0.4-0.9V2.3c0-0.3,0.1-0.6,0.4-0.9C5.4,1.1,5.7,1,6,1H17.3z M27.3,11H21c-0.3,0-0.6-0.1-0.9-0.4
	c-0.2-0.2-0.4-0.5-0.4-0.9V3.5L27.3,11z"/>
</svg>
