<?xml version="1.0" encoding="utf-8"?>
<!-- Generator: Adobe Illustrator 22.1.0, SVG Export Plug-In . SVG Version: 6.00 Build 0)  -->
<svg version="1.1" id="Ebene_1" xmlns="http://www.w3.org/2000/svg" xmlns:xlink="http://www.w3.org/1999/xlink" x="0px" y="0px"
	 width="32px" height="32px" viewBox="0 0 32 32" style="enable-background:new 0 0 32 32;" xml:space="preserve">
<path d="M1.6,2.3h28.7c0.2,0,0.3,0.1,0.4,0.2S31,2.7,31,2.9v26.2c0,0.2-0.1,0.3-0.2,0.4c-0.1,0.1-0.3,0.2-0.4,0.2H1.6
	c-0.2,0-0.3-0.1-0.4-0.2S1,29.3,1,29.1V2.9c0-0.2,0.1-0.3,0.2-0.4C1.3,2.3,1.5,2.3,1.6,2.3z M3.5,4.7v2.5H6V4.7H3.5z M22.9,4.7H9.1
	C9,4.7,8.8,4.8,8.7,4.9C8.6,5.1,8.5,5.2,8.5,5.4v8.7c0,0.2,0.1,0.3,0.2,0.4c0.1,0.1,0.3,0.2,0.4,0.2h13.7c0.2,0,0.3-0.1,0.4-0.2
	c0.1-0.1,0.2-0.3,0.2-0.4V5.4c0-0.2-0.1-0.3-0.2-0.4C23.2,4.8,23,4.7,22.9,4.7z M26,4.7v2.5h2.5V4.7H26z M3.5,9.7v2.5H6V9.7H3.5z
	 M26,9.7v2.5h2.5V9.7H26z M3.5,14.7v2.5H6v-2.5H3.5z M26,14.7v2.5h2.5v-2.5H26z M22.9,17.2H9.1c-0.2,0-0.3,0.1-0.4,0.2
	c-0.1,0.1-0.2,0.3-0.2,0.4v8.7c0,0.2,0.1,0.3,0.2,0.4c0.1,0.1,0.3,0.2,0.4,0.2h13.7c0.2,0,0.3-0.1,0.4-0.2s0.2-0.3,0.2-0.4v-8.7
	c0-0.2-0.1-0.3-0.2-0.4C23.2,17.3,23,17.2,22.9,17.2z M3.5,19.7v2.5H6v-2.5C6,19.7,3.5,19.7,3.5,19.7z M26,19.7v2.5h2.5v-2.5
	C28.5,19.7,26,19.7,26,19.7z M3.5,24.7v2.5H6v-2.5H3.5z M26,24.7v2.5h2.5v-2.5H26z"/>
</svg>
