<svg fill="currentColor" xmlns="http://www.w3.org/2000/svg" width="32" height="32" viewBox="0 0 32 32"><path d="M1.6 2.3h28.7c.2 0 .3.1.4.2s.3.2.3.4v26.2c0 .2-.1.3-.2.4-.1.1-.3.2-.4.2H1.6c-.2 0-.3-.1-.4-.2s-.2-.2-.2-.4V2.9c0-.2.1-.3.2-.4.1-.2.3-.2.4-.2zm1.9 2.4v2.5H6V4.7H3.5zm19.4 0H9.1c-.1 0-.3.1-.4.2-.1.2-.2.3-.2.5v8.7c0 .2.1.3.2.4.1.1.3.2.4.2h13.7c.2 0 .3-.1.4-.2.1-.1.2-.3.2-.4V5.4c0-.2-.1-.3-.2-.4 0-.2-.2-.3-.3-.3zm3.1 0v2.5h2.5V4.7H26zm-22.5 5v2.5H6V9.7H3.5zm22.5 0v2.5h2.5V9.7H26zm-22.5 5v2.5H6v-2.5H3.5zm22.5 0v2.5h2.5v-2.5H26zm-3.1 2.5H9.1c-.2 0-.3.1-.4.2-.1.1-.2.3-.2.4v8.7c0 .2.1.3.2.4.1.1.3.2.4.2h13.7c.2 0 .3-.1.4-.2s.2-.3.2-.4v-8.7c0-.2-.1-.3-.2-.4 0-.1-.2-.2-.3-.2zM3.5 19.7v2.5H6v-2.5H3.5zm22.5 0v2.5h2.5v-2.5H26zm-22.5 5v2.5H6v-2.5H3.5zm22.5 0v2.5h2.5v-2.5H26z"/></svg>