<?xml version="1.0" encoding="utf-8"?>
<!-- Generator: Adobe Illustrator 22.1.0, SVG Export Plug-In . SVG Version: 6.00 Build 0)  -->
<svg version="1.1" id="Ebene_1" xmlns="http://www.w3.org/2000/svg" xmlns:xlink="http://www.w3.org/1999/xlink" x="0px" y="0px"
	 width="32px" height="32px" viewBox="0 0 32 32" style="enable-background:new 0 0 32 32;" xml:space="preserve">
<path d="M16.9,1c-0.6,1.1-1.1,2.2-1.4,3.3c-0.3,1.1-0.3,2-0.3,2.9c0.1,0.8,0.3,1.6,0.6,2.4c0.3,0.8,0.7,1.4,1.2,2s1,1.1,1.6,1.6
	c0.6,0.5,1.2,0.9,1.7,1.2c0.5,0.3,1.1,0.5,1.6,0.7c-0.1-0.1-0.2-0.4-0.4-0.9c-0.2-0.5-0.4-0.8-0.5-1s-0.2-0.5-0.4-1
	c-0.2-0.5-0.3-0.8-0.4-1.1c-0.1-0.2-0.2-0.6-0.3-1s-0.2-0.8-0.2-1.1c0-0.3,0-0.6,0-1c0-0.4,0-0.8,0.1-1.1c0.1-0.3,0.2-0.6,0.3-1
	c0.1-0.3,0.3-0.7,0.6-1c1.6,0.7,3,1.6,4.1,2.7s2,2.2,2.6,3.4c0.6,1.2,1,2.5,1.3,3.9s0.4,2.7,0.3,4c0,1.3-0.2,2.5-0.5,3.7
	c-0.2,0.9-0.6,1.8-1.1,2.7c-0.5,0.9-1.1,1.6-1.7,2.2c-0.6,0.6-1.3,1.1-2,1.6c-0.7,0.5-1.3,0.9-1.8,1.1c-0.5,0.3-1,0.4-1.3,0.5
	c-1.2,0.4-2.2,0.5-3.2,0.3c-0.5-0.1-0.6-0.3-0.3-0.5c0.1,0,0.2-0.1,0.4-0.2c0.2-0.1,0.5-0.3,0.8-0.5s0.7-0.6,1-1.1
	c0.4-0.5,0.7-1,1-1.6c0.3-0.6,0.5-1.3,0.5-2s0-1.5-0.2-2.4S20.2,21,19.5,20c-0.6-1-1.5-1.9-2.6-2.9c0.2,1.7,0.2,3.3,0,4.7
	c-0.2,1.4-0.5,2.6-0.9,3.5c-0.4,0.9-1,1.7-1.6,2.3c-0.6,0.6-1.3,1.1-2.1,1.3c-0.8,0.2-1.5,0.3-2.3,0.3c-0.8-0.1-1.6-0.3-2.4-0.6
	c-1.3-0.6-2.4-1.5-3.3-2.8C3.5,24.5,3,23.1,3,21.5c0-0.4,0-0.8,0-1.2c0-0.4,0.1-0.9,0.1-1.3s0.2-0.9,0.3-1.4c0.2-0.5,0.4-1,0.7-1.5
	s0.7-1,1.1-1.6s1.1-1.1,1.7-1.7c-0.1,0.9-0.2,1.7-0.1,2.6s0.2,1.6,0.4,2.2c0.2,0.7,0.5,1.2,0.8,1.7c0.3,0.5,0.7,0.8,1.1,1
	c0.4,0.2,0.8,0.2,1.2,0c0.5-0.2,0.8-0.5,1-0.9c0.1-0.4,0.1-0.8-0.1-1.4c-0.2-0.5-0.4-1.1-0.7-1.6c-0.3-0.5-0.6-1.2-0.9-1.9
	c-0.3-0.7-0.5-1.3-0.6-1.9c-0.2-1.4-0.2-2.8,0-4c0.3-1.3,0.7-2.3,1.3-3.2s1.3-1.6,2.1-2.3c0.8-0.7,1.6-1.2,2.3-1.5
	C15.7,1.3,16.3,1.1,16.9,1L16.9,1z"/>
</svg>
