<svg fill="currentColor" xmlns="http://www.w3.org/2000/svg" width="32" height="32" viewBox="0 0 32 32"><path d="M16.9 1c-.6 1.1-1.1 2.2-1.4 3.3-.3 1.1-.3 2-.3 2.9.1.8.3 1.6.6 2.4.3.8.7 1.4 1.2 2s1 1.1 1.6 1.6c.6.5 1.2.9 1.7 1.2.5.3 1.1.5 1.6.7-.1-.1-.2-.4-.4-.9s-.4-.8-.5-1-.2-.5-.4-1-.3-.8-.4-1.1c-.1-.2-.2-.6-.3-1s-.2-.8-.2-1.1V8c0-.4 0-.8.1-1.1.1-.3.2-.6.3-1 .1-.3.3-.7.6-1 1.6.7 3 1.6 4.1 2.7s2 2.2 2.6 3.4c.6 1.2 1 2.5 1.3 3.9s.4 2.7.3 4c0 1.3-.2 2.5-.5 3.7-.2.9-.6 1.8-1.1 2.7-.5.9-1.1 1.6-1.7 2.2-.6.6-1.3 1.1-2 1.6s-1.3.9-1.8 1.1c-.5.3-1 .4-1.3.5-1.2.4-2.2.5-3.2.3-.5-.1-.6-.3-.3-.5.1 0 .2-.1.4-.2s.5-.3.8-.5.7-.6 1-1.1c.4-.5.7-1 1-1.6.3-.6.5-1.3.5-2s0-1.5-.2-2.4-.4-1.7-1.1-2.7c-.6-1-1.5-1.9-2.6-2.9.2 1.7.2 3.3 0 4.7-.2 1.4-.5 2.6-.9 3.5-.4.9-1 1.7-1.6 2.3-.6.6-1.3 1.1-2.1 1.3-.8.2-1.5.3-2.3.3-.8-.1-1.6-.3-2.4-.6-1.3-.6-2.4-1.5-3.3-2.8-.8-1.3-1.3-2.7-1.3-4.3v-1.2c0-.4.1-.9.1-1.3s.2-.9.3-1.4c.2-.5.4-1 .7-1.5s.7-1 1.1-1.6 1.1-1.1 1.7-1.7c-.1.9-.2 1.7-.1 2.6s.2 1.6.4 2.2c.2.7.5 1.2.8 1.7.3.5.7.8 1.1 1 .4.2.8.2 1.2 0 .5-.2.8-.5 1-.9.1-.4.1-.8-.1-1.4-.2-.5-.4-1.1-.7-1.6-.3-.5-.6-1.2-.9-1.9-.3-.7-.5-1.3-.6-1.9-.2-1.4-.2-2.8 0-4 .3-1.3.7-2.3 1.3-3.2s1.3-1.6 2.1-2.3c.8-.7 1.6-1.2 2.3-1.5 1-.3 1.6-.5 2.2-.6z"/></svg>