<svg fill="currentColor" xmlns="http://www.w3.org/2000/svg" width="32" height="32" viewBox="0 0 32 32"><path d="M3.3 1.3h1.3c.2 0 .3.1.5.2s.2.3.2.5v28.7H2.7V2c0-.2.1-.3.2-.5s.3-.2.4-.2zm25.4 1.3c.1 0 .2 0 .2.1.3.1.4.3.4.6v11.2c0 .1 0 .2-.1.3-.6 1-1.2 1.9-1.8 2.6-.6.7-1.2 1.2-1.7 1.5-.6.3-1.1.5-1.5.7-.4.1-.9.2-1.4.2-.5 0-1-.1-1.5-.2-.6-.1-1-.2-1.4-.4s-.9-.2-1.6-.5c-.7-.3-1.3-.5-1.7-.6s-.9-.3-1.5-.4c-.6-.1-1.2-.2-1.7-.2-1.5 0-2.9.5-4.3 1.5-.1.1-.3.1-.4.1-.1 0-.2 0-.3-.1-.3 0-.4-.2-.4-.5V6.9c.4-1 1.1-1.9 2.2-2.6S12.3 3 13.4 3h1.1c.3 0 .7.1 1.1.2.4.1.7.2.9.2s.5.2 1 .3.8.3.9.3c.7.2 1.3.4 1.7.6s.9.2 1.5.4 1.2.2 1.7.2c1.8 0 3.5-.8 4.9-2.3.1-.2.3-.3.5-.3z"/></svg>