<?xml version="1.0" encoding="utf-8"?>
<!-- Generator: Adobe Illustrator 22.1.0, SVG Export Plug-In . SVG Version: 6.00 Build 0)  -->
<svg version="1.1" id="Ebene_1" xmlns="http://www.w3.org/2000/svg" xmlns:xlink="http://www.w3.org/1999/xlink" x="0px" y="0px"
	 width="32px" height="32px" viewBox="0 0 32 32" style="enable-background:new 0 0 32 32;" xml:space="preserve">
<path d="M3.3,1.3h1.3c0.2,0,0.3,0.1,0.5,0.2S5.3,1.8,5.3,2v28.7H2.7V2c0-0.2,0.1-0.3,0.2-0.5S3.2,1.3,3.3,1.3z M28.7,2.6
	c0.1,0,0.2,0,0.2,0.1c0.3,0.1,0.4,0.3,0.4,0.6v11.2c0,0.1,0,0.2-0.1,0.3c-0.6,1-1.2,1.9-1.8,2.6c-0.6,0.7-1.2,1.2-1.7,1.5
	c-0.6,0.3-1.1,0.5-1.5,0.7c-0.4,0.1-0.9,0.2-1.4,0.2c-0.5,0-1-0.1-1.5-0.2c-0.6-0.1-1-0.2-1.4-0.4S19,19,18.3,18.7
	c-0.7-0.3-1.3-0.5-1.7-0.6s-0.9-0.3-1.5-0.4c-0.6-0.1-1.2-0.2-1.7-0.2c-1.5,0-2.9,0.5-4.3,1.5c-0.1,0.1-0.3,0.1-0.4,0.1
	c-0.1,0-0.2,0-0.3-0.1C8.1,19,8,18.8,8,18.5V6.9c0.4-1,1.1-1.9,2.2-2.6S12.3,3,13.4,3c0.4,0,0.8,0,1.1,0s0.7,0.1,1.1,0.2
	c0.4,0.1,0.7,0.2,0.9,0.2s0.5,0.2,1,0.3S18.3,4,18.4,4c0.7,0.2,1.3,0.4,1.7,0.6S21,4.8,21.6,5s1.2,0.2,1.7,0.2
	c1.8,0,3.5-0.8,4.9-2.3C28.3,2.7,28.5,2.6,28.7,2.6L28.7,2.6z"/>
</svg>
