<?xml version="1.0" encoding="utf-8"?>
<!-- Generator: Adobe Illustrator 22.1.0, SVG Export Plug-In . SVG Version: 6.00 Build 0)  -->
<svg version="1.1" id="Ebene_1" xmlns="http://www.w3.org/2000/svg" xmlns:xlink="http://www.w3.org/1999/xlink" x="0px" y="0px"
	 width="32px" height="32px" viewBox="0 0 32 32" style="enable-background:new 0 0 32 32;" xml:space="preserve">
<path d="M20.9,1l0.2,0.2c0.1,0.2,0.2,0.4,0.1,0.7c-0.1,0.2-0.7,2.1-2,5.7c-1.3,3.6-1.9,5.5-2,5.6l7.6,0c0.4,0,0.7,0.1,0.8,0.4
	c0.1,0.3,0.1,0.6-0.1,0.9c0,0-1.1,1.3-3.4,3.9s-4.5,5.3-6.8,7.9s-3.5,4-3.5,4.1c-0.2,0.3-0.4,0.4-0.7,0.4H11l-0.2-0.2
	c-0.2-0.2-0.2-0.5-0.1-0.8c0-0.2,0.4-1.2,1.1-3.1s1.3-3.8,2-5.7l1-2.8H7.1c-0.4,0-0.7-0.2-0.8-0.5c-0.2-0.4-0.1-0.7,0.2-1
	c1.3-1.5,3-3.5,5.3-6S16,6,17.6,4.2c1.6-1.8,2.4-2.7,2.5-2.8C20.2,1.1,20.4,1,20.7,1L20.9,1L20.9,1z"/>
</svg>
