<?xml version="1.0" encoding="utf-8"?>
<!-- Generator: Adobe Illustrator 22.1.0, SVG Export Plug-In . SVG Version: 6.00 Build 0)  -->
<svg version="1.1" id="Ebene_1" xmlns="http://www.w3.org/2000/svg" xmlns:xlink="http://www.w3.org/1999/xlink" x="0px" y="0px"
	 width="32px" height="32px" viewBox="0 0 32 32" style="enable-background:new 0 0 32 32;" xml:space="preserve">
<path d="M29.1,6.1v7.7h-8.9c-0.4,0-0.7,0.1-0.9,0.4s-0.4,0.5-0.4,0.9v3.8H6.1V29H2.3c-0.4,0-0.7-0.1-0.9-0.4S1,28.1,1,27.7V2.2
	c0-0.3,0.1-0.6,0.4-0.9C1.6,1.1,1.9,1,2.3,1h6.4v7.7h12.8V1H24L29.1,6.1z M18.9,6.1h-2.6V1h2.6C18.9,1,18.9,6.1,18.9,6.1z
	 M22.7,16.3h2.6c0.4,0,0.7,0.1,0.9,0.4s0.4,0.5,0.4,0.9v6.4h3.8c0.4,0,0.6,0.1,0.6,0.3s0,0.4-0.3,0.6l-5.9,5.9
	C24.6,30.9,24.3,31,24,31s-0.7-0.1-0.9-0.4l-5.9-5.9c-0.2-0.2-0.3-0.4-0.3-0.6c0.1-0.2,0.3-0.3,0.6-0.3h3.8v-6.4
	c0-0.4,0.1-0.7,0.4-0.9C22,16.4,22.3,16.3,22.7,16.3L22.7,16.3z"/>
</svg>
