<?xml version="1.0" encoding="utf-8"?>
<!-- Generator: Adobe Illustrator 22.1.0, SVG Export Plug-In . SVG Version: 6.00 Build 0)  -->
<svg version="1.1" id="Ebene_1" xmlns="http://www.w3.org/2000/svg" xmlns:xlink="http://www.w3.org/1999/xlink" x="0px" y="0px"
	 width="32px" height="32px" viewBox="0 0 32 32" style="enable-background:new 0 0 32 32;" xml:space="preserve">
<path d="M27.5,7.2l0,3.6L20.3,18L18,15.7c-0.1-0.1-0.3-0.2-0.5-0.2c-0.2,0-0.4,0.1-0.5,0.2l-3.6,3.5H5.8v9.6H2.2
	c-0.3,0-0.6-0.1-0.9-0.3C1.1,28.3,1,28,1,27.7V3.6C1,3.3,1.1,3,1.3,2.7c0.2-0.2,0.5-0.4,0.9-0.4h6v7.2h12V2.4h2.4L27.5,7.2z
	 M17.9,7.2h-2.4V2.4h2.4C17.9,2.4,17.9,7.2,17.9,7.2z M28.3,15.9l2.6,2.6c0.1,0.1,0.2,0.3,0.2,0.4s-0.1,0.3-0.2,0.4L20.7,29.5
	c-0.1,0.1-0.3,0.2-0.4,0.2s-0.3-0.1-0.4-0.2L15,24.6c-0.1-0.1-0.2-0.3-0.2-0.4c0-0.2,0.1-0.3,0.2-0.4l2.6-2.6C17.6,21,17.8,21,18,21
	s0.3,0.1,0.4,0.2l1.9,1.9l7.2-7.2c0.1-0.1,0.3-0.2,0.4-0.2S28.2,15.8,28.3,15.9L28.3,15.9z"/>
</svg>
