<svg fill="currentColor" xmlns="http://www.w3.org/2000/svg" width="32" height="32" viewBox="0 0 32 32"><path d="M26.6 6.8v6.3l-2.4 2.4-3.1-3.1c-.2-.2-.5-.4-.8-.4-.3 0-.6.1-.8.3l-6.2 6.2H5.7v9.3H2.2c-.3 0-.6-.1-.8-.3-.3-.3-.4-.5-.4-.9V3.3c0-.3.1-.6.3-.8.2-.2.5-.3.8-.3H8v7h11.7v-7H22l4.6 4.6zm-9.3 0H15V2.2h2.3v4.6zm11.7 10l1.6 1.6c.2.2.3.5.3.8s-.1.6-.3.8l-3.1 3.1 3.1 3.1c.2.2.3.5.3.8s-.1.6-.3.8L29 29.5c-.2.2-.5.3-.8.3-.3 0-.6-.1-.8-.3l-3.1-3.1-3.1 3.1c-.2.2-.5.3-.8.3-.3 0-.6-.1-.8-.3L18 27.9c-.2-.2-.3-.5-.3-.8s.1-.6.3-.8l3.1-3.1-3.1-3.1c-.2-.2-.3-.5-.3-.8 0-.3.1-.6.3-.8l1.6-1.6c.2-.2.5-.3.8-.3.3 0 .6.1.8.3l3.1 3.1 3.1-3.1c.2-.2.5-.3.8-.3.3-.1.6 0 .8.2z"/></svg>