<?xml version="1.0" encoding="utf-8"?>
<!-- Generator: Adobe Illustrator 22.1.0, SVG Export Plug-In . SVG Version: 6.00 Build 0)  -->
<svg version="1.1" id="Ebene_1" xmlns="http://www.w3.org/2000/svg" xmlns:xlink="http://www.w3.org/1999/xlink" x="0px" y="0px"
	 width="32px" height="32px" viewBox="0 0 32 32" style="enable-background:new 0 0 32 32;" xml:space="preserve">
<path d="M26.6,6.8v6.3l-2.4,2.4l-3.1-3.1c-0.2-0.2-0.5-0.4-0.8-0.4c-0.3,0-0.6,0.1-0.8,0.3l-6.2,6.2H5.7v9.3H2.2
	c-0.3,0-0.6-0.1-0.8-0.3C1.1,27.2,1,27,1,26.6V3.3C1,3,1.1,2.7,1.3,2.5c0.2-0.2,0.5-0.3,0.8-0.3H8v7h11.7v-7H22L26.6,6.8z M17.3,6.8
	H15V2.2h2.3C17.3,2.2,17.3,6.8,17.3,6.8z M29,16.8l1.6,1.6c0.2,0.2,0.3,0.5,0.3,0.8s-0.1,0.6-0.3,0.8l-3.1,3.1l3.1,3.1
	c0.2,0.2,0.3,0.5,0.3,0.8s-0.1,0.6-0.3,0.8L29,29.5c-0.2,0.2-0.5,0.3-0.8,0.3c-0.3,0-0.6-0.1-0.8-0.3l-3.1-3.1l-3.1,3.1
	c-0.2,0.2-0.5,0.3-0.8,0.3c-0.3,0-0.6-0.1-0.8-0.3L18,27.9c-0.2-0.2-0.3-0.5-0.3-0.8s0.1-0.6,0.3-0.8l3.1-3.1L18,20.1
	c-0.2-0.2-0.3-0.5-0.3-0.8c0-0.3,0.1-0.6,0.3-0.8l1.6-1.6c0.2-0.2,0.5-0.3,0.8-0.3c0.3,0,0.6,0.1,0.8,0.3l3.1,3.1l3.1-3.1
	c0.2-0.2,0.5-0.3,0.8-0.3C28.5,16.5,28.8,16.6,29,16.8z"/>
</svg>
