<?xml version="1.0" encoding="utf-8"?>
<!-- Generator: Adobe Illustrator 22.1.0, SVG Export Plug-In . SVG Version: 6.00 Build 0)  -->
<svg version="1.1" id="Ebene_1" xmlns="http://www.w3.org/2000/svg" xmlns:xlink="http://www.w3.org/1999/xlink" x="0px" y="0px"
	 width="32px" height="32px" viewBox="0 0 32 32" style="enable-background:new 0 0 32 32;" xml:space="preserve">
<path d="M30.7,6.7v22.7c0,0.4-0.1,0.7-0.4,0.9c-0.3,0.3-0.6,0.4-0.9,0.4h-4V20H6.7v10.7h-4c-0.4,0-0.7-0.1-0.9-0.4s-0.4-0.6-0.4-0.9
	V2.7c0-0.4,0.1-0.7,0.4-0.9C2,1.5,2.3,1.3,2.7,1.3h6.7v8h13.3v-8h2.7L30.7,6.7z M20,6.7h-2.7V1.3H20C20,1.3,20,6.7,20,6.7z"/>
</svg>
