<?xml version="1.0" encoding="utf-8"?>
<!-- Generator: Adobe Illustrator 22.1.0, SVG Export Plug-In . SVG Version: 6.00 Build 0)  -->
<svg version="1.1" id="Ebene_1" xmlns="http://www.w3.org/2000/svg" xmlns:xlink="http://www.w3.org/1999/xlink" x="0px" y="0px"
	 width="32px" height="32px" viewBox="0 0 32 32" style="enable-background:new 0 0 32 32;" xml:space="preserve">
<path d="M28.8,6v10l-4.1-4.1c-0.2-0.3-0.5-0.4-0.9-0.4c-0.4,0-0.6,0.1-0.9,0.4l-6.6,6.6h-10v10H2.6c-0.4,0-0.6-0.1-0.9-0.4
	s-0.4-0.5-0.4-0.9v-25c0-0.3,0.1-0.6,0.4-0.9C1.9,1.1,2.2,1,2.6,1h6.3v7.5h12.5V1h2.5L28.8,6z M18.8,6h-2.5V1h2.5
	C18.8,1,18.8,6,18.8,6z M24.7,16.9l5.7,5.7c0.2,0.2,0.3,0.5,0.3,0.6c-0.1,0.2-0.3,0.3-0.6,0.3h-3.8v6.3c0,0.3-0.1,0.6-0.4,0.9
	c-0.2,0.3-0.5,0.4-0.9,0.4h-2.5c-0.4,0-0.6-0.1-0.9-0.4c-0.2-0.3-0.4-0.5-0.4-0.9v-6.3h-3.8c-0.3,0-0.6-0.1-0.6-0.3
	c-0.1-0.2,0-0.4,0.3-0.6l5.7-5.7c0.2-0.3,0.5-0.4,0.9-0.4C24.1,16.5,24.4,16.6,24.7,16.9L24.7,16.9z"/>
</svg>
