<svg fill="currentColor" xmlns="http://www.w3.org/2000/svg" width="32" height="32" viewBox="0 0 32 32"><path d="M27.5 7.2v3.6L20.3 18 18 15.7c-.1-.1-.3-.2-.5-.2s-.4.1-.5.2l-3.6 3.5H5.8v9.6H2.2c-.3 0-.6-.1-.9-.3-.2-.2-.3-.5-.3-.8V3.6c0-.3.1-.6.3-.9.2-.2.5-.4.9-.4h6v7.2h12V2.4h2.4l4.9 4.8zm-9.6 0h-2.4V2.4h2.4v4.8zm10.4 8.7l2.6 2.6c.1.1.2.3.2.4s-.1.3-.2.4L20.7 29.5c-.1.1-.3.2-.4.2s-.3-.1-.4-.2L15 24.6c-.1-.1-.2-.3-.2-.4 0-.2.1-.3.2-.4l2.6-2.6c0-.2.2-.2.4-.2s.3.1.4.2l1.9 1.9 7.2-7.2c.1-.1.3-.2.4-.2s.3.1.4.2z"/></svg>