<svg fill="currentColor" xmlns="http://www.w3.org/2000/svg" width="32" height="32" viewBox="0 0 32 32"><path d="M28.8 6v10l-4.1-4.1c-.2-.3-.5-.4-.9-.4s-.6.1-.9.4l-6.6 6.6h-10v10H2.6c-.4 0-.6-.1-.9-.4s-.4-.5-.4-.9v-25c0-.3.1-.6.4-.9.2-.2.5-.3.9-.3h6.3v7.5h12.5V1h2.5l4.9 5zm-10 0h-2.5V1h2.5v5zm5.9 10.9l5.7 5.7c.2.2.3.5.3.6-.1.2-.3.3-.6.3h-3.8v6.3c0 .3-.1.6-.4.9-.2.3-.5.4-.9.4h-2.5c-.4 0-.6-.1-.9-.4-.2-.3-.4-.5-.4-.9v-6.3h-3.8c-.3 0-.6-.1-.6-.3-.1-.2 0-.4.3-.6l5.7-5.7c.2-.3.5-.4.9-.4s.7.1 1 .4z"/></svg>