<?xml version="1.0" encoding="utf-8"?>
<!-- Generator: Adobe Illustrator 22.1.0, SVG Export Plug-In . SVG Version: 6.00 Build 0)  -->
<svg version="1.1" id="Ebene_1" xmlns="http://www.w3.org/2000/svg" xmlns:xlink="http://www.w3.org/1999/xlink" x="0px" y="0px"
	 width="32px" height="32px" viewBox="0 0 32 32" style="enable-background:new 0 0 32 32;" xml:space="preserve">
<path d="M17.4,1L27,26c0.3,0.8,0.8,1.6,1.5,2.3c0.3,0.3,0.6,0.6,0.9,0.7c0.3,0.2,0.5,0.3,0.7,0.3l0.3,0V31H19.9v-1.7
	c0.9,0,1.5-0.4,1.9-1.1c0.4-0.7,0.4-1.5,0.1-2.2l-2.1-5.6h-9.8c-1,2.4-1.7,4.4-2.3,5.9c-0.2,0.6-0.2,1-0.2,1.4s0.3,0.7,0.6,0.9
	c0.4,0.2,0.7,0.4,1.2,0.5c0.4,0.1,0.9,0.1,1.4,0.2V31H1.7v-1.7c0.9-0.4,1.6-0.8,2.1-1.3c0.2-0.2,0.4-0.5,0.6-0.8
	c0.2-0.3,0.4-0.6,0.5-0.8l0.2-0.3L15,1L17.4,1L17.4,1z M10.7,18h8.5L15.2,6.5L10.7,18z"/>
</svg>
