<?xml version="1.0" encoding="utf-8"?>
<!-- Generator: Adobe Illustrator 22.1.0, SVG Export Plug-In . SVG Version: 6.00 Build 0)  -->
<svg version="1.1" id="Ebene_1" xmlns="http://www.w3.org/2000/svg" xmlns:xlink="http://www.w3.org/1999/xlink" x="0px" y="0px"
	 width="32px" height="32px" viewBox="0 0 32 32" style="enable-background:new 0 0 32 32;" xml:space="preserve">
<path d="M15.4,14.3V2.7c0-0.4,0.1-0.6,0.3-0.7s0.4,0,0.7,0.3l13.1,12.8c0.3,0.2,0.4,0.6,0.4,0.9c0,0.4-0.1,0.7-0.4,0.9L16.4,29.7
	c-0.3,0.2-0.5,0.3-0.7,0.3c-0.2-0.1-0.3-0.3-0.3-0.7V17.7L3.1,29.7C2.8,30,2.6,30.1,2.4,30c-0.2-0.1-0.3-0.3-0.3-0.7V2.7
	c0-0.4,0.1-0.6,0.3-0.7s0.4,0,0.7,0.3L15.4,14.3z"/>
</svg>
