<svg xmlns="http://www.w3.org/2000/svg" width="32" height="32" fill="currentColor" viewBox="0 0 32 32"><path d="M2.3 1h7.5c.3 0 .6.1.6.3q.15.3-.3.6L7.8 4.2l5 5c.1.1.2.3.2.4 0 .2-.1.3-.2.4l-2.7 2.7c-.1.1-.3.2-.4.2-.2 0-.3-.1-.4-.2l-5-5-2.4 2.4q-.3.3-.6.3-.3-.15-.3-.6V2.3c0-.3.1-.6.4-.9s.5-.4.9-.4m19.9 0h7.5c.3 0 .6.1.9.4.3.2.4.5.4.9v7.5c0 .3-.1.6-.3.6s-.4 0-.6-.3l-2.4-2.4-5 5c-.1.1-.3.2-.4.2s-.3-.1-.4-.2L19.2 10c-.1-.1-.2-.3-.2-.4s.1-.3.2-.4l5-5-2.4-2.4q-.3-.3-.3-.6c.2-.1.4-.2.7-.2M10.1 19.2l2.7 2.7c.1.1.2.3.2.4s-.1.3-.2.4l-5 5 2.4 2.4q.3.3.3.6-.15.3-.6.3H2.3c-.3 0-.6-.1-.9-.4s-.4-.5-.4-.9v-7.5c0-.3.1-.6.3-.6q.3-.15.6.3l2.4 2.4 5-5c.1-.1.3-.2.4-.2s.3 0 .4.1m17.7 5 2.4-2.4q.3-.3.6-.3c.3 0 .3.3.3.6v7.5c0 .3-.1.6-.4.9s-.6.5-1 .5h-7.5c-.3 0-.6-.1-.6-.3q-.15-.3.3-.6l2.4-2.4-5-5c-.1-.1-.2-.3-.2-.4s.1-.3.2-.4l2.7-2.7c.1-.1.3-.2.4-.2.2 0 .3.1.4.2z"/></svg>