<?xml version="1.0" encoding="utf-8"?>
<!-- Generator: Adobe Illustrator 22.1.0, SVG Export Plug-In . SVG Version: 6.00 Build 0)  -->
<svg version="1.1" id="Ebene_1" xmlns="http://www.w3.org/2000/svg" xmlns:xlink="http://www.w3.org/1999/xlink" x="0px" y="0px"
	 width="32px" height="32px" viewBox="0 0 32 32" style="enable-background:new 0 0 32 32;" xml:space="preserve">
<path d="M2.3,1h7.5c0.3,0,0.6,0.1,0.6,0.3c0.1,0.2,0,0.4-0.3,0.6L7.8,4.2l5,5c0.1,0.1,0.2,0.3,0.2,0.4c0,0.2-0.1,0.3-0.2,0.4
	l-2.7,2.7c-0.1,0.1-0.3,0.2-0.4,0.2c-0.2,0-0.3-0.1-0.4-0.2l-5-5l-2.4,2.4c-0.2,0.2-0.4,0.3-0.6,0.3C1.1,10.3,1,10.1,1,9.8V2.3
	c0-0.3,0.1-0.6,0.4-0.9S1.9,1,2.3,1z M22.2,1h7.5c0.3,0,0.6,0.1,0.9,0.4C30.9,1.6,31,1.9,31,2.3v7.5c0,0.3-0.1,0.6-0.3,0.6
	s-0.4,0-0.6-0.3l-2.4-2.4l-5,5c-0.1,0.1-0.3,0.2-0.4,0.2s-0.3-0.1-0.4-0.2l-2.7-2.7c-0.1-0.1-0.2-0.3-0.2-0.4s0.1-0.3,0.2-0.4l5-5
	l-2.4-2.4c-0.2-0.2-0.3-0.4-0.3-0.6C21.7,1.1,21.9,1,22.2,1z M10.1,19.2l2.7,2.7c0.1,0.1,0.2,0.3,0.2,0.4s-0.1,0.3-0.2,0.4l-5,5
	l2.4,2.4c0.2,0.2,0.3,0.4,0.3,0.6c-0.1,0.2-0.3,0.3-0.6,0.3H2.3c-0.3,0-0.6-0.1-0.9-0.4S1,30.1,1,29.7v-7.5c0-0.3,0.1-0.6,0.3-0.6
	c0.2-0.1,0.4,0,0.6,0.3l2.4,2.4l5-5c0.1-0.1,0.3-0.2,0.4-0.2S10,19.1,10.1,19.2z M27.8,24.2l2.4-2.4c0.2-0.2,0.4-0.3,0.6-0.3
	s0.3,0.3,0.3,0.6v7.5c0,0.3-0.1,0.6-0.4,0.9S30.1,31,29.7,31h-7.5c-0.3,0-0.6-0.1-0.6-0.3c-0.1-0.2,0-0.4,0.3-0.6l2.4-2.4l-5-5
	c-0.1-0.1-0.2-0.3-0.2-0.4s0.1-0.3,0.2-0.4l2.7-2.7c0.1-0.1,0.3-0.2,0.4-0.2c0.2,0,0.3,0.1,0.4,0.2L27.8,24.2z"/>
</svg>
