<svg fill="currentColor" xmlns="http://www.w3.org/2000/svg" width="32" height="32" viewBox="0 0 32 32"><path d="M17.4 1.4c1.5 0 2.9.4 4.3 1.1 1.4.7 2.5 1.7 3.3 2.9.8 1.2 1.3 2.5 1.3 3.9h-4.1c0-.7-.2-1.3-.5-1.9-.3-.6-.8-1-1.3-1.3-.5-.3-1.1-.5-1.6-.7-.5-.2-1-.2-1.5-.2-.7 0-1.4.1-2.1.4-.7.3-1.3.6-1.7.9-.7.8-1.1 1.7-1.1 2.7 0 .5.1 1 .4 1.7s.5 1.2.7 1.6c.2.4.6 1 1 1.8.1.2.2.3.2.4h6.4v2.7h-5.3c.1.9.1 1.9-.1 3.1-.2 1.2-.5 2-.8 2.5-.8 1.1-1.7 2.1-2.6 3 .6-.2 1.3-.3 2.2-.5.9-.1 1.5-.2 1.9-.2.6 0 1.5.1 2.7.4 1.2.3 2.2.5 2.8.5 1.5 0 2.7-.3 3.6-.8l1.3 3.9c-.6.3-1.1.6-1.5.8s-1 .3-1.5.4c-.5.1-.9.1-1.1.1h-1.2c-.4 0-1.1-.2-2-.5s-1.9-.6-3-.9c-1-.3-1.9-.4-2.6-.3-.7.1-1.4.2-2.2.4-.8.2-1.4.5-1.8.7l-.6.3-1.5-3.9c.1-.1.2-.2.4-.3.2-.1.4-.2.4-.3.1 0 .2-.1.3-.2.2-.1.3-.2.4-.3l.4-.4.5-.5c.9-1 1.3-2.1 1.4-3.4s-.2-2.5-.8-3.8H5.1v-2.7h4.4c-.4-.8-.8-1.8-1.2-2.8-.1-.4-.2-.7-.3-1.1s-.1-.7-.1-1.3 0-1.2.2-1.8.4-1.2.8-1.9c.3-.6.9-1.3 1.5-1.9 1.7-1.5 4.1-2.3 7-2.3z"/></svg>