<?xml version="1.0" encoding="utf-8"?>
<!-- Generator: Adobe Illustrator 22.1.0, SVG Export Plug-In . SVG Version: 6.00 Build 0)  -->
<svg version="1.1" id="Ebene_1" xmlns="http://www.w3.org/2000/svg" xmlns:xlink="http://www.w3.org/1999/xlink" x="0px" y="0px"
	 width="32px" height="32px" viewBox="0 0 32 32" style="enable-background:new 0 0 32 32;" xml:space="preserve">
<path d="M17.4,1.4c1.5,0,2.9,0.4,4.3,1.1c1.4,0.7,2.5,1.7,3.3,2.9c0.8,1.2,1.3,2.5,1.3,3.9h-4.1c0-0.7-0.2-1.3-0.5-1.9
	c-0.3-0.6-0.8-1-1.3-1.3c-0.5-0.3-1.1-0.5-1.6-0.7c-0.5-0.2-1-0.2-1.5-0.2c-0.7,0-1.4,0.1-2.1,0.4c-0.7,0.3-1.3,0.6-1.7,0.9
	c-0.7,0.8-1.1,1.7-1.1,2.7c0,0.5,0.1,1,0.4,1.7s0.5,1.2,0.7,1.6c0.2,0.4,0.6,1,1,1.8c0.1,0.2,0.2,0.3,0.2,0.4h6.4v2.7h-5.3
	c0.1,0.9,0.1,1.9-0.1,3.1c-0.2,1.2-0.5,2-0.8,2.5c-0.8,1.1-1.7,2.1-2.6,3c0.6-0.2,1.3-0.3,2.2-0.5c0.9-0.1,1.5-0.2,1.9-0.2
	c0.6,0,1.5,0.1,2.7,0.4c1.2,0.3,2.2,0.5,2.8,0.5c1.5,0,2.7-0.3,3.6-0.8l1.3,3.9c-0.6,0.3-1.1,0.6-1.5,0.8s-1,0.3-1.5,0.4
	c-0.5,0.1-0.9,0.1-1.1,0.1c-0.2,0-0.7,0-1.2,0c-0.4,0-1.1-0.2-2-0.5s-1.9-0.6-3-0.9c-1-0.3-1.9-0.4-2.6-0.3
	c-0.7,0.1-1.4,0.2-2.2,0.4c-0.8,0.2-1.4,0.5-1.8,0.7l-0.6,0.3l-1.5-3.9c0.1-0.1,0.2-0.2,0.4-0.3c0.2-0.1,0.4-0.2,0.4-0.3
	c0.1,0,0.2-0.1,0.3-0.2c0.2-0.1,0.3-0.2,0.4-0.3c0.1-0.1,0.2-0.2,0.4-0.4c0.2-0.2,0.3-0.3,0.5-0.5c0.9-1,1.3-2.1,1.4-3.4
	s-0.2-2.5-0.8-3.8H5.1v-2.7h4.4c-0.4-0.8-0.8-1.8-1.2-2.8c-0.1-0.4-0.2-0.7-0.3-1.1S7.9,9.9,7.9,9.3s0-1.2,0.2-1.8s0.4-1.2,0.8-1.9
	C9.2,5,9.8,4.3,10.4,3.7C12.1,2.2,14.5,1.4,17.4,1.4L17.4,1.4z"/>
</svg>
