<svg fill="currentColor" xmlns="http://www.w3.org/2000/svg" width="32" height="32" viewBox="0 0 32 32"><path d="M7.5 1H8c.2 0 .3.1.4.1h.1c.4.2.7.4 1.1.6l4.9 3c.4.2.6.4.9.6.5.3.8.4.9.3.2-.2.6-.5 1.2-.9l4.9-3c.4-.2.7-.4 1.1-.6.3 0 .6-.1 1-.1s.8.1 1.2.4c.4.3.7.6.9.8l.3.4c.2.4.4.7.4 1.1l.7 3.2.2 1.1c0 .2.1.3.2.4.1.1.3.1.4.1h1.5c.2 0 .3.1.4.2s.3.3.3.4v1.2c0 .2-.1.3-.2.4s-.3.3-.4.3h-1.2c-.2 0-.3.1-.4.2-.1.1-.2.3-.2.4V16h-10V8.5h-5V16h-10v-4.4c0-.2-.1-.3-.2-.4-.2-.1-.4-.2-.5-.2H1.6c-.2 0-.3-.1-.4-.2s-.2-.3-.2-.4V9.1c0-.1.1-.3.2-.4s.3-.2.4-.2h1.5c.2 0 .3 0 .5-.1.1-.1.2-.1.2-.2s.1-.5.2-1.3l.6-3.2c.1-.4.2-.8.5-1.1 0 0 .1-.1.1-.2.1-.1.2-.2.3-.4.2-.2.4-.3.5-.5.2-.1.4-.3.7-.4.3 0 .6-.1.8-.1zm16.4 3l-4.2 4.1c-.1.1-.2.2-.1.3 0 .1.1.1.3.1h5.5c.2 0 .3-.1.4-.2.1-.1.1-.3 0-.4l-1.3-3.7c-.1-.2-.1-.3-.3-.3-.1-.1-.2 0-.3.1zM12.6 8.1L8.1 4.2C8 4 7.9 4 7.7 4c-.1 0-.2.1-.3.3L6.2 7.9c-.1.2 0 .3 0 .4.1.1.2.2.4.2h5.8c.2 0 .3 0 .3-.1s0-.2-.1-.3zm.9 22.9H4.1c-.2 0-.3-.1-.4-.2-.1-.1-.2-.3-.2-.4V21h10v10zm15-10v9.4c0 .2-.1.3-.2.4-.1.1-.3.2-.4.2h-9.4V21h10z"/></svg>