<?xml version="1.0" encoding="utf-8"?>
<!-- Generator: Adobe Illustrator 22.1.0, SVG Export Plug-In . SVG Version: 6.00 Build 0)  -->
<svg version="1.1" id="Ebene_1" xmlns="http://www.w3.org/2000/svg" xmlns:xlink="http://www.w3.org/1999/xlink" x="0px" y="0px"
	 width="32px" height="32px" viewBox="0 0 32 32" style="enable-background:new 0 0 32 32;" xml:space="preserve">
<path d="M7.5,1C7.6,1,7.8,1,8,1c0.2,0,0.3,0.1,0.4,0.1l0.1,0c0.4,0.2,0.7,0.4,1.1,0.6l4.9,3c0.4,0.2,0.6,0.4,0.9,0.6
	c0.5,0.3,0.8,0.4,0.9,0.3c0.2-0.2,0.6-0.5,1.2-0.9l4.9-3c0.4-0.2,0.7-0.4,1.1-0.6C23.8,1.1,24.1,1,24.5,1c0.4,0,0.8,0.1,1.2,0.4
	c0.4,0.3,0.7,0.6,0.9,0.8l0.3,0.4c0.2,0.4,0.4,0.7,0.4,1.1L28,6.9L28.2,8c0,0.2,0.1,0.3,0.2,0.4c0.1,0.1,0.3,0.1,0.4,0.1h1.5
	c0.2,0,0.3,0.1,0.4,0.2S31,9,31,9.1v1.2c0,0.2-0.1,0.3-0.2,0.4S30.5,11,30.4,11h-1.2c-0.2,0-0.3,0.1-0.4,0.2
	c-0.1,0.1-0.2,0.3-0.2,0.4V16h-10V8.5h-5V16h-10v-4.4c0-0.2-0.1-0.3-0.2-0.4C3.2,11.1,3,11,2.9,11H1.6c-0.2,0-0.3-0.1-0.4-0.2
	S1,10.5,1,10.4V9.1C1,9,1.1,8.8,1.2,8.7s0.3-0.2,0.4-0.2h1.5c0.2,0,0.3,0,0.5-0.1c0.1-0.1,0.2-0.1,0.2-0.2c0-0.1,0.1-0.5,0.2-1.3
	l0.6-3.2c0.1-0.4,0.2-0.8,0.5-1.1c0,0,0.1-0.1,0.1-0.2c0.1-0.1,0.2-0.2,0.3-0.4c0.2-0.2,0.4-0.3,0.5-0.5c0.2-0.1,0.4-0.3,0.7-0.4
	C7,1.1,7.3,1,7.5,1L7.5,1z M23.9,4l-4.2,4.1c-0.1,0.1-0.2,0.2-0.1,0.3c0,0.1,0.1,0.1,0.3,0.1h5.5c0.2,0,0.3-0.1,0.4-0.2
	c0.1-0.1,0.1-0.3,0-0.4l-1.3-3.7c-0.1-0.2-0.1-0.3-0.3-0.3C24.1,3.8,24,3.9,23.9,4z M12.6,8.1L8.1,4.2C8,4,7.9,4,7.7,4
	c-0.1,0-0.2,0.1-0.3,0.3L6.2,7.9c-0.1,0.2,0,0.3,0,0.4c0.1,0.1,0.2,0.2,0.4,0.2h5.8c0.2,0,0.3,0,0.3-0.1C12.7,8.3,12.7,8.2,12.6,8.1
	L12.6,8.1z M13.5,31H4.1c-0.2,0-0.3-0.1-0.4-0.2c-0.1-0.1-0.2-0.3-0.2-0.4V21h10C13.5,21,13.5,31,13.5,31z M28.5,21v9.4
	c0,0.2-0.1,0.3-0.2,0.4C28.2,30.9,28,31,27.9,31h-9.4V21C18.5,21,28.5,21,28.5,21z"/>
</svg>
