<svg fill="currentColor" xmlns="http://www.w3.org/2000/svg" width="32" height="32" viewBox="0 0 32 32"><path d="M16 1c2 0 3.9.4 5.8 1.2 1.8.8 3.4 1.9 4.8 3.2s2.4 2.9 3.2 4.8C30.6 12.1 31 14 31 16s-.4 3.9-1.2 5.8c-.8 1.8-1.9 3.4-3.2 4.8-1.3 1.3-2.9 2.4-4.8 3.2-1.9.8-3.8 1.2-5.8 1.2s-3.9-.4-5.8-1.2c-1.9-.8-3.4-1.9-4.8-3.2s-2.4-3-3.2-4.8C1.4 19.9 1 18 1 16s.4-3.9 1.2-5.8 1.9-3.4 3.2-4.8 3-2.4 4.8-3.2S14 1 16 1zm.7 2c-.3.2-.6.4-1 .5-.4.1-.7.3-.9.3-.2.1-.6.1-1.1.2s-.8.1-1 .2c-.3.1-.7.1-1.2 0s-.9 0-1.2.1c-.3.1-.8.3-1.3.6-.6.4-.9.7-.9.9-.1.2 0 .4.2.6.2.2.2.4.2.5-.1.6-.3 1.4-.7 2.4-.4 1-.7 1.7-.8 2.1-.2.6-.1 1.4.1 2.4s.3 1.8.2 2.3c0 .2.1.5.4 1.2.3.6.4 1.1.4 1.5.2 0 .4 0 .6.1.2.1.4.2.6.4.2.2.4.3.5.4.3.1.6.3.9.4.3.1.6.3 1.1.4.4.1.7.2.9.3.4.2.8.4 1.4.8.5.4 1.1.7 1.6 1 .5.3 1 .4 1.5.3.1.3.1.6-.1.9-.2.3-.4.7-.6 1-.2.4-.3.7-.2 1 .2.4.4.7.6.9.2.2.4.5.7.7.3.2.6.4 1 .5 0 .1 0 .3-.1.4s-.1.3-.1.4c0 .1 0 .2.1.4 1.8 0 3.7-.9 5.8-2.9l1.2-1.2c.3-.3.6-.7.9-1.3s.5-1.1.5-1.6c-.2-.1-.5-.2-1-.2s-.7-.1-.9-.2c-.3-.1-.7-.3-1.3-.4-.6-.1-1-.3-1.3-.5h-2.2c-.3 0-.7.1-1.1.2-.4.1-.7.2-1 .4-.9.6-1.5.7-1.7.3-.1 0-.1-.2-.1-.7v-.7c-.1-.2-.3-.4-.7-.5-.4-.1-.6-.1-.6-.2v-.8c0-.3-.1-.5-.2-.7-.1-.2-.3-.3-.5-.3s-.5.2-.8.5c-.4.4-.8.4-1.1-.1-.3-.5-.4-1-.2-1.5.1-.3.3-.5.6-.6h.7c.3 0 .6 0 .9.1s.4.2.5.4c.1.2.3.4.5.6.2.2.4.4.6.5.2.1.4.3.5.4.2.1.3.2.4.3l.1.1c0-.2.1-.5.2-.8.1-.3.2-.6.2-.9V16c-.1-.3 0-.6.1-.8.1-.2.3-.4.5-.6.2-.2.3-.4.4-.6.1-.2.2-.5.3-.9.1-.4.1-.6.2-.8s.2-.4.4-.6c.2-.2.5-.4.9-.6-.1-.3 0-.6.3-.9h1.2c.1 0 .3 0 .5-.1s.4-.2.5-.4c-.2-.4-.4-.8-.8-1.1-.4-.3-.7-.6-1-.8-.3-.2-.7-.4-1.3-.7-.6-.3-.9-.5-1.1-.6 0 0 0-.1.1-.2 0-.1.1-.2.1-.3v-.5c0-.1-.1-.1-.1-.1.5.2 1 .4 1.5.4s.8 0 1-.1l.3-.1c.1-.5 0-.9-.2-1.2-.3-.3-.6-.5-1-.6-.4-.1-.8-.2-1.3-.4s-.8-.3-1.1-.5c-.4.1-.8.1-1.1.1zm-.4 2.7c0 .3.1.7.2 1.1.2.5.3.9.5 1.2.2.3.2.5.2.6-.1 0-.5-.1-1-.1-.5-.1-1-.2-1.4-.3-.4-.1-.7-.2-1-.4l.4-.8c.2-.4.4-.5.4-.7.2.2.3.3.5.3s.3-.1.4-.2l.4-.4c.2-.1.3-.2.4-.3z"/></svg>