<svg xmlns="http://www.w3.org/2000/svg" width="32" height="32" fill="currentColor" viewBox="0 0 32 32"><path d="M16 1c2 0 3.9.4 5.8 1.2 1.8.8 3.4 1.9 4.8 3.2s2.4 2.9 3.2 4.8S31 14 31 16s-.4 3.9-1.2 5.8c-.8 1.8-1.9 3.4-3.2 4.8-1.3 1.3-2.9 2.4-4.8 3.2S18 31 16 31s-3.9-.4-5.8-1.2-3.4-1.9-4.8-3.2-2.4-3-3.2-4.8C1.4 19.9 1 18 1 16s.4-3.9 1.2-5.8 1.9-3.4 3.2-4.8 3-2.4 4.8-3.2S14 1 16 1m.7 2c-.3.2-.6.4-1 .5s-.7.3-.9.3c-.2.1-.6.1-1.1.2s-.8.1-1 .2q-.45.15-1.2 0c-.75-.15-.9 0-1.2.1s-.8.3-1.3.6q-.9.6-.9.9c-.1.2 0 .4.2.6s.2.4.2.5c-.1.6-.3 1.4-.7 2.4S7.1 11 7 11.4c-.2.6-.1 1.4.1 2.4s.3 1.8.2 2.3c0 .2.1.5.4 1.2.3.6.4 1.1.4 1.5.2 0 .4 0 .6.1s.4.2.6.4.4.3.5.4c.3.1.6.3.9.4s.6.3 1.1.4q.6.15.9.3c.4.2.8.4 1.4.8.5.4 1.1.7 1.6 1q.75.45 1.5.3c.1.3.1.6-.1.9s-.4.7-.6 1c-.2.4-.3.7-.2 1q.3.6.6.9c.2.2.4.5.7.7s.6.4 1 .5c0 .1 0 .3-.1.4s-.1.3-.1.4 0 .2.1.4c1.8 0 3.7-.9 5.8-2.9l1.2-1.2c.3-.3.6-.7.9-1.3s.5-1.1.5-1.6c-.2-.1-.5-.2-1-.2s-.7-.1-.9-.2c-.3-.1-.7-.3-1.3-.4s-1-.3-1.3-.5h-2.2c-.3 0-.7.1-1.1.2s-.7.2-1 .4c-.9.6-1.5.7-1.7.3-.1 0-.1-.2-.1-.7v-.7c-.1-.2-.3-.4-.7-.5s-.6-.1-.6-.2v-.8c0-.3-.1-.5-.2-.7s-.3-.3-.5-.3-.5.2-.8.5c-.4.4-.8.4-1.1-.1s-.4-1-.2-1.5q.15-.45.6-.6h.7c.3 0 .6 0 .9.1s.4.2.5.4.3.4.5.6.4.4.6.5.4.3.5.4c.2.1.3.2.4.3l.1.1c0-.2.1-.5.2-.8s.2-.6.2-.9V16c-.1-.3 0-.6.1-.8s.3-.4.5-.6.3-.4.4-.6q.15-.3.3-.9c.1-.4.1-.6.2-.8s.2-.4.4-.6q.3-.3.9-.6-.15-.45.3-.9h1.2c.1 0 .3 0 .5-.1s.4-.2.5-.4c-.2-.4-.4-.8-.8-1.1s-.7-.6-1-.8-.7-.4-1.3-.7-.9-.5-1.1-.6c0 0 0-.1.1-.2 0-.1.1-.2.1-.3v-.5c0-.1-.1-.1-.1-.1.5.2 1 .4 1.5.4s.8 0 1-.1l.3-.1c.1-.5 0-.9-.2-1.2-.3-.3-.6-.5-1-.6s-.8-.2-1.3-.4-.8-.3-1.1-.5c-.4.1-.8.1-1.1.1m-.4 2.7c0 .3.1.7.2 1.1.2.5.3.9.5 1.2s.2.5.2.6c-.1 0-.5-.1-1-.1-.5-.1-1-.2-1.4-.3s-.7-.2-1-.4l.4-.8c.2-.4.4-.5.4-.7.2.2.3.3.5.3s.3-.1.4-.2l.4-.4c.2-.1.3-.2.4-.3"/></svg>