<?xml version="1.0" encoding="utf-8"?>
<!-- Generator: Adobe Illustrator 22.1.0, SVG Export Plug-In . SVG Version: 6.00 Build 0)  -->
<svg version="1.1" id="Ebene_1" xmlns="http://www.w3.org/2000/svg" xmlns:xlink="http://www.w3.org/1999/xlink" x="0px" y="0px"
	 width="32px" height="32px" viewBox="0 0 32 32" style="enable-background:new 0 0 32 32;" xml:space="preserve">
<path d="M16,1c2,0,3.9,0.4,5.8,1.2c1.8,0.8,3.4,1.9,4.8,3.2s2.4,2.9,3.2,4.8C30.6,12.1,31,14,31,16s-0.4,3.9-1.2,5.8
	c-0.8,1.8-1.9,3.4-3.2,4.8c-1.3,1.3-2.9,2.4-4.8,3.2C19.9,30.6,18,31,16,31s-3.9-0.4-5.8-1.2c-1.9-0.8-3.4-1.9-4.8-3.2
	S3,23.6,2.2,21.8C1.4,19.9,1,18,1,16c0-2,0.4-3.9,1.2-5.8s1.9-3.4,3.2-4.8S8.4,3,10.2,2.2S14,1,16,1z M16.7,3
	c-0.3,0.2-0.6,0.4-1,0.5c-0.4,0.1-0.7,0.3-0.9,0.3c-0.2,0.1-0.6,0.1-1.1,0.2s-0.8,0.1-1,0.2c-0.3,0.1-0.7,0.1-1.2,0
	c-0.5-0.1-0.9,0-1.2,0.1C10,4.4,9.5,4.6,9,4.9C8.4,5.3,8.1,5.6,8.1,5.8C8,6,8.1,6.2,8.3,6.4c0.2,0.2,0.2,0.4,0.2,0.5
	C8.4,7.5,8.2,8.3,7.8,9.3c-0.4,1-0.7,1.7-0.8,2.1c-0.2,0.6-0.1,1.4,0.1,2.4c0.2,1,0.3,1.8,0.2,2.3c0,0.2,0.1,0.5,0.4,1.2
	c0.3,0.6,0.4,1.1,0.4,1.5c0.2,0,0.4,0,0.6,0.1c0.2,0.1,0.4,0.2,0.6,0.4c0.2,0.2,0.4,0.3,0.5,0.4c0.3,0.1,0.6,0.3,0.9,0.4
	c0.3,0.1,0.6,0.3,1.1,0.4c0.4,0.1,0.7,0.2,0.9,0.3c0.4,0.2,0.8,0.4,1.4,0.8c0.5,0.4,1.1,0.7,1.6,1c0.5,0.3,1,0.4,1.5,0.3
	c0.1,0.3,0.1,0.6-0.1,0.9c-0.2,0.3-0.4,0.7-0.6,1c-0.2,0.4-0.3,0.7-0.2,1c0.2,0.4,0.4,0.7,0.6,0.9c0.2,0.2,0.4,0.5,0.7,0.7
	c0.3,0.2,0.6,0.4,1,0.5c0,0.1,0,0.3-0.1,0.4s-0.1,0.3-0.1,0.4c0,0.1,0,0.2,0.1,0.4c1.8,0,3.7-0.9,5.8-2.9c0.5-0.5,0.9-0.9,1.2-1.2
	c0.3-0.3,0.6-0.7,0.9-1.3s0.5-1.1,0.5-1.6c-0.2-0.1-0.5-0.2-1-0.2s-0.7-0.1-0.9-0.2c-0.3-0.1-0.7-0.3-1.3-0.4
	c-0.6-0.1-1-0.3-1.3-0.5c-0.3,0-0.7,0-1.1,0s-0.8,0-1.1,0c-0.3,0-0.7,0.1-1.1,0.2c-0.4,0.1-0.7,0.2-1,0.4c-0.9,0.6-1.5,0.7-1.7,0.3
	c-0.1,0-0.1-0.2-0.1-0.7c0-0.4,0-0.6,0-0.7c-0.1-0.2-0.3-0.4-0.7-0.5c-0.4-0.1-0.6-0.1-0.6-0.2c0-0.3,0-0.5,0-0.8
	c0-0.3-0.1-0.5-0.2-0.7c-0.1-0.2-0.3-0.3-0.5-0.3s-0.5,0.2-0.8,0.5c-0.4,0.4-0.8,0.4-1.1-0.1c-0.3-0.5-0.4-1-0.2-1.5
	c0.1-0.3,0.3-0.5,0.6-0.6c0.1,0,0.3,0,0.7,0c0.3,0,0.6,0,0.9,0.1s0.4,0.2,0.5,0.4c0.1,0.2,0.3,0.4,0.5,0.6c0.2,0.2,0.4,0.4,0.6,0.5
	c0.2,0.1,0.4,0.3,0.5,0.4c0.2,0.1,0.3,0.2,0.4,0.3l0.1,0.1c0-0.2,0.1-0.5,0.2-0.8c0.1-0.3,0.2-0.6,0.2-0.9c0-0.3,0-0.6,0-0.8
	c-0.1-0.3,0-0.6,0.1-0.8c0.1-0.2,0.3-0.4,0.5-0.6c0.2-0.2,0.3-0.4,0.4-0.6c0.1-0.2,0.2-0.5,0.3-0.9c0.1-0.4,0.1-0.6,0.2-0.8
	s0.2-0.4,0.4-0.6c0.2-0.2,0.5-0.4,0.9-0.6c-0.1-0.3,0-0.6,0.3-0.9c0.1,0,0.3,0,0.6,0c0.3,0,0.5,0,0.6,0c0.1,0,0.3,0,0.5-0.1
	c0.2-0.1,0.4-0.2,0.5-0.4c-0.2-0.4-0.4-0.8-0.8-1.1c-0.4-0.3-0.7-0.6-1-0.8c-0.3-0.2-0.7-0.4-1.3-0.7c-0.6-0.3-0.9-0.5-1.1-0.6
	c0,0,0-0.1,0.1-0.2c0-0.1,0.1-0.2,0.1-0.3s0-0.2,0-0.3c0-0.1,0-0.2,0-0.2c0-0.1-0.1-0.1-0.1-0.1c0.5,0.2,1,0.4,1.5,0.4
	c0.5,0,0.8,0,1-0.1l0.3-0.1c0.1-0.5,0-0.9-0.2-1.2c-0.3-0.3-0.6-0.5-1-0.6c-0.4-0.1-0.8-0.2-1.3-0.4c-0.5-0.2-0.8-0.3-1.1-0.5
	C17.4,3,17,3,16.7,3L16.7,3z M16.3,5.7c0,0.3,0.1,0.7,0.2,1.1C16.7,7.3,16.8,7.7,17,8c0.2,0.3,0.2,0.5,0.2,0.6c-0.1,0-0.5-0.1-1-0.1
	c-0.5-0.1-1-0.2-1.4-0.3c-0.4-0.1-0.7-0.2-1-0.4c0.1-0.2,0.2-0.4,0.4-0.8s0.4-0.5,0.4-0.7c0.2,0.2,0.3,0.3,0.5,0.3s0.3-0.1,0.4-0.2
	s0.2-0.2,0.4-0.4C16.1,5.9,16.2,5.8,16.3,5.7L16.3,5.7z"/>
</svg>
