<?xml version="1.0" encoding="utf-8"?>
<!-- Generator: Adobe Illustrator 22.1.0, SVG Export Plug-In . SVG Version: 6.00 Build 0)  -->
<svg version="1.1" id="Ebene_1" xmlns="http://www.w3.org/2000/svg" xmlns:xlink="http://www.w3.org/1999/xlink" x="0px" y="0px"
	 width="32px" height="32px" viewBox="0 0 32 32" style="enable-background:new 0 0 32 32;" xml:space="preserve">
<path d="M14.3,4.5l8.4,5.3c0,0,0.1,0,0.1,0.1c0.1,0,0.2,0.1,0.3,0.2c0.2,0.1,0.3,0.3,0.4,0.4c0.1,0.1,0.2,0.3,0.3,0.5
	c0.1,0.2,0.1,0.4,0.1,0.5v12.1c0,0.2-0.7,0.9-2,2.2c-1.3,1.2-2,1.9-2.1,1.9h-7.9c-0.2,0-0.4-0.2-0.7-0.5c-0.2-0.3-0.4-0.6-0.4-0.9
	l-3-7.8H5.5c-1.3,0-2.4-0.3-3.2-0.9S1,16.1,1,15s0.4-2,1.2-2.5c0.8-0.6,1.9-0.9,3.2-0.9h7l-2-2.8c-0.2-0.2-0.2-0.5-0.2-0.8
	c0-0.3,0.1-0.5,0.3-0.7L13,4.6C13.4,4.3,13.8,4.3,14.3,4.5L14.3,4.5z M11.8,8.2l3.4,4.2c0.3,0.3,0.3,0.7,0.1,1.1
	c0,0-0.1,0.1-0.1,0.1c0,0-0.1,0.1-0.1,0.1c0,0-0.1,0-0.1,0.1c0,0-0.1,0-0.1,0s-0.1,0-0.1,0c0,0-0.1,0-0.1,0H3.3v2.3h5.1
	c0.2,0,0.5,0.2,0.7,0.5c0.2,0.3,0.4,0.6,0.5,0.9l3,7.8h6.8l2.4-2.1V11.7l-7.9-5.4L11.8,8.2z M27.5,11.5h2.3c0.3,0,0.6,0.1,0.8,0.3
	c0.2,0.2,0.3,0.5,0.3,0.8v11.5c0,0.3-0.1,0.6-0.3,0.8s-0.5,0.3-0.8,0.3h-2.3c-0.3,0-0.6-0.1-0.8-0.3c-0.2-0.2-0.3-0.5-0.3-0.8V12.7
	c0-0.3,0.1-0.6,0.3-0.8C26.9,11.6,27.2,11.5,27.5,11.5z"/>
</svg>
