<svg fill="currentColor" xmlns="http://www.w3.org/2000/svg" width="32" height="32" viewBox="0 0 32 32"><path d="M9.7 10.2l7.9-5c.4-.2.8-.2 1.1.2l2.4 2.4c.2.2.3.4.3.7 0 .3-.1.5-.2.7l-1.8 2.6h6.5c1.2 0 2.2.3 3 .8S30 14 30 15s-.4 1.8-1.2 2.4-1.8.8-3 .8h-2.3l-2.8 7.3c-.1.3-.2.6-.4.9-.2.3-.4.4-.6.4h-7.4c-.1 0-.8-.6-1.9-1.8-1.2-1.2-1.8-1.8-1.8-2V11.8c0-.2.1-.5.3-.8.2-.3.4-.5.6-.6l.2-.2zm1 1.8v10.9l2.2 1.9h6.3l2.8-7.3c.1-.3.2-.6.4-.9s.4-.4.6-.4h4.4c.3 0 .5-.2.7-.5s.1-.7 0-1.1c-.1-.4-.4-.5-.7-.5H16.9c-.1 0-.1 0-.1-.1s0-.1-.1-.1-.1-.1-.1-.1c-.2-.4-.1-.7.1-1l3.2-4-1.9-2-7.3 5.2zm-7.6-.2h2.2c.3 0 .6.1.8.3.2.2.3.5.3.8v10.8c0 .3-.1.6-.3.8-.2.2-.5.3-.8.3H3.1c-.3 0-.6-.1-.8-.3S2 24 2 23.7V12.9c0-.3.1-.6.3-.8.2-.2.5-.3.8-.3z"/></svg>