<svg fill="currentColor" xmlns="http://www.w3.org/2000/svg" width="32" height="32" viewBox="0 0 32 32"><path d="M15 1c1.1 0 2 .4 2.6 1.3.6.9.9 1.9.9 3.2V8l7.9 3c.3.1.6.2 1 .5.3.2.5.4.5.7V20c0 .1-.6.8-1.9 2.1S24 24 23.8 24H11.5c-.3 0-.5-.1-.8-.3-.3-.2-.5-.4-.7-.6l-.2-.3-5.3-8.4c-.2-.5-.2-.9.1-1.2l2.6-2.5c.2-.2.4-.3.7-.3.3 0 .6.1.8.3l2.8 1.9v-7c0-1.3.3-2.4.9-3.2C13 1.4 13.8 1 15 1zm1.1 7.5V3.8c0-.3-.2-.6-.6-.7-.4-.1-.8-.2-1.2 0-.4.1-.6.4-.6.7v11.3c0 .1 0 .1-.1.1 0 0-.1 0-.1.1s-.1.1-.1.1c-.4.2-.7.1-1.1-.1l-4.2-3.4-1.9 2 5.5 7.9h11.7l2.1-2.3v-6.8l-7.9-3c-.3-.1-.6-.2-1-.5-.3-.3-.5-.5-.5-.7zm-3.5 17.9h11.6c.3 0 .6.1.8.3.2.2.3.5.3.8v2.3c0 .3-.1.6-.3.8-.2.2-.5.3-.8.3H12.6c-.3 0-.6-.1-.8-.3s-.3-.5-.3-.8v-2.3c0-.3.1-.6.3-.8s.5-.3.8-.3z"/></svg>