<?xml version="1.0" encoding="utf-8"?>
<!-- Generator: Adobe Illustrator 22.1.0, SVG Export Plug-In . SVG Version: 6.00 Build 0)  -->
<svg version="1.1" id="Ebene_1" xmlns="http://www.w3.org/2000/svg" xmlns:xlink="http://www.w3.org/1999/xlink" x="0px" y="0px"
	 width="32px" height="32px" viewBox="0 0 32 32" style="enable-background:new 0 0 32 32;" xml:space="preserve">
<path d="M15,1c1.1,0,2,0.4,2.6,1.3c0.6,0.9,0.9,1.9,0.9,3.2V8l7.9,3c0.3,0.1,0.6,0.2,1,0.5c0.3,0.2,0.5,0.4,0.5,0.7V20
	c0,0.1-0.6,0.8-1.9,2.1s-2,1.9-2.2,1.9H11.5c-0.3,0-0.5-0.1-0.8-0.3c-0.3-0.2-0.5-0.4-0.7-0.6l-0.2-0.3l-5.3-8.4
	c-0.2-0.5-0.2-0.9,0.1-1.2l2.6-2.5c0.2-0.2,0.4-0.3,0.7-0.3c0.3,0,0.6,0.1,0.8,0.3l2.8,1.9v-7c0-1.3,0.3-2.4,0.9-3.2
	C13,1.4,13.8,1,15,1L15,1z M16.1,8.5V3.8c0-0.3-0.2-0.6-0.6-0.7c-0.4-0.1-0.8-0.2-1.2,0c-0.4,0.1-0.6,0.4-0.6,0.7v11c0,0,0,0,0,0.1
	c0,0.1,0,0.1,0,0.1c0,0,0,0,0,0.1c0,0.1,0,0.1-0.1,0.1c0,0-0.1,0-0.1,0.1c0,0.1-0.1,0.1-0.1,0.1c-0.4,0.2-0.7,0.1-1.1-0.1l-4.2-3.4
	l-1.9,2l5.5,7.9h11.7l2.1-2.3v-6.8l-7.9-3c-0.3-0.1-0.6-0.2-1-0.5C16.3,8.9,16.1,8.7,16.1,8.5L16.1,8.5z M12.6,26.4h11.6
	c0.3,0,0.6,0.1,0.8,0.3c0.2,0.2,0.3,0.5,0.3,0.8v2.3c0,0.3-0.1,0.6-0.3,0.8c-0.2,0.2-0.5,0.3-0.8,0.3H12.6c-0.3,0-0.6-0.1-0.8-0.3
	s-0.3-0.5-0.3-0.8v-2.3c0-0.3,0.1-0.6,0.3-0.8S12.3,26.4,12.6,26.4z"/>
</svg>
