<svg fill="currentColor" xmlns="http://www.w3.org/2000/svg" width="32" height="32" viewBox="0 0 32 32"><path d="M14.3 4.5l8.4 5.3s.1 0 .1.1c.1 0 .2.1.3.2.2.1.3.3.4.4.1.1.2.3.3.5.1.2.1.4.1.5v12.1c0 .2-.7.9-2 2.2-1.3 1.2-2 1.9-2.1 1.9h-7.9c-.2 0-.4-.2-.7-.5-.2-.3-.4-.6-.4-.9l-3-7.8H5.5c-1.3 0-2.4-.3-3.2-.9S1 16.1 1 15s.4-2 1.2-2.5c.8-.6 1.9-.9 3.2-.9h7l-2-2.8c-.2-.2-.2-.5-.2-.8 0-.3.1-.5.3-.7L13 4.6c.4-.3.8-.3 1.3-.1zm-2.5 3.7l3.4 4.2c.3.3.3.7.1 1.1l-.1.1-.1.1s-.1 0-.1.1H3.3v2.3h5.1c.2 0 .5.2.7.5.2.3.4.6.5.9l3 7.8h6.8l2.4-2.1V11.7l-7.9-5.4-2.1 1.9zm15.7 3.3h2.3c.3 0 .6.1.8.3.2.2.3.5.3.8v11.5c0 .3-.1.6-.3.8s-.5.3-.8.3h-2.3c-.3 0-.6-.1-.8-.3-.2-.2-.3-.5-.3-.8V12.7c0-.3.1-.6.3-.8.2-.3.5-.4.8-.4z"/></svg>