<?xml version="1.0" encoding="utf-8"?>
<!-- Generator: Adobe Illustrator 22.1.0, SVG Export Plug-In . SVG Version: 6.00 Build 0)  -->
<svg version="1.1" id="Ebene_1" xmlns="http://www.w3.org/2000/svg" xmlns:xlink="http://www.w3.org/1999/xlink" x="0px" y="0px"
	 width="32px" height="32px" viewBox="0 0 32 32" style="enable-background:new 0 0 32 32;" xml:space="preserve">
<path d="M9.7,10.2l7.9-5C18,5,18.4,5,18.7,5.4l2.4,2.4c0.2,0.2,0.3,0.4,0.3,0.7c0,0.3-0.1,0.5-0.2,0.7l-1.8,2.6h6.5
	c1.2,0,2.2,0.3,3,0.8S30,14,30,15c0,1-0.4,1.8-1.2,2.4s-1.8,0.8-3,0.8h-2.3l-2.8,7.3c-0.1,0.3-0.2,0.6-0.4,0.9
	c-0.2,0.3-0.4,0.4-0.6,0.4h-7.4c-0.1,0-0.8-0.6-1.9-1.8c-1.2-1.2-1.8-1.8-1.8-2V11.8c0-0.2,0.1-0.5,0.3-0.8c0.2-0.3,0.4-0.5,0.6-0.6
	L9.7,10.2z M10.7,12v10.9l2.2,1.9h6.3l2.8-7.3c0.1-0.3,0.2-0.6,0.4-0.9s0.4-0.4,0.6-0.4h4.4c0.3,0,0.5-0.2,0.7-0.5s0.1-0.7,0-1.1
	c-0.1-0.4-0.4-0.5-0.7-0.5H17.2c0,0,0,0-0.1,0c-0.1,0-0.1,0-0.1,0c0,0,0,0-0.1,0c-0.1,0-0.1,0-0.1-0.1s0-0.1-0.1-0.1
	s-0.1-0.1-0.1-0.1c-0.2-0.4-0.1-0.7,0.1-1l3.2-4L18,6.8L10.7,12z M3.1,11.8h2.2c0.3,0,0.6,0.1,0.8,0.3c0.2,0.2,0.3,0.5,0.3,0.8v10.8
	c0,0.3-0.1,0.6-0.3,0.8c-0.2,0.2-0.5,0.3-0.8,0.3H3.1c-0.3,0-0.6-0.1-0.8-0.3S2,24,2,23.7V12.9c0-0.3,0.1-0.6,0.3-0.8
	C2.5,11.9,2.8,11.8,3.1,11.8z"/>
</svg>
