<?xml version="1.0" encoding="utf-8"?>
<!-- Generator: Adobe Illustrator 22.1.0, SVG Export Plug-In . SVG Version: 6.00 Build 0)  -->
<svg version="1.1" id="Ebene_1" xmlns="http://www.w3.org/2000/svg" xmlns:xlink="http://www.w3.org/1999/xlink" x="0px" y="0px"
	 width="32px" height="32px" viewBox="0 0 32 32" style="enable-background:new 0 0 32 32;" xml:space="preserve">
<path d="M12.6,5.6h11.6c0.3,0,0.6-0.1,0.8-0.3c0.2-0.2,0.3-0.5,0.3-0.8V2.2c0-0.3-0.1-0.6-0.3-0.8S24.6,1,24.2,1H12.6
	c-0.3,0-0.6,0.1-0.8,0.3s-0.3,0.5-0.3,0.8v2.3c0,0.3,0.1,0.6,0.3,0.8S12.3,5.6,12.6,5.6z M18.4,24v2.5c0,1.3-0.3,2.4-0.9,3.2
	C16.9,30.6,16.1,31,15,31s-2-0.4-2.5-1.3c-0.6-0.8-0.9-1.9-0.9-3.2v-7l-2.8,1.9c-0.2,0.2-0.5,0.3-0.8,0.3c-0.3,0-0.5-0.1-0.7-0.3
	l-2.6-2.5c-0.3-0.3-0.4-0.7-0.1-1.2l5.3-8.4c0,0,0-0.1,0.1-0.1S10,9,10.1,8.8s0.3-0.3,0.4-0.4c0.1-0.1,0.3-0.2,0.5-0.3
	C11.1,8,11.3,8,11.5,8h12.2c0.2,0,0.9,0.6,2.2,1.9c1.3,1.3,1.9,2,1.9,2.1v7.9c0,0.2-0.2,0.5-0.5,0.7c-0.3,0.2-0.6,0.4-1,0.5L18.4,24
	z M11.7,10.3l-5.5,7.9l1.9,2l4.2-3.4c0.3-0.3,0.7-0.3,1.1-0.1c0,0,0.1,0,0.1,0.1c0,0,0.1,0.1,0.1,0.1c0,0,0,0.1,0.1,0.1
	c0,0,0,0.1,0,0.1s0,0.1,0,0.1c0,0,0,0.1,0,0.1v11c0,0.3,0.2,0.6,0.6,0.7c0.4,0.1,0.8,0.1,1.2,0c0.4-0.1,0.6-0.4,0.6-0.7v-4.7
	c0-0.2,0.2-0.5,0.5-0.7s0.6-0.4,1-0.5l7.9-3v-6.8l-2.1-2.3L11.7,10.3L11.7,10.3z"/>
</svg>
