<svg fill="currentColor" xmlns="http://www.w3.org/2000/svg" width="32" height="32" viewBox="0 0 32 32"><path d="M12.6 5.6h11.6c.3 0 .6-.1.8-.3.2-.2.3-.5.3-.8V2.2c0-.3-.1-.6-.3-.8s-.4-.4-.8-.4H12.6c-.3 0-.6.1-.8.3s-.3.5-.3.8v2.3c0 .3.1.6.3.8s.5.4.8.4zM18.4 24v2.5c0 1.3-.3 2.4-.9 3.2-.6.9-1.4 1.3-2.5 1.3s-2-.4-2.5-1.3c-.6-.8-.9-1.9-.9-3.2v-7l-2.8 1.9c-.2.2-.5.3-.8.3-.3 0-.5-.1-.7-.3l-2.6-2.5c-.3-.3-.4-.7-.1-1.2l5.3-8.4s0-.1.1-.1 0-.2.1-.4.3-.3.4-.4c.1-.1.3-.2.5-.3.1-.1.3-.1.5-.1h12.2c.2 0 .9.6 2.2 1.9 1.3 1.3 1.9 2 1.9 2.1v7.9c0 .2-.2.5-.5.7-.3.2-.6.4-1 .5L18.4 24zm-6.7-13.7l-5.5 7.9 1.9 2 4.2-3.4c.3-.3.7-.3 1.1-.1 0 0 .1 0 .1.1l.1.1s0 .1.1.1v11.3c0 .3.2.6.6.7.4.1.8.1 1.2 0 .4-.1.6-.4.6-.7v-4.7c0-.2.2-.5.5-.7s.6-.4 1-.5l7.9-3v-6.8l-2.1-2.3H11.7z"/></svg>