<?xml version="1.0" encoding="utf-8"?>
<!-- Generator: Adobe Illustrator 22.1.0, SVG Export Plug-In . SVG Version: 6.00 Build 0)  -->
<svg version="1.1" id="Ebene_1" xmlns="http://www.w3.org/2000/svg" xmlns:xlink="http://www.w3.org/1999/xlink" x="0px" y="0px"
	 width="32px" height="32px" viewBox="0 0 32 32" style="enable-background:new 0 0 32 32;" xml:space="preserve">
<path d="M7.9,3.3h16.2c1.9,0,3.5,0.7,4.9,2s2,3,2,4.9v11.5c0,1.9-0.7,3.5-2,4.9c-1.4,1.4-3,2-4.9,2H7.9c-1.9,0-3.5-0.7-4.9-2
	c-1.4-1.4-2-3-2-4.9V10.2c0-1.9,0.7-3.5,2-4.9S6,3.3,7.9,3.3z M5.6,7.9v16.2h20.8V7.9C26.4,7.9,5.6,7.9,5.6,7.9z M14.8,21.8h-2.3
	v-4.6h-2.3v4.6H7.9V10.2h2.3v4.6h2.3v-4.6h2.3V21.8z M24.1,12.5v6.9l-2.3,2.3h-4.6V10.2h4.6L24.1,12.5z M19.5,12.5v6.9h2.3v-6.9
	C21.8,12.5,19.5,12.5,19.5,12.5z"/>
</svg>
