<?xml version="1.0" encoding="utf-8"?>
<!-- Generator: Adobe Illustrator 22.1.0, SVG Export Plug-In . SVG Version: 6.00 Build 0)  -->
<svg version="1.1" id="Ebene_1" xmlns="http://www.w3.org/2000/svg" xmlns:xlink="http://www.w3.org/1999/xlink" x="0px" y="0px"
	 width="32px" height="32px" viewBox="0 0 32 32" style="enable-background:new 0 0 32 32;" xml:space="preserve">
<path d="M30.2,21L25.9,2.7c-0.1-0.4-0.3-0.8-0.6-1.1C25,1.2,24.7,1,24.4,1H7.6C7.3,1,7,1.2,6.7,1.5s-0.5,0.7-0.6,1L1.8,21H30.2
	L30.2,21z M28.5,23.5h-25c-0.7,0-1.3,0.2-1.8,0.7C1.2,24.7,1,25.3,1,26v2.5c0,0.7,0.2,1.3,0.7,1.8C2.2,30.8,2.8,31,3.5,31h25
	c0.7,0,1.3-0.2,1.8-0.7c0.5-0.5,0.7-1.1,0.7-1.8V26c0-0.7-0.2-1.3-0.7-1.8C29.8,23.7,29.2,23.5,28.5,23.5z M21,28.5V26h2.5v2.5H21z
	 M26,28.5V26h2.5v2.5H26z"/>
</svg>
