<?xml version="1.0" encoding="utf-8"?>
<!-- Generator: Adobe Illustrator 22.1.0, SVG Export Plug-In . SVG Version: 6.00 Build 0)  -->
<svg version="1.1" id="Ebene_1" xmlns="http://www.w3.org/2000/svg" xmlns:xlink="http://www.w3.org/1999/xlink" x="0px" y="0px"
	 width="32px" height="32px" viewBox="0 0 32 32" style="enable-background:new 0 0 32 32;" xml:space="preserve">
<path d="M16,1.3c1.9,0,3.8,0.4,5.7,1.2c1.8,0.8,3.5,1.9,4.8,3.3c1.4,1.4,2.4,3,3.3,4.8c0.8,1.9,1.2,3.7,1.2,5.7v7.5
	c0,0.2-0.1,0.3-0.2,0.4c-0.1,0.1-0.3,0.2-0.4,0.2h-1.2c-0.2,0-0.3-0.1-0.4-0.2s-0.2-0.3-0.2-0.4v-7.5c0-2.1-0.6-4-1.8-5.8
	c-1.2-1.7-2.7-3.1-4.6-4S18.2,5.1,16,5.1s-4.2,0.5-6.1,1.4s-3.4,2.3-4.6,4c-1.2,1.7-1.8,3.7-1.8,5.8v7.5c0,0.2-0.1,0.3-0.2,0.4
	c-0.1,0.1-0.3,0.2-0.4,0.2H1.6c-0.2,0-0.3-0.1-0.4-0.2S1,24,1,23.8v-7.5c0-1.9,0.4-3.8,1.2-5.7s1.9-3.5,3.3-4.8s3-2.4,4.8-3.3
	S14.1,1.3,16,1.3L16,1.3z M6.5,18.2h4c0.1,0,0.2,0,0.3,0.1c0.1,0.1,0.2,0.2,0.2,0.3v11.5c0,0.1-0.1,0.2-0.2,0.3
	c-0.1,0.1-0.2,0.1-0.3,0.1h-4c-0.1,0-0.2-0.1-0.3-0.1C6.1,30.4,6,30.3,6,30.2V18.7c0-0.1,0.1-0.2,0.1-0.3
	C6.3,18.2,6.4,18.2,6.5,18.2z M21.5,18.2h4c0.1,0,0.2,0,0.3,0.1c0.1,0.1,0.1,0.2,0.1,0.3v11.5c0,0.1,0,0.2-0.1,0.3
	c-0.1,0.1-0.2,0.1-0.3,0.1h-4c-0.1,0-0.2-0.1-0.3-0.1c-0.1-0.1-0.1-0.2-0.1-0.3V18.7c0-0.1,0-0.2,0.1-0.3
	C21.3,18.2,21.4,18.2,21.5,18.2z"/>
</svg>
