<?xml version="1.0" encoding="utf-8"?>
<!-- Generator: Adobe Illustrator 22.1.0, SVG Export Plug-In . SVG Version: 6.00 Build 0)  -->
<svg version="1.1" id="Ebene_1" xmlns="http://www.w3.org/2000/svg" xmlns:xlink="http://www.w3.org/1999/xlink" x="0px" y="0px"
	 width="32px" height="32px" viewBox="0 0 32 32" style="enable-background:new 0 0 32 32;" xml:space="preserve">
<path d="M30.7,1.3v1.5c-0.1,0-0.2,0-0.3,0s-0.3,0-0.6,0.1S29.2,3,28.9,3.1c-0.2,0.1-0.4,0.2-0.6,0.4S28,3.9,28,4.2v23.7
	c0,0.4,0.2,0.7,0.7,0.9c0.4,0.2,0.9,0.3,1.3,0.4l0.7,0.1v1.5H20v-1.5c1.3,0,2.1-0.1,2.3-0.2c0.2-0.1,0.3-0.5,0.3-1.2V17.3H9.3v10.5
	c0,0.7,0.1,1,0.3,1.2s1,0.2,2.3,0.2v1.5H1.3v-1.5c0.1,0,0.2,0,0.3,0c0.1,0,0.3,0,0.6-0.1s0.6-0.1,0.8-0.2c0.2-0.1,0.4-0.2,0.6-0.4
	C3.9,28.3,4,28.1,4,27.8V4.2c0-0.4-0.2-0.7-0.7-0.9S2.4,2.9,2,2.9L1.3,2.8V1.3H12v1.5c-1.3,0-2.1,0.1-2.3,0.2
	C9.4,3.1,9.3,3.5,9.3,4.2v10.5h13.3V4.2c0-0.7-0.1-1-0.3-1.2c-0.2-0.1-1-0.2-2.3-0.2V1.3C20,1.3,30.7,1.3,30.7,1.3z"/>
</svg>
