<svg fill="currentColor" xmlns="http://www.w3.org/2000/svg" width="32" height="32" viewBox="0 0 32 32"><path d="M30.7 1.3v1.5h-.3c-.1 0-.3 0-.6.1s-.6.1-.9.2c-.2.1-.4.2-.6.4s-.3.4-.3.7v23.7c0 .4.2.7.7.9.4.2.9.3 1.3.4l.7.1v1.5H20v-1.5c1.3 0 2.1-.1 2.3-.2.2-.1.3-.5.3-1.2V17.3H9.3v10.5c0 .7.1 1 .3 1.2s1 .2 2.3.2v1.5H1.3v-1.5h.3c.1 0 .3 0 .6-.1s.6-.1.8-.2c.2-.1.4-.2.6-.4.3-.2.4-.4.4-.7V4.2c0-.4-.2-.7-.7-.9s-.9-.4-1.3-.4l-.7-.1V1.3H12v1.5c-1.3 0-2.1.1-2.3.2-.3.1-.4.5-.4 1.2v10.5h13.3V4.2c0-.7-.1-1-.3-1.2-.2-.1-1-.2-2.3-.2V1.3h10.7z"/></svg>