<svg fill="currentColor" xmlns="http://www.w3.org/2000/svg" width="32" height="32" viewBox="0 0 32 32"><path d="M16 1.3c1.9 0 3.8.4 5.7 1.2 1.8.8 3.5 1.9 4.8 3.3 1.4 1.4 2.4 3 3.3 4.8.8 1.9 1.2 3.7 1.2 5.7v7.5c0 .2-.1.3-.2.4-.1.1-.3.2-.4.2h-1.2c-.2 0-.3-.1-.4-.2s-.2-.3-.2-.4v-7.5c0-2.1-.6-4-1.8-5.8-1.2-1.7-2.7-3.1-4.6-4s-4-1.4-6.2-1.4-4.2.5-6.1 1.4-3.4 2.3-4.6 4c-1.2 1.7-1.8 3.7-1.8 5.8v7.5c0 .2-.1.3-.2.4-.1.1-.3.2-.4.2H1.6c-.2 0-.3-.1-.4-.2S1 24 1 23.8v-7.5c0-1.9.4-3.8 1.2-5.7s1.9-3.5 3.3-4.8 3-2.4 4.8-3.3 3.8-1.2 5.7-1.2zM6.5 18.2h4c.1 0 .2 0 .3.1.1.1.2.2.2.3v11.5c0 .1-.1.2-.2.3-.1.1-.2.1-.3.1h-4c-.1 0-.2-.1-.3-.1-.1 0-.2-.1-.2-.2V18.7c0-.1.1-.2.1-.3.2-.2.3-.2.4-.2zm15 0h4c.1 0 .2 0 .3.1.1.1.1.2.1.3v11.5c0 .1 0 .2-.1.3-.1.1-.2.1-.3.1h-4c-.1 0-.2-.1-.3-.1-.1-.1-.1-.2-.1-.3V18.7c0-.1 0-.2.1-.3.1-.2.2-.2.3-.2z"/></svg>