<?xml version="1.0" encoding="utf-8"?>
<!-- Generator: Adobe Illustrator 22.1.0, SVG Export Plug-In . SVG Version: 6.00 Build 0)  -->
<svg version="1.1" id="Ebene_1" xmlns="http://www.w3.org/2000/svg" xmlns:xlink="http://www.w3.org/1999/xlink" x="0px" y="0px"
	 width="32px" height="32px" viewBox="0 0 32 32" style="enable-background:new 0 0 32 32;" xml:space="preserve">
<path d="M16,6.4c0.9-1.2,1.8-2.1,2.9-2.8c1.1-0.6,2.2-1,3.2-1s2.1,0.1,3.2,0.5s2,1,2.7,1.7c0.8,0.7,1.4,1.6,1.9,2.7s0.7,2.1,0.7,3.3
	c0,1-0.3,2.1-0.9,3.1s-1.4,2.2-2.5,3.3s-2.2,2.3-3.4,3.4c-1.2,1.1-2.5,2.5-4,4.1c-1.5,1.6-2.8,3.1-3.9,4.6c-1.1-1.5-2.4-3.1-3.9-4.6
	s-2.8-2.9-4-4.1c-1.2-1.1-2.3-2.3-3.4-3.4S2.8,15,2.2,14s-0.9-2.1-0.9-3.1c0-1.1,0.2-2.2,0.7-3.3S3.2,5.6,4,4.9s1.7-1.3,2.8-1.7
	S8.9,2.6,10,2.6c1.1,0,2.1,0.4,3.2,1S15.2,5.2,16,6.4L16,6.4z M22.6,5.8c-0.6,0-1.2,0.2-1.7,0.5c-0.6,0.3-1.1,0.7-1.5,1.2
	s-0.9,1-1.3,1.4c-0.4,0.5-0.8,0.9-1.2,1.2c-0.4,0.3-0.7,0.5-1,0.5c-0.3,0-0.6-0.2-1-0.5c-0.3-0.3-0.7-0.7-1.1-1.2
	c-0.4-0.5-0.7-0.9-1.1-1.4c-0.4-0.5-0.9-0.9-1.4-1.2s-1.1-0.5-1.7-0.5c-1.2,0-2.3,0.5-3.3,1.5s-1.5,2.2-1.5,3.5
	c0,0.4,0.1,0.9,0.4,1.4c0.2,0.5,0.6,1.1,1.2,1.7c0.6,0.7,1.1,1.2,1.5,1.7c0.4,0.5,1.1,1.1,2,2l0.6,0.6c0.3,0.2,0.7,0.6,1.2,1.2
	c0.5,0.5,1,1,1.3,1.4c0.4,0.4,0.8,0.8,1.2,1.2c0.4,0.4,0.8,0.7,1.1,0.9c0.3,0.2,0.5,0.3,0.6,0.3c0.1,0,0.3-0.1,0.6-0.3
	s0.7-0.5,1.1-1s0.9-0.8,1.2-1.2s0.8-0.8,1.4-1.4c0.6-0.6,1-1,1.2-1.1c0.1-0.1,0.2-0.2,0.3-0.3c0.8-0.7,1.3-1.3,1.7-1.7
	c0.4-0.4,0.8-0.9,1.4-1.5c0.6-0.6,1-1.1,1.2-1.5c0.3-0.4,0.5-0.8,0.7-1.2c0.2-0.4,0.3-0.8,0.3-1.2c0-1.4-0.5-2.6-1.4-3.6
	S23.8,5.8,22.6,5.8L22.6,5.8z"/>
</svg>
