<?xml version="1.0" encoding="utf-8"?>
<!-- Generator: Adobe Illustrator 22.1.0, SVG Export Plug-In . SVG Version: 6.00 Build 0)  -->
<svg version="1.1" id="Ebene_1" xmlns="http://www.w3.org/2000/svg" xmlns:xlink="http://www.w3.org/1999/xlink" x="0px" y="0px"
	 width="32px" height="32px" viewBox="0 0 32 32" style="enable-background:new 0 0 32 32;" xml:space="preserve">
<path d="M16,6.4c0.9-1.2,1.8-2.1,2.9-2.8c1.1-0.6,2.2-1,3.2-1s2.1,0.1,3.2,0.5s2,1,2.7,1.7c0.8,0.7,1.4,1.6,1.9,2.7s0.7,2.1,0.7,3.3
	c0,1-0.3,2.1-0.9,3.1s-1.4,2.2-2.5,3.3s-2.2,2.3-3.4,3.4c-1.2,1.1-2.5,2.5-4,4.1c-1.5,1.6-2.8,3.1-3.9,4.6c-1.1-1.5-2.4-3.1-3.9-4.6
	s-2.8-2.9-4-4.1c-1.2-1.1-2.3-2.3-3.4-3.4S2.8,15,2.2,14s-0.9-2.1-0.9-3.1c0-1.1,0.2-2.2,0.7-3.3S3.2,5.6,4,4.9s1.7-1.3,2.8-1.7
	S8.9,2.6,10,2.6c1.1,0,2.1,0.4,3.2,1S15.2,5.2,16,6.4L16,6.4z"/>
</svg>
