<svg fill="currentColor" xmlns="http://www.w3.org/2000/svg" width="32" height="32" viewBox="0 0 32 32"><path d="M16 6.4c.9-1.2 1.8-2.1 2.9-2.8 1.1-.6 2.2-1 3.2-1s2.1.1 3.2.5 2 1 2.7 1.7c.8.7 1.4 1.6 1.9 2.7s.7 2.1.7 3.3c0 1-.3 2.1-.9 3.1s-1.4 2.2-2.5 3.3-2.2 2.3-3.4 3.4c-1.2 1.1-2.5 2.5-4 4.1-1.5 1.6-2.8 3.1-3.9 4.6-1.1-1.5-2.4-3.1-3.9-4.6s-2.8-2.9-4-4.1c-1.2-1.1-2.3-2.3-3.4-3.4S2.8 15 2.2 14s-.9-2.1-.9-3.1c0-1.1.2-2.2.7-3.3s1.2-2 2-2.7 1.7-1.3 2.8-1.7 2.1-.6 3.2-.6 2.1.4 3.2 1 2 1.6 2.8 2.8zm6.6-.6c-.6 0-1.2.2-1.7.5-.6.3-1.1.7-1.5 1.2s-.9 1-1.3 1.4c-.4.5-.8.9-1.2 1.2-.4.3-.7.5-1 .5-.3 0-.6-.2-1-.5-.3-.3-.7-.7-1.1-1.2-.4-.5-.7-.9-1.1-1.4-.4-.5-.9-.9-1.4-1.2s-1.1-.5-1.7-.5c-1.2 0-2.3.5-3.3 1.5s-1.5 2.2-1.5 3.5c0 .4.1.9.4 1.4.2.5.6 1.1 1.2 1.7.6.7 1.1 1.2 1.5 1.7.4.5 1.1 1.1 2 2l.6.6c.3.2.7.6 1.2 1.2.5.5 1 1 1.3 1.4l1.2 1.2c.4.4.8.7 1.1.9.3.2.5.3.6.3.1 0 .3-.1.6-.3s.7-.5 1.1-1 .9-.8 1.2-1.2.8-.8 1.4-1.4c.6-.6 1-1 1.2-1.1l.3-.3c.8-.7 1.3-1.3 1.7-1.7.4-.4.8-.9 1.4-1.5.6-.6 1-1.1 1.2-1.5.3-.4.5-.8.7-1.2.2-.4.3-.8.3-1.2 0-1.4-.5-2.6-1.4-3.6s-1.8-1.4-3-1.4z"/></svg>