<?xml version="1.0" encoding="utf-8"?>
<!-- Generator: Adobe Illustrator 22.1.0, SVG Export Plug-In . SVG Version: 6.00 Build 0)  -->
<svg version="1.1" id="Ebene_1" xmlns="http://www.w3.org/2000/svg" xmlns:xlink="http://www.w3.org/1999/xlink" x="0px" y="0px"
	 width="32px" height="32px" viewBox="0 0 32 32" style="enable-background:new 0 0 32 32;" xml:space="preserve">
<path d="M1.1,16L15.7,1.7c0.1-0.1,0.3-0.2,0.4-0.2c0.2,0,0.3,0.1,0.4,0.2L30.9,16c0.1,0.1,0.2,0.2,0.1,0.3c0,0.1-0.1,0.1-0.3,0.1
	h-4.1v13.5c0,0.2-0.1,0.3-0.2,0.4c-0.1,0.1-0.3,0.2-0.4,0.2h-5.9c-0.2,0-0.3-0.1-0.4-0.2s-0.2-0.3-0.2-0.4v-8.8h-7.1v8.8
	c0,0.2-0.1,0.3-0.2,0.4s-0.3,0.2-0.4,0.2H6c-0.2,0-0.3-0.1-0.4-0.2c-0.1-0.1-0.2-0.3-0.2-0.4V16.4H1.3c-0.2,0-0.3,0-0.3-0.1
	C1,16.2,1,16.1,1.1,16L1.1,16z"/>
</svg>
