<?xml version="1.0" encoding="utf-8"?>
<!-- Generator: Adobe Illustrator 22.1.0, SVG Export Plug-In . SVG Version: 6.00 Build 0)  -->
<svg version="1.1" id="Ebene_1" xmlns="http://www.w3.org/2000/svg" xmlns:xlink="http://www.w3.org/1999/xlink" x="0px" y="0px"
	 width="32px" height="32px" viewBox="0 0 32 32" style="enable-background:new 0 0 32 32;" xml:space="preserve">
<path d="M5.4,5l3.6-3.6C9.3,1.1,9.6,1,9.9,1c0.4,0,0.7,0.1,0.9,0.4l2,2L7.4,8.7l-2-1.9C5.2,6.5,5.1,6.2,5.1,5.9
	C5.1,5.5,5.2,5.2,5.4,5L5.4,5z M18.7,9.2L24,3.9c0.2-0.2,0.4-0.3,0.6-0.3s0.3,0.3,0.3,0.6l-0.1,15.2c0,0.3-0.1,0.6-0.4,0.9
	c-0.2,0.3-0.5,0.4-0.9,0.4l-15.2,0c-0.4,0-0.6-0.1-0.6-0.3s0-0.4,0.3-0.6l5.3-5.3l-3.9-3.9l5.4-5.4L18.7,9.2z M3.3,23.4h25.4
	c0.4,0,0.7,0.1,0.9,0.4c0.2,0.2,0.4,0.5,0.4,0.9V31H2v-6.4c0-0.4,0.1-0.7,0.4-0.9C2.6,23.5,2.9,23.4,3.3,23.4L3.3,23.4z M24.9,25.9
	v1.3h2.5v-1.3H24.9z"/>
</svg>
