<svg fill="currentColor" xmlns="http://www.w3.org/2000/svg" width="32" height="32" viewBox="0 0 32 32"><path d="M6.6 1h18.8c.2 0 .3.1.5.2s.3.3.3.4l4.6 16.3c.1.4.2.8.2 1.2v10.6c0 .2 0 .4-.1.7s-.1.4-.2.4c-.2.2-.5.2-1 .2H2.2c-.2 0-.4 0-.7-.1-.3-.1-.4-.1-.4-.2-.1-.2-.1-.5-.1-.9V19.2c0-.4.1-.8.2-1.2L5.8 1.6c.1-.2.2-.3.3-.4.2-.1.4-.2.5-.2zm16.3 5H9c-.1 0-.3.1-.4.2s-.3.2-.3.4L6.1 17.9c0 .2 0 .3.1.5s.2.2.4.2h3.7c.2 0 .3.1.5.2s.3.3.3.4L12 23c0 .2.1.3.3.4.2.1.3.2.5.2h6.3c.2 0 .3-.1.5-.2s.3-.3.3-.4l.9-3.8c0-.2.1-.3.3-.4.2-.1.3-.2.5-.2h3.8c.2 0 .3-.1.4-.2s.1-.3.1-.4L23.7 6.6c0-.2-.1-.3-.3-.4-.1-.1-.3-.2-.5-.2z"/></svg>