<?xml version="1.0" encoding="utf-8"?>
<!-- Generator: Adobe Illustrator 22.1.0, SVG Export Plug-In . SVG Version: 6.00 Build 0)  -->
<svg version="1.1" id="Ebene_1" xmlns="http://www.w3.org/2000/svg" xmlns:xlink="http://www.w3.org/1999/xlink" x="0px" y="0px"
	 width="32px" height="32px" viewBox="0 0 32 32" style="enable-background:new 0 0 32 32;" xml:space="preserve">
<path d="M6.6,1h18.8c0.2,0,0.3,0.1,0.5,0.2c0.2,0.1,0.3,0.3,0.3,0.4l4.6,16.3c0.1,0.4,0.2,0.8,0.2,1.2v10.6c0,0.2,0,0.4-0.1,0.7
	s-0.1,0.4-0.2,0.4C30.5,31,30.2,31,29.7,31H2.2c-0.2,0-0.4,0-0.7-0.1c-0.3-0.1-0.4-0.1-0.4-0.2C1,30.5,1,30.2,1,29.8l0-10.6
	c0-0.4,0.1-0.8,0.2-1.2L5.8,1.6C5.9,1.4,6,1.3,6.1,1.2C6.3,1.1,6.5,1,6.6,1z M22.9,6H9C8.9,6,8.7,6.1,8.6,6.2S8.3,6.4,8.3,6.6
	L6.1,17.9c0,0.2,0,0.3,0.1,0.5s0.2,0.2,0.4,0.2h3.7c0.2,0,0.3,0.1,0.5,0.2c0.2,0.1,0.3,0.3,0.3,0.4l0.9,3.8c0,0.2,0.1,0.3,0.3,0.4
	c0.2,0.1,0.3,0.2,0.5,0.2h6.3c0.2,0,0.3-0.1,0.5-0.2c0.2-0.1,0.3-0.3,0.3-0.4l0.9-3.8c0-0.2,0.1-0.3,0.3-0.4
	c0.2-0.1,0.3-0.2,0.5-0.2h3.8c0.2,0,0.3-0.1,0.4-0.2s0.1-0.3,0.1-0.4L23.7,6.6c0-0.2-0.1-0.3-0.3-0.4C23.3,6.1,23.1,6,22.9,6L22.9,6
	z"/>
</svg>
