<?xml version="1.0" encoding="utf-8"?>
<!-- Generator: Adobe Illustrator 22.1.0, SVG Export Plug-In . SVG Version: 6.00 Build 0)  -->
<svg version="1.1" id="Ebene_1" xmlns="http://www.w3.org/2000/svg" xmlns:xlink="http://www.w3.org/1999/xlink" x="0px" y="0px"
	 width="32px" height="32px" viewBox="0 0 32 32" style="enable-background:new 0 0 32 32;" xml:space="preserve">
<path d="M12.5,28.7h-2.3V3.3h2.3V28.7z M16,3.3h2.3c0.3,0,0.6,0.1,0.8,0.3c0.2,0.2,0.3,0.5,0.3,0.8v2.3c0,0.3-0.1,0.6-0.3,0.8
	s-0.5,0.3-0.8,0.3H16c-0.3,0-0.6-0.1-0.8-0.3s-0.3-0.5-0.3-0.8V4.5c0-0.3,0.1-0.6,0.3-0.8C15.4,3.4,15.7,3.3,16,3.3z M16,10.2h11.5
	c0.3,0,0.6,0.1,0.8,0.3c0.2,0.2,0.3,0.5,0.3,0.8v2.3c0,0.3-0.1,0.6-0.3,0.8s-0.5,0.3-0.8,0.3H16c-0.3,0-0.6-0.1-0.8-0.3
	s-0.3-0.5-0.3-0.8v-2.3c0-0.3,0.1-0.6,0.3-0.8C15.4,10.3,15.7,10.2,16,10.2z M9.5,16l-3.9,2.9v-1.7H1v-2.3h4.6v-1.7L9.5,16z
	 M16,17.2h6.9c0.3,0,0.6,0.1,0.8,0.3c0.2,0.2,0.3,0.5,0.3,0.8v2.3c0,0.3-0.1,0.6-0.3,0.8s-0.5,0.3-0.8,0.3H16
	c-0.3,0-0.6-0.1-0.8-0.3s-0.3-0.5-0.3-0.8v-2.3c0-0.3,0.1-0.6,0.3-0.8S15.7,17.2,16,17.2z M16,24.1h13.8c0.3,0,0.6,0.1,0.8,0.3
	s0.3,0.5,0.3,0.8v2.3c0,0.3-0.1,0.6-0.3,0.8s-0.5,0.3-0.8,0.3H16c-0.3,0-0.6-0.1-0.8-0.3s-0.3-0.5-0.3-0.8v-2.3
	c0-0.3,0.1-0.6,0.3-0.8S15.7,24.1,16,24.1z"/>
</svg>
