<?xml version="1.0" encoding="utf-8"?>
<!-- Generator: Adobe Illustrator 22.1.0, SVG Export Plug-In . SVG Version: 6.00 Build 0)  -->
<svg version="1.1" id="Ebene_1" xmlns="http://www.w3.org/2000/svg" xmlns:xlink="http://www.w3.org/1999/xlink" x="0px" y="0px"
	 width="32px" height="32px" viewBox="0 0 32 32" style="enable-background:new 0 0 32 32;" xml:space="preserve">
<path d="M2.2,3.3h2.3c0.3,0,0.6,0.1,0.8,0.3s0.3,0.5,0.3,0.8v2.3c0,0.3-0.1,0.6-0.3,0.8C5.1,7.8,4.8,7.9,4.5,7.9H2.2
	c-0.3,0-0.6-0.1-0.8-0.3S1,7.1,1,6.8V4.5c0-0.3,0.1-0.6,0.3-0.8S1.8,3.3,2.2,3.3z M21.8,28.7h-2.3V3.3h2.3V28.7z M2.2,10.2h11.5
	c0.3,0,0.6,0.1,0.8,0.3c0.2,0.2,0.3,0.5,0.3,0.8v2.3c0,0.3-0.1,0.6-0.3,0.8s-0.5,0.3-0.8,0.3H2.2c-0.3,0-0.6-0.1-0.8-0.3
	S1,14,1,13.7v-2.3c0-0.3,0.1-0.6,0.3-0.8C1.6,10.3,1.8,10.2,2.2,10.2z M26.4,14.8H31v2.3h-4.6v1.7L22.5,16l3.9-2.9V14.8L26.4,14.8z
	 M2.2,17.2h6.9c0.3,0,0.6,0.1,0.8,0.3s0.3,0.5,0.3,0.8v2.3c0,0.3-0.1,0.6-0.3,0.8s-0.5,0.3-0.8,0.3H2.2c-0.3,0-0.6-0.1-0.8-0.3
	S1,20.9,1,20.6v-2.3c0-0.3,0.1-0.6,0.3-0.8S1.8,17.2,2.2,17.2z M2.2,24.1H16c0.3,0,0.6,0.1,0.8,0.3c0.2,0.2,0.3,0.5,0.3,0.8v2.3
	c0,0.3-0.1,0.6-0.3,0.8c-0.2,0.2-0.5,0.3-0.8,0.3H2.2c-0.3,0-0.6-0.1-0.8-0.3C1.1,28.1,1,27.9,1,27.5v-2.3c0-0.3,0.1-0.6,0.3-0.8
	S1.8,24.1,2.2,24.1z"/>
</svg>
