<svg fill="currentColor" xmlns="http://www.w3.org/2000/svg" width="32" height="32" viewBox="0 0 32 32"><path d="M12.5 28.7h-2.3V3.3h2.3v25.4zM16 3.3h2.3c.3 0 .6.1.8.3.2.2.3.5.3.8v2.3c0 .3-.1.6-.3.8s-.5.3-.8.3H16c-.3 0-.6-.1-.8-.3s-.3-.5-.3-.8V4.5c0-.3.1-.6.3-.8.2-.3.5-.4.8-.4zm0 6.9h11.5c.3 0 .6.1.8.3.2.2.3.5.3.8v2.3c0 .3-.1.6-.3.8s-.5.3-.8.3H16c-.3 0-.6-.1-.8-.3s-.3-.5-.3-.8v-2.3c0-.3.1-.6.3-.8.2-.2.5-.3.8-.3zM9.5 16l-3.9 2.9v-1.7H1v-2.3h4.6v-1.7L9.5 16zm6.5 1.2h6.9c.3 0 .6.1.8.3.2.2.3.5.3.8v2.3c0 .3-.1.6-.3.8s-.5.3-.8.3H16c-.3 0-.6-.1-.8-.3s-.3-.5-.3-.8v-2.3c0-.3.1-.6.3-.8s.5-.3.8-.3zm0 6.9h13.8c.3 0 .6.1.8.3s.3.5.3.8v2.3c0 .3-.1.6-.3.8s-.5.3-.8.3H16c-.3 0-.6-.1-.8-.3s-.3-.5-.3-.8v-2.3c0-.3.1-.6.3-.8s.5-.3.8-.3z"/></svg>