<svg fill="currentColor" xmlns="http://www.w3.org/2000/svg" width="32" height="32" viewBox="0 0 32 32"><path d="M2.2 3.3h2.3c.3 0 .6.1.8.3s.3.5.3.8v2.3c0 .3-.1.6-.3.8-.2.3-.5.4-.8.4H2.2c-.3 0-.6-.1-.8-.3S1 7.1 1 6.8V4.5c0-.3.1-.6.3-.8s.5-.4.9-.4zm19.6 25.4h-2.3V3.3h2.3v25.4zM2.2 10.2h11.5c.3 0 .6.1.8.3.2.2.3.5.3.8v2.3c0 .3-.1.6-.3.8s-.5.3-.8.3H2.2c-.3 0-.6-.1-.8-.3S1 14 1 13.7v-2.3c0-.3.1-.6.3-.8.3-.3.5-.4.9-.4zm24.2 4.6H31v2.3h-4.6v1.7L22.5 16l3.9-2.9v1.7zM2.2 17.2h6.9c.3 0 .6.1.8.3s.3.5.3.8v2.3c0 .3-.1.6-.3.8s-.5.3-.8.3H2.2c-.3 0-.6-.1-.8-.3s-.4-.5-.4-.8v-2.3c0-.3.1-.6.3-.8s.5-.3.9-.3zm0 6.9H16c.3 0 .6.1.8.3.2.2.3.5.3.8v2.3c0 .3-.1.6-.3.8-.2.2-.5.3-.8.3H2.2c-.3 0-.6-.1-.8-.3-.3-.2-.4-.4-.4-.8v-2.3c0-.3.1-.6.3-.8s.5-.3.9-.3z"/></svg>