<svg fill="currentColor" xmlns="http://www.w3.org/2000/svg" width="32" height="32" viewBox="0 0 32 32"><path d="M16 1c2 0 4 .4 5.8 1.2s3.5 1.9 4.8 3.2c1.3 1.3 2.4 2.9 3.2 4.8S31 14 31 16s-.4 4-1.2 5.8c-.8 1.9-1.9 3.5-3.2 4.8s-2.9 2.4-4.8 3.2S18 31 16 31s-4-.4-5.8-1.2-3.5-1.8-4.8-3.2-2.4-2.9-3.2-4.8C1.4 20 1 18 1 16s.4-4 1.2-5.8S4 6.7 5.4 5.4 8.3 3 10.2 2.2 14 1 16 1zm1.9 4.6H14c-.2 0-.3.1-.5.2-.1.1-.2.3-.2.5v3.9c0 .2.1.3.2.5.1.1.3.2.5.2h3.9c.2 0 .3-.1.5-.2.1-.1.2-.3.2-.5V6.3c0-.2-.1-.3-.2-.5s-.3-.2-.5-.2zm0 7.8h-6.5c-.2 0-.3.1-.5.2-.1.1-.2.3-.2.5v1.3c0 .2.1.3.2.5.1.1.3.2.5.2h1.9v5.2h-1.9c-.2 0-.3.1-.5.2-.1.1-.2.3-.2.5v1.3c0 .2.1.3.2.5.1.1.3.2.5.2h9.1c.2 0 .3-.1.5-.2.1-.1.2-.3.2-.5V22c0-.2-.1-.3-.2-.5-.1-.1-.3-.2-.5-.2h-1.9v-7.1c0-.2-.1-.3-.2-.5s-.3-.3-.5-.3z"/></svg>