<?xml version="1.0" encoding="utf-8"?>
<!-- Generator: Adobe Illustrator 22.1.0, SVG Export Plug-In . SVG Version: 6.00 Build 0)  -->
<svg version="1.1" id="Ebene_1" xmlns="http://www.w3.org/2000/svg" xmlns:xlink="http://www.w3.org/1999/xlink" x="0px" y="0px"
	 width="32px" height="32px" viewBox="0 0 32 32" style="enable-background:new 0 0 32 32;" xml:space="preserve">
<path d="M24.4,1l0,1.4c-1.4,0.3-2.3,0.7-2.9,1.1c-0.5,0.4-0.9,1-1,1.7l-3.3,21c-0.1,0.8,0,1.4,0.3,1.7s1.2,0.5,2.4,0.6V31H7.5v-2.4
	c3.1-0.3,4.8-1.1,5-2.4l4.3-20.8c0-0.3,0.1-0.5,0.1-0.7c0-0.2,0-0.4,0-0.6c0-0.2-0.1-0.3-0.2-0.4c-0.1-0.1-0.2-0.2-0.3-0.3
	C16.2,3.2,16,3.1,15.8,3c-0.3-0.1-0.5-0.2-0.6-0.2s-0.5-0.1-0.8-0.3c-0.2,0-0.4-0.1-0.5-0.1V1L24.4,1L24.4,1z"/>
</svg>
