<?xml version="1.0" encoding="utf-8"?>
<!-- Generator: Adobe Illustrator 22.1.0, SVG Export Plug-In . SVG Version: 6.00 Build 0)  -->
<svg version="1.1" id="Ebene_1" xmlns="http://www.w3.org/2000/svg" xmlns:xlink="http://www.w3.org/1999/xlink" x="0px" y="0px"
	 width="32px" height="32px" viewBox="0 0 32 32" style="enable-background:new 0 0 32 32;" xml:space="preserve">
<path d="M30.4,1c0.1-0.1,0.3,0,0.5,0.2c0.2,0.2,0.3,0.3,0.3,0.4c0,3-0.2,5.8-0.6,8.2c-0.4,2.5-0.9,4.5-1.4,6.2
	c-0.6,1.7-1.3,3.2-2.2,4.4c-0.9,1.3-1.8,2.3-2.6,3c-0.8,0.7-1.8,1.3-3,1.7c-1.2,0.4-2.2,0.7-3,0.8s-1.8,0.2-3,0.1s-2.1-0.1-2.7-0.2
	c-0.6-0.1-1.3-0.2-2.3-0.4c-1-0.2-1.7-0.3-2-0.3c-0.1,0-0.2,0-0.3,0c-0.1,0-0.4,0.1-0.9,0.4s-0.9,0.6-1.3,1L2,30.6
	c-0.4,0.4-0.8,0.5-0.9,0.4c-0.2-0.2-0.3-0.5-0.3-1.1c0-1.1,0.4-1.9,1.1-2.6c0.1-0.1,0.6-0.5,1.3-1.1s1.3-1.1,1.7-1.5
	c0.3-0.3,0.6-0.7,0.9-1.2c0.3-0.5,0.4-1,0.3-1.5c-0.2-0.9-0.2-1.8-0.3-2.6c0-0.8,0-1.7,0.2-2.8c0.1-1.1,0.4-2.2,0.9-3.3
	s1.2-2.2,2-3.3c0.7-0.9,1.3-1.6,2-2.2C11.6,7,12.4,6.5,13.2,6c0.8-0.4,1.6-0.8,2.4-1.1c0.8-0.3,1.7-0.6,2.9-0.9s2.2-0.6,3.3-0.8
	c1-0.2,2.4-0.5,4-0.9C27.4,1.8,28.9,1.4,30.4,1L30.4,1z M29.1,3.4c-0.1-0.2-0.3-0.1-0.6,0.1c-0.2,0.2-0.6,0.6-1.2,1.3
	c-0.6,0.8-1.7,1.7-3,2.6c-1.4,1-2.6,1.7-3.6,2.3l-1.6,0.8c-0.9,0.5-1.8,1-2.6,1.4c-0.8,0.5-1.7,1-2.6,1.7c-1,0.7-1.8,1.4-2.6,2
	c-0.8,0.7-1.5,1.4-2.2,2.3s-1.2,1.8-1.6,2.7c-0.4,0.9-0.7,1.7-0.8,2.2c-0.1,0.5-0.1,0.8,0.1,0.8c0.2,0,0.4-0.1,0.8-0.4
	C8,22.9,8.5,22.3,9,21.7c0.4-0.5,1.2-1.1,2.4-1.9c1.2-0.8,2.2-1.4,3.2-2c1-0.5,2.2-1.2,3.7-2.1c1.2-0.6,2.2-1.2,3-1.8
	c0.8-0.5,1.7-1.2,2.6-2c0.9-0.8,1.7-1.7,2.5-2.8s1.5-2.3,2.2-3.8C29,4.5,29.2,4,29.3,3.8C29.3,3.7,29.3,3.5,29.1,3.4L29.1,3.4z"/>
</svg>
