<svg fill="currentColor" xmlns="http://www.w3.org/2000/svg" width="32" height="32" viewBox="0 0 32 32"><path d="M30.4 1c.1-.1.3 0 .5.2s.3.3.3.4c0 3-.2 5.8-.6 8.2-.4 2.5-.9 4.5-1.4 6.2-.6 1.7-1.3 3.2-2.2 4.4-.9 1.3-1.8 2.3-2.6 3-.8.7-1.8 1.3-3 1.7-1.2.4-2.2.7-3 .8s-1.8.2-3 .1-2.1-.1-2.7-.2c-.6-.1-1.3-.2-2.3-.4-1-.2-1.7-.3-2-.3h-.3c-.1 0-.4.1-.9.4s-.9.6-1.3 1L2 30.6c-.4.4-.8.5-.9.4-.2-.2-.3-.5-.3-1.1 0-1.1.4-1.9 1.1-2.6.1-.1.6-.5 1.3-1.1s1.3-1.1 1.7-1.5c.3-.3.6-.7.9-1.2.3-.5.4-1 .3-1.5-.2-.9-.2-1.8-.3-2.6 0-.8 0-1.7.2-2.8.1-1.1.4-2.2.9-3.3s1.2-2.2 2-3.3c.7-.9 1.3-1.6 2-2.2.7-.8 1.5-1.3 2.3-1.8.8-.4 1.6-.8 2.4-1.1.8-.3 1.7-.6 2.9-.9s2.2-.6 3.3-.8c1-.2 2.4-.5 4-.9 1.6-.5 3.1-.9 4.6-1.3zm-1.3 2.4c-.1-.2-.3-.1-.6.1-.2.2-.6.6-1.2 1.3-.6.8-1.7 1.7-3 2.6-1.4 1-2.6 1.7-3.6 2.3l-1.6.8c-.9.5-1.8 1-2.6 1.4-.8.5-1.7 1-2.6 1.7-1 .7-1.8 1.4-2.6 2-.8.7-1.5 1.4-2.2 2.3s-1.2 1.8-1.6 2.7c-.4.9-.7 1.7-.8 2.2-.1.5-.1.8.1.8s.4-.1.8-.4c.4-.3.9-.9 1.4-1.5.4-.5 1.2-1.1 2.4-1.9 1.2-.8 2.2-1.4 3.2-2 1-.5 2.2-1.2 3.7-2.1 1.2-.6 2.2-1.2 3-1.8.8-.5 1.7-1.2 2.6-2 .9-.8 1.7-1.7 2.5-2.8s1.5-2.3 2.2-3.8c.4-.8.6-1.3.7-1.5 0-.1 0-.3-.2-.4z"/></svg>