<?xml version="1.0" encoding="utf-8"?>
<!-- Generator: Adobe Illustrator 22.1.0, SVG Export Plug-In . SVG Version: 6.00 Build 0)  -->
<svg version="1.1" id="Ebene_1" xmlns="http://www.w3.org/2000/svg" xmlns:xlink="http://www.w3.org/1999/xlink" x="0px" y="0px"
	 width="32px" height="32px" viewBox="0 0 32 32" style="enable-background:new 0 0 32 32;" xml:space="preserve">
<path d="M20.3,1c1.5,0,2.8,0.5,3.9,1.6l3.4,3.4c1.1,1.1,1.6,2.4,1.6,3.9c0,0.7-0.2,1.5-0.7,2.3s-1,1.6-1.5,2.1l-0.7,0.7
	c-0.5-0.9-1.1-1.7-1.9-2.4L24,12.3l2.3-2.3l-6-6.1l-9.5,9.5l5.2,5.2l-2.6,2.6L13,20.7l-3.4-3.4c-1.1-1.1-1.6-2.4-1.6-3.9
	c0-1.5,0.5-2.8,1.6-3.9l6.9-6.9C17.5,1.5,18.8,1,20.3,1z M16,13.4l2.6-2.6c0.2,0.1,0.3,0.3,0.5,0.4l3.4,3.4c1.1,1.1,1.6,2.4,1.6,3.9
	c0,1.5-0.5,2.8-1.6,3.9l-6.9,6.9c-1.1,1.1-2.4,1.6-3.9,1.6s-2.8-0.5-3.9-1.6l-3.4-3.4c-1.1-1.1-1.6-2.4-1.6-3.9s0.5-2.8,1.6-3.9
	l1.3-1.3c0.5,0.9,1.1,1.7,1.8,2.5L8,19.7L5.6,22l6,6.1l9.5-9.5L16,13.4z"/>
</svg>
