<svg fill="currentColor" xmlns="http://www.w3.org/2000/svg" width="32" height="32" viewBox="0 0 32 32"><path d="M20.3 1c1.5 0 2.8.5 3.9 1.6L27.6 6c1.1 1.1 1.6 2.4 1.6 3.9 0 .7-.2 1.5-.7 2.3s-1 1.6-1.5 2.1l-.7.7c-.5-.9-1.1-1.7-1.9-2.4l-.4-.3 2.3-2.3-6-6.1-9.5 9.5 5.2 5.2-2.6 2.6-.4-.5-3.4-3.4C8.5 16.2 8 14.9 8 13.4s.5-2.8 1.6-3.9l6.9-6.9c1-1.1 2.3-1.6 3.8-1.6zM16 13.4l2.6-2.6c.2.1.3.3.5.4l3.4 3.4c1.1 1.1 1.6 2.4 1.6 3.9s-.5 2.8-1.6 3.9l-6.9 6.9c-1.1 1.1-2.4 1.6-3.9 1.6s-2.8-.5-3.9-1.6l-3.4-3.4c-1.1-1.1-1.6-2.4-1.6-3.9s.5-2.8 1.6-3.9l1.3-1.3c.5.9 1.1 1.7 1.8 2.5l.5.4L5.6 22l6 6.1 9.5-9.5-5.1-5.2z"/></svg>