<svg fill="currentColor" xmlns="http://www.w3.org/2000/svg" width="32" height="32" viewBox="0 0 32 32"><path d="M2 1h28c.2 0 .3.1.5.2s.2.3.2.4v28.7c0 .2-.1.3-.2.4-.2.2-.3.3-.5.3H2c-.2 0-.3-.1-.5-.2s-.2-.3-.2-.4V1.6c0-.2.1-.3.2-.4.2-.1.3-.2.5-.2zm25.3 5H4.7c-.2 0-.4.1-.5.2-.1.1-.2.3-.2.4v21.2c0 .2.1.3.2.4.1.1.3.2.5.2h22.7c.2 0 .3-.1.5-.2s.1-.2.1-.3V6.6c0-.2-.1-.3-.2-.4-.1-.1-.3-.2-.5-.2zm-20 2.5h1.3c.2 0 .3.1.5.2s.2.3.2.4v1.2c0 .2-.1.3-.2.4s-.3.3-.4.3H7.3c-.2 0-.3-.1-.5-.2s-.2-.3-.2-.4V9.1c0-.2.1-.3.2-.4s.4-.2.5-.2zm5.4 0h12c.2 0 .3.1.5.2s.2.3.2.4v1.2c0 .2-.1.3-.2.4-.2.2-.4.3-.5.3h-12c-.2 0-.3-.1-.5-.2s-.2-.3-.2-.4V9.1c0-.2.1-.3.2-.4s.3-.2.5-.2zm-5.4 5h1.3c.2 0 .3.1.5.2s.2.3.2.4v1.2c0 .2-.1.3-.2.4-.1.2-.3.3-.4.3H7.3c-.2 0-.3-.1-.5-.2-.1-.1-.2-.3-.2-.4v-1.2c0-.2.1-.3.2-.4.2-.2.4-.3.5-.3zm5.4 0h12c.2 0 .3.1.5.2s.2.3.2.4v1.2c0 .2-.1.3-.2.4-.2.2-.4.3-.5.3h-12c-.2 0-.3-.1-.5-.2-.1-.1-.2-.3-.2-.4v-1.2c0-.2.1-.3.2-.4.1-.2.3-.3.5-.3zm-5.4 5h1.3c.2 0 .3.1.5.2.1.1.2.3.2.4v1.2c0 .2-.1.3-.2.4s-.3.3-.4.3H7.3c-.2 0-.3-.1-.5-.2s-.2-.3-.2-.4v-1.2c0-.2.1-.3.2-.4.2-.2.4-.3.5-.3zm5.4 0h12c.2 0 .3.1.5.2.1.1.2.3.2.4v1.2c0 .2-.1.3-.2.4-.2.2-.4.3-.5.3h-12c-.2 0-.3-.1-.5-.2s-.2-.3-.2-.4v-1.2c0-.2.1-.3.2-.4.1-.2.3-.3.5-.3zm-5.4 5h1.3c.2 0 .3.1.5.2.1.1.2.3.2.4v1.2c0 .2-.1.3-.2.4s-.3.3-.4.3H7.3c-.2 0-.3-.1-.5-.2s-.2-.3-.2-.4v-1.2c0-.2.1-.3.2-.4s.4-.3.5-.3zm5.4 0h12c.2 0 .3.1.5.2.1.1.2.3.2.4v1.2c0 .2-.1.3-.2.4-.2.2-.4.3-.5.3h-12c-.2 0-.3-.1-.5-.2s-.2-.3-.2-.4v-1.2c0-.2.1-.3.2-.4s.3-.3.5-.3z"/></svg>