<svg fill="currentColor" xmlns="http://www.w3.org/2000/svg" width="32" height="32" viewBox="0 0 32 32"><path d="M2.3 1.3h2.5c.3 0 .6.1.9.4s.3.6.3 1v2.7c0 .3-.1.6-.4.9-.2.2-.5.4-.8.4H2.3c-.3 0-.6-.1-.9-.4-.3-.3-.4-.6-.4-1V2.7c0-.4.1-.7.4-1s.5-.4.9-.4zm7.5 0h20c.3 0 .6.1.9.4s.3.6.3 1v2.7c0 .4-.1.7-.4.9-.2.3-.5.4-.9.4h-20c-.3 0-.6-.1-.9-.4-.2-.3-.3-.6-.3-1V2.7c0-.4.1-.7.4-.9.2-.3.5-.5.9-.5zm-7.5 8h2.5c.3 0 .6.1.9.4.2.3.3.6.3 1v2.7c0 .4-.1.7-.4.9s-.5.4-.9.4H2.3c-.3 0-.6-.1-.9-.4s-.4-.6-.4-1v-2.7c0-.4.1-.7.4-.9s.5-.4.9-.4zm7.5 0h20c.3 0 .6.1.9.4.2.3.4.6.4.9v2.7c0 .4-.1.7-.4.9s-.5.4-.9.4h-20c-.3 0-.6-.1-.9-.4-.2-.3-.4-.6-.4-.9v-2.7c0-.4.1-.7.4-.9.2-.2.5-.4.9-.4zm-7.5 8h2.5c.3 0 .6.1.9.4.2.3.3.6.3 1v2.7c0 .4-.1.7-.4.9s-.5.4-.9.4H2.3c-.3 0-.6-.1-.9-.4s-.4-.6-.4-1v-2.7c0-.4.1-.7.4-.9.2-.2.5-.4.9-.4zm7.5 0h20c.3 0 .6.1.9.4.2.3.4.6.4.9v2.7c0 .4-.1.7-.4.9s-.5.4-.9.4h-20c-.3 0-.6-.1-.9-.4-.2-.3-.4-.6-.4-.9v-2.7c0-.4.1-.7.4-.9.2-.2.5-.4.9-.4zm-7.5 8h2.5c.3 0 .6.1.9.4s.3.6.3 1v2.7c0 .4-.1.7-.4.9-.2.3-.5.4-.9.4H2.3c-.3 0-.6-.1-.9-.4s-.4-.6-.4-1v-2.7c0-.4.1-.7.4-.9s.5-.4.9-.4zm7.5 0h20c.3 0 .6.1.9.4s.4.6.4.9v2.7c0 .4-.1.7-.4.9-.2.3-.5.4-.9.4h-20c-.3 0-.6-.1-.9-.4-.2-.3-.4-.6-.4-.9v-2.7c0-.4.1-.7.4-.9.2-.2.5-.4.9-.4z"/></svg>