<?xml version="1.0" encoding="utf-8"?>
<!-- Generator: Adobe Illustrator 22.1.0, SVG Export Plug-In . SVG Version: 6.00 Build 0)  -->
<svg version="1.1" id="Ebene_1" xmlns="http://www.w3.org/2000/svg" xmlns:xlink="http://www.w3.org/1999/xlink" x="0px" y="0px"
	 width="32px" height="32px" viewBox="0 0 32 32" style="enable-background:new 0 0 32 32;" xml:space="preserve">
<path d="M24.7,11V6c0-1.4-0.5-2.6-1.5-3.5c-1-1-2.2-1.5-3.5-1.5h-7.5c-1.4,0-2.5,0.5-3.5,1.5c-1,1-1.5,2.2-1.5,3.5v5H4.8
	c-0.7,0-1.3,0.2-1.8,0.7c-0.5,0.5-0.7,1.1-0.7,1.8v15c0,0.7,0.2,1.3,0.7,1.8C3.5,30.8,4.1,31,4.8,31h22.5c0.7,0,1.3-0.2,1.8-0.7
	c0.5-0.5,0.7-1.1,0.7-1.8v-15c0-0.7-0.2-1.3-0.7-1.8c-0.5-0.5-1.1-0.7-1.8-0.7C27.3,11,24.7,11,24.7,11z M12.3,11V7.2
	c0-0.3,0.1-0.6,0.4-0.9C12.9,6.1,13.2,6,13.5,6h5c0.3,0,0.6,0.1,0.9,0.4c0.3,0.2,0.4,0.5,0.4,0.9V11H12.3L12.3,11z"/>
</svg>
