<svg fill="currentColor" xmlns="http://www.w3.org/2000/svg" width="32" height="32" viewBox="0 0 32 32"><path d="M13.7 3.3h9.2c2.5 0 4.5.7 5.9 2.1 1.4 1.4 2.1 3.4 2.1 5.9v9.2c0 2.5-.7 4.5-2.1 5.9-1.4 1.4-3.4 2.1-5.9 2.1h-9.2c-.3 0-.6-.1-.8-.3-.2-.2-.3-.5-.3-.8v-2.3c0-.3.1-.6.3-.8s.5-.3.8-.3h10.4c.6 0 1.2-.2 1.6-.7.5-.5.7-1 .7-1.6V10.2c0-.6-.2-1.2-.7-1.6s-1-.7-1.6-.7H13.7c-.3 0-.6-.1-.8-.3s-.3-.5-.3-.8V4.5c0-.3.1-.6.3-.8s.5-.4.8-.4zM8.8 8.7l7.5 6.6c.2.2.4.5.4.8 0 .3-.1.5-.4.8l-7.5 6.6c-.2.2-.5.3-.6.2-.2-.1-.3-.3-.3-.6v-3.5H2.2c-.3 0-.6-.1-.8-.3-.3-.4-.4-.7-.4-1v-4.6c0-.3.1-.6.3-.8.2-.2.5-.3.8-.3h5.8V9.1c0-.3.1-.5.3-.6s.4 0 .6.2z"/></svg>