<svg fill="currentColor" xmlns="http://www.w3.org/2000/svg" width="32" height="32" viewBox="0 0 32 32"><path d="M9.2 3.1h9.4c.3 0 .6.1.8.3s.3.5.3.8v2.3c0 .3-.1.6-.3.8-.2.2-.5.3-.8.3H8c-.6.2-1.2.4-1.6.9-.5.5-.7 1-.7 1.7v11.7c0 .6.2 1.2.7 1.7s1 .7 1.7.7h10.6c.3 0 .6.1.8.3.2.2.3.5.3.8v2.3c0 .3-.1.6-.3.8-.2.2-.5.3-.8.3H9.2c-2.6 0-4.6-.7-6-2.2-1.4-1.4-2.2-3.5-2.2-6v-9.4c0-2.6.7-4.6 2.2-6s3.4-2.1 6-2.1zM23 8.6l7.6 6.7c.3.2.4.5.4.8 0 .3-.1.6-.4.8L23 23.4c-.3.2-.5.3-.6.2-.2-.1-.3-.3-.3-.6v-3.5h-5.9c-.3 0-.6-.1-.8-.3-.2-.2-.3-.5-.3-.8v-4.7c0-.3.1-.6.3-.8.2-.2.5-.3.8-.3h5.9V9c0-.3.1-.5.3-.6.2-.1.4-.1.6.2z"/></svg>