<?xml version="1.0" encoding="utf-8"?>
<!-- Generator: Adobe Illustrator 22.1.0, SVG Export Plug-In . SVG Version: 6.00 Build 0)  -->
<svg version="1.1" id="Ebene_1" xmlns="http://www.w3.org/2000/svg" xmlns:xlink="http://www.w3.org/1999/xlink" x="0px" y="0px"
	 width="32px" height="32px" viewBox="0 0 32 32" style="enable-background:new 0 0 32 32;" xml:space="preserve">
<path d="M9.2,3.1h9.4c0.3,0,0.6,0.1,0.8,0.3s0.3,0.5,0.3,0.8v2.3c0,0.3-0.1,0.6-0.3,0.8c-0.2,0.2-0.5,0.3-0.8,0.3H8
	C7.4,7.8,6.8,8,6.4,8.5c-0.5,0.5-0.7,1-0.7,1.7v11.7c0,0.6,0.2,1.2,0.7,1.7s1,0.7,1.7,0.7h10.6c0.3,0,0.6,0.1,0.8,0.3
	c0.2,0.2,0.3,0.5,0.3,0.8v2.3c0,0.3-0.1,0.6-0.3,0.8c-0.2,0.2-0.5,0.3-0.8,0.3H9.2c-2.6,0-4.6-0.7-6-2.2c-1.4-1.4-2.2-3.5-2.2-6
	v-9.4c0-2.6,0.7-4.6,2.2-6S6.6,3.1,9.2,3.1L9.2,3.1z M23,8.6l7.6,6.7c0.3,0.2,0.4,0.5,0.4,0.8c0,0.3-0.1,0.6-0.4,0.8L23,23.4
	c-0.3,0.2-0.5,0.3-0.6,0.2c-0.2-0.1-0.3-0.3-0.3-0.6v-3.5h-5.9c-0.3,0-0.6-0.1-0.8-0.3c-0.2-0.2-0.3-0.5-0.3-0.8v-4.7
	c0-0.3,0.1-0.6,0.3-0.8c0.2-0.2,0.5-0.3,0.8-0.3h5.9V9c0-0.3,0.1-0.5,0.3-0.6C22.6,8.3,22.8,8.3,23,8.6L23,8.6z"/>
</svg>
