<?xml version="1.0" encoding="utf-8"?>
<!-- Generator: Adobe Illustrator 22.1.0, SVG Export Plug-In . SVG Version: 6.00 Build 0)  -->
<svg version="1.1" id="Ebene_1" xmlns="http://www.w3.org/2000/svg" xmlns:xlink="http://www.w3.org/1999/xlink" x="0px" y="0px"
	 width="32px" height="32px" viewBox="0 0 32 32" style="enable-background:new 0 0 32 32;" xml:space="preserve">
<path d="M13.7,3.3h9.2c2.5,0,4.5,0.7,5.9,2.1c1.4,1.4,2.1,3.4,2.1,5.9v9.2c0,2.5-0.7,4.5-2.1,5.9c-1.4,1.4-3.4,2.1-5.9,2.1h-9.2
	c-0.3,0-0.6-0.1-0.8-0.3c-0.2-0.2-0.3-0.5-0.3-0.8v-2.3c0-0.3,0.1-0.6,0.3-0.8s0.5-0.3,0.8-0.3h10.4c0.6,0,1.2-0.2,1.6-0.7
	c0.5-0.5,0.7-1,0.7-1.6V10.2c0-0.6-0.2-1.2-0.7-1.6s-1-0.7-1.6-0.7H13.7c-0.3,0-0.6-0.1-0.8-0.3s-0.3-0.5-0.3-0.8V4.5
	c0-0.3,0.1-0.6,0.3-0.8S13.4,3.3,13.7,3.3L13.7,3.3z M8.8,8.7l7.5,6.6c0.2,0.2,0.4,0.5,0.4,0.8c0,0.3-0.1,0.5-0.4,0.8l-7.5,6.6
	c-0.2,0.2-0.5,0.3-0.6,0.2c-0.2-0.1-0.3-0.3-0.3-0.6v-3.5H2.2c-0.3,0-0.6-0.1-0.8-0.3C1.1,18.9,1,18.6,1,18.3v-4.6
	c0-0.3,0.1-0.6,0.3-0.8c0.2-0.2,0.5-0.3,0.8-0.3h5.8V9.1c0-0.3,0.1-0.5,0.3-0.6S8.6,8.5,8.8,8.7L8.8,8.7z"/>
</svg>
