<svg xmlns="http://www.w3.org/2000/svg" width="32" height="32" fill="currentColor" viewBox="0 0 32 32"><path d="M4.7 1h5c.4 0 .6.1.9.4.3.2.4.5.4.9v6.3H3.5V2.3c0-.4.1-.6.4-.9.2-.3.5-.4.8-.4m17.5 0h5c.3 0 .6.1.9.4.2.2.4.5.4.9v6.3H21V2.3c0-.4.1-.6.4-.9.2-.3.5-.4.8-.4m6.3 10v7.5c0 .7 0 1.3-.1 1.9s-.2 1.4-.4 2.2c-.2.9-.5 1.7-.8 2.4s-.8 1.5-1.5 2.2c-.6.8-1.4 1.4-2.2 1.9s-1.9.9-3.2 1.3-2.7.6-4.3.6-3-.2-4.3-.5-2.4-.8-3.2-1.3-1.6-1.2-2.2-1.9c-.6-.8-1.1-1.5-1.5-2.2-.3-.7-.6-1.5-.8-2.4s-.3-1.6-.4-2.2c0-.6-.1-1.3-.1-1.9V11H11v9c0 .7.1 1 .1.9.1-.1.1.2.3.9.1.6.2.9.4.8s.4.1.6.6.6.7.9.5q.45-.3 1.2.3c.75.6 1 .5 1.5.1s1-.4 1.5-.1.8.2 1.2-.3.6-.7.9-.5.5 0 .6-.6c.2-.6.3-.8.4-.8q.15.15.3-.9c0-.7.1-1 .1-.9 0 0 .1-.3 0-1v-8z"/></svg>