<?xml version="1.0" encoding="utf-8"?>
<!-- Generator: Adobe Illustrator 22.1.0, SVG Export Plug-In . SVG Version: 6.00 Build 0)  -->
<svg version="1.1" id="Ebene_1" xmlns="http://www.w3.org/2000/svg" xmlns:xlink="http://www.w3.org/1999/xlink" x="0px" y="0px"
	 width="32px" height="32px" viewBox="0 0 32 32" style="enable-background:new 0 0 32 32;" xml:space="preserve">
<path d="M4.7,1h5c0.4,0,0.6,0.1,0.9,0.4C10.9,1.6,11,1.9,11,2.3v6.3H3.5V2.3c0-0.4,0.1-0.6,0.4-0.9C4.1,1.1,4.4,1,4.7,1L4.7,1z
	 M22.2,1h5c0.3,0,0.6,0.1,0.9,0.4c0.2,0.2,0.4,0.5,0.4,0.9v6.3H21V2.3c0-0.4,0.1-0.6,0.4-0.9C21.6,1.1,21.9,1,22.2,1L22.2,1z
	 M28.5,11v7.5c0,0.7,0,1.3-0.1,1.9s-0.2,1.4-0.4,2.2c-0.2,0.9-0.5,1.7-0.8,2.4c-0.3,0.7-0.8,1.5-1.5,2.2c-0.6,0.8-1.4,1.4-2.2,1.9
	c-0.8,0.5-1.9,0.9-3.2,1.3C19,30.8,17.6,31,16,31c-1.6,0-3-0.2-4.3-0.5c-1.3-0.3-2.4-0.8-3.2-1.3c-0.8-0.5-1.6-1.2-2.2-1.9
	c-0.6-0.8-1.1-1.5-1.5-2.2c-0.3-0.7-0.6-1.5-0.8-2.4c-0.2-0.9-0.3-1.6-0.4-2.2c0-0.6-0.1-1.3-0.1-1.9V11H11v8c0,0,0,0.3,0,1
	c0,0.7,0.1,1,0.1,0.9c0.1-0.1,0.1,0.2,0.3,0.9c0.1,0.6,0.2,0.9,0.4,0.8s0.4,0.1,0.6,0.6s0.6,0.7,0.9,0.5c0.3-0.2,0.7-0.1,1.2,0.3
	s1,0.5,1.5,0.1c0.5-0.4,1-0.4,1.5-0.1s0.8,0.2,1.2-0.3s0.6-0.7,0.9-0.5s0.5,0,0.6-0.6c0.2-0.6,0.3-0.8,0.4-0.8
	c0.1,0.1,0.2-0.2,0.3-0.9c0-0.7,0.1-1,0.1-0.9c0,0,0.1-0.3,0-1c0-0.7,0-1.1,0-1.1V11L28.5,11L28.5,11z"/>
</svg>
