<svg xmlns="http://www.w3.org/2000/svg" width="32" height="32" fill="currentColor" viewBox="0 0 32 32"><path d="M16 1c2 0 3.9.5 5.6 1.5s3 2.4 4 4.1 1.5 3.6 1.5 5.6q0 3-1.8 6.6c-1.2 1.9-2.5 3.8-4.1 5.8-1.5 2-2.8 3.5-3.7 4.6L16.1 31c-.2-.1-.4-.3-.7-.6s-.8-.9-1.6-1.7c-.8-.9-1.6-1.8-2.3-2.7-.8-.9-1.6-2-2.5-3.3s-1.8-2.6-2.5-3.8c-1-2.3-1.5-4.4-1.5-6.4 0-1.5.3-3 .9-4.4s1.4-2.6 2.4-3.7 2.2-1.9 3.5-2.5Q13.75 1 16 1m.1 5c-1.6 0-2.9.6-4 1.7s-1.7 2.5-1.7 4 .6 2.9 1.7 4 2.5 1.7 4 1.7c1.6 0 2.9-.6 4-1.7s1.7-2.5 1.7-4-.6-2.9-1.7-4-2.4-1.7-4-1.7"/></svg>