<?xml version="1.0" encoding="utf-8"?>
<!-- Generator: Adobe Illustrator 22.1.0, SVG Export Plug-In . SVG Version: 6.00 Build 0)  -->
<svg version="1.1" id="Ebene_1" xmlns="http://www.w3.org/2000/svg" xmlns:xlink="http://www.w3.org/1999/xlink" x="0px" y="0px"
	 width="32px" height="32px" viewBox="0 0 32 32" style="enable-background:new 0 0 32 32;" xml:space="preserve">
<path d="M16,1c2,0,3.9,0.5,5.6,1.5s3,2.4,4,4.1c1,1.7,1.5,3.6,1.5,5.6c0,2-0.6,4.2-1.8,6.6c-1.2,1.9-2.5,3.8-4.1,5.8
	c-1.5,2-2.8,3.5-3.7,4.6L16.1,31c-0.2-0.1-0.4-0.3-0.7-0.6c-0.3-0.3-0.8-0.9-1.6-1.7c-0.8-0.9-1.6-1.8-2.3-2.7
	c-0.8-0.9-1.6-2-2.5-3.3c-0.9-1.3-1.8-2.6-2.5-3.8c-1-2.3-1.5-4.4-1.5-6.4c0-1.5,0.3-3,0.9-4.4s1.4-2.6,2.4-3.7s2.2-1.9,3.5-2.5
	C13.1,1.3,14.5,1,16,1L16,1z M16.1,6c-1.6,0-2.9,0.6-4,1.7s-1.7,2.5-1.7,4s0.6,2.9,1.7,4s2.5,1.7,4,1.7c1.6,0,2.9-0.6,4-1.7
	c1.1-1.1,1.7-2.5,1.7-4s-0.6-2.9-1.7-4C19,6.6,17.7,6,16.1,6z"/>
</svg>
