<svg fill="currentColor" xmlns="http://www.w3.org/2000/svg" width="32" height="32" viewBox="0 0 32 32"><path d="M8.8 7.9l6.7-6.7c.2-.1.3-.2.5-.2s.3.1.5.2l6.6 6.7c.1.1.2.2.1.3 0 .1-.1.1-.3.1h-4.3v5.1h5.1V9.1c0-.2 0-.3.1-.3s.2 0 .3.1l6.7 6.6c.1.1.2.3.2.4 0 .2-.1.3-.2.4L24.1 23c-.1.1-.2.2-.3.1s-.1-.1-.1-.3v-4.4h-5.1v5.1h4.3c.2 0 .3 0 .3.1s0 .2-.1.3l-6.6 6.7c-.2.3-.3.4-.5.4s-.3-.1-.5-.2l-6.7-6.7c-.1-.1-.2-.2-.1-.3 0-.1.1-.1.3-.1h4.4v-5.1h-5V23c0 .2 0 .3-.1.3s-.2 0-.3-.1l-6.7-6.7c-.2-.2-.3-.4-.3-.6 0-.2.1-.3.2-.4l6.7-6.6c.1-.1.2-.2.3-.1s.1.1.1.3v4.4h5.1V8.4H9c-.2 0-.3 0-.3-.1-.1-.1 0-.2.1-.4z"/></svg>