<?xml version="1.0" encoding="utf-8"?>
<!-- Generator: Adobe Illustrator 22.1.0, SVG Export Plug-In . SVG Version: 6.00 Build 0)  -->
<svg version="1.1" id="Ebene_1" xmlns="http://www.w3.org/2000/svg" xmlns:xlink="http://www.w3.org/1999/xlink" x="0px" y="0px"
	 width="32px" height="32px" viewBox="0 0 32 32" style="enable-background:new 0 0 32 32;" xml:space="preserve">
<path d="M8.8,7.9l6.7-6.7C15.7,1.1,15.8,1,16,1c0.2,0,0.3,0.1,0.5,0.2l6.6,6.7c0.1,0.1,0.2,0.2,0.1,0.3c0,0.1-0.1,0.1-0.3,0.1h-4.3
	v5.1h5.1V9.1c0-0.2,0-0.3,0.1-0.3c0.1,0,0.2,0,0.3,0.1l6.7,6.6c0.1,0.1,0.2,0.3,0.2,0.4c0,0.2-0.1,0.3-0.2,0.4l-6.7,6.7
	c-0.1,0.1-0.2,0.2-0.3,0.1s-0.1-0.1-0.1-0.3v-4.4h-5.1v5.1h4.3c0.2,0,0.3,0,0.3,0.1c0,0.1,0,0.2-0.1,0.3l-6.6,6.7
	C16.3,30.9,16.2,31,16,31c-0.2,0-0.3-0.1-0.5-0.2l-6.7-6.7c-0.1-0.1-0.2-0.2-0.1-0.3c0-0.1,0.1-0.1,0.3-0.1h4.4v-5.1H8.4v4.4
	c0,0.2,0,0.3-0.1,0.3s-0.2,0-0.3-0.1l-6.7-6.7C1.1,16.3,1,16.1,1,15.9c0-0.2,0.1-0.3,0.2-0.4l6.7-6.6c0.1-0.1,0.2-0.2,0.3-0.1
	s0.1,0.1,0.1,0.3v4.4h5.1V8.4H9c-0.2,0-0.3,0-0.3-0.1C8.6,8.2,8.7,8.1,8.8,7.9z"/>
</svg>
