<?xml version="1.0" encoding="utf-8"?>
<!-- Generator: Adobe Illustrator 22.1.0, SVG Export Plug-In . SVG Version: 6.00 Build 0)  -->
<svg version="1.1" id="Ebene_1" xmlns="http://www.w3.org/2000/svg" xmlns:xlink="http://www.w3.org/1999/xlink" x="0px" y="0px"
	 width="32px" height="32px" viewBox="0 0 32 32" style="enable-background:new 0 0 32 32;" xml:space="preserve">
<path d="M11.3,5.3l16.3-4.1c0.7-0.3,1.2-0.3,1.6,0c0.4,0.3,0.6,0.7,0.6,1.2v21c0,0.9-0.3,1.7-1,2.4c-0.7,0.7-1.6,1.2-2.8,1.6
	c-1.3,0.4-2.6,0.5-3.7,0.1s-1.9-1-2.2-1.9c-0.3-0.9-0.1-1.9,0.6-2.8s1.8-1.6,3.1-2.1c1.2-0.4,2.4-0.5,3.5-0.2V7.4l-15.2,3.9v15.3
	c0,0.7-0.4,1.5-1.1,2.3c-0.7,0.8-1.7,1.4-2.8,1.7c-1.3,0.4-2.6,0.5-3.7,0.1c-1.1-0.3-1.9-1-2.2-1.9S2.3,27,3,26.1s1.8-1.6,3.1-2.1
	c1.2-0.4,2.4-0.5,3.5-0.2V7.7c0-0.6,0.1-1.1,0.4-1.5C10.2,5.8,10.6,5.5,11.3,5.3L11.3,5.3z"/>
</svg>
