<svg fill="currentColor" xmlns="http://www.w3.org/2000/svg" width="32" height="32" viewBox="0 0 32 32"><path d="M19.7 1h10c.3 0 .6.1.9.4.3.2.4.5.4.9v10c0 .3-.1.6-.3.6-.2.1-.4 0-.6-.3l-2.7-2.7-7.8 7.8c-.2.2-.5.4-.9.4s-.6-.1-.9-.4l-3.5-3.5c-.2-.2-.4-.5-.4-.9 0-.3.1-.6.4-.9l7.8-7.8-2.7-2.7c-.2-.2-.3-.4-.3-.6.1-.2.3-.3.6-.3zm-7.3 7.5H8.5c-.7 0-1.3.2-1.8.7S6 10.3 6 11v12.5c0 .7.2 1.3.7 1.8.5.5 1.1.7 1.8.7H21c.7 0 1.3-.2 1.8-.7.5-.5.7-1.1.7-1.8v-3.7l5-5v7.4c0 2.7-.8 4.9-2.3 6.4-1.6 1.5-3.7 2.3-6.4 2.3h-10c-2.7 0-4.9-.8-6.4-2.3S1 25 1 22.2v-10c0-2.7.8-4.9 2.3-6.4S7 3.5 9.8 3.5h7.5l-4.9 5z"/></svg>