<?xml version="1.0" encoding="utf-8"?>
<!-- Generator: Adobe Illustrator 22.1.0, SVG Export Plug-In . SVG Version: 6.00 Build 0)  -->
<svg version="1.1" id="Ebene_1" xmlns="http://www.w3.org/2000/svg" xmlns:xlink="http://www.w3.org/1999/xlink" x="0px" y="0px"
	 width="32px" height="32px" viewBox="0 0 32 32" style="enable-background:new 0 0 32 32;" xml:space="preserve">
<path d="M19.7,1h10c0.3,0,0.6,0.1,0.9,0.4C30.9,1.6,31,1.9,31,2.3v10c0,0.3-0.1,0.6-0.3,0.6c-0.2,0.1-0.4,0-0.6-0.3l-2.7-2.7
	l-7.8,7.8c-0.2,0.2-0.5,0.4-0.9,0.4s-0.6-0.1-0.9-0.4l-3.5-3.5c-0.2-0.2-0.4-0.5-0.4-0.9c0-0.3,0.1-0.6,0.4-0.9l7.8-7.8l-2.7-2.7
	c-0.2-0.2-0.3-0.4-0.3-0.6C19.2,1.1,19.4,1,19.7,1z M12.4,8.5H8.5c-0.7,0-1.3,0.2-1.8,0.7S6,10.3,6,11v12.5c0,0.7,0.2,1.3,0.7,1.8
	C7.2,25.8,7.8,26,8.5,26H21c0.7,0,1.3-0.2,1.8-0.7c0.5-0.5,0.7-1.1,0.7-1.8v-3.7l5-5v7.4c0,2.7-0.8,4.9-2.3,6.4
	c-1.6,1.5-3.7,2.3-6.4,2.3h-10c-2.7,0-4.9-0.8-6.4-2.3S1,25,1,22.2v-10c0-2.7,0.8-4.9,2.3-6.4S7,3.5,9.8,3.5h7.5L12.4,8.5z"/>
</svg>
