<svg fill="currentColor" xmlns="http://www.w3.org/2000/svg" width="32" height="32" viewBox="0 0 32 32"><path d="M14.7 1h2.5c.4 0 .7.1.9.4.2.2.4.5.4.9v10.2c0 .4-.1.7-.4.9-.2.2-.5.4-.9.4h-2.5c-.4 0-.7-.1-.9-.4-.2-.2-.4-.5-.4-.9V2.3c0-.4.1-.7.4-.9.3-.3.6-.4.9-.4zm6.4 5.7V2.5c2.8 1.1 5.1 2.8 6.9 5.3 1.8 2.5 2.7 5.3 2.7 8.4 0 2-.4 3.9-1.2 5.7s-1.8 3.4-3.1 4.7c-1.3 1.3-2.9 2.4-4.7 3.1-1.8.9-3.7 1.3-5.7 1.3s-3.9-.4-5.7-1.2-3.4-1.8-4.7-3.1c-1.3-1.3-2.4-2.9-3.1-4.7s-1.2-3.7-1.2-5.7c0-3.1.9-5.9 2.7-8.4s4.1-4.3 6.9-5.3v4.2c-1.8.9-3.2 2.3-4.2 4s-1.6 3.6-1.6 5.6c0 2 .5 3.8 1.5 5.5s2.3 3 4 4c1.7 1 3.5 1.5 5.5 1.5s3.8-.5 5.5-1.5c1.7-1 3-2.3 4-4 1-1.7 1.5-3.5 1.5-5.5s-.5-3.9-1.6-5.6c-1.2-1.8-2.7-3.1-4.4-4.1z"/></svg>