<svg xmlns="http://www.w3.org/2000/svg" width="32" height="32" fill="currentColor" viewBox="0 0 32 32"><path d="M14.7 1h2.5c.4 0 .7.1.9.4.2.2.4.5.4.9v10.2c0 .4-.1.7-.4.9-.2.2-.5.4-.9.4h-2.5c-.4 0-.7-.1-.9-.4-.2-.2-.4-.5-.4-.9V2.3c0-.4.1-.7.4-.9.3-.3.6-.4.9-.4m6.4 5.7V2.5c2.8 1.1 5.1 2.8 6.9 5.3q2.7 3.75 2.7 8.4 0 3-1.2 5.7c-1.2 2.7-1.8 3.4-3.1 4.7s-2.9 2.4-4.7 3.1C19.9 30.6 18 31 16 31s-3.9-.4-5.7-1.2-3.4-1.8-4.7-3.1-2.4-2.9-3.1-4.7-1.2-3.7-1.2-5.7q0-4.65 2.7-8.4c2.7-3.75 4.1-4.3 6.9-5.3v4.2c-1.8.9-3.2 2.3-4.2 4s-1.6 3.6-1.6 5.6.5 3.8 1.5 5.5 2.3 3 4 4 3.5 1.5 5.5 1.5 3.8-.5 5.5-1.5 3-2.3 4-4 1.5-3.5 1.5-5.5-.5-3.9-1.6-5.6c-1.2-1.8-2.7-3.1-4.4-4.1"/></svg>