<?xml version="1.0" encoding="utf-8"?>
<!-- Generator: Adobe Illustrator 22.1.0, SVG Export Plug-In . SVG Version: 6.00 Build 0)  -->
<svg version="1.1" id="Ebene_1" xmlns="http://www.w3.org/2000/svg" xmlns:xlink="http://www.w3.org/1999/xlink" x="0px" y="0px"
	 width="32px" height="32px" viewBox="0 0 32 32" style="enable-background:new 0 0 32 32;" xml:space="preserve">
<path d="M14.7,1h2.5c0.4,0,0.7,0.1,0.9,0.4c0.2,0.2,0.4,0.5,0.4,0.9v10.2c0,0.4-0.1,0.7-0.4,0.9c-0.2,0.2-0.5,0.4-0.9,0.4h-2.5
	c-0.4,0-0.7-0.1-0.9-0.4c-0.2-0.2-0.4-0.5-0.4-0.9V2.3c0-0.4,0.1-0.7,0.4-0.9C14.1,1.1,14.4,1,14.7,1z M21.1,6.7V2.5
	c2.8,1.1,5.1,2.8,6.9,5.3c1.8,2.5,2.7,5.3,2.7,8.4c0,2-0.4,3.9-1.2,5.7s-1.8,3.4-3.1,4.7c-1.3,1.3-2.9,2.4-4.7,3.1
	C19.9,30.6,18,31,16,31s-3.9-0.4-5.7-1.2S6.9,28,5.6,26.7c-1.3-1.3-2.4-2.9-3.1-4.7s-1.2-3.7-1.2-5.7c0-3.1,0.9-5.9,2.7-8.4
	s4.1-4.3,6.9-5.3v4.2c-1.8,0.9-3.2,2.3-4.2,4s-1.6,3.6-1.6,5.6c0,2,0.5,3.8,1.5,5.5s2.3,3,4,4c1.7,1,3.5,1.5,5.5,1.5
	s3.8-0.5,5.5-1.5c1.7-1,3-2.3,4-4c1-1.7,1.5-3.5,1.5-5.5c0-2-0.5-3.9-1.6-5.6C24.3,9,22.8,7.7,21.1,6.7L21.1,6.7z"/>
</svg>
