<svg fill="currentColor" xmlns="http://www.w3.org/2000/svg" width="32" height="32" viewBox="0 0 32 32"><path d="M16 1c2 0 4 .4 5.8 1.2s3.5 1.9 4.8 3.2c1.3 1.3 2.4 2.9 3.2 4.8S31 14 31 16s-.4 4-1.2 5.8c-.8 1.9-1.9 3.5-3.2 4.8s-2.9 2.4-4.8 3.2S18 31 16 31s-4-.4-5.8-1.2-3.5-1.8-4.8-3.2-2.4-2.9-3.2-4.8C1.4 20 1 18 1 16s.4-4 1.2-5.8S4 6.7 5.4 5.4 8.3 3 10.2 2.2 14 1 16 1zm0 3.9c-2 0-3.9.5-5.6 1.5-1.7 1-3.1 2.3-4 4S4.9 14 4.9 16c0 2 .5 3.9 1.5 5.6 1 1.7 2.3 3.1 4 4 1.7 1 3.6 1.5 5.6 1.5s3.9-.5 5.6-1.5c1.7-1 3.1-2.3 4-4 1-1.7 1.5-3.6 1.5-5.6 0-2-.5-3.9-1.5-5.6s-2.3-3.1-4-4c-1.7-1-3.6-1.5-5.6-1.5zm4.7 6.2l2.8 2.8c.1.1.2.3.2.5s-.1.3-.2.5l-8.3 8.3c-.1.1-.3.2-.5.2s-.3-.1-.5-.2L9 17.8c-.1-.1-.2-.3-.2-.5s.1-.3.2-.5l2.8-2.8h.4c.2 0 .3.1.5.2l2.1 2.1 5.1-5.1c.1-.1.3-.2.5-.2s.2 0 .3.1z"/></svg>