<?xml version="1.0" encoding="utf-8"?>
<!-- Generator: Adobe Illustrator 22.1.0, SVG Export Plug-In . SVG Version: 6.00 Build 0)  -->
<svg version="1.1" id="Ebene_1" xmlns="http://www.w3.org/2000/svg" xmlns:xlink="http://www.w3.org/1999/xlink" x="0px" y="0px"
	 width="32px" height="32px" viewBox="0 0 32 32" style="enable-background:new 0 0 32 32;" xml:space="preserve">
<path d="M16,1c2,0,4,0.4,5.8,1.2s3.5,1.9,4.8,3.2c1.3,1.3,2.4,2.9,3.2,4.8S31,14,31,16c0,2-0.4,4-1.2,5.8c-0.8,1.9-1.9,3.5-3.2,4.8
	s-2.9,2.4-4.8,3.2S18,31,16,31s-4-0.4-5.8-1.2S6.7,28,5.4,26.6S3,23.7,2.2,21.8C1.4,20,1,18,1,16s0.4-4,1.2-5.8S4,6.7,5.4,5.4
	S8.3,3,10.2,2.2S14,1,16,1z M14.6,15.4l-2.2-2.2C12.3,13.1,12.1,13,12,13c-0.2,0-0.3,0.1-0.5,0.2l-3.6,3.6c-0.1,0.1-0.2,0.3-0.2,0.5
	s0.1,0.3,0.2,0.5l6.3,6.3c0.1,0.1,0.3,0.2,0.5,0.2c0.2,0,0.3-0.1,0.5-0.2l9.7-9.7c0.1-0.1,0.2-0.3,0.2-0.5s-0.1-0.3-0.2-0.5
	l-3.6-3.6c-0.1-0.1-0.3-0.2-0.5-0.2c-0.2,0-0.3,0.1-0.5,0.2L14.6,15.4z"/>
</svg>
