<?xml version="1.0" encoding="utf-8"?>
<!-- Generator: Adobe Illustrator 22.1.0, SVG Export Plug-In . SVG Version: 6.00 Build 0)  -->
<svg version="1.1" id="Ebene_1" xmlns="http://www.w3.org/2000/svg" xmlns:xlink="http://www.w3.org/1999/xlink" x="0px" y="0px"
	 width="32px" height="32px" viewBox="0 0 32 32" style="enable-background:new 0 0 32 32;" xml:space="preserve">
<path d="M11.5,17.8L25.6,3.7c0.1-0.1,0.3-0.2,0.4-0.2c0.2,0,0.3,0.1,0.4,0.2l4.4,4.4C30.9,8.2,31,8.3,31,8.5c0,0.2-0.1,0.3-0.2,0.4
	L11.5,28.3c-0.1,0.1-0.3,0.2-0.4,0.2c-0.2,0-0.3-0.1-0.4-0.2l-9.5-9.5C1.1,18.7,1,18.5,1,18.4s0.1-0.3,0.2-0.4l4.4-4.4
	c0.1-0.1,0.3-0.2,0.4-0.2c0.2,0,0.3,0.1,0.4,0.2l4.2,4.2c0.1,0.1,0.3,0.2,0.4,0.2C11.3,18,11.4,17.9,11.5,17.8L11.5,17.8z"/>
</svg>
