<?xml version="1.0" encoding="utf-8"?>
<!-- Generator: Adobe Illustrator 22.1.0, SVG Export Plug-In . SVG Version: 6.00 Build 0)  -->
<svg version="1.1" id="Ebene_1" xmlns="http://www.w3.org/2000/svg" xmlns:xlink="http://www.w3.org/1999/xlink" x="0px" y="0px"
	 width="32px" height="32px" viewBox="0 0 32 32" style="enable-background:new 0 0 32 32;" xml:space="preserve">
<path d="M16.8,1.4l9.5,10.9c0.2,0.3,0.3,0.5,0.2,0.8c-0.1,0.3-0.3,0.4-0.7,0.4h-6.1v6.3c0,0.3-0.1,0.6-0.4,0.9
	c-0.3,0.3-0.6,0.4-1,0.4h-5c-0.3,0-0.6-0.1-0.8-0.4c-0.2-0.2-0.3-0.5-0.3-0.9v-6.3H6c-0.3,0-0.5-0.1-0.6-0.4c-0.1-0.3,0-0.5,0.2-0.8
	l9.6-10.8C15.4,1.2,15.7,1,16,1C16.3,1,16.6,1.1,16.8,1.4z M3.5,23.5h25.1c0.4,0,0.6,0.1,0.9,0.4c0.2,0.2,0.4,0.5,0.4,0.9V31H2.2
	v-6.3c0-0.4,0.1-0.6,0.4-0.9S3.1,23.5,3.5,23.5L3.5,23.5z M24.8,26v1.3h2.5V26H24.8z"/>
</svg>
