<svg fill="currentColor" xmlns="http://www.w3.org/2000/svg" width="32" height="32" viewBox="0 0 32 32"><path d="M15 27.4l11.2-11.2c1.4-1.4 2.2-3 2.4-4.6.1-1.6-.3-3-1.2-4.2-.9-1.2-2.2-2-3.7-2.3-.3-.1-.7-.1-1.1-.1-.5 0-1.1.1-1.6.2-.5.2-1 .3-1.3.5-.4.2-.8.5-1.3.9s-.9.7-1.1 1L16 8.9l-9.3 9.3c-.5.4-.8.8-1.1 1-.2.2-.5.6-.9 1s-.6.8-.8 1.1-.2.7-.3 1.1c-.1.4-.1.9 0 1.3.1 1 .6 1.7 1.3 2.3.7.5 1.5.8 2.4.8 1.2 0 2.2-.4 3-1.2l13.1-13.1c.6-.6.7-1.2.5-1.8-.1-.3-.3-.5-.5-.6-.4-.1-.7-.2-1-.2-.4 0-.8.2-1.2.5l-.9.9-8.1 8.1c-.2.2-.5.4-.8.4-.3 0-.6-.1-.8-.3s-.3-.5-.3-.8.1-.6.3-.8c5.2-5.3 8.1-8.2 8.6-8.8.6-.6 1.1-1 1.6-1.2.5-.3 1.1-.4 1.9-.4h.7c.6.1 1.2.3 1.6.8.5.4.8 1 1 1.6.2.7.2 1.5 0 2.3-.2.8-.6 1.5-1.1 2l-.8.8c-.3.3-.9 1-1.9 1.9-.9 1-1.9 1.9-2.7 2.7s-1.9 1.9-3 2.9c-1.1 1.1-2.1 2-2.9 2.8-.9.8-1.6 1.5-2.3 2.1-.7.6-1.1 1-1.4 1.1-.9.4-1.8.6-2.9.6-1.1 0-2.1-.3-3.1-.8-.9-.5-1.7-1.2-2.2-2.1-.8-1.2-1-2.6-.8-4.1.2-1.5.9-2.8 1.9-3.9l12.4-12c1.1-1.1 2-1.9 2.6-2.3 1.4-.9 3-1.3 4.7-1.3 1.3 0 2.5.3 3.6.8 1.2.6 2.3 1.4 3.1 2.5.8 1.1 1.3 2.3 1.6 3.7.3 1.5.2 2.9-.3 4.4-.4 1.4-1.2 2.7-2.2 3.7L16.9 29c-.2.2-.5.4-.9.4-.3 0-.6-.1-.9-.3-.3-.2-.4-.5-.4-.8 0-.4.1-.6.3-.9z"/></svg>