<?xml version="1.0" encoding="utf-8"?>
<!-- Generator: Adobe Illustrator 22.1.0, SVG Export Plug-In . SVG Version: 6.00 Build 0)  -->
<svg version="1.1" id="Ebene_1" xmlns="http://www.w3.org/2000/svg" xmlns:xlink="http://www.w3.org/1999/xlink" x="0px" y="0px"
	 width="32px" height="32px" viewBox="0 0 32 32" style="enable-background:new 0 0 32 32;" xml:space="preserve">
<path d="M15,27.4l11.2-11.2c1.4-1.4,2.2-3,2.4-4.6c0.1-1.6-0.3-3-1.2-4.2c-0.9-1.2-2.2-2-3.7-2.3c-0.3-0.1-0.7-0.1-1.1-0.1
	c-0.5,0-1.1,0.1-1.6,0.2c-0.5,0.2-1,0.3-1.3,0.5c-0.4,0.2-0.8,0.5-1.3,0.9c-0.5,0.4-0.9,0.7-1.1,1C16.9,8,16.5,8.4,16,8.9
	c-6,6-9.1,9.1-9.3,9.3c-0.5,0.4-0.8,0.8-1.1,1c-0.2,0.2-0.5,0.6-0.9,1c-0.4,0.4-0.6,0.8-0.8,1.1S3.7,22,3.6,22.4
	c-0.1,0.4-0.1,0.9,0,1.3c0.1,1,0.6,1.7,1.3,2.3c0.7,0.5,1.5,0.8,2.4,0.8c1.2,0,2.2-0.4,3-1.2l13.1-13.1c0.6-0.6,0.7-1.2,0.5-1.8
	c-0.1-0.3-0.3-0.5-0.5-0.6C23,10,22.7,9.9,22.4,9.9c-0.4,0-0.8,0.2-1.2,0.5c-0.2,0.2-0.5,0.5-0.9,0.9l-8.1,8.1
	c-0.2,0.2-0.5,0.4-0.8,0.4c-0.3,0-0.6-0.1-0.8-0.3s-0.3-0.5-0.3-0.8s0.1-0.6,0.3-0.8c5.2-5.3,8.1-8.2,8.6-8.8c0.6-0.6,1.1-1,1.6-1.2
	c0.5-0.3,1.1-0.4,1.9-0.4c0.2,0,0.5,0,0.7,0C24,7.6,24.6,7.8,25,8.3c0.5,0.4,0.8,1,1,1.6c0.2,0.7,0.2,1.5,0,2.3
	c-0.2,0.8-0.6,1.5-1.1,2c-0.2,0.2-0.4,0.4-0.8,0.8c-0.3,0.3-0.9,1-1.9,1.9c-0.9,1-1.9,1.9-2.7,2.7s-1.9,1.9-3,2.9
	c-1.1,1.1-2.1,2-2.9,2.8c-0.9,0.8-1.6,1.5-2.3,2.1c-0.7,0.6-1.1,1-1.4,1.1c-0.9,0.4-1.8,0.6-2.9,0.6c-1.1,0-2.1-0.3-3.1-0.8
	c-0.9-0.5-1.7-1.2-2.2-2.1c-0.8-1.2-1-2.6-0.8-4.1c0.2-1.5,0.9-2.8,1.9-3.9L15.2,6.2c1.1-1.1,2-1.9,2.6-2.3c1.4-0.9,3-1.3,4.7-1.3
	c1.3,0,2.5,0.3,3.6,0.8c1.2,0.6,2.3,1.4,3.1,2.5c0.8,1.1,1.3,2.3,1.6,3.7c0.3,1.5,0.2,2.9-0.3,4.4c-0.4,1.4-1.2,2.7-2.2,3.7L16.9,29
	c-0.2,0.2-0.5,0.4-0.9,0.4c-0.3,0-0.6-0.1-0.9-0.3c-0.3-0.2-0.4-0.5-0.4-0.8C14.7,27.9,14.8,27.7,15,27.4z"/>
</svg>
