<?xml version="1.0" encoding="utf-8"?>
<!-- Generator: Adobe Illustrator 22.1.0, SVG Export Plug-In . SVG Version: 6.00 Build 0)  -->
<svg version="1.1" id="Ebene_1" xmlns="http://www.w3.org/2000/svg" xmlns:xlink="http://www.w3.org/1999/xlink" x="0px" y="0px"
	 width="32px" height="32px" viewBox="0 0 32 32" style="enable-background:new 0 0 32 32;" xml:space="preserve">
<path d="M8,4h5.3c0.4,0,0.7,0.1,0.9,0.4s0.4,0.6,0.4,0.9v21.3c0,0.4-0.1,0.7-0.4,0.9C14,27.9,13.7,28,13.3,28H8
	c-0.4,0-0.7-0.1-0.9-0.4S6.7,27,6.7,26.7V5.3c0-0.4,0.1-0.7,0.4-0.9C7.3,4.1,7.6,4,8,4z M18.7,4H24c0.4,0,0.7,0.1,0.9,0.4
	c0.3,0.3,0.4,0.6,0.4,0.9v21.3c0,0.4-0.1,0.7-0.4,0.9C24.7,27.9,24.4,28,24,28h-5.3c-0.4,0-0.7-0.1-0.9-0.4
	c-0.3-0.3-0.4-0.6-0.4-0.9V5.3c0-0.4,0.1-0.7,0.4-0.9C18,4.1,18.3,4,18.7,4z"/>
</svg>
