<?xml version="1.0" encoding="utf-8"?>
<!-- Generator: Adobe Illustrator 22.1.0, SVG Export Plug-In . SVG Version: 6.00 Build 0)  -->
<svg version="1.1" id="Ebene_1" xmlns="http://www.w3.org/2000/svg" xmlns:xlink="http://www.w3.org/1999/xlink" x="0px" y="0px"
	 width="32px" height="32px" viewBox="0 0 32 32" style="enable-background:new 0 0 32 32;" xml:space="preserve">
<path d="M16.1,1c1.4,0,2.8,0.1,4,0.4s2.3,0.6,3.2,0.9c0.8,0.4,1.5,0.8,2,1.2S26,4.3,26,4.7v23.8c0,0.7-0.2,1.3-0.7,1.8
	c-0.5,0.5-1.1,0.7-1.8,0.7h-15c-0.7,0-1.3-0.2-1.8-0.7C6.2,29.8,6,29.2,6,28.5V4.7c0-0.3,0.3-0.7,0.8-1.2s1.2-0.8,2-1.2
	s1.9-0.7,3.2-0.9C13.3,1.1,14.7,1,16.1,1z M8.5,6v17.5h15V6C23.5,6,8.5,6,8.5,6z M16,24.7c-0.7,0-1.3,0.3-1.8,0.8
	c-0.5,0.5-0.8,1.1-0.8,1.8c0,0.7,0.3,1.3,0.8,1.8c0.5,0.5,1.1,0.8,1.8,0.8c0.7,0,1.3-0.3,1.8-0.8c0.5-0.5,0.8-1.1,0.8-1.8
	c0-0.7-0.3-1.3-0.8-1.8C17.3,24.9,16.7,24.7,16,24.7z"/>
</svg>
