<?xml version="1.0" encoding="utf-8"?>
<!-- Generator: Adobe Illustrator 22.1.0, SVG Export Plug-In . SVG Version: 6.00 Build 0)  -->
<svg version="1.1" id="Ebene_1" xmlns="http://www.w3.org/2000/svg" xmlns:xlink="http://www.w3.org/1999/xlink" x="0px" y="0px"
	 width="32px" height="32px" viewBox="0 0 32 32" style="enable-background:new 0 0 32 32;" xml:space="preserve">
<path d="M16,2.3c1.5,0,3,0.1,4.4,0.3s2.6,0.4,3.5,0.7c1,0.3,1.9,0.6,2.7,0.9c0.8,0.3,1.5,0.7,2,1c0.5,0.3,1,0.6,1.3,0.9
	c0.4,0.3,0.6,0.5,0.8,0.7L31,7v5c0,0.3-0.1,0.6-0.4,0.8c-0.2,0.2-0.5,0.3-0.9,0.2l-5-0.9c-0.3,0-0.6-0.2-0.9-0.5s-0.4-0.6-0.4-0.9
	V7.1c-2.3-0.4-4.8-0.6-7.5-0.6s-5.1,0.2-7.5,0.6v3.6c0,0.3-0.1,0.7-0.4,0.9c-0.2,0.3-0.5,0.4-0.9,0.5l-5,0.9c-0.3,0-0.6,0-0.9-0.2
	S1,12.3,1,12V7c0-0.1,0.1-0.2,0.2-0.3C1.3,6.6,1.6,6.4,2,6c0.4-0.3,0.9-0.6,1.3-0.9s1.2-0.6,2-1s1.8-0.7,2.7-0.9s2.1-0.5,3.5-0.7
	C13,2.3,14.5,2.3,16,2.3L16,2.3z M16,9.9c0.9,0,1.7,0.1,2.4,0.2c0.7,0.2,1.2,0.4,1.5,0.6s0.6,0.5,0.7,0.7c0.2,0.2,0.3,0.4,0.3,0.6
	l0,0.3v1.2l9.1,7.6c0.2,0.2,0.4,0.6,0.6,1s0.3,0.8,0.3,1.1v5.3c0,0.3-0.1,0.6-0.4,0.9c-0.2,0.2-0.5,0.4-0.9,0.4H2.3
	c-0.3,0-0.6-0.1-0.9-0.4S1,28.8,1,28.5v-5.3c0-0.3,0.1-0.7,0.3-1.1c0.2-0.4,0.4-0.8,0.6-1l9.1-7.6v-1.2c0-0.1,0-0.2,0-0.3
	c0-0.1,0.1-0.3,0.3-0.6c0.2-0.3,0.4-0.5,0.7-0.7s0.8-0.4,1.5-0.6S15.1,9.9,16,9.9L16,9.9z"/>
</svg>
