<svg fill="currentColor" xmlns="http://www.w3.org/2000/svg" width="32" height="32" viewBox="0 0 32 32"><path d="M16 2.3c1.5 0 3 .1 4.4.3s2.6.4 3.5.7c1 .3 1.9.6 2.7.9.8.3 1.5.7 2 1 .5.3 1 .6 1.3.9.4.3.6.5.8.7l.3.2v5c0 .3-.1.6-.4.8-.2.2-.5.3-.9.2l-5-.9c-.3 0-.6-.2-.9-.5s-.4-.6-.4-.9V7.1c-2.3-.4-4.8-.6-7.5-.6s-5.1.2-7.5.6v3.6c0 .3-.1.7-.4.9-.2.3-.5.4-.9.5l-5 .9c-.3 0-.6 0-.9-.2S1 12.3 1 12V7c0-.1.1-.2.2-.3.1-.1.4-.3.8-.7.4-.3.9-.6 1.3-.9s1.2-.6 2-1 1.8-.7 2.7-.9 2.1-.5 3.5-.7c1.5-.2 3-.2 4.5-.2zm0 7.6c.9 0 1.7.1 2.4.2.7.2 1.2.4 1.5.6s.6.5.7.7c.2.2.3.4.3.6v1.5l9.1 7.6c.2.2.4.6.6 1s.3.8.3 1.1v5.3c0 .3-.1.6-.4.9-.2.2-.5.4-.9.4H2.3c-.3 0-.6-.1-.9-.4s-.4-.6-.4-.9v-5.3c0-.3.1-.7.3-1.1.2-.4.4-.8.6-1l9.1-7.6V12c0-.1.1-.3.3-.6.2-.3.4-.5.7-.7s.8-.4 1.5-.6 1.6-.2 2.5-.2z"/></svg>