<?xml version="1.0" encoding="utf-8"?>
<!-- Generator: Adobe Illustrator 22.1.0, SVG Export Plug-In . SVG Version: 6.00 Build 0)  -->
<svg version="1.1" id="Ebene_1" xmlns="http://www.w3.org/2000/svg" xmlns:xlink="http://www.w3.org/1999/xlink" x="0px" y="0px"
	 width="32px" height="32px" viewBox="0 0 32 32" style="enable-background:new 0 0 32 32;" xml:space="preserve">
<path d="M2.1,2.2h27.8c0.3,0,0.6,0.1,0.8,0.3S31,3.1,31,3.4v25.3c0,0.3-0.1,0.6-0.3,0.8c-0.2,0.2-0.5,0.3-0.8,0.3H2.1
	c-0.3,0-0.6-0.1-0.8-0.3C1.1,29.2,1,28.9,1,28.6V3.4c0-0.3,0.1-0.6,0.3-0.8C1.5,2.4,1.8,2.2,2.1,2.2z M3.5,4.7v18.4l6.2-4.5l7.5,3.3
	L15.3,18l7.3-7.9l5.9,7.2V4.7C28.5,4.7,3.5,4.7,3.5,4.7z M9.6,7.6c0.9,0,1.7,0.3,2.4,1c0.6,0.6,1,1.4,1,2.4c0,0.9-0.3,1.7-1,2.4
	c-0.6,0.7-1.4,1-2.4,1c-0.9,0-1.7-0.3-2.4-1c-0.6-0.7-1-1.4-1-2.4c0-0.9,0.3-1.7,1-2.4S8.6,7.6,9.6,7.6z"/>
</svg>
