<?xml version="1.0" encoding="utf-8"?>
<!-- Generator: Adobe Illustrator 22.1.0, SVG Export Plug-In . SVG Version: 6.00 Build 0)  -->
<svg version="1.1" id="Ebene_1" xmlns="http://www.w3.org/2000/svg" xmlns:xlink="http://www.w3.org/1999/xlink" x="0px" y="0px"
	 width="32px" height="32px" viewBox="0 0 32 32" style="enable-background:new 0 0 32 32;" xml:space="preserve">
<path d="M16,1c1,0,1.9,0.4,2.7,1.1c0.7,0.7,1.1,1.6,1.1,2.7v8.6l9.2,8.2c0.3,0.2,0.5,0.6,0.7,1s0.3,0.8,0.3,1.1v1
	c0,0.3-0.1,0.6-0.3,0.7c-0.2,0.1-0.4,0.1-0.7-0.1L19.8,19v6.7c1.7,1.6,2.5,2.5,2.5,2.9v1.6c0,0.4-0.1,0.6-0.3,0.7
	c-0.2,0.1-0.5,0.1-0.8,0L16,27.6l-5.2,3.2c-0.3,0.2-0.6,0.2-0.8,0c-0.2-0.1-0.3-0.4-0.3-0.7v-1.6c0-0.3,0.8-1.3,2.5-2.9V19l-9.1,6.3
	c-0.3,0.2-0.5,0.2-0.7,0.1c-0.2-0.1-0.3-0.3-0.3-0.7v-1c0-0.3,0.1-0.7,0.3-1.1c0.2-0.4,0.4-0.7,0.7-1l9.2-8.2V4.8
	c0-1,0.4-1.9,1.1-2.7C14.1,1.4,15,1,16,1z"/>
</svg>
