<svg fill="currentColor" xmlns="http://www.w3.org/2000/svg" width="32" height="32" viewBox="0 0 32 32"><path d="M16 1c1 0 1.9.4 2.7 1.1.7.7 1.1 1.6 1.1 2.7v8.6l9.2 8.2c.3.2.5.6.7 1s.3.8.3 1.1v1c0 .3-.1.6-.3.7-.2.1-.4.1-.7-.1L19.8 19v6.7c1.7 1.6 2.5 2.5 2.5 2.9v1.6c0 .4-.1.6-.3.7-.2.1-.5.1-.8 0L16 27.6l-5.2 3.2c-.3.2-.6.2-.8 0-.2-.1-.3-.4-.3-.7v-1.6c0-.3.8-1.3 2.5-2.9V19l-9.1 6.3c-.3.2-.5.2-.7.1-.2-.1-.3-.3-.3-.7v-1c0-.3.1-.7.3-1.1.2-.4.4-.7.7-1l9.2-8.2V4.8c0-1 .4-1.9 1.1-2.7C14.1 1.4 15 1 16 1z"/></svg>