<?xml version="1.0" encoding="utf-8"?>
<!-- Generator: Adobe Illustrator 22.1.0, SVG Export Plug-In . SVG Version: 6.00 Build 0)  -->
<svg version="1.1" id="Ebene_1" xmlns="http://www.w3.org/2000/svg" xmlns:xlink="http://www.w3.org/1999/xlink" x="0px" y="0px"
	 width="32px" height="32px" viewBox="0 0 32 32" style="enable-background:new 0 0 32 32;" xml:space="preserve">
<path d="M16,1c2,0,4,0.4,5.8,1.2C23.7,3,25.3,4,26.6,5.4c1.3,1.3,2.4,2.9,3.2,4.8C30.6,12,31,14,31,16c0,2-0.4,4-1.2,5.8
	c-0.8,1.9-1.9,3.5-3.2,4.8c-1.3,1.3-2.9,2.4-4.8,3.2C20,30.6,18,31,16,31s-4-0.4-5.8-1.2C8.3,29,6.7,28,5.4,26.6
	C4,25.3,3,23.7,2.2,21.8C1.4,20,1,18,1,16s0.4-4,1.2-5.8S4,6.7,5.4,5.4S8.3,3,10.2,2.2S14,1,16,1z M16,4.9c-2,0-3.9,0.5-5.6,1.5
	s-3.1,2.3-4,4S4.9,14,4.9,16s0.5,3.9,1.5,5.6c1,1.7,2.3,3.1,4,4c1.7,1,3.6,1.5,5.6,1.5s3.9-0.5,5.6-1.5c1.7-1,3.1-2.3,4-4
	c1-1.7,1.5-3.6,1.5-5.6c0-2-0.5-3.9-1.5-5.6s-2.3-3.1-4-4C19.9,5.4,18,4.9,16,4.9z M14.4,10.3l6.6,4.9c0.3,0.2,0.4,0.5,0.4,0.8
	c0,0.3-0.1,0.6-0.4,0.8l-6.6,4.9c-0.3,0.2-0.5,0.3-0.7,0.2s-0.3-0.3-0.3-0.7V10.8c0-0.4,0.1-0.6,0.3-0.7
	C13.9,10,14.2,10.1,14.4,10.3L14.4,10.3z"/>
</svg>
