<?xml version="1.0" encoding="utf-8"?>
<!-- Generator: Adobe Illustrator 22.1.0, SVG Export Plug-In . SVG Version: 6.00 Build 0)  -->
<svg version="1.1" id="Ebene_1" xmlns="http://www.w3.org/2000/svg" xmlns:xlink="http://www.w3.org/1999/xlink" x="0px" y="0px"
	 width="32px" height="32px" viewBox="0 0 32 32" style="enable-background:new 0 0 32 32;" xml:space="preserve">
<path d="M13.3,1.3h5.3c0.4,0,0.7,0.1,0.9,0.4C19.9,2,20,2.3,20,2.7V12h9.3c0.4,0,0.7,0.1,0.9,0.4c0.3,0.3,0.4,0.6,0.4,0.9v5.3
	c0,0.4-0.1,0.7-0.4,0.9S29.7,20,29.3,20H20v9.3c0,0.4-0.1,0.7-0.4,0.9c-0.3,0.3-0.6,0.4-0.9,0.4h-5.3c-0.4,0-0.7-0.1-0.9-0.4
	S12,29.7,12,29.3V20H2.7c-0.4,0-0.7-0.1-0.9-0.4S1.3,19,1.3,18.7v-5.3c0-0.4,0.1-0.7,0.4-0.9S2.3,12,2.7,12H12V2.7
	c0-0.4,0.1-0.7,0.4-0.9S13,1.3,13.3,1.3z"/>
</svg>
