<svg fill="currentColor" xmlns="http://www.w3.org/2000/svg" width="32" height="32" viewBox="0 0 32 32"><path d="M16 1c2 0 4 .4 5.8 1.2 1.9.8 3.5 1.8 4.8 3.2 1.3 1.3 2.4 2.9 3.2 4.8C30.6 12 31 14 31 16s-.4 4-1.2 5.8c-.8 1.9-1.9 3.5-3.2 4.8-1.3 1.3-2.9 2.4-4.8 3.2C20 30.6 18 31 16 31s-4-.4-5.8-1.2C8.3 29 6.7 28 5.4 26.6 4 25.3 3 23.7 2.2 21.8 1.4 20 1 18 1 16s.4-4 1.2-5.8S4 6.7 5.4 5.4 8.3 3 10.2 2.2 14 1 16 1zm1.3 7.2h-2.6c-.4 0-.7.1-.9.4-.3.3-.4.6-.4.9v3.9H9.5c-.4 0-.7.1-.9.4-.3.3-.4.6-.4.9v2.6c0 .4.1.7.4.9.3.3.6.4.9.4h3.9v3.9c0 .4.1.7.4.9.3.3.6.4.9.4h2.6c.4 0 .7-.1.9-.4.3-.3.4-.6.4-.9v-3.9h3.9c.4 0 .7-.1.9-.4.3-.3.4-.6.4-.9v-2.6c0-.4-.1-.7-.4-.9-.3-.3-.6-.4-.9-.4h-3.9V9.5c0-.4-.1-.7-.4-.9-.2-.3-.5-.4-.9-.4z"/></svg>