<?xml version="1.0" encoding="utf-8"?>
<!-- Generator: Adobe Illustrator 22.1.0, SVG Export Plug-In . SVG Version: 6.00 Build 0)  -->
<svg version="1.1" id="Ebene_1" xmlns="http://www.w3.org/2000/svg" xmlns:xlink="http://www.w3.org/1999/xlink" x="0px" y="0px"
	 width="32px" height="32px" viewBox="0 0 32 32" style="enable-background:new 0 0 32 32;" xml:space="preserve">
<path d="M21.5,1H10.5c-0.2,0-0.3,0.1-0.5,0.2C9.8,1.3,9.8,1.5,9.8,1.6L7.8,9.2C7.7,9.6,7.7,9.9,8,10.3L9.4,13
	c0.1,0.1,0.2,0.3,0.4,0.4c0.2,0.1,0.4,0.1,0.5,0.1h11.2c0.2,0,0.3,0,0.5-0.1c0.2-0.1,0.3-0.2,0.4-0.4l1.5-2.7
	c0.2-0.3,0.3-0.7,0.2-1.1l-2.1-7.5c0-0.2-0.1-0.3-0.2-0.4C21.9,1.1,21.7,1,21.5,1z M30.4,11h-3.7c-0.2,0-0.3,0.1-0.5,0.2
	s-0.3,0.2-0.4,0.4l-1.9,3.9c-0.1,0.1-0.2,0.3-0.4,0.4C23.2,15.9,23,16,22.9,16H9.1c-0.2,0-0.3-0.1-0.5-0.2c-0.2-0.1-0.3-0.2-0.4-0.4
	l-1.9-3.9c-0.1-0.1-0.2-0.3-0.4-0.4C5.7,11.1,5.5,11,5.4,11H1.6c-0.2,0-0.3,0.1-0.4,0.2C1.1,11.3,1,11.5,1,11.6v16.2
	c0,0.2,0.1,0.3,0.2,0.4s0.3,0.2,0.4,0.2h3.7c0.2,0,0.3-0.1,0.4-0.2C5.9,28.2,6,28,6,27.9v-3.7c0-0.2,0.1-0.3,0.2-0.4
	c0.1-0.1,0.3-0.2,0.4-0.2h18.7c0.2,0,0.3,0.1,0.4,0.2c0.1,0.1,0.2,0.3,0.2,0.4v3.7c0,0.2,0.1,0.3,0.2,0.4s0.3,0.2,0.4,0.2h3.7
	c0.2,0,0.3-0.1,0.4-0.2c0.1-0.1,0.2-0.3,0.2-0.4V11.6c0-0.2-0.1-0.3-0.2-0.4C30.7,11.1,30.5,11,30.4,11L30.4,11z M22.2,26H9.8
	c-0.2,0-0.3,0.1-0.5,0.2S9,26.4,9,26.6L8,30.4c0,0.2,0,0.3,0.1,0.4C8.2,30.9,8.3,31,8.5,31h15c0.2,0,0.3-0.1,0.4-0.2
	c0.1-0.1,0.1-0.3,0.1-0.4L23,26.6c0-0.2-0.1-0.3-0.3-0.4C22.6,26.1,22.4,26,22.2,26L22.2,26z"/>
</svg>
