<svg fill="currentColor" xmlns="http://www.w3.org/2000/svg" width="32" height="32" viewBox="0 0 32 32"><path d="M21.5 1h-11c-.2 0-.3.1-.5.2s-.2.3-.2.4l-2 7.6c-.1.4-.1.7.2 1.1L9.4 13c.1.1.2.3.4.4.2.1.4.1.5.1h11.2c.2 0 .3 0 .5-.1s.3-.2.4-.4l1.5-2.7c.2-.3.3-.7.2-1.1L22 1.7c0-.2-.1-.3-.2-.4.1-.2-.1-.3-.3-.3zm8.9 10h-3.7c-.2 0-.3.1-.5.2s-.3.2-.4.4l-1.9 3.9c-.1.1-.2.3-.4.4-.3 0-.5.1-.6.1H9.1c-.2 0-.3-.1-.5-.2s-.3-.2-.4-.4l-1.9-3.9c-.1-.1-.2-.3-.4-.4-.2 0-.4-.1-.5-.1H1.6c-.2 0-.3.1-.4.2-.1.1-.2.3-.2.4v16.2c0 .2.1.3.2.4s.3.2.4.2h3.7c.2 0 .3-.1.4-.2.2 0 .3-.2.3-.3v-3.7c0-.2.1-.3.2-.4.1-.1.3-.2.4-.2h18.7c.2 0 .3.1.4.2.1.1.2.3.2.4v3.7c0 .2.1.3.2.4s.3.2.4.2h3.7c.2 0 .3-.1.4-.2.1-.1.2-.3.2-.4V11.6c0-.2-.1-.3-.2-.4.1-.1-.1-.2-.2-.2zm-8.2 15H9.8c-.2 0-.3.1-.5.2s-.3.2-.3.4l-1 3.8c0 .2 0 .3.1.4.1.1.2.2.4.2h15c.2 0 .3-.1.4-.2.1-.1.1-.3.1-.4l-1-3.8c0-.2-.1-.3-.3-.4-.1-.1-.3-.2-.5-.2z"/></svg>