<?xml version="1.0" encoding="utf-8"?>
<!-- Generator: Adobe Illustrator 22.1.0, SVG Export Plug-In . SVG Version: 6.00 Build 0)  -->
<svg version="1.1" id="Ebene_1" xmlns="http://www.w3.org/2000/svg" xmlns:xlink="http://www.w3.org/1999/xlink" x="0px" y="0px"
	 width="32px" height="32px" viewBox="0 0 32 32" style="enable-background:new 0 0 32 32;" xml:space="preserve">
<path d="M23.5,1.4l7.1,7C30.9,8.7,31,9,31,9.3c0,0.4-0.1,0.6-0.4,0.9c-0.2,0.2-0.5,0.4-0.9,0.4s-0.6-0.1-0.9-0.4L28,9.3L21,16v7.5
	l-5.3-5.3L8,25.9L1,31l5.1-7l7.7-7.7L8.5,11H16l6.7-7l-0.9-0.9c-0.3-0.2-0.4-0.5-0.4-0.9c0-0.4,0.1-0.6,0.4-0.9
	C22,1.1,22.3,1,22.7,1S23.3,1.1,23.5,1.4L23.5,1.4z"/>
</svg>
