<svg fill="currentColor" xmlns="http://www.w3.org/2000/svg" width="32" height="32" viewBox="0 0 32 32"><path d="M13.5 8.5H16V11h-2.5v2.5h-10V16H1V1h12.5v7.5zm17.5 5h-5V16h5v5h-7.5v-7.5h-5V6H16V1h15v12.5zM3.5 3.5V11H11V3.5H3.5zm17.5 0V11h7.5V3.5H21zm-12.5 5H6V6h2.5v2.5zm17.5 0h-2.5V6H26v2.5zm-17.5 10h5V31H1V18.5h5V16h2.5v2.5zm12.5 5h5V26h-2.5v2.5h-5V26H16v-2.5h2.5v-5h-5V16H21v7.5zM3.5 21v7.5H11V21H3.5zm5 5H6v-2.5h2.5V26zM31 26h-2.5v-2.5H31V26zm-12.5 5H16v-2.5h2.5V31zM31 31h-7.5v-2.5H31V31z"/></svg>