<?xml version="1.0" encoding="utf-8"?>
<!-- Generator: Adobe Illustrator 22.1.0, SVG Export Plug-In . SVG Version: 6.00 Build 0)  -->
<svg version="1.1" id="Ebene_1" xmlns="http://www.w3.org/2000/svg" xmlns:xlink="http://www.w3.org/1999/xlink" x="0px" y="0px"
	 width="32px" height="32px" viewBox="0 0 32 32" style="enable-background:new 0 0 32 32;" xml:space="preserve">
<path d="M16,1c2,0,4,0.4,5.8,1.2s3.5,1.9,4.8,3.2c1.3,1.3,2.4,2.9,3.2,4.8S31,14,31,16c0,2-0.4,4-1.2,5.8c-0.8,1.9-1.9,3.5-3.2,4.8
	s-2.9,2.4-4.8,3.2S18,31,16,31s-4-0.4-5.8-1.2S6.7,28,5.4,26.6S3,23.7,2.2,21.8C1.4,20,1,18,1,16s0.4-4,1.2-5.8S4,6.7,5.4,5.4
	S8.3,3,10.2,2.2S14,1,16,1z M15.7,7.1c-0.5,0-1,0-1.5,0.1s-1.1,0.3-1.6,0.5c-0.6,0.3-1.1,0.6-1.5,1c-0.4,0.4-0.8,1-1.1,1.6
	c-0.3,0.7-0.4,1.5-0.4,2.3c0,0.4,0.2,0.7,0.5,0.7h3.4c0.5,0.1,0.8,0,0.9-0.3c0.1-0.3,0.3-0.6,0.5-0.7c0.3-0.1,0.6-0.2,1.2-0.2
	c0.3,0,0.6,0.1,0.8,0.3c0.2,0.2,0.3,0.4,0.3,0.7c0,0.4-0.1,0.7-0.2,0.9c-0.1,0.2-0.3,0.3-0.7,0.5c0,0-0.1,0-0.4,0.1
	c-0.2,0.1-0.4,0.1-0.5,0.2c-0.1,0.1-0.3,0.2-0.5,0.3c-0.2,0.1-0.4,0.3-0.6,0.4c-0.2,0.2-0.3,0.4-0.5,0.6c-0.2,0.2-0.3,0.5-0.4,0.9
	c-0.1,0.4-0.2,0.8-0.2,1.2c0,0.1,0,0.3,0.1,0.4c0.1,0.1,0.3,0.2,0.5,0.2h4.5c0.1,0,0.3-0.1,0.6-0.2c0.3-0.1,0.6-0.4,0.9-0.7
	s0.7-0.8,1-1.2c0.3-0.5,0.6-1.1,0.8-1.9c0.2-0.8,0.3-1.7,0.3-2.6c0-0.8-0.1-1.5-0.4-2.2S20.9,9,20.4,8.6c-0.4-0.4-1-0.7-1.5-0.9
	c-0.6-0.2-1.1-0.4-1.7-0.5S16.2,7.1,15.7,7.1L15.7,7.1z M17.9,21.2h-3.9c-0.2,0-0.3,0.1-0.5,0.2c-0.1,0.1-0.2,0.3-0.2,0.5v3.9
	c0,0.2,0.1,0.3,0.2,0.5c0.1,0.1,0.3,0.2,0.5,0.2h3.9c0.2,0,0.3-0.1,0.5-0.2s0.2-0.3,0.2-0.5v-3.9c0-0.2-0.1-0.3-0.2-0.5
	S18.1,21.2,17.9,21.2z"/>
</svg>
