<svg fill="currentColor" xmlns="http://www.w3.org/2000/svg" width="32" height="32" viewBox="0 0 32 32"><path d="M16 1c2 0 4 .4 5.8 1.2s3.5 1.9 4.8 3.2c1.3 1.3 2.4 2.9 3.2 4.8S31 14 31 16s-.4 4-1.2 5.8c-.8 1.9-1.9 3.5-3.2 4.8s-2.9 2.4-4.8 3.2S18 31 16 31s-4-.4-5.8-1.2-3.5-1.8-4.8-3.2-2.4-2.9-3.2-4.8C1.4 20 1 18 1 16s.4-4 1.2-5.8S4 6.7 5.4 5.4 8.3 3 10.2 2.2 14 1 16 1zm-.3 6.1c-.5 0-1 0-1.5.1s-1.1.3-1.6.5c-.6.3-1.1.6-1.5 1-.4.4-.8 1-1.1 1.6-.3.7-.4 1.5-.4 2.3 0 .4.2.7.5.7h3.4c.5.1.8 0 .9-.3.1-.3.3-.6.5-.7.3-.1.6-.2 1.2-.2.3 0 .6.1.8.3.2.2.3.4.3.7 0 .4-.1.7-.2.9-.1.2-.3.3-.7.5 0 0-.1 0-.4.1-.2.1-.4.1-.5.2-.1.1-.3.2-.5.3-.2.1-.4.3-.6.4-.2.2-.3.4-.5.6-.2.2-.3.5-.4.9-.1.4-.2.8-.2 1.2 0 .1 0 .3.1.4.1.1.3.2.5.2h4.5c.1 0 .3-.1.6-.2s.6-.4.9-.7.7-.8 1-1.2c.3-.5.6-1.1.8-1.9.2-.8.3-1.7.3-2.6 0-.8-.1-1.5-.4-2.2s-.6-1-1.1-1.4c-.4-.4-1-.7-1.5-.9-.6-.2-1.1-.4-1.7-.5s-1-.1-1.5-.1zm2.2 14.1H14c-.2 0-.3.1-.5.2-.1.1-.2.3-.2.5v3.9c0 .2.1.3.2.5.1.1.3.2.5.2h3.9c.2 0 .3-.1.5-.2s.2-.3.2-.5v-3.9c0-.2-.1-.3-.2-.5s-.3-.2-.5-.2z"/></svg>