<?xml version="1.0" encoding="utf-8"?>
<!-- Generator: Adobe Illustrator 22.1.0, SVG Export Plug-In . SVG Version: 6.00 Build 0)  -->
<svg version="1.1" id="Ebene_1" xmlns="http://www.w3.org/2000/svg" xmlns:xlink="http://www.w3.org/1999/xlink" x="0px" y="0px"
	 width="32px" height="32px" viewBox="0 0 32 32" style="enable-background:new 0 0 32 32;" xml:space="preserve">
<path d="M25.3,3.9l5.3,4.9C30.9,9,31,9.3,31,9.6s-0.1,0.6-0.3,0.8l-5.3,4.9c-0.2,0.2-0.4,0.3-0.5,0.2c-0.2-0.1-0.2-0.2-0.2-0.5v-3.2
	h-3.4L8.3,24.6H2.1c-0.3,0-0.6-0.1-0.8-0.3C1.1,24.1,1,23.8,1,23.5v-2.1c0-0.3,0.1-0.6,0.3-0.8s0.5-0.3,0.8-0.3h4.5L19.4,7.4h5.2
	V4.2c0-0.3,0.1-0.5,0.2-0.5C25,3.6,25.1,3.7,25.3,3.9L25.3,3.9z M12.2,11.3l-3,3l-2.6-2.6H2.1c-0.3,0-0.6-0.1-0.8-0.3S1,10.9,1,10.6
	V8.5c0-0.3,0.1-0.6,0.3-0.8c0.2-0.2,0.5-0.3,0.8-0.3h6.2L12.2,11.3z M25.3,16.8l5.3,4.9c0.2,0.2,0.3,0.5,0.3,0.8
	c0,0.3-0.1,0.6-0.3,0.8l-5.3,4.9c-0.2,0.2-0.4,0.3-0.5,0.2c-0.2-0.1-0.2-0.2-0.2-0.5v-3.2h-5.2l-3.9-3.9l3-3l2.6,2.6h3.4v-3.2
	c0-0.3,0.1-0.5,0.2-0.5S25.1,16.6,25.3,16.8L25.3,16.8z"/>
</svg>
