<svg fill="currentColor" xmlns="http://www.w3.org/2000/svg" width="32" height="32" viewBox="0 0 32 32"><path d="M25.3 3.9l5.3 4.9c.3.2.4.5.4.8s-.1.6-.3.8l-5.3 4.9c-.2.2-.4.3-.5.2-.2-.1-.2-.2-.2-.5v-3.2h-3.4l-13 12.8H2.1c-.3 0-.6-.1-.8-.3-.2-.2-.3-.5-.3-.8v-2.1c0-.3.1-.6.3-.8s.5-.3.8-.3h4.5L19.4 7.4h5.2V4.2c0-.3.1-.5.2-.5.2-.1.3 0 .5.2zm-13.1 7.4l-3 3-2.6-2.6H2.1c-.3 0-.6-.1-.8-.3s-.3-.5-.3-.8V8.5c0-.3.1-.6.3-.8.2-.2.5-.3.8-.3h6.2l3.9 3.9zm13.1 5.5l5.3 4.9c.2.2.3.5.3.8 0 .3-.1.6-.3.8l-5.3 4.9c-.2.2-.4.3-.5.2-.2-.1-.2-.2-.2-.5v-3.2h-5.2l-3.9-3.9 3-3 2.6 2.6h3.4v-3.2c0-.3.1-.5.2-.5s.4-.1.6.1z"/></svg>