<?xml version="1.0" encoding="utf-8"?>
<!-- Generator: Adobe Illustrator 22.1.0, SVG Export Plug-In . SVG Version: 6.00 Build 0)  -->
<svg version="1.1" id="Ebene_1" xmlns="http://www.w3.org/2000/svg" xmlns:xlink="http://www.w3.org/1999/xlink" x="0px" y="0px"
	 width="32px" height="32px" viewBox="0 0 32 32" style="enable-background:new 0 0 32 32;" xml:space="preserve">
<path d="M16,1c2,0,4,0.4,5.8,1.2s3.4,1.9,4.8,3.2c1.3,1.3,2.4,2.9,3.2,4.8C30.6,12,31,14,31,16c0,2-0.4,4-1.2,5.8
	c-0.8,1.9-1.9,3.4-3.2,4.8c-1.3,1.3-2.9,2.4-4.8,3.2C20,30.6,18,31,16,31s-4-0.4-5.8-1.2c-1.9-0.8-3.4-1.9-4.8-3.2S3,23.7,2.2,21.8
	C1.4,20,1,18,1,16c0-2,0.4-4,1.2-5.8s1.9-3.4,3.2-4.8S8.3,3,10.2,2.2S14,1,16,1z M16,5.2c-2,0-3.8,0.5-5.4,1.4s-3,2.3-3.9,3.9
	S5.2,14,5.2,16c0,2,0.5,3.8,1.4,5.4s2.3,3,3.9,3.9s3.5,1.4,5.4,1.4s3.8-0.5,5.4-1.4s3-2.3,3.9-3.9c1-1.7,1.4-3.5,1.4-5.4
	c0-2-0.5-3.8-1.4-5.4s-2.3-3-3.9-3.9S18,5.2,16,5.2z M16,11c1.4,0,2.5,0.5,3.5,1.5c1,1,1.5,2.1,1.5,3.5c0,1.4-0.5,2.5-1.5,3.5
	c-1,1-2.1,1.5-3.5,1.5c-1.4,0-2.5-0.5-3.5-1.5c-1-1-1.5-2.1-1.5-3.5s0.5-2.5,1.5-3.5S14.6,11,16,11z"/>
</svg>
