<svg fill="currentColor" xmlns="http://www.w3.org/2000/svg" width="32" height="32" viewBox="0 0 32 32"><path d="M16 1c2 0 4 .4 5.8 1.2s3.4 1.9 4.8 3.2c1.3 1.3 2.4 2.9 3.2 4.8C30.6 12 31 14 31 16s-.4 4-1.2 5.8c-.8 1.9-1.9 3.4-3.2 4.8-1.3 1.3-2.9 2.4-4.8 3.2C20 30.6 18 31 16 31s-4-.4-5.8-1.2c-1.9-.8-3.4-1.9-4.8-3.2S3 23.7 2.2 21.8C1.4 20 1 18 1 16s.4-4 1.2-5.8 1.9-3.4 3.2-4.8S8.3 3 10.2 2.2 14 1 16 1zm0 4.2c-2 0-3.8.5-5.4 1.4s-3 2.3-3.9 3.9S5.2 14 5.2 16s.5 3.8 1.4 5.4 2.3 3 3.9 3.9 3.5 1.4 5.4 1.4 3.8-.5 5.4-1.4 3-2.3 3.9-3.9c1-1.7 1.4-3.5 1.4-5.4 0-2-.5-3.8-1.4-5.4s-2.3-3-3.9-3.9S18 5.2 16 5.2zm0 5.8c1.4 0 2.5.5 3.5 1.5S21 14.6 21 16s-.5 2.5-1.5 3.5S17.4 21 16 21s-2.5-.5-3.5-1.5S11 17.4 11 16s.5-2.5 1.5-3.5S14.6 11 16 11z"/></svg>