<?xml version="1.0" encoding="utf-8"?>
<!-- Generator: Adobe Illustrator 22.1.0, SVG Export Plug-In . SVG Version: 6.00 Build 0)  -->
<svg version="1.1" id="Ebene_1" xmlns="http://www.w3.org/2000/svg" xmlns:xlink="http://www.w3.org/1999/xlink" x="0px" y="0px"
	 width="32px" height="32px" viewBox="0 0 32 32" style="enable-background:new 0 0 32 32;" xml:space="preserve">
<path d="M24.7,4.5l3.4-3.4C28.2,1,28.3,1,28.4,1c0.1,0,0.1,0.1,0.1,0.3v9c0,0.2-0.1,0.3-0.2,0.5C28.2,11,28,11,27.9,11h-9
	c-0.2,0-0.3,0-0.3-0.1s0-0.2,0.1-0.3L22,7.2c-1.8-1.3-3.8-1.9-6-1.9c-1.9,0-3.7,0.5-5.4,1.4S7.7,9,6.7,10.7S5.3,14.1,5.3,16H1.6
	c0-2,0.4-3.8,1.1-5.6s1.8-3.3,3.1-4.6s2.8-2.3,4.6-3.1S14,1.6,16,1.6C19.2,1.6,22.1,2.6,24.7,4.5L24.7,4.5z M26.7,16h3.8
	c0,2-0.4,3.8-1.1,5.6c-0.8,1.8-1.8,3.3-3.1,4.6c-1.3,1.3-2.8,2.3-4.6,3.1S18,30.4,16,30.4c-3.2,0-6.1-1-8.7-3l-3.4,3.4
	C3.8,31,3.7,31,3.6,31c-0.1,0-0.1-0.1-0.1-0.3v-9c0-0.2,0.1-0.3,0.2-0.5C3.8,21.1,4,21,4.1,21h9c0.2,0,0.3,0,0.3,0.1
	c0,0.1,0,0.2-0.1,0.3L10,24.8c1.8,1.3,3.8,1.9,6,1.9c1.9,0,3.7-0.5,5.4-1.4c1.6-1,2.9-2.2,3.9-3.9C26.2,19.7,26.7,18,26.7,16z"/>
</svg>
