<svg fill="currentColor" xmlns="http://www.w3.org/2000/svg" width="32" height="32" viewBox="0 0 32 32"><path d="M24.7 4.5l3.4-3.4c.1-.1.2-.1.3-.1.1 0 .1.1.1.3v9c0 .2-.1.3-.2.5s-.3.2-.4.2h-9c-.2 0-.3 0-.3-.1s0-.2.1-.3L22 7.2c-1.8-1.3-3.8-1.9-6-1.9-1.9 0-3.7.5-5.4 1.4s-2.9 2.3-3.9 4-1.4 3.4-1.4 5.3H1.6c0-2 .4-3.8 1.1-5.6s1.8-3.3 3.1-4.6 2.8-2.3 4.6-3.1S14 1.6 16 1.6c3.2 0 6.1 1 8.7 2.9zm2 11.5h3.8c0 2-.4 3.8-1.1 5.6-.8 1.8-1.8 3.3-3.1 4.6-1.3 1.3-2.8 2.3-4.6 3.1S18 30.4 16 30.4c-3.2 0-6.1-1-8.7-3l-3.4 3.4c-.1.2-.2.2-.3.2-.1 0-.1-.1-.1-.3v-9c0-.2.1-.3.2-.5.1-.1.3-.2.4-.2h9c.2 0 .3 0 .3.1s0 .2-.1.3L10 24.8c1.8 1.3 3.8 1.9 6 1.9 1.9 0 3.7-.5 5.4-1.4 1.6-1 2.9-2.2 3.9-3.9.9-1.7 1.4-3.4 1.4-5.4z"/></svg>