<svg fill="currentColor" xmlns="http://www.w3.org/2000/svg" width="32" height="32" viewBox="0 0 32 32"><path d="M16 1c2 0 4 .4 5.8 1.2s3.5 1.9 4.8 3.2c1.3 1.3 2.4 2.9 3.2 4.8S31 14 31 16s-.4 4-1.2 5.8c-.8 1.9-1.9 3.5-3.2 4.8s-2.9 2.4-4.8 3.2S18 31 16 31s-4-.4-5.8-1.2-3.5-1.8-4.8-3.2-2.4-2.9-3.2-4.8C1.4 20 1 18 1 16s.4-4 1.2-5.8S4 6.7 5.4 5.4 8.3 3 10.2 2.2 14 1 16 1zm3.7 6.9c-.2 0-.4.1-.6.2L16 11.2l-3.1-3.1c-.2-.2-.3-.2-.6-.2s-.4.1-.6.2L8 11.8c-.2.2-.2.3-.2.6 0 .2.1.4.2.6l3.1 3.1L8 19.2c-.2.2-.2.3-.2.6 0 .2.1.4.2.6l3.7 3.7c.2.2.3.2.6.2s.4-.1.6-.2L16 21l3.1 3.1c.2.2.3.2.6.2s.4-.1.6-.2l3.7-3.7c.2-.2.2-.3.2-.6s-.1-.4-.2-.6L20.8 16l3.1-3.1c.2-.2.2-.3.2-.6s-.1-.4-.2-.6L20.2 8c-.1-.1-.3-.1-.5-.1z"/></svg>