<?xml version="1.0" encoding="utf-8"?>
<!-- Generator: Adobe Illustrator 22.1.0, SVG Export Plug-In . SVG Version: 6.00 Build 0)  -->
<svg version="1.1" id="Ebene_1" xmlns="http://www.w3.org/2000/svg" xmlns:xlink="http://www.w3.org/1999/xlink" x="0px" y="0px"
	 width="32px" height="32px" viewBox="0 0 32 32" style="enable-background:new 0 0 32 32;" xml:space="preserve">
<path d="M24.8,4.6l3.4-3.4C28.4,1,28.5,1,28.6,1c0.1,0,0.1,0.1,0.1,0.3v9.2c0,0.2-0.1,0.3-0.2,0.4s-0.3,0.2-0.4,0.2h-9.2
	c-0.2,0-0.3,0-0.3-0.1c0-0.1,0-0.2,0.1-0.3l3.4-3.4c-1.9-1.3-3.9-1.9-6.1-1.9c-2,0-3.8,0.5-5.5,1.5s-3,2.3-4,4
	c-1,1.7-1.5,3.5-1.5,5.5s0.5,3.8,1.5,5.5c1,1.7,2.3,3,4,4s3.5,1.5,5.5,1.5s3.8-0.5,5.5-1.5c1.7-1,3-2.3,4-4c1-1.7,1.5-3.5,1.5-5.5
	h3.8c0,2-0.4,3.9-1.2,5.7s-1.8,3.4-3.1,4.7s-2.9,2.4-4.7,3.1C19.9,30.6,18,31,16,31s-3.9-0.4-5.7-1.2S6.9,28,5.6,26.7
	S3.2,23.8,2.5,22s-1.2-3.7-1.2-5.7c0-2,0.4-3.9,1.2-5.7s1.8-3.4,3.1-4.7s2.9-2.4,4.7-3.1S14,1.6,16,1.6C19.3,1.6,22.2,2.6,24.8,4.6
	L24.8,4.6z"/>
</svg>
