<svg xmlns="http://www.w3.org/2000/svg" width="32" height="32" fill="currentColor" viewBox="0 0 32 32"><path d="m24.8 4.6 3.4-3.4c.2-.2.3-.2.4-.2s.1.1.1.3v9.2c0 .2-.1.3-.2.4s-.3.2-.4.2h-9.2c-.2 0-.3 0-.3-.1s0-.2.1-.3l3.4-3.4C20.2 6 18.2 5.4 16 5.4c-2 0-3.8.5-5.5 1.5s-3 2.3-4 4S5 14.4 5 16.4s.5 3.8 1.5 5.5 2.3 3 4 4 3.5 1.5 5.5 1.5 3.8-.5 5.5-1.5 3-2.3 4-4 1.5-3.5 1.5-5.5h3.8q0 3-1.2 5.7c-1.2 2.7-1.8 3.4-3.1 4.7s-2.9 2.4-4.7 3.1C19.9 30.6 18 31 16 31s-3.9-.4-5.7-1.2-3.4-1.8-4.7-3.1-2.4-2.9-3.1-4.7-1.2-3.7-1.2-5.7.4-3.9 1.2-5.7 1.8-3.4 3.1-4.7 2.9-2.4 4.7-3.1S14 1.6 16 1.6c3.3 0 6.2 1 8.8 3"/></svg>