<?xml version="1.0" encoding="utf-8"?>
<!-- Generator: Adobe Illustrator 22.1.0, SVG Export Plug-In . SVG Version: 6.00 Build 0)  -->
<svg version="1.1" id="Ebene_1" xmlns="http://www.w3.org/2000/svg" xmlns:xlink="http://www.w3.org/1999/xlink" x="0px" y="0px"
	 width="32px" height="32px" viewBox="0 0 32 32" style="enable-background:new 0 0 32 32;" xml:space="preserve">
<path d="M27,2.1L29.9,5c0.1,0.1,0.2,0.3,0.2,0.5S30,5.8,29.9,5.9l-6.6,6.6l2.5,2.5c0.2,0.2,0.3,0.5,0.3,0.7
	c-0.1,0.2-0.3,0.3-0.7,0.3h-8c-0.4,0-0.7-0.1-0.9-0.4S16,15,16,14.7v-8c0-0.4,0.1-0.6,0.3-0.7s0.4,0,0.7,0.3l2.5,2.5l6.6-6.6
	c0.1-0.1,0.3-0.2,0.5-0.2S26.9,2,27,2.1z M6.7,16h8c0.4,0,0.7,0.1,0.9,0.4c0.3,0.3,0.4,0.6,0.4,0.9v8c0,0.4-0.1,0.6-0.3,0.7
	c-0.2,0.1-0.4,0-0.7-0.3l-2.5-2.5l-6.6,6.6c-0.1,0.1-0.3,0.2-0.5,0.2c-0.2,0-0.3-0.1-0.5-0.2L2.1,27c-0.1-0.1-0.2-0.3-0.2-0.5
	s0.1-0.3,0.2-0.5l6.6-6.6l-2.5-2.5C6,16.7,5.9,16.5,6,16.3C6.1,16.1,6.3,16,6.7,16z"/>
</svg>
