<svg xmlns="http://www.w3.org/2000/svg" width="32" height="32" fill="currentColor" viewBox="0 0 32 32"><path d="M22.2 1h7.5c.3 0 .6.1.9.4.3.2.4.5.4.9v7.5c0 .3-.1.6-.3.6q-.3.15-.6-.3l-2.4-2.4-6.1 6.3c-.1.1-.3.2-.4.2-.2 0-.3-.1-.4-.2L18 11.4c-.1-.1-.2-.3-.2-.4s.1-.3.2-.4l6.2-6.2L21.8 2q-.3-.3-.3-.6c.2-.3.4-.4.7-.4M9.8 31H2.3c-.3 0-.6-.1-.9-.4s-.4-.5-.4-.9v-7.5c0-.3.1-.6.3-.6q.3-.15.6.3l2.4 2.4 6.2-6.2c.1-.1.3-.2.4-.2.2 0 .3.1.4.2l2.7 2.7c.1.1.2.3.2.4 0 .2-.1.3-.2.4l-6.2 6.2 2.4 2.4q.3.3.3.6c-.2.1-.4.2-.7.2"/></svg>