<svg fill="currentColor" xmlns="http://www.w3.org/2000/svg" width="32" height="32" viewBox="0 0 32 32"><path d="M27 2.1L29.9 5c.1.1.2.3.2.5s-.1.3-.2.4l-6.6 6.6 2.5 2.5c.2.2.3.5.3.7-.1.2-.3.3-.7.3h-8c-.4 0-.7-.1-.9-.4s-.5-.6-.5-.9v-8c0-.4.1-.6.3-.7s.4 0 .7.3l2.5 2.5 6.6-6.6c.1-.1.3-.2.5-.2s.3 0 .4.1zM6.7 16h8c.4 0 .7.1.9.4.3.3.4.6.4.9v8c0 .4-.1.6-.3.7-.2.1-.4 0-.7-.3l-2.5-2.5-6.6 6.6c-.1.1-.3.2-.5.2s-.3-.1-.5-.2L2.1 27c-.1-.1-.2-.3-.2-.5s.1-.3.2-.5l6.6-6.6-2.5-2.5c-.2-.2-.3-.4-.2-.6.1-.2.3-.3.7-.3z"/></svg>