<?xml version="1.0" encoding="utf-8"?>
<!-- Generator: Adobe Illustrator 22.1.0, SVG Export Plug-In . SVG Version: 6.00 Build 0)  -->
<svg version="1.1" id="Ebene_1" xmlns="http://www.w3.org/2000/svg" xmlns:xlink="http://www.w3.org/1999/xlink" x="0px" y="0px"
	 width="32px" height="32px" viewBox="0 0 32 32" style="enable-background:new 0 0 32 32;" xml:space="preserve">
<path d="M16.9,1.4l5.8,6.2c0.2,0.2,0.3,0.4,0.3,0.6c-0.1,0.2-0.3,0.3-0.6,0.3h-3.8v15h3.8c0.4,0,0.6,0.1,0.6,0.3s0,0.4-0.3,0.6
	l-5.8,6.2C16.6,30.9,16.4,31,16,31c-0.4,0-0.6-0.1-0.9-0.4l-5.8-6.2c-0.2-0.2-0.3-0.4-0.3-0.6c0.1-0.2,0.3-0.3,0.6-0.3h3.8v-15H9.7
	c-0.4,0-0.6-0.1-0.6-0.3s0-0.4,0.3-0.6l5.8-6.2C15.4,1.1,15.6,1,16,1S16.6,1.1,16.9,1.4z"/>
</svg>
