<?xml version="1.0" encoding="utf-8"?>
<!-- Generator: Adobe Illustrator 22.1.0, SVG Export Plug-In . SVG Version: 6.00 Build 0)  -->
<svg version="1.1" id="Ebene_1" xmlns="http://www.w3.org/2000/svg" xmlns:xlink="http://www.w3.org/1999/xlink" x="0px" y="0px"
	 width="32px" height="32px" viewBox="0 0 32 32" style="enable-background:new 0 0 32 32;" xml:space="preserve">
<path d="M24.4,9.4l6.2,5.7c0.2,0.3,0.4,0.5,0.4,0.9c0,0.3-0.1,0.6-0.4,0.9l-6.2,5.7c-0.3,0.3-0.5,0.3-0.6,0.3
	c-0.2-0.1-0.3-0.3-0.3-0.6v-3.8h-15v3.8c0,0.3-0.1,0.5-0.3,0.6c-0.2,0.1-0.4,0-0.6-0.3l-6.2-5.7C1.1,16.6,1,16.3,1,16
	c0-0.3,0.1-0.6,0.4-0.9l6.2-5.7C7.8,9.1,8,9,8.2,9.1s0.3,0.3,0.3,0.6v3.7h15V9.8c0-0.4,0.1-0.6,0.3-0.6C24,9,24.2,9.1,24.4,9.4z"/>
</svg>
