<?xml version="1.0" encoding="utf-8"?>
<!-- Generator: Adobe Illustrator 22.1.0, SVG Export Plug-In . SVG Version: 6.00 Build 0)  -->
<svg version="1.1" id="Ebene_1" xmlns="http://www.w3.org/2000/svg" xmlns:xlink="http://www.w3.org/1999/xlink" x="0px" y="0px"
	 width="32px" height="32px" viewBox="0 0 32 32" style="enable-background:new 0 0 32 32;" xml:space="preserve">
<path d="M22.2,1h7.5c0.3,0,0.6,0.1,0.9,0.4C30.9,1.6,31,1.9,31,2.3v7.5c0,0.3-0.1,0.6-0.3,0.6c-0.2,0.1-0.4,0-0.6-0.3l-2.4-2.4
	L21.6,14c-0.1,0.1-0.3,0.2-0.4,0.2c-0.2,0-0.3-0.1-0.4-0.2L18,11.4c-0.1-0.1-0.2-0.3-0.2-0.4s0.1-0.3,0.2-0.4l6.2-6.2l-2.4-2.4
	c-0.2-0.2-0.3-0.4-0.3-0.6C21.7,1.1,21.9,1,22.2,1z M9.8,31H2.3c-0.3,0-0.6-0.1-0.9-0.4S1,30.1,1,29.7v-7.5c0-0.3,0.1-0.6,0.3-0.6
	c0.2-0.1,0.4,0,0.6,0.3l2.4,2.4l6.2-6.2c0.1-0.1,0.3-0.2,0.4-0.2c0.2,0,0.3,0.1,0.4,0.2l2.7,2.7c0.1,0.1,0.2,0.3,0.2,0.4
	c0,0.2-0.1,0.3-0.2,0.4l-6.2,6.2l2.4,2.4c0.2,0.2,0.3,0.4,0.3,0.6C10.3,30.9,10.1,31,9.8,31z"/>
</svg>
