<?xml version="1.0" encoding="utf-8"?>
<!-- Generator: Adobe Illustrator 22.1.0, SVG Export Plug-In . SVG Version: 6.00 Build 0)  -->
<svg version="1.1" id="Ebene_1" xmlns="http://www.w3.org/2000/svg" xmlns:xlink="http://www.w3.org/1999/xlink" x="0px" y="0px"
	 width="32px" height="32px" viewBox="0 0 32 32" style="enable-background:new 0 0 32 32;" xml:space="preserve">
<path d="M12.2,7.3h14.4c0.3,0,0.5,0.1,0.7,0.3s0.3,0.4,0.3,0.7v10.7h2.9c0.3,0,0.4,0.1,0.5,0.2c0.1,0.1,0,0.3-0.2,0.5l-4.4,4.8
	c-0.2,0.2-0.4,0.3-0.7,0.3c-0.3,0-0.5-0.1-0.7-0.3l-4.4-4.8c-0.2-0.2-0.2-0.3-0.2-0.5c0.1-0.1,0.2-0.2,0.5-0.2h2.9v-7.8h-7.4
	L12.2,7.3z M7,7.6l4.4,4.8c0.2,0.2,0.2,0.3,0.2,0.5c-0.1,0.1-0.2,0.2-0.5,0.2H8.3v7.7h7.4l4.2,3.9H5.4c-0.3,0-0.5-0.1-0.7-0.3
	S4.4,24,4.4,23.7V13.1H1.5c-0.3,0-0.4-0.1-0.5-0.2c-0.1-0.1,0-0.3,0.2-0.5l4.4-4.8c0.2-0.2,0.4-0.3,0.7-0.3S6.8,7.4,7,7.6L7,7.6z"/>
</svg>
