<?xml version="1.0" encoding="utf-8"?>
<!-- Generator: Adobe Illustrator 22.1.0, SVG Export Plug-In . SVG Version: 6.00 Build 0)  -->
<svg version="1.1" id="Ebene_1" xmlns="http://www.w3.org/2000/svg" xmlns:xlink="http://www.w3.org/1999/xlink" x="0px" y="0px"
	 width="32px" height="32px" viewBox="0 0 32 32" style="enable-background:new 0 0 32 32;" xml:space="preserve">
<path d="M11.9,11.4l9.8-9.8c0.1-0.1,0.3-0.2,0.5-0.2s0.3,0.1,0.5,0.2l3.7,3.7c0.1,0.1,0.2,0.3,0.2,0.5c0,0.2-0.1,0.3-0.2,0.5l-14,14
	c-0.1,0.1-0.3,0.2-0.5,0.2s-0.3-0.1-0.5-0.2l-7.8-7.8c-0.1-0.1-0.2-0.3-0.2-0.5c0-0.2,0.1-0.3,0.2-0.5l3.7-3.7
	c0.1-0.1,0.3-0.2,0.5-0.2c0.2,0,0.3,0.1,0.5,0.2L11.9,11.4z M2.7,22.7h26.7c0.4,0,0.7,0.1,0.9,0.4c0.3,0.3,0.4,0.6,0.4,0.9v6.7H1.3
	V24c0-0.4,0.1-0.7,0.4-0.9S2.3,22.7,2.7,22.7L2.7,22.7z M25.3,25.3v1.3H28v-1.3H25.3z"/>
</svg>
