<?xml version="1.0" encoding="utf-8"?>
<!-- Generator: Adobe Illustrator 22.1.0, SVG Export Plug-In . SVG Version: 6.00 Build 0)  -->
<svg version="1.1" id="Ebene_1" xmlns="http://www.w3.org/2000/svg" xmlns:xlink="http://www.w3.org/1999/xlink" x="0px" y="0px"
	 width="32px" height="32px" viewBox="0 0 32 32" style="enable-background:new 0 0 32 32;" xml:space="preserve">
<path d="M13.5,1h5c0.3,0,0.6,0.1,0.9,0.4c0.2,0.2,0.4,0.5,0.4,0.9V11h6.1c0.3,0,0.5,0.1,0.6,0.3c0.1,0.2,0,0.4-0.2,0.6l-9.6,10.6
	c-0.2,0.2-0.5,0.4-0.8,0.4s-0.6-0.1-0.8-0.4L5.6,11.9c-0.2-0.2-0.3-0.5-0.2-0.6C5.4,11.1,5.6,11,6,11h6.3V2.3c0-0.3,0.1-0.6,0.4-0.9
	C12.9,1.1,13.2,1,13.5,1L13.5,1z M3.5,23.5h25c0.3,0,0.6,0.1,0.9,0.4c0.2,0.2,0.4,0.5,0.4,0.9V31H2.3v-6.3c0-0.3,0.1-0.6,0.4-0.9
	C2.9,23.6,3.2,23.5,3.5,23.5L3.5,23.5z M24.7,26v1.2h2.5V26H24.7z"/>
</svg>
