<svg fill="currentColor" xmlns="http://www.w3.org/2000/svg" width="32" height="32" viewBox="0 0 32 32"><path d="M14.1 1h3.8c.2 0 .3.1.4.2s.2.3.2.4v4.8c1.7.5 3.2 1.4 4.5 2.6 1.3 1.3 2.1 2.7 2.6 4.5h4.8c.2 0 .3.1.4.2s.2.3.2.4v3.8c0 .2-.1.3-.2.4-.1.1-.3.2-.4.2h-4.8c-.4 1.7-1.3 3.2-2.6 4.5-1.3 1.3-2.7 2.1-4.5 2.6v4.8c0 .2-.1.3-.2.4s-.3.2-.4.2h-3.8c-.2 0-.3-.1-.4-.2s-.2-.3-.2-.4v-4.8c-1.7-.5-3.2-1.3-4.5-2.6s-2.1-2.7-2.6-4.5H1.6c-.2 0-.3-.1-.4-.2-.1-.1-.2-.3-.2-.4v-3.8c0-.2.1-.3.2-.4.1-.1.3-.2.4-.2h4.8C6.9 11.8 7.8 10.3 9 9s2.7-2.1 4.5-2.6V1.6c0-.2.1-.3.2-.4.1-.1.3-.2.4-.2zm4.4 7.7v4.2c0 .2-.1.3-.2.4-.1.1-.3.2-.4.2h-3.8c-.2 0-.3-.1-.4-.2-.1-.1-.2-.3-.2-.4V8.7c-1.1.4-2.1 1-3 1.8-.8.9-1.5 1.8-1.8 3h4.2c.2 0 .3.1.4.2.1.1.2.3.2.4v3.8c0 .2-.1.3-.2.4-.1.1-.3.2-.4.2H8.7c.4 1.1 1 2.1 1.8 3 .8.8 1.8 1.5 3 1.8v-4.2c0-.2.1-.3.2-.4s.3-.2.4-.2h3.8c.2 0 .3.1.4.2s.2.3.2.4v4.2c1.1-.4 2.1-1 3-1.8s1.5-1.8 1.8-3h-4.2c-.2 0-.3-.1-.4-.2-.1-.1-.2-.3-.2-.4v-3.8c0-.2.1-.3.2-.4.1-.1.3-.2.4-.2h4.2c-.4-1.1-1-2.1-1.8-3s-1.9-1.4-3-1.8z"/></svg>