<?xml version="1.0" encoding="utf-8"?>
<!-- Generator: Adobe Illustrator 22.1.0, SVG Export Plug-In . SVG Version: 6.00 Build 0)  -->
<svg version="1.1" id="Ebene_1" xmlns="http://www.w3.org/2000/svg" xmlns:xlink="http://www.w3.org/1999/xlink" x="0px" y="0px"
	 width="32px" height="32px" viewBox="0 0 32 32" style="enable-background:new 0 0 32 32;" xml:space="preserve">
<path d="M14.1,1h3.8c0.2,0,0.3,0.1,0.4,0.2s0.2,0.3,0.2,0.4v4.8C20.2,6.9,21.7,7.8,23,9c1.3,1.3,2.1,2.7,2.6,4.5h4.8
	c0.2,0,0.3,0.1,0.4,0.2S31,14,31,14.1v3.8c0,0.2-0.1,0.3-0.2,0.4c-0.1,0.1-0.3,0.2-0.4,0.2h-4.8c-0.4,1.7-1.3,3.2-2.6,4.5
	c-1.3,1.3-2.7,2.1-4.5,2.6v4.8c0,0.2-0.1,0.3-0.2,0.4S18,31,17.9,31h-3.8c-0.2,0-0.3-0.1-0.4-0.2s-0.2-0.3-0.2-0.4v-4.8
	c-1.7-0.5-3.2-1.3-4.5-2.6s-2.1-2.7-2.6-4.5H1.6c-0.2,0-0.3-0.1-0.4-0.2C1.1,18.2,1,18,1,17.9v-3.8c0-0.2,0.1-0.3,0.2-0.4
	c0.1-0.1,0.3-0.2,0.4-0.2h4.8C6.9,11.8,7.8,10.3,9,9s2.7-2.1,4.5-2.6V1.6c0-0.2,0.1-0.3,0.2-0.4C13.8,1.1,14,1,14.1,1z M18.5,8.7
	v4.2c0,0.2-0.1,0.3-0.2,0.4c-0.1,0.1-0.3,0.2-0.4,0.2h-3.8c-0.2,0-0.3-0.1-0.4-0.2c-0.1-0.1-0.2-0.3-0.2-0.4V8.7
	c-1.1,0.4-2.1,1-3,1.8c-0.8,0.9-1.5,1.8-1.8,3h4.2c0.2,0,0.3,0.1,0.4,0.2c0.1,0.1,0.2,0.3,0.2,0.4v3.8c0,0.2-0.1,0.3-0.2,0.4
	c-0.1,0.1-0.3,0.2-0.4,0.2H8.7c0.4,1.1,1,2.1,1.8,3c0.8,0.8,1.8,1.5,3,1.8v-4.2c0-0.2,0.1-0.3,0.2-0.4s0.3-0.2,0.4-0.2h3.8
	c0.2,0,0.3,0.1,0.4,0.2s0.2,0.3,0.2,0.4v4.2c1.1-0.4,2.1-1,3-1.8s1.5-1.8,1.8-3h-4.2c-0.2,0-0.3-0.1-0.4-0.2
	c-0.1-0.1-0.2-0.3-0.2-0.4v-3.8c0-0.2,0.1-0.3,0.2-0.4c0.1-0.1,0.3-0.2,0.4-0.2h4.2c-0.4-1.1-1-2.1-1.8-3S19.6,9.1,18.5,8.7z"/>
</svg>
