<svg fill="currentColor" xmlns="http://www.w3.org/2000/svg" width="32" height="32" viewBox="0 0 32 32"><path d="M13.3 1c1.7 0 3.3.3 4.8 1 1.5.6 2.8 1.5 3.9 2.6s2 2.4 2.6 3.9c.6 1.5 1 3.1 1 4.8v.1c0 2.3-.6 4.5-1.9 6.5l6.9 6.8c.4.4.6.8.6 1.1 0 .3-.2.7-.6 1.1L29 30.5c-.4.3-.8.5-1.2.5-.3 0-.7-.2-1-.5L20 23.6c-2 1.3-4.2 1.9-6.5 1.9h-.1c-1.7 0-3.3-.3-4.8-1s-2.9-1.4-4-2.5-2-2.4-2.6-3.9c-.6-1.5-1-3.1-1-4.8 0-1.7.3-3.3 1-4.8s1.5-2.8 2.6-3.9S7 2.7 8.5 2s3.1-1 4.8-1zm0 4.3c-1.5 0-2.8.4-4 1.1S7 8 6.3 9.2s-1.1 2.6-1.1 4c0 1.5.4 2.8 1.1 4 .7 1.4 1.7 2.3 2.9 3.1 1.2.7 2.6 1.1 4 1.1s2.8-.4 4-1.1c1.2-.7 2.2-1.7 2.9-2.9.7-1.2 1.1-2.6 1.1-4 0-1.5-.4-2.8-1.1-4-.6-1.4-1.6-2.4-2.8-3.1s-2.6-1-4-1z"/></svg>