<?xml version="1.0" encoding="utf-8"?>
<!-- Generator: Adobe Illustrator 22.1.0, SVG Export Plug-In . SVG Version: 6.00 Build 0)  -->
<svg version="1.1" id="Ebene_1" xmlns="http://www.w3.org/2000/svg" xmlns:xlink="http://www.w3.org/1999/xlink" x="0px" y="0px"
	 width="32px" height="32px" viewBox="0 0 32 32" style="enable-background:new 0 0 32 32;" xml:space="preserve">
<path d="M13.3,1c1.7,0,3.3,0.3,4.8,1c1.5,0.6,2.8,1.5,3.9,2.6s2,2.4,2.6,3.9c0.6,1.5,1,3.1,1,4.8l0,0l0,0.1c0,2.3-0.6,4.5-1.9,6.5
	l6.9,6.8c0.4,0.4,0.6,0.8,0.6,1.1c0,0.3-0.2,0.7-0.6,1.1L29,30.5c-0.4,0.3-0.8,0.5-1.2,0.5c-0.3,0-0.7-0.2-1-0.5L20,23.6
	c-2,1.3-4.2,1.9-6.5,1.9l-0.1,0l0,0c-1.7,0-3.3-0.3-4.8-1S5.7,23.1,4.6,22s-2-2.4-2.6-3.9c-0.6-1.5-1-3.1-1-4.8c0-1.7,0.3-3.3,1-4.8
	s1.5-2.8,2.6-3.9S7,2.7,8.5,2S11.6,1,13.3,1L13.3,1z M13.3,5.3c-1.5,0-2.8,0.4-4,1.1S7,8,6.3,9.2s-1.1,2.6-1.1,4
	c0,1.5,0.4,2.8,1.1,4C7,18.6,8,19.5,9.2,20.3c1.2,0.7,2.6,1.1,4,1.1s2.8-0.4,4-1.1c1.2-0.7,2.2-1.7,2.9-2.9c0.7-1.2,1.1-2.6,1.1-4
	c0-1.5-0.4-2.8-1.1-4C19.5,8,18.5,7,17.3,6.3S14.7,5.3,13.3,5.3z"/>
</svg>
