<?xml version="1.0" encoding="utf-8"?>
<!-- Generator: Adobe Illustrator 22.1.0, SVG Export Plug-In . SVG Version: 6.00 Build 0)  -->
<svg version="1.1" id="Ebene_1" xmlns="http://www.w3.org/2000/svg" xmlns:xlink="http://www.w3.org/1999/xlink" x="0px" y="0px"
	 width="32px" height="32px" viewBox="0 0 32 32" style="enable-background:new 0 0 32 32;" xml:space="preserve">
<path d="M10,1.9h9.2c-2.8,2.5-4.6,4.2-5.5,5.1h-5C8,7,7.4,7.3,6.9,7.8S6.1,8.9,6.1,9.6v12.8c0,0.7,0.3,1.3,0.8,1.8S8,25,8.7,25h12.8
	c0.7,0,1.3-0.3,1.8-0.8s0.8-1.1,0.8-1.8l5.1-3.9v2.6c0,2.8-0.8,5-2.4,6.6c-1.6,1.6-3.8,2.4-6.6,2.4H10c-2.8,0-5-0.8-6.6-2.4
	S1,23.9,1,21.1V10.9c0-2.8,0.8-5,2.4-6.6S7.1,1.9,10,1.9L10,1.9z M22.1,2.6l8.7,7.7c0.1,0.1,0.2,0.3,0.2,0.4c0,0.2-0.1,0.3-0.2,0.4
	L22.1,19c-0.1,0.1-0.2,0.1-0.3,0.1c-0.1,0-0.1-0.1-0.2-0.3v-5.2c-0.4,0-0.9,0-1.4,0c-0.5,0-1.2,0.1-2,0.2c-0.9,0.1-1.6,0.3-2.4,0.4
	c-0.7,0.2-1.5,0.5-2.2,0.9c-0.8,0.4-1.3,0.9-1.8,1.5c0.2-1,0.5-1.9,0.8-2.8s0.8-1.5,1.3-2.1c0.5-0.6,1-1.1,1.7-1.5
	c0.6-0.4,1.2-0.8,1.8-1C18,9,18.5,8.8,19.1,8.7c0.6-0.2,1.1-0.3,1.4-0.3c0.4-0.1,0.7-0.1,1-0.1V2.8c0-0.2,0.1-0.3,0.2-0.3
	C21.9,2.4,22,2.5,22.1,2.6L22.1,2.6z"/>
</svg>
