<?xml version="1.0" encoding="utf-8"?>
<!-- Generator: Adobe Illustrator 22.1.0, SVG Export Plug-In . SVG Version: 6.00 Build 0)  -->
<svg version="1.1" id="Ebene_1" xmlns="http://www.w3.org/2000/svg" xmlns:xlink="http://www.w3.org/1999/xlink" x="0px" y="0px"
	 width="32px" height="32px" viewBox="0 0 32 32" style="enable-background:new 0 0 32 32;" xml:space="preserve">
<path d="M17.3,4.3l13.3,10.9c0.3,0.2,0.4,0.5,0.4,0.8c0,0.3-0.1,0.6-0.4,0.8L17.3,27.7c-0.3,0.2-0.5,0.3-0.7,0.2
	c-0.2-0.1-0.3-0.3-0.3-0.7v-7.4c-1.6,0-3.1,0.2-4.6,0.5s-2.9,0.7-4.3,1.3C5.9,22.2,4.7,23,3.6,24S1.6,26.2,1,27.5
	c0.1-1.8,0.3-3.4,0.7-4.9s0.9-2.9,1.7-4.3c0.8-1.3,1.7-2.5,2.9-3.4s2.6-1.7,4.3-2.3c1.7-0.6,3.6-1,5.7-1.1V4.8
	c0-0.4,0.1-0.6,0.3-0.7C16.8,4,17,4.1,17.3,4.3L17.3,4.3z"/>
</svg>
