<svg fill="currentColor" xmlns="http://www.w3.org/2000/svg" width="32" height="32" viewBox="0 0 32 32"><path d="M10 1.9h9.2c-2.8 2.5-4.6 4.2-5.5 5.1h-5c-.7 0-1.3.3-1.8.8s-.8 1.1-.8 1.8v12.8c0 .7.3 1.3.8 1.8s1.1.8 1.8.8h12.8c.7 0 1.3-.3 1.8-.8s.8-1.1.8-1.8l5.1-3.9v2.6c0 2.8-.8 5-2.4 6.6-1.6 1.6-3.8 2.4-6.6 2.4H10c-2.8 0-5-.8-6.6-2.4S1 23.9 1 21.1V10.9c0-2.8.8-5 2.4-6.6S7.1 1.9 10 1.9zm12.1.7l8.7 7.7c.1.1.2.3.2.4 0 .2-.1.3-.2.4L22.1 19c-.1.1-.2.1-.3.1-.1 0-.1-.1-.2-.3v-5.2h-1.4c-.5 0-1.2.1-2 .2-.9.1-1.6.3-2.4.4-.7.2-1.5.5-2.2.9-.8.4-1.3.9-1.8 1.5.2-1 .5-1.9.8-2.8s.8-1.5 1.3-2.1c.5-.6 1-1.1 1.7-1.5.6-.4 1.2-.8 1.8-1 .6-.2 1.1-.4 1.7-.5.6-.2 1.1-.3 1.4-.3.4-.1.7-.1 1-.1V2.8c0-.2.1-.3.2-.3.2-.1.3 0 .4.1z"/></svg>