<?xml version="1.0" encoding="utf-8"?>
<!-- Generator: Adobe Illustrator 22.1.0, SVG Export Plug-In . SVG Version: 6.00 Build 0)  -->
<svg version="1.1" id="Ebene_1" xmlns="http://www.w3.org/2000/svg" xmlns:xlink="http://www.w3.org/1999/xlink" x="0px" y="0px"
	 width="32px" height="32px" viewBox="0 0 32 32" style="enable-background:new 0 0 32 32;" xml:space="preserve">
<path d="M2.5,1h2.3c0.3,0,0.5,0.1,0.8,0.3S6,1.7,6.1,2l0.9,4h22.4c0.4,0,0.7,0.2,1,0.5c0.2,0.3,0.3,0.7,0.3,1.1l-2.5,11.9
	c-0.1,0.3-0.3,0.7-0.7,1.1c-0.4,0.4-0.8,0.5-1.4,0.5H10.3l1.2,5h13.4c0.3,0,0.6,0.1,0.9,0.4c0.2,0.2,0.4,0.5,0.4,0.9
	c0,0.3-0.1,0.6-0.4,0.9c-0.2,0.2-0.5,0.4-0.9,0.4h-1.2v1.2c0,0.3-0.1,0.6-0.4,0.9C23,30.9,22.7,31,22.4,31s-0.6-0.1-0.9-0.4
	c-0.2-0.2-0.4-0.5-0.4-0.9v-1.2h-7.5v1.2c0,0.3-0.1,0.6-0.4,0.9C13,30.9,12.7,31,12.4,31c-0.3,0-0.6-0.1-0.9-0.4
	c-0.2-0.2-0.4-0.5-0.4-0.9v-1.2h-0.8c-0.3,0-0.6-0.1-0.8-0.3c-0.2-0.2-0.4-0.3-0.5-0.5l-0.1-0.3l-5-24H2.5c-0.3,0-0.6-0.1-0.9-0.4
	C1.4,2.9,1.3,2.6,1.3,2.3c0-0.3,0.1-0.6,0.4-0.9S2.2,1,2.5,1L2.5,1z"/>
</svg>
