<svg fill="currentColor" xmlns="http://www.w3.org/2000/svg" width="32" height="32" viewBox="0 0 32 32"><path d="M2.5 1h2.3c.3 0 .5.1.8.3s.4.4.5.7L7 6h22.4c.4 0 .7.2 1 .5.2.3.3.7.3 1.1l-2.5 11.9c-.1.3-.3.7-.7 1.1-.4.4-.8.5-1.4.5H10.3l1.2 5h13.4c.3 0 .6.1.9.4.2.2.4.5.4.9 0 .3-.1.6-.4.9-.2.2-.5.4-.9.4h-1.2v1.2c0 .3-.1.6-.4.9-.3.1-.6.2-.9.2s-.6-.1-.9-.4c-.2-.2-.4-.5-.4-.9v-1.2h-7.5v1.2c0 .3-.1.6-.4.9-.2.3-.5.4-.8.4-.3 0-.6-.1-.9-.4-.2-.2-.4-.5-.4-.9v-1.2h-.8c-.3 0-.6-.1-.8-.3-.2-.2-.4-.3-.5-.5l-.1-.3-5-24H2.5c-.3 0-.6-.1-.9-.4-.2-.1-.3-.4-.3-.7 0-.3.1-.6.4-.9s.5-.4.8-.4z"/></svg>