<?xml version="1.0" encoding="utf-8"?>
<!-- Generator: Adobe Illustrator 22.1.0, SVG Export Plug-In . SVG Version: 6.00 Build 0)  -->
<svg version="1.1" id="Ebene_1" xmlns="http://www.w3.org/2000/svg" xmlns:xlink="http://www.w3.org/1999/xlink" x="0px" y="0px"
	 width="32px" height="32px" viewBox="0 0 32 32" style="enable-background:new 0 0 32 32;" xml:space="preserve">
<path d="M25.4,1h3.7c0.2,0,0.3,0.1,0.4,0.2s0.2,0.3,0.2,0.4v28.7c0,0.2-0.1,0.3-0.2,0.4c-0.1,0.1-0.3,0.2-0.4,0.2h-3.7
	c-0.2,0-0.3-0.1-0.4-0.2s-0.2-0.3-0.2-0.4V1.6c0-0.2,0.1-0.3,0.2-0.4C25.1,1.1,25.2,1,25.4,1z M17.9,11h3.7c0.2,0,0.3,0.1,0.4,0.2
	c0.1,0.1,0.2,0.3,0.2,0.4v18.7c0,0.2-0.1,0.3-0.2,0.4c-0.1,0.1-0.3,0.2-0.4,0.2h-3.7c-0.2,0-0.3-0.1-0.4-0.2
	c-0.1-0.1-0.2-0.3-0.2-0.4V11.6c0-0.2,0.1-0.3,0.2-0.4C17.6,11.1,17.7,11,17.9,11z M10.4,18.5h3.7c0.2,0,0.3,0.1,0.4,0.2
	c0.1,0.1,0.2,0.3,0.2,0.4v11.2c0,0.2-0.1,0.3-0.2,0.4S14.3,31,14.1,31h-3.7c-0.2,0-0.3-0.1-0.4-0.2c-0.1-0.1-0.2-0.3-0.2-0.4V19.1
	c0-0.2,0.1-0.3,0.2-0.4C10.1,18.6,10.2,18.5,10.4,18.5z M2.9,23.5h3.7c0.2,0,0.3,0.1,0.4,0.2c0.1,0.1,0.2,0.3,0.2,0.4v6.3
	c0,0.2-0.1,0.3-0.2,0.4C6.9,30.9,6.8,31,6.6,31H2.9c-0.2,0-0.3-0.1-0.4-0.2c-0.1-0.1-0.2-0.3-0.2-0.4v-6.3c0-0.2,0.1-0.3,0.2-0.4
	C2.6,23.6,2.7,23.5,2.9,23.5z"/>
</svg>
