<svg fill="currentColor" xmlns="http://www.w3.org/2000/svg" width="32" height="32" viewBox="0 0 32 32"><path d="M25.4 1h3.7c.2 0 .3.1.4.2s.2.3.2.4v28.7c0 .2-.1.3-.2.4-.1.1-.3.2-.4.2h-3.7c-.2 0-.3-.1-.4-.2s-.2-.3-.2-.4V1.6c0-.2.1-.3.2-.4.1-.1.2-.2.4-.2zm-7.5 10h3.7c.2 0 .3.1.4.2.1.1.2.3.2.4v18.7c0 .2-.1.3-.2.4-.1.1-.3.2-.4.2h-3.7c-.2 0-.3-.1-.4-.2-.1-.1-.2-.3-.2-.4V11.6c0-.2.1-.3.2-.4.1-.1.2-.2.4-.2zm-7.5 7.5h3.7c.2 0 .3.1.4.2.1.1.2.3.2.4v11.2c0 .2-.1.3-.2.4s-.2.3-.4.3h-3.7c-.2 0-.3-.1-.4-.2-.1-.1-.2-.3-.2-.4V19.1c0-.2.1-.3.2-.4.1-.1.2-.2.4-.2zm-7.5 5h3.7c.2 0 .3.1.4.2.1.1.2.3.2.4v6.3c0 .2-.1.3-.2.4-.1.1-.2.2-.4.2H2.9c-.2 0-.3-.1-.4-.2-.1-.1-.2-.3-.2-.4v-6.3c0-.2.1-.3.2-.4.1-.1.2-.2.4-.2z"/></svg>