<?xml version="1.0" encoding="utf-8"?>
<!-- Generator: Adobe Illustrator 22.1.0, SVG Export Plug-In . SVG Version: 6.00 Build 0)  -->
<svg version="1.1" id="Ebene_1" xmlns="http://www.w3.org/2000/svg" xmlns:xlink="http://www.w3.org/1999/xlink" x="0px" y="0px"
	 width="32px" height="32px" viewBox="0 0 32 32" style="enable-background:new 0 0 32 32;" xml:space="preserve">
<path d="M10.7,23.5h3.7c0.3,0,0.6,0.1,0.6,0.3c0.1,0.2,0,0.4-0.3,0.6l-5.7,6.2C8.8,30.9,8.6,31,8.2,31c-0.3,0-0.6-0.1-0.9-0.4
	l-5.7-6.2c-0.2-0.2-0.3-0.4-0.3-0.6s0.3-0.3,0.6-0.3h3.7V1h5L10.7,23.5L10.7,23.5z M23.2,6h-5V1h5C23.2,1,23.2,6,23.2,6z M25.7,13.5
	h-7.5v-5h7.5V13.5z M28.2,21h-10v-5h10V21z M30.7,28.5H18.2v-5h12.5V28.5z"/>
</svg>
