<?xml version="1.0" encoding="utf-8"?>
<!-- Generator: Adobe Illustrator 22.1.0, SVG Export Plug-In . SVG Version: 6.00 Build 0)  -->
<svg version="1.1" id="Ebene_1" xmlns="http://www.w3.org/2000/svg" xmlns:xlink="http://www.w3.org/1999/xlink" x="0px" y="0px"
	 width="32px" height="32px" viewBox="0 0 32 32" style="enable-background:new 0 0 32 32;" xml:space="preserve">
<path d="M28.2,13.5h-2.5V11h-2.5v2.5h-2.5V1h7.5L28.2,13.5L28.2,13.5z M13.2,23.5h3.7c0.3,0,0.6,0.1,0.6,0.3c0.1,0.2,0,0.4-0.3,0.6
	l-5.7,6.2c-0.2,0.2-0.5,0.4-0.9,0.4c-0.3,0-0.6-0.1-0.9-0.4l-5.7-6.2c-0.2-0.2-0.3-0.4-0.3-0.6c0.1-0.2,0.3-0.3,0.6-0.3h3.7V1h5
	L13.2,23.5L13.2,23.5z M23.2,3.5v5h2.5v-5H23.2z M28.2,22.2l-5,6.2h5V31h-7.5v-3.7l5-6.2h-5v-2.5h7.5V22.2z"/>
</svg>
