<?xml version="1.0" encoding="utf-8"?>
<!-- Generator: Adobe Illustrator 22.1.0, SVG Export Plug-In . SVG Version: 6.00 Build 0)  -->
<svg version="1.1" id="Ebene_1" xmlns="http://www.w3.org/2000/svg" xmlns:xlink="http://www.w3.org/1999/xlink" x="0px" y="0px"
	 width="32px" height="32px" viewBox="0 0 32 32" style="enable-background:new 0 0 32 32;" xml:space="preserve">
<path d="M11,23.5h3.7c0.3,0,0.6,0.1,0.6,0.3c0.1,0.2,0,0.4-0.3,0.6l-5.7,6.2C9.1,30.9,8.9,31,8.5,31c-0.3,0-0.6-0.1-0.9-0.4
	l-5.7-6.2c-0.2-0.2-0.3-0.4-0.3-0.6c0.1-0.2,0.3-0.3,0.6-0.3H6V1h5L11,23.5L11,23.5z M24.4,1.4l5.7,6.2c0.2,0.2,0.3,0.4,0.3,0.6
	c-0.1,0.2-0.3,0.3-0.6,0.3H26V31h-5V8.5h-3.7c-0.3,0-0.6-0.1-0.6-0.3s0-0.4,0.3-0.6l5.7-6.2C22.9,1.2,23.1,1,23.5,1
	S24.1,1.2,24.4,1.4L24.4,1.4z"/>
</svg>
