<?xml version="1.0" encoding="utf-8"?>
<!-- Generator: Adobe Illustrator 22.1.0, SVG Export Plug-In . SVG Version: 6.00 Build 0)  -->
<svg version="1.1" id="Ebene_1" xmlns="http://www.w3.org/2000/svg" xmlns:xlink="http://www.w3.org/1999/xlink" x="0px" y="0px"
	 width="32px" height="32px" viewBox="0 0 32 32" style="enable-background:new 0 0 32 32;" xml:space="preserve">
<path d="M13.2,23.5h3.7c0.3,0,0.6,0.1,0.6,0.3c0.1,0.2,0,0.4-0.3,0.6l-5.7,6.2c-0.2,0.2-0.5,0.4-0.9,0.4s-0.6-0.1-0.9-0.4l-5.7-6.2
	c-0.2-0.2-0.3-0.4-0.3-0.6c0.1-0.2,0.3-0.3,0.6-0.3h3.7V1h5L13.2,23.5L13.2,23.5z M28.2,4.7l-5,6.2h5v2.5h-7.5V9.7l5-6.2h-5V1h7.5
	C28.2,1,28.2,4.7,28.2,4.7z M28.2,31h-2.5v-2.5h-2.5V31h-2.5V18.5h7.5L28.2,31L28.2,31z M23.2,21v5h2.5v-5C25.7,21,23.2,21,23.2,21z
	"/>
</svg>
