<?xml version="1.0" encoding="utf-8"?>
<!-- Generator: Adobe Illustrator 22.1.0, SVG Export Plug-In . SVG Version: 6.00 Build 0)  -->
<svg version="1.1" id="Ebene_1" xmlns="http://www.w3.org/2000/svg" xmlns:xlink="http://www.w3.org/1999/xlink" x="0px" y="0px"
	 width="32px" height="32px" viewBox="0 0 32 32" style="enable-background:new 0 0 32 32;" xml:space="preserve">
<path d="M12,23.5h3.7c0.3,0,0.6,0.1,0.6,0.3c0.1,0.2,0,0.4-0.3,0.6l-5.7,6.2C10.1,30.9,9.8,31,9.5,31c-0.3,0-0.6-0.1-0.9-0.4
	l-5.7-6.2c-0.2-0.2-0.3-0.4-0.3-0.6c0.1-0.2,0.3-0.3,0.6-0.3H7V1h5L12,23.5L12,23.5z M26.9,13.5h-2.5v-10h-2.5V1h5L26.9,13.5
	L26.9,13.5z M29.4,31h-2.5v-2.5h-5v-10h7.5V31L29.4,31z M24.5,21v5H27v-5C27,21,24.5,21,24.5,21z"/>
</svg>
