<svg fill="currentColor" xmlns="http://www.w3.org/2000/svg" width="32" height="32" viewBox="0 0 32 32"><path d="M7.9 3.3h16.2c1.9 0 3.5.7 4.9 2s2 3 2 4.9v11.5c0 1.9-.7 3.5-2 4.9-1.4 1.4-3 2-4.9 2H7.9c-1.9 0-3.5-.7-4.9-2-1.4-1.4-2-3-2-4.9V10.2c0-1.9.7-3.5 2-4.9s3-2 4.9-2zM5.6 7.9v16.2h20.8V7.9H5.6zm18.5 13.9H7.9V10.2h16.2v11.6zm-2.3-9.3h-3c-.6 0-1.1.3-1.5 1-.4.7-.7 1.5-.7 2.5s.2 1.8.6 2.5c.4.6.9 1 1.6 1h3v-7zm-11.6 0v6.9h3c.6 0 1.2-.3 1.6-1 .4-.6.6-1.5.6-2.5s-.2-1.8-.7-2.5c-.4-.7-.9-1-1.5-1 0 .1-3 .1-3 .1z"/></svg>