<?xml version="1.0" encoding="utf-8"?>
<!-- Generator: Adobe Illustrator 22.1.0, SVG Export Plug-In . SVG Version: 6.00 Build 0)  -->
<svg version="1.1" id="Ebene_1" xmlns="http://www.w3.org/2000/svg" xmlns:xlink="http://www.w3.org/1999/xlink" x="0px" y="0px"
	 width="32px" height="32px" viewBox="0 0 32 32" style="enable-background:new 0 0 32 32;" xml:space="preserve">
<path d="M7.9,3.3h16.2c1.9,0,3.5,0.7,4.9,2s2,3,2,4.9v11.5c0,1.9-0.7,3.5-2,4.9c-1.4,1.4-3,2-4.9,2H7.9c-1.9,0-3.5-0.7-4.9-2
	c-1.4-1.4-2-3-2-4.9V10.2c0-1.9,0.7-3.5,2-4.9S6,3.3,7.9,3.3z M5.6,7.9v16.2h20.8V7.9C26.4,7.9,5.6,7.9,5.6,7.9z M24.1,21.8H7.9
	V10.2h16.2V21.8z M21.8,12.5h-3c-0.6,0-1.1,0.3-1.5,1c-0.4,0.7-0.7,1.5-0.7,2.5s0.2,1.8,0.6,2.5c0.4,0.6,0.9,1,1.6,1h3
	C21.8,19.5,21.8,12.5,21.8,12.5z M10.2,12.5v6.9h3c0.6,0,1.2-0.3,1.6-1c0.4-0.6,0.6-1.5,0.6-2.5c0-1-0.2-1.8-0.7-2.5
	c-0.4-0.7-0.9-1-1.5-1C13.2,12.5,10.2,12.5,10.2,12.5z"/>
</svg>
