<?xml version="1.0" encoding="utf-8"?>
<!-- Generator: Adobe Illustrator 22.1.0, SVG Export Plug-In . SVG Version: 6.00 Build 0)  -->
<svg version="1.1" id="Ebene_1" xmlns="http://www.w3.org/2000/svg" xmlns:xlink="http://www.w3.org/1999/xlink" x="0px" y="0px"
	 width="32px" height="32px" viewBox="0 0 32 32" style="enable-background:new 0 0 32 32;" xml:space="preserve">
<path d="M7.9,3.3h16.2c1.9,0,3.5,0.7,4.9,2s2,3,2,4.9v11.5c0,1.9-0.7,3.5-2,4.9c-1.4,1.4-3,2-4.9,2H7.9c-1.9,0-3.5-0.7-4.9-2
	c-1.4-1.4-2-3-2-4.9V10.2c0-1.9,0.7-3.5,2-4.9S6,3.3,7.9,3.3z M5.6,7.9v16.2h20.8V7.9C26.4,7.9,5.6,7.9,5.6,7.9z M14.8,12.5h-4.6
	v2.3h4.6v6.9H7.9v-2.3h4.6v-2.3H7.9v-6.9h6.9C14.8,10.2,14.8,12.5,14.8,12.5z M24.1,21.8h-2.3v-9.2h-2.3v-2.3h4.6L24.1,21.8
	L24.1,21.8z M19.5,21.8h-2.3v-2.3h2.3V21.8z"/>
</svg>
