<?xml version="1.0" encoding="utf-8"?>
<!-- Generator: Adobe Illustrator 22.1.0, SVG Export Plug-In . SVG Version: 6.00 Build 0)  -->
<svg version="1.1" id="Ebene_1" xmlns="http://www.w3.org/2000/svg" xmlns:xlink="http://www.w3.org/1999/xlink" x="0px" y="0px"
	 width="32px" height="32px" viewBox="0 0 32 32" style="enable-background:new 0 0 32 32;" xml:space="preserve">
<path d="M12.2,11.5l3.5-9.4c0.1-0.3,0.3-0.5,0.5-0.5c0.2,0,0.3,0.2,0.5,0.5l3.4,9.4h11.2c0.4,0,0.6,0.1,0.6,0.2
	c0.1,0.2-0.1,0.3-0.4,0.5l-9.1,6.6l3.5,10.7c0.1,0.4,0.1,0.6,0,0.7s-0.4,0-0.7-0.2l-9.1-6.6l-9.1,6.6c-0.3,0.2-0.5,0.3-0.7,0.2
	s-0.1-0.3,0-0.7L9.7,19l-9.3-6.7c-0.3-0.2-0.4-0.4-0.4-0.5c0.1-0.2,0.3-0.2,0.6-0.2L12.2,11.5L12.2,11.5z"/>
</svg>
