<?xml version="1.0" encoding="utf-8"?>
<!-- Generator: Adobe Illustrator 22.1.0, SVG Export Plug-In . SVG Version: 6.00 Build 0)  -->
<svg version="1.1" id="Ebene_1" xmlns="http://www.w3.org/2000/svg" xmlns:xlink="http://www.w3.org/1999/xlink" x="0px" y="0px"
	 width="32px" height="32px" viewBox="0 0 32 32" style="enable-background:new 0 0 32 32;" xml:space="preserve">
<path d="M17.3,1.3h-2.7c-0.7,0-1.4,0.3-1.9,0.8C12.3,2.6,12,3.3,12,4v26.7h8V4c0-0.7-0.3-1.4-0.8-1.9C18.7,1.6,18.1,1.3,17.3,1.3
	L17.3,1.3z M28,9.3h-2.7c-0.7,0-1.4,0.3-1.9,0.8s-0.8,1.2-0.8,1.9v18.7h8V12c0-0.7-0.3-1.4-0.8-1.9C29.4,9.6,28.7,9.3,28,9.3L28,9.3
	z M9.3,30.7h-8V20c0-0.7,0.3-1.4,0.8-1.9s1.2-0.8,1.9-0.8h2.7c0.7,0,1.4,0.3,1.9,0.8c0.5,0.5,0.8,1.2,0.8,1.9L9.3,30.7L9.3,30.7z"/>
</svg>
