<?xml version="1.0" encoding="utf-8"?>
<!-- Generator: Adobe Illustrator 22.1.0, SVG Export Plug-In . SVG Version: 6.00 Build 0)  -->
<svg version="1.1" id="Ebene_1" xmlns="http://www.w3.org/2000/svg" xmlns:xlink="http://www.w3.org/1999/xlink" x="0px" y="0px"
	 width="32px" height="32px" viewBox="0 0 32 32" style="enable-background:new 0 0 32 32;" xml:space="preserve">
<path d="M8,1.3h2.7c0.4,0,0.7,0.1,0.9,0.4S12,2.3,12,2.7v11.7L24.4,2.3C24.6,2,24.9,1.9,25.1,2c0.2,0.1,0.3,0.3,0.3,0.7v26.7
	c0,0.4-0.1,0.6-0.3,0.7c-0.2,0.1-0.4,0-0.7-0.3L12,17.7v11.7c0,0.4-0.1,0.7-0.4,0.9c-0.3,0.3-0.6,0.4-0.9,0.4H8
	c-0.4,0-0.7-0.1-0.9-0.4s-0.4-0.6-0.4-0.9V2.7c0-0.4,0.1-0.7,0.4-0.9S7.6,1.3,8,1.3z"/>
</svg>
