<?xml version="1.0" encoding="utf-8"?>
<!-- Generator: Adobe Illustrator 22.1.0, SVG Export Plug-In . SVG Version: 6.00 Build 0)  -->
<svg version="1.1" id="Ebene_1" xmlns="http://www.w3.org/2000/svg" xmlns:xlink="http://www.w3.org/1999/xlink" x="0px" y="0px"
	 width="32px" height="32px" viewBox="0 0 32 32" style="enable-background:new 0 0 32 32;" xml:space="preserve">
<path d="M21.3,1.3H24c0.4,0,0.7,0.1,0.9,0.4c0.3,0.3,0.4,0.6,0.4,0.9v26.7c0,0.4-0.1,0.7-0.4,0.9c-0.3,0.3-0.6,0.4-0.9,0.4h-2.7
	c-0.4,0-0.7-0.1-0.9-0.4C20.1,30,20,29.7,20,29.3V17.7L7.6,29.7C7.4,30,7.1,30.1,6.9,30c-0.2-0.1-0.3-0.3-0.3-0.7V2.7
	c0-0.4,0.1-0.6,0.3-0.7c0.2-0.1,0.4,0,0.7,0.3L20,14.3V2.7c0-0.4,0.1-0.7,0.4-0.9S21,1.3,21.3,1.3z"/>
</svg>
