<?xml version="1.0" encoding="utf-8"?>
<!-- Generator: Adobe Illustrator 22.1.0, SVG Export Plug-In . SVG Version: 6.00 Build 0)  -->
<svg version="1.1" id="Ebene_1" xmlns="http://www.w3.org/2000/svg" xmlns:xlink="http://www.w3.org/1999/xlink" x="0px" y="0px"
	 width="32px" height="32px" viewBox="0 0 32 32" style="enable-background:new 0 0 32 32;" xml:space="preserve">
<path d="M14.1,4l13.8,13.8c0.1,0.1,0.2,0.2,0.2,0.4c0,0.2-0.1,0.2-0.2,0.4l-9.4,9.3c-0.1,0.1-0.2,0.2-0.4,0.2s-0.2-0.1-0.4-0.2
	L4,14.1V4.5c0-0.2,0.1-0.2,0.2-0.3C4.2,4.1,4.4,4,4.6,4H14.1L14.1,4z M10.5,7.5C10.1,7.1,9.6,7,9,7C8.5,7,8,7.1,7.6,7.5
	C7.2,7.9,7,8.4,7,9c0,0.6,0.2,1,0.6,1.4C8,10.8,8.5,11,9,11c0.6,0,1-0.2,1.4-0.6C10.9,10,11,9.5,11,9S10.9,7.9,10.5,7.5z"/>
</svg>
