<?xml version="1.0" encoding="utf-8"?>
<!-- Generator: Adobe Illustrator 22.1.0, SVG Export Plug-In . SVG Version: 6.00 Build 0)  -->
<svg version="1.1" id="Ebene_1" xmlns="http://www.w3.org/2000/svg" xmlns:xlink="http://www.w3.org/1999/xlink" x="0px" y="0px"
	 width="32px" height="32px" viewBox="0 0 32 32" style="enable-background:new 0 0 32 32;" xml:space="preserve">
<path d="M11.1,4l13.7,13.7c0.1,0.1,0.2,0.2,0.2,0.4c0,0.1-0.1,0.3-0.2,0.4l-9.3,9.3c-0.1,0.1-0.2,0.2-0.4,0.2s-0.3-0.1-0.4-0.2
	L1,14.1l0-9.6c0-0.1,0.1-0.3,0.2-0.4C1.3,4.1,1.4,4,1.5,4L11.1,4L11.1,4z M17.1,4l13.7,13.7c0.1,0.1,0.2,0.2,0.2,0.4
	c0,0.1-0.1,0.3-0.2,0.4l-9.3,9.3c-0.1,0.1-0.2,0.2-0.4,0.2c-0.1,0-0.3-0.1-0.4-0.2l-1.1-1.1l8.5-8.6L14.1,4H17.1L17.1,4z M7.4,7.6
	C7,7.2,6.6,7,6,7S5,7.2,4.6,7.6C4.2,8,4,8.4,4,9s0.2,1,0.6,1.4C5,10.8,5.4,11,6,11s1-0.2,1.4-0.6C7.8,10,8,9.6,8,9S7.8,8,7.4,7.6z"
	/>
</svg>
