<?xml version="1.0" encoding="utf-8"?>
<!-- Generator: Adobe Illustrator 22.1.0, SVG Export Plug-In . SVG Version: 6.00 Build 0)  -->
<svg version="1.1" id="Ebene_1" xmlns="http://www.w3.org/2000/svg" xmlns:xlink="http://www.w3.org/1999/xlink" x="0px" y="0px"
	 width="32px" height="32px" viewBox="0 0 32 32" style="enable-background:new 0 0 32 32;" xml:space="preserve">
<path d="M3.5,2.3h25c0.7,0,1.3,0.2,1.8,0.7S31,4.1,31,4.8v2.5c0,0.7-0.2,1.3-0.7,1.8s-1.1,0.7-1.8,0.7h-25C2.8,9.8,2.2,9.5,1.7,9
	S1,7.9,1,7.3V4.8C1,4.1,1.2,3.5,1.7,3S2.8,2.3,3.5,2.3z M28.5,4.7h-5v2.5h5V4.7z M3.5,12.2h25c0.7,0,1.3,0.2,1.8,0.7S31,14,31,14.7
	v2.5c0,0.7-0.2,1.3-0.7,1.8s-1.1,0.7-1.8,0.7h-25c-0.7,0-1.3-0.2-1.8-0.7S1,17.9,1,17.2v-2.5c0-0.7,0.2-1.3,0.7-1.8
	C2.2,12.5,2.8,12.2,3.5,12.2z M28.5,14.7H16v2.5h12.5V14.7z M3.5,22.2h25c0.7,0,1.3,0.2,1.8,0.7S31,24,31,24.7v2.5
	c0,0.7-0.2,1.3-0.7,1.8s-1.1,0.7-1.8,0.7h-25c-0.7,0-1.3-0.2-1.8-0.7S1,27.9,1,27.2v-2.5c0-0.7,0.2-1.3,0.7-1.8S2.8,22.2,3.5,22.2z
	 M28.5,24.7H21v2.5h7.5V24.7z"/>
</svg>
