<svg fill="currentColor" xmlns="http://www.w3.org/2000/svg" width="32" height="32" viewBox="0 0 32 32"><path d="M3.5 2.3h25c.7 0 1.3.2 1.8.7s.7 1.1.7 1.8v2.5c0 .7-.2 1.3-.7 1.8s-1.1.7-1.8.7h-25c-.7 0-1.3-.3-1.8-.8S1 7.9 1 7.3V4.8c0-.7.2-1.3.7-1.8s1.1-.7 1.8-.7zm25 2.4h-5v2.5h5V4.7zm-25 7.5h25c.7 0 1.3.2 1.8.7s.7 1.1.7 1.8v2.5c0 .7-.2 1.3-.7 1.8s-1.1.7-1.8.7h-25c-.7 0-1.3-.2-1.8-.7S1 17.9 1 17.2v-2.5c0-.7.2-1.3.7-1.8.5-.4 1.1-.7 1.8-.7zm25 2.5H16v2.5h12.5v-2.5zm-25 7.5h25c.7 0 1.3.2 1.8.7s.7 1.1.7 1.8v2.5c0 .7-.2 1.3-.7 1.8s-1.1.7-1.8.7h-25c-.7 0-1.3-.2-1.8-.7S1 27.9 1 27.2v-2.5c0-.7.2-1.3.7-1.8s1.1-.7 1.8-.7zm25 2.5H21v2.5h7.5v-2.5z"/></svg>