<?xml version="1.0" encoding="utf-8"?>
<!-- Generator: Adobe Illustrator 22.1.0, SVG Export Plug-In . SVG Version: 6.00 Build 0)  -->
<svg version="1.1" id="Ebene_1" xmlns="http://www.w3.org/2000/svg" xmlns:xlink="http://www.w3.org/1999/xlink" x="0px" y="0px"
	 width="32px" height="32px" viewBox="0 0 32 32" style="enable-background:new 0 0 32 32;" xml:space="preserve">
<title>untitled60</title>
<path d="M31,9.5h-1.1c0-0.3,0-0.6-0.1-0.8c-0.1-0.2-0.1-0.4-0.2-0.6c-0.1-0.2-0.2-0.3-0.4-0.4s-0.3-0.2-0.5-0.2
	c-0.1-0.1-0.3-0.1-0.6-0.1c-0.3,0-0.5,0-0.7,0c-0.2,0-0.4,0-0.8,0h-4.4v18.5c0,0.3,0.2,0.6,0.5,0.8c0.4,0.2,0.7,0.3,1.1,0.3l0.5,0
	v2.2h-8.7v-2.2c0.1,0,0.1,0,0.2,0s0.3,0,0.5-0.1c0.2,0,0.5-0.1,0.7-0.2c0.2-0.1,0.4-0.2,0.5-0.3c0.2-0.2,0.2-0.3,0.2-0.5V7.3h-4.4
	c-0.4,0-0.6,0-0.8,0c-0.2,0-0.4,0-0.7,0s-0.5,0.1-0.6,0.1c-0.1,0.1-0.3,0.1-0.5,0.2c-0.2,0.1-0.3,0.2-0.4,0.4s-0.1,0.3-0.2,0.6
	c-0.1,0.2-0.1,0.5-0.1,0.8H9.2V2.9H31L31,9.5L31,9.5z M6.5,7.3H4.8v17.5h1.6l-2.7,3.6L1,24.7h1.6V7.3H1l2.7-3.6L6.5,7.3z"/>
</svg>
