<svg fill="currentColor" xmlns="http://www.w3.org/2000/svg" width="32" height="32" viewBox="0 0 32 32"><path d="M27.8 8.1h-1.2c0-.3 0-.6-.1-.9-.1-.3-.1-.5-.2-.6-.1-.2-.2-.3-.4-.4-.2-.2-.4-.2-.6-.3-.1-.1-.4-.1-.7-.1h-6.3V21c0 .3.2.6.6.8s.8.3 1.2.3h.6v2.4h-9.4v-2.4h.3c.2 0 .3 0 .6-.1.3 0 .5-.1.7-.2.2-.1.4-.2.6-.4.2-.2.3-.4.3-.6V5.7H7.3c-.3.1-.5.1-.6.2-.2.1-.4.1-.5.3s-.4.2-.5.4c-.1.1-.1.3-.2.6-.1.2-.1.5-.1.9H4.2V1h23.5l.1 7.1zm1.5 20L25.4 31v-1.8H6.6V31l-3.9-2.9 3.9-2.9V27h18.8v-1.8l3.9 2.9z"/></svg>