<?xml version="1.0" encoding="utf-8"?>
<!-- Generator: Adobe Illustrator 22.1.0, SVG Export Plug-In . SVG Version: 6.00 Build 0)  -->
<svg version="1.1" id="Ebene_1" xmlns="http://www.w3.org/2000/svg" xmlns:xlink="http://www.w3.org/1999/xlink" x="0px" y="0px"
	 width="32px" height="32px" viewBox="0 0 32 32" style="enable-background:new 0 0 32 32;" xml:space="preserve">
<path d="M27.8,8.1h-1.2c0-0.3,0-0.6-0.1-0.9c-0.1-0.3-0.1-0.5-0.2-0.6c-0.1-0.2-0.2-0.3-0.4-0.4C25.7,6,25.5,6,25.3,5.9
	c-0.1-0.1-0.4-0.1-0.7-0.1c-0.3,0-0.5,0-0.7,0c-0.2,0-0.5,0-0.9,0h-4.7V21c0,0.3,0.2,0.6,0.6,0.8s0.8,0.3,1.2,0.3l0.6,0v2.4h-9.4
	v-2.4c0.1,0,0.1,0,0.3,0s0.3,0,0.6-0.1c0.3,0,0.5-0.1,0.7-0.2c0.2-0.1,0.4-0.2,0.6-0.4c0.2-0.2,0.3-0.4,0.3-0.6V5.7H8.9
	c-0.4,0-0.7,0-0.9,0s-0.4,0-0.7,0C7,5.8,6.8,5.8,6.7,5.9C6.5,6,6.3,6,6.2,6.2S5.8,6.4,5.7,6.6C5.6,6.7,5.6,6.9,5.5,7.2
	C5.4,7.4,5.4,7.7,5.4,8.1H4.2V1h23.5L27.8,8.1L27.8,8.1z M29.3,28.1L25.4,31v-1.8H6.6V31l-3.9-2.9l3.9-2.9v1.8h18.8v-1.8L29.3,28.1z
	"/>
</svg>
