<?xml version="1.0" encoding="utf-8"?>
<!-- Generator: Adobe Illustrator 22.1.0, SVG Export Plug-In . SVG Version: 6.00 Build 0)  -->
<svg version="1.1" id="Ebene_1" xmlns="http://www.w3.org/2000/svg" xmlns:xlink="http://www.w3.org/1999/xlink" x="0px" y="0px"
	 width="32px" height="32px" viewBox="0 0 32 32" style="enable-background:new 0 0 32 32;" xml:space="preserve">
<path d="M2.7,1.3h10.7c0.4,0,0.7,0.1,0.9,0.4s0.4,0.6,0.4,0.9v10.7c0,0.4-0.1,0.7-0.4,0.9s-0.6,0.4-0.9,0.4H2.7
	c-0.4,0-0.7-0.1-0.9-0.4s-0.4-0.6-0.4-0.9V2.7c0-0.4,0.1-0.7,0.4-0.9S2.3,1.3,2.7,1.3z M18.7,1.3h10.7c0.4,0,0.7,0.1,0.9,0.4
	c0.3,0.3,0.4,0.6,0.4,0.9v10.7c0,0.4-0.1,0.7-0.4,0.9s-0.6,0.4-0.9,0.4H18.7c-0.4,0-0.7-0.1-0.9-0.4c-0.3-0.3-0.4-0.6-0.4-0.9V2.7
	c0-0.4,0.1-0.7,0.4-0.9S18.3,1.3,18.7,1.3z M2.7,17.3h10.7c0.4,0,0.7,0.1,0.9,0.4c0.3,0.3,0.4,0.6,0.4,0.9v10.7
	c0,0.4-0.1,0.7-0.4,0.9c-0.3,0.3-0.6,0.4-0.9,0.4H2.7c-0.4,0-0.7-0.1-0.9-0.4s-0.4-0.6-0.4-0.9V18.7c0-0.4,0.1-0.7,0.4-0.9
	C2,17.5,2.3,17.3,2.7,17.3z M18.7,17.3h10.7c0.4,0,0.7,0.1,0.9,0.4c0.3,0.3,0.4,0.6,0.4,0.9v10.7c0,0.4-0.1,0.7-0.4,0.9
	c-0.3,0.3-0.6,0.4-0.9,0.4H18.7c-0.4,0-0.7-0.1-0.9-0.4c-0.3-0.3-0.4-0.6-0.4-0.9V18.7c0-0.4,0.1-0.7,0.4-0.9
	C18,17.5,18.3,17.3,18.7,17.3z"/>
</svg>
