<svg fill="currentColor" xmlns="http://www.w3.org/2000/svg" width="32" height="32" viewBox="0 0 32 32"><path d="M2.7 1.3h10.7c.4 0 .7.1.9.4s.4.6.4.9v10.7c0 .4-.1.7-.4.9s-.6.4-.9.4H2.7c-.4 0-.7-.1-.9-.4s-.4-.6-.4-.9V2.7c0-.4.1-.7.4-.9s.5-.5.9-.5zm16 0h10.7c.4 0 .7.1.9.4.3.3.4.6.4.9v10.7c0 .4-.1.7-.4.9s-.6.4-.9.4H18.7c-.4 0-.7-.1-.9-.4-.3-.3-.4-.6-.4-.9V2.7c0-.4.1-.7.4-.9s.5-.5.9-.5zm-16 16h10.7c.4 0 .7.1.9.4.3.3.4.6.4.9v10.7c0 .4-.1.7-.4.9-.3.3-.6.4-.9.4H2.7c-.4 0-.7-.1-.9-.4s-.4-.6-.4-.9V18.7c0-.4.1-.7.4-.9.2-.3.5-.5.9-.5zm16 0h10.7c.4 0 .7.1.9.4.3.3.4.6.4.9v10.7c0 .4-.1.7-.4.9-.3.3-.6.4-.9.4H18.7c-.4 0-.7-.1-.9-.4-.3-.3-.4-.6-.4-.9V18.7c0-.4.1-.7.4-.9.2-.3.5-.5.9-.5z"/></svg>