<?xml version="1.0" encoding="utf-8"?>
<!-- Generator: Adobe Illustrator 22.1.0, SVG Export Plug-In . SVG Version: 6.00 Build 0)  -->
<svg version="1.1" id="Ebene_1" xmlns="http://www.w3.org/2000/svg" xmlns:xlink="http://www.w3.org/1999/xlink" x="0px" y="0px"
	 width="32px" height="32px" viewBox="0 0 32 32" style="enable-background:new 0 0 32 32;" xml:space="preserve">
<path d="M2.3,2.3h5c0.3,0,0.6,0.1,0.9,0.4c0.2,0.2,0.4,0.5,0.4,0.9v5c0,0.3-0.1,0.6-0.4,0.9C7.9,9.6,7.6,9.8,7.2,9.8h-5
	c-0.3,0-0.6-0.1-0.9-0.4C1.1,9.1,1,8.9,1,8.5v-5c0-0.3,0.1-0.6,0.4-0.9S1.9,2.3,2.3,2.3z M12.3,2.3h17.5c0.3,0,0.6,0.1,0.9,0.4
	S31,3.2,31,3.5v5c0,0.3-0.1,0.6-0.4,0.9s-0.5,0.4-0.9,0.4H12.3c-0.3,0-0.6-0.1-0.9-0.4C11.1,9.1,11,8.9,11,8.5v-5
	c0-0.3,0.1-0.6,0.4-0.9C11.6,2.4,11.9,2.3,12.3,2.3z M2.3,12.2h5c0.3,0,0.6,0.1,0.9,0.4c0.2,0.2,0.4,0.5,0.4,0.9v5
	c0,0.3-0.1,0.6-0.4,0.9c-0.2,0.2-0.5,0.4-0.9,0.4h-5c-0.3,0-0.6-0.1-0.9-0.4S1,18.8,1,18.5v-5c0-0.3,0.1-0.6,0.4-0.9
	S1.9,12.2,2.3,12.2z M12.3,12.2h17.5c0.3,0,0.6,0.1,0.9,0.4s0.4,0.5,0.4,0.9v5c0,0.3-0.1,0.6-0.4,0.9s-0.5,0.4-0.9,0.4H12.3
	c-0.3,0-0.6-0.1-0.9-0.4c-0.2-0.2-0.4-0.5-0.4-0.9v-5c0-0.3,0.1-0.6,0.4-0.9C11.6,12.4,11.9,12.2,12.3,12.2z M2.3,22.2h5
	c0.3,0,0.6,0.1,0.9,0.4c0.2,0.2,0.4,0.5,0.4,0.9v5c0,0.3-0.1,0.6-0.4,0.9c-0.2,0.2-0.5,0.4-0.9,0.4h-5c-0.3,0-0.6-0.1-0.9-0.4
	S1,28.8,1,28.5v-5c0-0.3,0.1-0.6,0.4-0.9S1.9,22.2,2.3,22.2z M12.3,22.2h17.5c0.3,0,0.6,0.1,0.9,0.4s0.4,0.5,0.4,0.9v5
	c0,0.3-0.1,0.6-0.4,0.9c-0.2,0.2-0.5,0.4-0.9,0.4H12.3c-0.3,0-0.6-0.1-0.9-0.4c-0.2-0.2-0.4-0.5-0.4-0.9v-5c0-0.3,0.1-0.6,0.4-0.9
	C11.6,22.4,11.9,22.2,12.3,22.2z"/>
</svg>
