<svg fill="currentColor" xmlns="http://www.w3.org/2000/svg" width="32" height="32" viewBox="0 0 32 32"><path d="M2.3 2.3h5c.3 0 .6.1.9.4.2.2.4.5.4.9v5c0 .3-.1.6-.4.9-.3.1-.6.3-1 .3h-5c-.3 0-.6-.1-.9-.4-.2-.3-.3-.5-.3-.9v-5c0-.3.1-.6.4-.9s.5-.3.9-.3zm10 0h17.5c.3 0 .6.1.9.4s.3.5.3.8v5c0 .3-.1.6-.4.9s-.5.4-.9.4H12.3c-.3 0-.6-.1-.9-.4-.3-.3-.4-.5-.4-.9v-5c0-.3.1-.6.4-.9.2-.2.5-.3.9-.3zm-10 9.9h5c.3 0 .6.1.9.4.2.2.4.5.4.9v5c0 .3-.1.6-.4.9-.2.2-.5.4-.9.4h-5c-.3 0-.6-.1-.9-.4s-.4-.6-.4-.9v-5c0-.3.1-.6.4-.9s.5-.4.9-.4zm10 0h17.5c.3 0 .6.1.9.4s.4.5.4.9v5c0 .3-.1.6-.4.9s-.5.4-.9.4H12.3c-.3 0-.6-.1-.9-.4-.2-.2-.4-.5-.4-.9v-5c0-.3.1-.6.4-.9.2-.2.5-.4.9-.4zm-10 10h5c.3 0 .6.1.9.4.2.2.4.5.4.9v5c0 .3-.1.6-.4.9-.2.2-.5.4-.9.4h-5c-.3 0-.6-.1-.9-.4s-.4-.6-.4-.9v-5c0-.3.1-.6.4-.9s.5-.4.9-.4zm10 0h17.5c.3 0 .6.1.9.4s.4.5.4.9v5c0 .3-.1.6-.4.9-.2.2-.5.4-.9.4H12.3c-.3 0-.6-.1-.9-.4-.2-.2-.4-.5-.4-.9v-5c0-.3.1-.6.4-.9.2-.2.5-.4.9-.4z"/></svg>