<?xml version="1.0" encoding="utf-8"?>
<!-- Generator: Adobe Illustrator 22.1.0, SVG Export Plug-In . SVG Version: 6.00 Build 0)  -->
<svg version="1.1" id="Ebene_1" xmlns="http://www.w3.org/2000/svg" xmlns:xlink="http://www.w3.org/1999/xlink" x="0px" y="0px"
	 width="32px" height="32px" viewBox="0 0 32 32" style="enable-background:new 0 0 32 32;" xml:space="preserve">
<path d="M2.7,1.3H8c0.4,0,0.7,0.1,0.9,0.4C9.2,2,9.3,2.3,9.3,2.7V8c0,0.4-0.1,0.7-0.4,0.9S8.4,9.3,8,9.3H2.7C2.3,9.3,2,9.2,1.7,8.9
	C1.5,8.7,1.3,8.4,1.3,8V2.7c0-0.4,0.1-0.7,0.4-0.9S2.3,1.3,2.7,1.3z M13.3,1.3h5.3c0.4,0,0.7,0.1,0.9,0.4C19.9,2,20,2.3,20,2.7V8
	c0,0.4-0.1,0.7-0.4,0.9S19,9.3,18.7,9.3h-5.3c-0.4,0-0.7-0.1-0.9-0.4C12.1,8.7,12,8.4,12,8V2.7c0-0.4,0.1-0.7,0.4-0.9
	S13,1.3,13.3,1.3z M24,1.3h5.3c0.4,0,0.7,0.1,0.9,0.4c0.3,0.3,0.4,0.6,0.4,0.9V8c0,0.4-0.1,0.7-0.4,0.9s-0.6,0.4-0.9,0.4H24
	c-0.4,0-0.7-0.1-0.9-0.4c-0.3-0.3-0.4-0.6-0.4-0.9V2.7c0-0.4,0.1-0.7,0.4-0.9S23.6,1.3,24,1.3z M2.7,12H8c0.4,0,0.7,0.1,0.9,0.4
	c0.3,0.3,0.4,0.6,0.4,0.9v5.3c0,0.4-0.1,0.7-0.4,0.9S8.4,20,8,20H2.7c-0.4,0-0.7-0.1-0.9-0.4S1.3,19,1.3,18.7v-5.3
	c0-0.4,0.1-0.7,0.4-0.9S2.3,12,2.7,12z M13.3,12h5.3c0.4,0,0.7,0.1,0.9,0.4c0.3,0.3,0.4,0.6,0.4,0.9v5.3c0,0.4-0.1,0.7-0.4,0.9
	S19,20,18.7,20h-5.3c-0.4,0-0.7-0.1-0.9-0.4S12,19,12,18.7v-5.3c0-0.4,0.1-0.7,0.4-0.9S13,12,13.3,12z M24,12h5.3
	c0.4,0,0.7,0.1,0.9,0.4c0.3,0.3,0.4,0.6,0.4,0.9v5.3c0,0.4-0.1,0.7-0.4,0.9S29.7,20,29.3,20H24c-0.4,0-0.7-0.1-0.9-0.4
	c-0.3-0.3-0.4-0.6-0.4-0.9v-5.3c0-0.4,0.1-0.7,0.4-0.9S23.6,12,24,12z M2.7,22.7H8c0.4,0,0.7,0.1,0.9,0.4c0.3,0.3,0.4,0.6,0.4,0.9
	v5.3c0,0.4-0.1,0.7-0.4,0.9c-0.3,0.3-0.6,0.4-0.9,0.4H2.7c-0.4,0-0.7-0.1-0.9-0.4s-0.4-0.6-0.4-0.9V24c0-0.4,0.1-0.7,0.4-0.9
	S2.3,22.7,2.7,22.7z M13.3,22.7h5.3c0.4,0,0.7,0.1,0.9,0.4c0.3,0.3,0.4,0.6,0.4,0.9v5.3c0,0.4-0.1,0.7-0.4,0.9
	c-0.3,0.3-0.6,0.4-0.9,0.4h-5.3c-0.4,0-0.7-0.1-0.9-0.4S12,29.7,12,29.3V24c0-0.4,0.1-0.7,0.4-0.9S13,22.7,13.3,22.7z M24,22.7h5.3
	c0.4,0,0.7,0.1,0.9,0.4c0.3,0.3,0.4,0.6,0.4,0.9v5.3c0,0.4-0.1,0.7-0.4,0.9c-0.3,0.3-0.6,0.4-0.9,0.4H24c-0.4,0-0.7-0.1-0.9-0.4
	c-0.3-0.3-0.4-0.6-0.4-0.9V24c0-0.4,0.1-0.7,0.4-0.9S23.6,22.7,24,22.7z"/>
</svg>
