<svg fill="currentColor" xmlns="http://www.w3.org/2000/svg" width="32" height="32" viewBox="0 0 32 32"><path d="M2.7 1.3H8c.4 0 .7.1.9.4.3.3.4.6.4 1V8c0 .4-.1.7-.4.9s-.5.4-.9.4H2.7c-.4 0-.7-.1-1-.4-.2-.2-.4-.5-.4-.9V2.7c0-.4.1-.7.4-.9s.6-.5 1-.5zm10.6 0h5.3c.4 0 .7.1.9.4.4.3.5.6.5 1V8c0 .4-.1.7-.4.9s-.6.4-.9.4h-5.3c-.4 0-.7-.1-.9-.4-.4-.2-.5-.5-.5-.9V2.7c0-.4.1-.7.4-.9s.6-.5.9-.5zm10.7 0h5.3c.4 0 .7.1.9.4.3.3.4.6.4.9V8c0 .4-.1.7-.4.9s-.6.4-.9.4H24c-.4 0-.7-.1-.9-.4-.3-.3-.4-.6-.4-.9V2.7c0-.4.1-.7.4-.9s.5-.5.9-.5zM2.7 12H8c.4 0 .7.1.9.4.3.3.4.6.4.9v5.3c0 .4-.1.7-.4.9s-.5.5-.9.5H2.7c-.4 0-.7-.1-.9-.4s-.5-.6-.5-.9v-5.3c0-.4.1-.7.4-.9s.6-.5 1-.5zm10.6 0h5.3c.4 0 .7.1.9.4.3.3.4.6.4.9v5.3c0 .4-.1.7-.4.9s-.5.5-.8.5h-5.3c-.4 0-.7-.1-.9-.4s-.5-.6-.5-.9v-5.3c0-.4.1-.7.4-.9s.6-.5.9-.5zM24 12h5.3c.4 0 .7.1.9.4.3.3.4.6.4.9v5.3c0 .4-.1.7-.4.9s-.5.5-.9.5H24c-.4 0-.7-.1-.9-.4-.3-.3-.4-.6-.4-.9v-5.3c0-.4.1-.7.4-.9s.5-.5.9-.5zM2.7 22.7H8c.4 0 .7.1.9.4.3.3.4.6.4.9v5.3c0 .4-.1.7-.4.9-.3.3-.6.4-.9.4H2.7c-.4 0-.7-.1-.9-.4s-.4-.6-.4-.9V24c0-.4.1-.7.4-.9s.5-.4.9-.4zm10.6 0h5.3c.4 0 .7.1.9.4.3.3.4.6.4.9v5.3c0 .4-.1.7-.4.9-.3.3-.6.4-.9.4h-5.3c-.4 0-.7-.1-.9-.4s-.4-.5-.4-.9V24c0-.4.1-.7.4-.9s.6-.4.9-.4zm10.7 0h5.3c.4 0 .7.1.9.4.3.3.4.6.4.9v5.3c0 .4-.1.7-.4.9-.3.3-.6.4-.9.4H24c-.4 0-.7-.1-.9-.4-.3-.3-.4-.6-.4-.9V24c0-.4.1-.7.4-.9s.5-.4.9-.4z"/></svg>