<?xml version="1.0" encoding="utf-8"?>
<!-- Generator: Adobe Illustrator 22.1.0, SVG Export Plug-In . SVG Version: 6.00 Build 0)  -->
<svg version="1.1" id="Ebene_1" xmlns="http://www.w3.org/2000/svg" xmlns:xlink="http://www.w3.org/1999/xlink" x="0px" y="0px"
	 width="32px" height="32px" viewBox="0 0 32 32" style="enable-background:new 0 0 32 32;" xml:space="preserve">
<path d="M16,2.3h6.3c0.4,0,0.8,0.1,1.1,0.4s0.7,0.6,0.9,1l6,8.6c0.5,0.5,0.7,1.1,0.7,1.8v2.5c0,0.7-0.2,1.4-0.7,2.1
	c-0.5,0.7-1.1,1-1.8,1h-8.2c0.5,2,0.7,3,0.7,3.1v3.7c0,0.7-0.2,1.4-0.7,2.1c-0.5,0.7-1.1,1-1.8,1h-1.2c-0.4,0-0.9-0.2-1.3-0.5
	s-0.7-0.7-0.9-1.2l-2.4-4.9L9,18.2c-0.3-0.4-0.5-1-0.5-1.6v-10c0-0.6,0.2-1.1,0.7-1.4s1.1-0.4,1.8-0.4h1.5C14.6,3.1,15.8,2.3,16,2.3
	L16,2.3z M2.3,4.8h2.5c0.3,0,0.6,0.1,0.9,0.4C5.9,5.4,6,5.7,6,6v12.5c0,0.3-0.1,0.6-0.4,0.9c-0.2,0.2-0.5,0.4-0.9,0.4H2.3
	c-0.3,0-0.6-0.1-0.9-0.4C1.1,19.1,1,18.9,1,18.5V6c0-0.3,0.1-0.6,0.4-0.9S1.9,4.8,2.3,4.8z M16.9,4.8l-3.4,2.5H11v9.4l3.7,5.3
	l2.5,5.3h1.2v-4.4l-1.2-5.6h11.2v-3.1l-6.3-9.4L16.9,4.8L16.9,4.8z"/>
</svg>
