<svg fill="currentColor" xmlns="http://www.w3.org/2000/svg" width="32" height="32" viewBox="0 0 32 32"><path d="M17.3 2.3h1.2c.7 0 1.3.3 1.8 1 .5.6.7 1.3.7 2.1v3.7l-.7 3.1h8.2c.7 0 1.3.3 1.8 1s.7 1.4.7 2.1v2.5c0 .7-.2 1.4-.7 1.8l-6 8.6c-.3.4-.6.7-.9 1-.4.3-.7.4-1.1.4H16c-.1 0-.5-.2-1-.6-.6-.4-1.1-.8-1.6-1.2l-.8-.6H11c-.7 0-1.4-.1-1.8-.4-.5-.3-.7-.8-.7-1.4v-10c0-.6.2-1.1.5-1.6l3.6-4.9 2.4-5c.2-.5.5-.9.9-1.2.5-.3.9-.4 1.4-.4zm0 2.5l-2.5 5.3-3.8 5.3v9.4h2.5l3.4 2.5h5.4l6.3-9.4v-3.1H17.3l1.2-5.6V4.8h-1.2zm-15 7.5h2.5c.3 0 .6.1.9.4.2.2.3.5.3.8V26c0 .3-.1.6-.4.9-.2.2-.5.4-.9.4H2.3c-.3 0-.6-.1-.9-.4-.3-.3-.4-.5-.4-.9V13.5c0-.3.1-.6.4-.9.2-.2.5-.3.9-.3z"/></svg>