<?xml version="1.0" encoding="utf-8"?>
<!-- Generator: Adobe Illustrator 22.1.0, SVG Export Plug-In . SVG Version: 6.00 Build 0)  -->
<svg version="1.1" id="Ebene_1" xmlns="http://www.w3.org/2000/svg" xmlns:xlink="http://www.w3.org/1999/xlink" x="0px" y="0px"
	 width="32px" height="32px" viewBox="0 0 32 32" style="enable-background:new 0 0 32 32;" xml:space="preserve">
<path d="M17.3,2.3h1.2c0.7,0,1.3,0.3,1.8,1C20.8,3.9,21,4.6,21,5.4v3.7l-0.7,3.1h8.2c0.7,0,1.3,0.3,1.8,1c0.5,0.7,0.7,1.4,0.7,2.1
	v2.5c0,0.7-0.2,1.4-0.7,1.8l-6,8.6c-0.3,0.4-0.6,0.7-0.9,1c-0.4,0.3-0.7,0.4-1.1,0.4H16c-0.1,0-0.5-0.2-1-0.6
	c-0.6-0.4-1.1-0.8-1.6-1.2l-0.8-0.6H11c-0.7,0-1.4-0.1-1.8-0.4c-0.5-0.3-0.7-0.8-0.7-1.4v-10c0-0.6,0.2-1.1,0.5-1.6l3.6-4.9L15,3.9
	c0.2-0.5,0.5-0.9,0.9-1.2C16.4,2.4,16.8,2.3,17.3,2.3L17.3,2.3z M17.3,4.8l-2.5,5.3L11,15.4v9.4h2.5l3.4,2.5h5.4l6.3-9.4v-3.1H17.3
	l1.2-5.6V4.8L17.3,4.8L17.3,4.8z M2.3,12.3h2.5c0.3,0,0.6,0.1,0.9,0.4C5.9,12.9,6,13.2,6,13.5V26c0,0.3-0.1,0.6-0.4,0.9
	c-0.2,0.2-0.5,0.4-0.9,0.4H2.3c-0.3,0-0.6-0.1-0.9-0.4C1.1,26.6,1,26.4,1,26V13.5c0-0.3,0.1-0.6,0.4-0.9C1.6,12.4,1.9,12.3,2.3,12.3
	z"/>
</svg>
