<svg fill="currentColor" xmlns="http://www.w3.org/2000/svg" width="32" height="32" viewBox="0 0 32 32"><path d="M16 2.3h6.3c.4 0 .8.1 1.1.4s.7.6.9 1l6 8.6c.5.5.7 1.1.7 1.8v2.5c0 .7-.2 1.4-.7 2.1-.5.7-1.1 1-1.8 1h-8.2c.5 2 .7 3 .7 3.1v3.7c0 .7-.2 1.4-.7 2.1-.5.7-1.1 1-1.8 1h-1.2c-.4 0-.9-.2-1.3-.5s-.7-.7-.9-1.2L12.7 23 9 18.2c-.3-.4-.5-1-.5-1.6v-10c0-.6.2-1.1.7-1.4s1.1-.4 1.8-.4h1.5c2.1-1.7 3.3-2.5 3.5-2.5zM2.3 4.8h2.5c.3 0 .6.1.9.4.2.2.3.5.3.8v12.5c0 .3-.1.6-.4.9-.2.2-.5.4-.9.4H2.3c-.3 0-.6-.1-.9-.4-.3-.3-.4-.5-.4-.9V6c0-.3.1-.6.4-.9s.5-.3.9-.3zm14.6 0l-3.4 2.5H11v9.4l3.7 5.3 2.5 5.3h1.2v-4.4l-1.2-5.6h11.2v-3.1l-6.3-9.4h-5.2z"/></svg>