<svg fill="currentColor" xmlns="http://www.w3.org/2000/svg" width="32" height="32" viewBox="0 0 32 32"><path d="M16 1c2 0 4 .4 5.8 1.2 1.9.8 3.5 1.8 4.8 3.2 1.3 1.3 2.4 2.9 3.2 4.8C30.6 12 31 14 31 16s-.4 4-1.2 5.8c-.8 1.9-1.9 3.5-3.2 4.8-1.3 1.3-2.9 2.4-4.8 3.2C20 30.6 18 31 16 31s-4-.4-5.8-1.2C8.3 29 6.7 28 5.4 26.6 4 25.3 3 23.7 2.2 21.8 1.4 20 1 18 1 16s.4-4 1.2-5.8S4 6.7 5.4 5.4 8.3 3 10.2 2.2 14 1 16 1zm0 3.9c-2 0-3.9.5-5.6 1.5s-3.1 2.3-4 4S4.9 14 4.9 16s.5 3.9 1.5 5.6c1 1.7 2.3 3.1 4 4 1.7 1 3.6 1.5 5.6 1.5s3.9-.5 5.6-1.5c1.7-1 3.1-2.3 4-4 1-1.7 1.5-3.6 1.5-5.6 0-2-.5-3.9-1.5-5.6s-2.3-3.1-4-4c-1.7-1-3.6-1.5-5.6-1.5zm-1.9 3.3h1.3c.2 0 .3.1.5.2 0 .1.1.3.1.5V16h4.5c.2 0 .3.1.5.2.1.1.2.3.2.5V18c0 .2-.1.3-.2.5-.1.1-.3.2-.5.2H14c-.2 0-.3-.1-.5-.2-.1-.1-.2-.3-.2-.5V8.9c0-.2.1-.3.2-.5.2-.1.4-.2.6-.2z"/></svg>