<?xml version="1.0" encoding="utf-8"?>
<!-- Generator: Adobe Illustrator 22.1.0, SVG Export Plug-In . SVG Version: 6.00 Build 0)  -->
<svg version="1.1" id="Ebene_1" xmlns="http://www.w3.org/2000/svg" xmlns:xlink="http://www.w3.org/1999/xlink" x="0px" y="0px"
	 width="32px" height="32px" viewBox="0 0 32 32" style="enable-background:new 0 0 32 32;" xml:space="preserve">
<path d="M16,1c0.3,1.1,0.8,2.2,1.3,3.3c0.6,1.1,1.2,2.1,1.8,3c0.6,0.9,1.3,1.8,1.9,2.7c0.7,0.9,1.3,1.8,1.9,2.7
	c0.6,0.9,1.1,1.8,1.6,2.7c0.5,0.9,0.9,1.9,1.1,2.9c0.3,1,0.4,2.1,0.4,3.2c0,1.1-0.2,2.1-0.6,3.1c-0.4,1-0.9,1.9-1.6,2.6
	c-0.7,0.7-1.4,1.4-2.3,1.9s-1.8,1-2.8,1.3c-1,0.3-1.9,0.5-2.9,0.5c-1.3-0.1-2.6-0.3-3.8-0.8C11,29.8,10,29.2,9,28.4
	c-1-0.8-1.7-1.7-2.3-2.9c-0.6-1.2-0.9-2.4-0.9-3.8c0-1.1,0.1-2.1,0.4-3.2c0.3-1,0.7-2,1.1-2.9c0.5-0.9,1-1.8,1.6-2.7
	c0.6-0.9,1.2-1.8,1.9-2.7s1.3-1.8,1.9-2.8s1.2-1.9,1.8-3C15.2,3.2,15.7,2.1,16,1L16,1z M11.1,14.6c-0.4,0.5-0.7,1.1-1,1.6
	c-0.3,0.6-0.6,1.4-0.9,2.4c-0.3,1-0.4,2-0.4,2.9c0,0.6,0.1,1.1,0.3,1.6c0.2,0.5,0.4,0.9,0.7,1.2s0.6,0.6,1,0.9
	c0.4,0.3,0.7,0.5,0.9,0.6c0.2,0.1,0.5,0.2,0.8,0.3c0.3,0.1,0.6,0.1,0.7,0c0.2-0.1,0.3-0.3,0.3-0.5l0.1-0.8c0-0.2,0-0.3-0.1-0.5
	c-0.1-0.2-0.2-0.3-0.3-0.4c-0.1-0.1-0.2-0.2-0.3-0.3c-0.1-0.1-0.4-0.4-0.7-0.9s-0.6-1.1-0.8-1.7c-0.4-1.4-0.4-3.5,0.1-6.3
	c0-0.2,0-0.3-0.1-0.3C11.3,14.3,11.2,14.4,11.1,14.6L11.1,14.6z"/>
</svg>
