<svg xmlns="http://www.w3.org/2000/svg" width="32" height="32" fill="currentColor" viewBox="0 0 32 32"><path d="M16 1c.3 1.1.8 2.2 1.3 3.3q.9 1.65 1.8 3c.6.9 1.3 1.8 1.9 2.7.7.9 1.3 1.8 1.9 2.7s1.1 1.8 1.6 2.7.9 1.9 1.1 2.9c.3 1 .4 2.1.4 3.2s-.2 2.1-.6 3.1-.9 1.9-1.6 2.6-1.4 1.4-2.3 1.9-1.8 1-2.8 1.3-1.9.5-2.9.5c-1.3-.1-2.6-.3-3.8-.8-1-.3-2-.9-3-1.7s-1.7-1.7-2.3-2.9-.9-2.4-.9-3.8c0-1.1.1-2.1.4-3.2.3-1 .7-2 1.1-2.9.5-.9 1-1.8 1.6-2.7s1.2-1.8 1.9-2.7 1.3-1.8 1.9-2.8 1.2-1.9 1.8-3c.7-1.2 1.2-2.3 1.5-3.4m-4.9 13.6c-.4.5-.7 1.1-1 1.6q-.45.9-.9 2.4c-.3 1-.4 2-.4 2.9 0 .6.1 1.1.3 1.6s.4.9.7 1.2.6.6 1 .9q.6.45.9.6c.2.1.5.2.8.3s.6.1.7 0c.2-.1.3-.3.3-.5l.1-.8c0-.2 0-.3-.1-.5s-.2-.3-.3-.4l-.3-.3c-.1-.1-.4-.4-.7-.9s-.6-1.1-.8-1.7c-.4-1.4-.4-3.5.1-6.3 0-.2 0-.3-.1-.3-.1-.1-.2 0-.3.2"/></svg>