<?xml version="1.0" encoding="utf-8"?>
<!-- Generator: Adobe Illustrator 22.1.0, SVG Export Plug-In . SVG Version: 6.00 Build 0)  -->
<svg version="1.1" id="Ebene_1" xmlns="http://www.w3.org/2000/svg" xmlns:xlink="http://www.w3.org/1999/xlink" x="0px" y="0px"
	 width="32px" height="32px" viewBox="0 0 32 32" style="enable-background:new 0 0 32 32;" xml:space="preserve">
<path d="M28.5,13.5l-5,5h-15l-5-5V1h5v5h5V1h5v5h5V1h5L28.5,13.5L28.5,13.5z M7.3,21h17.5c0.3,0,0.6,0.1,0.9,0.4
	c0.2,0.2,0.4,0.5,0.4,0.9c0,0.3-0.1,0.6-0.4,0.9c-0.2,0.2-0.5,0.4-0.9,0.4h-0.3l3.4,2.5H4.1l3.4-2.5H7.3c-0.3,0-0.6-0.1-0.9-0.4
	C6.1,22.9,6,22.6,6,22.3s0.1-0.6,0.4-0.9C6.6,21.1,6.9,21,7.3,21z M2.2,28.5h27.5c0.3,0,0.6,0.1,0.9,0.4s0.4,0.5,0.4,0.9V31H1v-1.2
	c0-0.4,0.1-0.6,0.4-0.9S1.9,28.5,2.2,28.5L2.2,28.5z"/>
</svg>
