<svg xmlns="http://www.w3.org/2000/svg" width="32" height="32" fill="currentColor" viewBox="0 0 32 32"><path d="m24.4 3.1 6.2 5.8c.3.2.4.5.4.8s-.1.6-.4.9l-6.2 5.8q-.3.3-.6.3-.3-.15-.3-.6v-3.8h-10v-5h10.1V3.4q0-.6.3-.6c.1-.1.3 0 .5.3M5.9 12.2H4.7c-.4 0-.6-.1-.9-.4s-.4-.5-.4-.8V8.5c0-.4.1-.6.4-.9.2-.3.5-.4.9-.4H6v5zm5.1 0H8.5v-5H11zm-9.6 9.2 6.2-5.8q.3-.3.6-.3.3.15.3.6v3.8h10.1v5H8.5v3.8q0 .6-.3.6c-.3 0-.4 0-.6-.3L1.4 23c-.3-.1-.4-.4-.4-.7 0-.4.1-.7.4-.9m22.1 3.4H21v-5h2.5zm2.6-5h1.3c.3 0 .6.1.9.4.2.2.4.5.4.9v2.5c0 .4-.1.6-.4.9s-.5.4-.9.4h-1.3z"/></svg>