<svg fill="currentColor" xmlns="http://www.w3.org/2000/svg" width="32" height="32" viewBox="0 0 32 32"><path d="M12.5 1h6.9c.6 0 1.2.2 1.6.7.5.5.7 1 .7 1.6v2.3H28c.2 0 .3.1.4.2s.2.3.2.4v1.7H3.3V6.2c0-.2.1-.3.2-.4.1-.1.3-.2.4-.2h6.3V3.3c0-.6.2-1.2.7-1.6.5-.5 1-.7 1.6-.7zm0 2.3v2.3h6.9V3.3h-6.9zm13.9 6.9v18.5c0 .6-.2 1.2-.7 1.6-.5.5-1 .7-1.6.7H7.9c-.6 0-1.2-.2-1.6-.7-.5-.5-.7-1-.7-1.6V10.2h20.8zM7.9 12.5v16.2h2.3V12.5H7.9zm4.6 0v16.2h2.3V12.5h-2.3zm4.7 0v16.2h2.3V12.5h-2.3zm4.6 0v16.2h2.3V12.5h-2.3z"/></svg>