<?xml version="1.0" encoding="utf-8"?>
<!-- Generator: Adobe Illustrator 22.1.0, SVG Export Plug-In . SVG Version: 6.00 Build 0)  -->
<svg version="1.1" id="Ebene_1" xmlns="http://www.w3.org/2000/svg" xmlns:xlink="http://www.w3.org/1999/xlink" x="0px" y="0px"
	 width="32px" height="32px" viewBox="0 0 32 32" style="enable-background:new 0 0 32 32;" xml:space="preserve">
<path d="M12.5,1h6.9c0.6,0,1.2,0.2,1.6,0.7c0.5,0.5,0.7,1,0.7,1.6v2.3h6.3c0.2,0,0.3,0.1,0.4,0.2s0.2,0.3,0.2,0.4v1.7H3.3V6.2
	c0-0.2,0.1-0.3,0.2-0.4c0.1-0.1,0.3-0.2,0.4-0.2h6.3V3.3c0-0.6,0.2-1.2,0.7-1.6C11.4,1.2,11.9,1,12.5,1L12.5,1z M12.5,3.3v2.3h6.9
	V3.3H12.5z M26.4,10.2v18.5c0,0.6-0.2,1.2-0.7,1.6c-0.5,0.5-1,0.7-1.6,0.7H7.9c-0.6,0-1.2-0.2-1.6-0.7c-0.5-0.5-0.7-1-0.7-1.6V10.2
	H26.4L26.4,10.2z M7.9,12.5v16.2h2.3V12.5H7.9z M12.5,12.5v16.2h2.3V12.5H12.5z M17.2,12.5v16.2h2.3V12.5H17.2z M21.8,12.5v16.2h2.3
	V12.5H21.8z"/>
</svg>
