<svg fill="currentColor" xmlns="http://www.w3.org/2000/svg" width="32" height="32" viewBox="0 0 32 32"><path d="M16 1c1.6 0 3 .5 4.3 1.4 1.2 1 2.1 2.2 2.5 3.7 1.5.1 2.8.7 3.8 1.8s1.6 2.4 1.6 4c0 1-.3 2-.8 2.9-.5.9-1.2 1.6-2 2.1.2.5.2 1 .2 1.4 0 1.3-.4 2.3-1.3 3.2-.9.9-2 1.3-3.2 1.3-.9 0-1.8-.3-2.5-.8v6.4c.4 0 .7.1.9.4.2.2.4.5.4.9V31h-7.6v-1.3c0-.4.1-.7.4-.9.2-.2.5-.4.9-.4V22c-.8.5-1.6.8-2.5.8-1.3 0-2.3-.4-3.2-1.3s-1.3-2-1.3-3.2c0-.3 0-.6.1-1-1-.3-1.7-.9-2.2-1.6s-.7-1.6-.7-2.5c0-1.3.4-2.3 1.3-3.2.9-.9 2-1.3 3.2-1.3.1 0 .3 0 .6.1v-.6c0-2 .7-3.6 2.1-5S14 1 16 1z"/></svg>