<?xml version="1.0" encoding="utf-8"?>
<!-- Generator: Adobe Illustrator 22.1.0, SVG Export Plug-In . SVG Version: 6.00 Build 0)  -->
<svg version="1.1" id="Ebene_1" xmlns="http://www.w3.org/2000/svg" xmlns:xlink="http://www.w3.org/1999/xlink" x="0px" y="0px"
	 width="32px" height="32px" viewBox="0 0 32 32" style="enable-background:new 0 0 32 32;" xml:space="preserve">
<path d="M16,1c1.6,0,3,0.5,4.3,1.4c1.2,1,2.1,2.2,2.5,3.7c1.5,0.1,2.8,0.7,3.8,1.8s1.6,2.4,1.6,4c0,1-0.3,2-0.8,2.9
	c-0.5,0.9-1.2,1.6-2,2.1c0.2,0.5,0.2,1,0.2,1.4c0,1.3-0.4,2.3-1.3,3.2c-0.9,0.9-2,1.3-3.2,1.3c-0.9,0-1.8-0.3-2.5-0.8v6.4
	c0.4,0,0.7,0.1,0.9,0.4c0.2,0.2,0.4,0.5,0.4,0.9V31h-7.6v-1.3c0-0.4,0.1-0.7,0.4-0.9c0.2-0.2,0.5-0.4,0.9-0.4v-6.4
	c-0.8,0.5-1.6,0.8-2.5,0.8c-1.3,0-2.3-0.4-3.2-1.3s-1.3-2-1.3-3.2c0-0.3,0-0.6,0.1-1C5.7,17,5,16.4,4.5,15.7s-0.7-1.6-0.7-2.5
	c0-1.3,0.4-2.3,1.3-3.2c0.9-0.9,2-1.3,3.2-1.3c0.1,0,0.3,0,0.6,0.1c0,0,0-0.1,0-0.3c0-0.1,0-0.2,0-0.3c0-2,0.7-3.6,2.1-5S14,1,16,1
	L16,1z"/>
</svg>
