<svg fill="currentColor" xmlns="http://www.w3.org/2000/svg" width="32" height="32" viewBox="0 0 32 32"><path d="M16.9 1v1.9c.6.1 1.2.2 1.8.4s1.2.4 1.8.8c.7.4 1.2.8 1.7 1.3s.9 1.2 1.3 2c.4.9.6 1.8.6 2.9h-3.9c-.1-.6-.2-1.1-.3-1.4-.1-.4-.3-.7-.5-1.1-.2-.4-.6-.6-1-.9s-.9-.4-1.6-.5v7.5l1.6.3c.6.1 1.1.2 1.6.4s1.1.4 1.7.8c.7.4 1.2.8 1.6 1.3.4.5.8 1.1 1.2 1.9.3.8.5 1.7.5 2.7 0 2.3-.7 4.1-2.2 5.5s-3.4 2.2-5.9 2.4V31h-2.4v-1.9c-2.4-.3-4.4-1.1-5.8-2.5-.7-.7-1.1-1.4-1.3-2.3-.2-.9-.3-2-.4-3.4h3.4c.1 1.3.5 2.3 1.2 3.1.7.8 1.7 1.3 2.9 1.6v-8.2l-.7-.2c-.7-.2-1.4-.4-1.9-.6-.5-.2-1.1-.5-1.8-.9-.6-.4-1.1-.8-1.5-1.3-.4-.5-.7-1.1-1-1.8-.3-.7-.4-1.5-.4-2.4 0-1.1.2-2.2.6-3.1s1-1.7 1.6-2.2c.7-.6 1.5-1 2.3-1.4.8-.3 1.7-.6 2.7-.7V1h2.5zm-2.5 12V6.4c-.5.1-.9.2-1.2.3-.3.1-.7.3-1 .5-.3.2-.6.6-.8 1-.2.4-.3 1-.3 1.6 0 .5.1.9.2 1.2.1.3.2.6.4.8s.4.4.7.5c.3.2.6.3.8.3.2.1.5.1.9.2.2.2.3.2.3.2zm2.5 5.1v7.6c.4 0 .7-.1 1-.2s.7-.2 1.1-.4c.4-.2.7-.4 1-.7s.5-.6.7-1c.2-.4.3-.9.3-1.4s-.1-1-.3-1.5c-.2-.4-.5-.8-.9-1.1-.4-.3-.8-.6-1.3-.8-.4-.1-1-.3-1.6-.5z"/></svg>