<?xml version="1.0" encoding="utf-8"?>
<!-- Generator: Adobe Illustrator 22.1.0, SVG Export Plug-In . SVG Version: 6.00 Build 0)  -->
<svg version="1.1" id="Ebene_1" xmlns="http://www.w3.org/2000/svg" xmlns:xlink="http://www.w3.org/1999/xlink" x="0px" y="0px"
	 width="32px" height="32px" viewBox="0 0 32 32" style="enable-background:new 0 0 32 32;" xml:space="preserve">
<path d="M16.9,1v1.9c0.6,0.1,1.2,0.2,1.8,0.4s1.2,0.4,1.8,0.8c0.7,0.4,1.2,0.8,1.7,1.3c0.5,0.5,0.9,1.2,1.3,2
	c0.4,0.9,0.6,1.8,0.6,2.9h-3.9c-0.1-0.6-0.2-1.1-0.3-1.4c-0.1-0.4-0.3-0.7-0.5-1.1c-0.2-0.4-0.6-0.6-1-0.9s-0.9-0.4-1.6-0.5v7.5
	l1.6,0.3c0.6,0.1,1.1,0.2,1.6,0.4s1.1,0.4,1.7,0.8c0.7,0.4,1.2,0.8,1.6,1.3c0.4,0.5,0.8,1.1,1.2,1.9c0.3,0.8,0.5,1.7,0.5,2.7
	c0,2.3-0.7,4.1-2.2,5.5s-3.4,2.2-5.9,2.4V31h-2.4v-1.9c-2.4-0.3-4.4-1.1-5.8-2.5c-0.7-0.7-1.1-1.4-1.3-2.3c-0.2-0.9-0.3-2-0.4-3.4
	h3.4c0.1,1.3,0.5,2.3,1.2,3.1c0.7,0.8,1.7,1.3,2.9,1.6v-8.2l-0.7-0.2c-0.7-0.2-1.4-0.4-1.9-0.6c-0.5-0.2-1.1-0.5-1.8-0.9
	c-0.6-0.4-1.1-0.8-1.5-1.3c-0.4-0.5-0.7-1.1-1-1.8c-0.3-0.7-0.4-1.5-0.4-2.4c0-1.1,0.2-2.2,0.6-3.1s1-1.7,1.6-2.2
	c0.7-0.6,1.5-1,2.3-1.4c0.8-0.3,1.7-0.6,2.7-0.7V1L16.9,1L16.9,1z M14.4,13V6.4c-0.5,0.1-0.9,0.2-1.2,0.3c-0.3,0.1-0.7,0.3-1,0.5
	c-0.3,0.2-0.6,0.6-0.8,1c-0.2,0.4-0.3,1-0.3,1.6c0,0.5,0.1,0.9,0.2,1.2c0.1,0.3,0.2,0.6,0.4,0.8s0.4,0.4,0.7,0.5
	c0.3,0.2,0.6,0.3,0.8,0.3c0.2,0.1,0.5,0.1,0.9,0.2C14.3,13,14.4,13,14.4,13L14.4,13z M16.9,18.1v7.6c0.4,0,0.7-0.1,1-0.2
	s0.7-0.2,1.1-0.4c0.4-0.2,0.7-0.4,1-0.7s0.5-0.6,0.7-1C20.9,23,21,22.5,21,22s-0.1-1-0.3-1.5c-0.2-0.4-0.5-0.8-0.9-1.1
	c-0.4-0.3-0.8-0.6-1.3-0.8C18.1,18.5,17.5,18.3,16.9,18.1L16.9,18.1z"/>
</svg>
