<?xml version="1.0" encoding="utf-8"?>
<!-- Generator: Adobe Illustrator 22.1.0, SVG Export Plug-In . SVG Version: 6.00 Build 0)  -->
<svg version="1.1" id="Ebene_1" xmlns="http://www.w3.org/2000/svg" xmlns:xlink="http://www.w3.org/1999/xlink" x="0px" y="0px"
	 width="32px" height="32px" viewBox="0 0 32 32" style="enable-background:new 0 0 32 32;" xml:space="preserve">
<path d="M16,1c2.1,0,3.8,0.7,5.3,2.2s2.2,3.2,2.2,5.3v6.3c0,0.8-0.3,1.6-0.8,2.4c-0.5,0.9-1.1,1.3-1.7,1.3v1.9c0,0.2,0,0.3,0.1,0.5
	c0.1,0.2,0.2,0.3,0.4,0.4l9,5.7c0.1,0.1,0.3,0.2,0.4,0.4c0.1,0.2,0.1,0.4,0.1,0.5v2.3c0,0.2-0.1,0.3-0.2,0.4
	c-0.1,0.1-0.3,0.2-0.4,0.2H1.6c-0.2,0-0.3-0.1-0.4-0.2C1.1,30.7,1,30.5,1,30.4V28c0-0.2,0.1-0.3,0.1-0.5c0.1-0.2,0.2-0.3,0.4-0.4
	l9-5.7c0.2-0.1,0.3-0.2,0.4-0.4c0.1-0.2,0.1-0.4,0.1-0.5v-1.9c-0.6,0-1.2-0.4-1.7-1.3c-0.5-0.9-0.8-1.7-0.8-2.4V8.5
	c0-2.1,0.7-3.8,2.2-5.3C12.2,1.7,13.9,1,16,1L16,1z"/>
</svg>
