<?xml version="1.0" encoding="utf-8"?>
<!-- Generator: Adobe Illustrator 22.1.0, SVG Export Plug-In . SVG Version: 6.00 Build 0)  -->
<svg version="1.1" id="Ebene_1" xmlns="http://www.w3.org/2000/svg" xmlns:xlink="http://www.w3.org/1999/xlink" x="0px" y="0px"
	 width="32px" height="32px" viewBox="0 0 32 32" style="enable-background:new 0 0 32 32;" xml:space="preserve">
<path d="M12.8,10.3l6.9-4.6c0.2-0.1,0.3-0.1,0.4-0.1c0.1,0.1,0.2,0.2,0.2,0.4v20c0,0.2-0.1,0.3-0.2,0.4s-0.2,0-0.4-0.1l-6.9-4.6
	c-0.4-0.2-0.8-0.4-1.2-0.4H4.9c-0.2,0-0.3-0.1-0.5-0.2c-0.1-0.1-0.2-0.3-0.2-0.5v-9.3c0-0.2,0.1-0.3,0.2-0.5s0.3-0.2,0.5-0.2h6.7
	C12,10.7,12.4,10.5,12.8,10.3L12.8,10.3z M24.7,8h0.1c0.2,0,0.3,0.1,0.4,0.3c1.7,2.3,2.6,4.9,2.6,7.7c0,2.7-0.8,5.2-2.4,7.5
	c-0.1,0.2-0.3,0.2-0.5,0.3l-0.1,0c-0.2,0-0.3-0.1-0.4-0.2L23.6,23c-0.1-0.1-0.2-0.3-0.2-0.4c0-0.2,0-0.3,0.1-0.5
	c1.3-1.8,1.9-3.9,1.9-6.1c0-2.3-0.7-4.5-2.1-6.3c-0.1-0.1-0.1-0.3-0.1-0.5c0-0.2,0.1-0.3,0.3-0.5l0.8-0.6C24.4,8,24.5,8,24.7,8z"/>
</svg>
