<?xml version="1.0" encoding="utf-8"?>
<!-- Generator: Adobe Illustrator 22.1.0, SVG Export Plug-In . SVG Version: 6.00 Build 0)  -->
<svg version="1.1" id="Ebene_1" xmlns="http://www.w3.org/2000/svg" xmlns:xlink="http://www.w3.org/1999/xlink" x="0px" y="0px"
	 width="32px" height="32px" viewBox="0 0 32 32" style="enable-background:new 0 0 32 32;" xml:space="preserve">
<path d="M26.8,5.2L26.8,5.2c0.3,0,0.4,0.1,0.5,0.3c2.4,3.2,3.6,6.7,3.6,10.6c0,1.9-0.3,3.7-0.9,5.5s-1.5,3.5-2.6,4.9
	c-0.1,0.2-0.3,0.2-0.5,0.3h-0.1c-0.2,0-0.3-0.1-0.4-0.2l-1.1-0.9c-0.1-0.1-0.2-0.2-0.2-0.4s0-0.3,0.1-0.5c2-2.7,3-5.6,3-8.7
	c0-1.6-0.3-3.2-0.8-4.7c-0.5-1.5-1.3-2.9-2.3-4.2C25.1,7,25,6.8,25,6.7c0-0.2,0.1-0.3,0.3-0.4l1.1-0.9C26.6,5.3,26.7,5.2,26.8,5.2z
	 M9.6,10.3l6.9-4.6c0.2-0.1,0.3-0.1,0.4-0.1S17,5.8,17,6v20c0,0.2-0.1,0.3-0.2,0.4s-0.2,0-0.4-0.1l-6.9-4.6
	c-0.4-0.2-0.8-0.4-1.2-0.4H1.7c-0.2,0-0.3-0.1-0.5-0.2S1,20.8,1,20.7v-9.3c0-0.2,0.1-0.3,0.2-0.5s0.3-0.2,0.5-0.2h6.7
	C8.8,10.7,9.2,10.5,9.6,10.3L9.6,10.3z M21.5,8h0.1c0.2,0,0.3,0.1,0.4,0.3c1.7,2.3,2.6,4.9,2.6,7.7c0,2.7-0.8,5.2-2.4,7.5
	c-0.1,0.2-0.3,0.2-0.5,0.3l-0.1,0c-0.2,0-0.3-0.1-0.4-0.2L20.4,23c-0.1-0.1-0.2-0.3-0.2-0.4c0-0.2,0-0.3,0.1-0.5
	c1.3-1.8,1.9-3.9,1.9-6.1c0-2.3-0.7-4.5-2.1-6.3C20.1,9.5,20,9.3,20,9.2c0-0.2,0.1-0.3,0.3-0.4l0.8-0.6C21.2,8,21.3,8,21.5,8z"/>
</svg>
