<svg fill="currentColor" xmlns="http://www.w3.org/2000/svg" width="32" height="32" viewBox="0 0 32 32"><path d="M12.8 10.3l6.9-4.6c.2-.1.3-.1.4-.1.1.1.2.2.2.4v20c0 .2-.1.3-.2.4s-.2 0-.4-.1l-6.9-4.6c-.4-.2-.8-.4-1.2-.4H4.9c-.2 0-.3-.1-.5-.2-.1-.1-.2-.3-.2-.5v-9.3c0-.2.1-.3.2-.5s.3-.2.5-.2h6.7c.4.1.8-.1 1.2-.3zM24.7 8h.1c.2 0 .3.1.4.3 1.7 2.3 2.6 4.9 2.6 7.7 0 2.7-.8 5.2-2.4 7.5-.1.2-.3.2-.5.3h-.1c-.2 0-.3-.1-.4-.2l-.8-.6c-.1-.1-.2-.3-.2-.4 0-.2 0-.3.1-.5 1.3-1.8 1.9-3.9 1.9-6.1 0-2.3-.7-4.5-2.1-6.3-.1-.1-.1-.3-.1-.5s.1-.3.3-.5l.8-.6c.1-.1.2-.1.4-.1z"/></svg>