<?xml version="1.0" encoding="utf-8"?>
<!-- Generator: Adobe Illustrator 22.1.0, SVG Export Plug-In . SVG Version: 6.00 Build 0)  -->
<svg version="1.1" id="Ebene_1" xmlns="http://www.w3.org/2000/svg" xmlns:xlink="http://www.w3.org/1999/xlink" x="0px" y="0px"
	 width="32px" height="32px" viewBox="0 0 32 32" style="enable-background:new 0 0 32 32;" xml:space="preserve">
<path d="M10,10.3l6.9-4.6c0.2-0.1,0.3-0.1,0.4-0.1c0.1,0.1,0.2,0.2,0.2,0.4v20c0,0.2-0.1,0.3-0.2,0.4s-0.2,0-0.4-0.1L10,21.7
	c-0.4-0.2-0.8-0.4-1.2-0.4H2.1c-0.2,0-0.3-0.1-0.5-0.2s-0.2-0.3-0.2-0.5v-9.3c0-0.2,0.1-0.3,0.2-0.5s0.3-0.2,0.5-0.2h6.7
	C9.2,10.7,9.6,10.5,10,10.3L10,10.3z M25.4,14.2l3.2-3.2c0.1-0.1,0.3-0.2,0.5-0.2s0.3,0.1,0.5,0.2l0.9,0.9c0.1,0.1,0.2,0.3,0.2,0.5
	s-0.1,0.3-0.2,0.5L27.2,16l3.2,3.2c0.1,0.1,0.2,0.3,0.2,0.5c0,0.2-0.1,0.3-0.2,0.5L29.5,21c-0.1,0.1-0.3,0.2-0.5,0.2
	s-0.3-0.1-0.5-0.2l-3.2-3.2L22.2,21c-0.1,0.1-0.3,0.2-0.5,0.2s-0.3-0.1-0.5-0.2l-0.9-0.9c-0.1-0.1-0.2-0.3-0.2-0.5
	c0-0.2,0.1-0.3,0.2-0.5l3.2-3.2l-3.2-3.2c-0.1-0.1-0.2-0.3-0.2-0.5c0-0.2,0.1-0.3,0.2-0.5l0.9-0.9c0.1-0.1,0.3-0.2,0.5-0.2
	s0.3,0.1,0.5,0.2L25.4,14.2z"/>
</svg>
