<svg fill="currentColor" xmlns="http://www.w3.org/2000/svg" width="32" height="32" viewBox="0 0 32 32"><path d="M10 10.3l6.9-4.6c.2-.1.3-.1.4-.1.1.1.2.2.2.4v20c0 .2-.1.3-.2.4s-.2 0-.4-.1L10 21.7c-.4-.2-.8-.4-1.2-.4H2.1c-.2 0-.3-.1-.5-.2s-.2-.3-.2-.5v-9.3c0-.2.1-.3.2-.5s.3-.2.5-.2h6.7c.4.1.8-.1 1.2-.3zm15.4 3.9l3.2-3.2c.1-.1.3-.2.5-.2s.3.1.5.2l.9.9c.1.1.2.3.2.5s-.1.3-.2.5L27.2 16l3.2 3.2c.1.1.2.3.2.5s-.1.3-.2.5l-.9.8c-.1.1-.3.2-.5.2s-.3-.1-.5-.2l-3.2-3.2-3.1 3.2c-.1.1-.3.2-.5.2s-.3-.1-.5-.2l-.9-.9c-.1-.1-.2-.3-.2-.5s.1-.3.2-.5l3.2-3.2-3.2-3.2c-.1-.1-.2-.3-.2-.5s.1-.3.2-.5l.9-.9c.1-.1.3-.2.5-.2s.3.1.5.2l3.2 3.4z"/></svg>