<svg fill="currentColor" xmlns="http://www.w3.org/2000/svg" width="32" height="32" viewBox="0 0 32 32"><path d="M1.3 26.6L15 3.9c.3-.4.6-.6 1-.6s.7.3 1 .8l13.7 22.5c.3.5.4.9.2 1.4-.2.5-.6.8-1.1.8H2.2c-.5 0-.9-.2-1.1-.7-.2-.6-.1-1 .2-1.5zm5.2-2.1h7.4v-1.6c0-.1.1-.3.2-.4.1-.1.2-.2.4-.2h3.2c.1 0 .3.1.4.2.1.1.2.2.2.4v1.6h7.4L16 9.1 6.5 24.5zm7.3-10.7h4.4c.3 0 .5.1.7.3.2.2.2.5.2.7l-1.2 5.4c-.1.3-.2.5-.5.7-.2.2-.5.3-.8.3h-1.2c-.3 0-.6-.1-.8-.3s-.4-.5-.5-.7l-1.2-5.4c-.1-.3 0-.5.2-.7.2-.2.4-.3.7-.3z"/></svg>