<?xml version="1.0" encoding="utf-8"?>
<!-- Generator: Adobe Illustrator 22.1.0, SVG Export Plug-In . SVG Version: 6.00 Build 0)  -->
<svg version="1.1" id="Ebene_1" xmlns="http://www.w3.org/2000/svg" xmlns:xlink="http://www.w3.org/1999/xlink" x="0px" y="0px"
	 width="32px" height="32px" viewBox="0 0 32 32" style="enable-background:new 0 0 32 32;" xml:space="preserve">
<path d="M1.3,26.6L15,3.9c0.3-0.4,0.6-0.6,1-0.6c0.4,0,0.7,0.3,1,0.8l13.7,22.5c0.3,0.5,0.4,0.9,0.2,1.4c-0.2,0.5-0.6,0.8-1.1,0.8
	H2.2c-0.5,0-0.9-0.2-1.1-0.7C0.9,27.5,1,27.1,1.3,26.6L1.3,26.6z M6.5,24.5h7.4v-1.6c0-0.1,0.1-0.3,0.2-0.4c0.1-0.1,0.2-0.2,0.4-0.2
	h3.2c0.1,0,0.3,0.1,0.4,0.2c0.1,0.1,0.2,0.2,0.2,0.4v1.6h7.4L16,9.1L6.5,24.5z M13.8,13.8h4.4c0.3,0,0.5,0.1,0.7,0.3
	c0.2,0.2,0.2,0.5,0.2,0.7l-1.2,5.4c-0.1,0.3-0.2,0.5-0.5,0.7c-0.2,0.2-0.5,0.3-0.8,0.3h-1.2c-0.3,0-0.6-0.1-0.8-0.3
	s-0.4-0.5-0.5-0.7l-1.2-5.4c-0.1-0.3,0-0.5,0.2-0.7C13.3,13.9,13.5,13.8,13.8,13.8L13.8,13.8z"/>
</svg>
