<?xml version="1.0" encoding="utf-8"?>
<!-- Generator: Adobe Illustrator 22.1.0, SVG Export Plug-In . SVG Version: 6.00 Build 0)  -->
<svg version="1.1" id="Ebene_1" xmlns="http://www.w3.org/2000/svg" xmlns:xlink="http://www.w3.org/1999/xlink" x="0px" y="0px"
	 width="32px" height="32px" viewBox="0 0 32 32" style="enable-background:new 0 0 32 32;" xml:space="preserve">
<path d="M19.9,2.1c2.7-1.5,5.3-1.5,7.7,0.2l-6.5,3.5l3.6,5.8L31,8.4c0.1,1.5-0.2,2.8-0.9,3.9c-0.7,1.1-1.6,2-2.9,2.8
	c-1,0.6-2.1,0.9-3.2,1c-1.1,0.1-2.2,0-3.2-0.4L6,30.6C5.7,30.9,5.4,31,5.1,31s-0.7-0.1-0.9-0.4l-2.8-2.8C1.1,27.6,1,27.3,1,26.9
	c0-0.4,0.1-0.7,0.4-0.9l15-15c-0.6-1.7-0.5-3.4,0.1-5C17.2,4.3,18.3,3,19.9,2.1L19.9,2.1z"/>
</svg>
