<?xml version="1.0" encoding="utf-8"?>
<!-- Generator: Adobe Illustrator 22.1.0, SVG Export Plug-In . SVG Version: 6.00 Build 0)  -->
<svg version="1.1" id="Ebene_1" xmlns="http://www.w3.org/2000/svg" xmlns:xlink="http://www.w3.org/1999/xlink" x="0px" y="0px"
	 width="32px" height="32px" viewBox="0 0 32 32" style="enable-background:new 0 0 32 32;" xml:space="preserve">
<path d="M13.1,1c1.6,0,3.2,0.3,4.7,1c1.5,0.6,2.8,1.5,3.9,2.6s1.9,2.4,2.6,3.9s1,3.1,1,4.7c0,2.4-0.7,4.5-2,6.6l7.5,7.5
	c0.1,0.1,0.2,0.3,0.2,0.5s-0.1,0.3-0.2,0.5l-2.7,2.7C28,30.9,27.8,31,27.6,31s-0.3-0.1-0.5-0.2l-7.5-7.5c-2,1.3-4.2,1.9-6.5,1.9
	c-1.6,0-3.2-0.3-4.7-1c-1.5-0.6-2.8-1.5-3.9-2.6c-1.1-1.1-1.9-2.4-2.6-3.9s-1-3.1-1-4.7c0-1.6,0.3-3.2,1-4.7s1.5-2.8,2.6-3.9
	S6.9,2.6,8.4,2S11.5,1,13.1,1L13.1,1z M13.1,4.9C11.6,4.9,10.2,5.2,9,6S6.7,7.7,6,9s-1.1,2.7-1.1,4.2c0,1.5,0.4,2.9,1.1,4.1
	s1.7,2.3,3,3c1.3,0.7,2.7,1.1,4.1,1.1s2.9-0.4,4.2-1.1c1.3-0.7,2.3-1.7,3-3s1.1-2.7,1.1-4.1c0-1.5-0.4-2.9-1.1-4.2s-1.7-2.3-3-3
	S14.6,4.9,13.1,4.9z M11.1,7.9h3.8c0.2,0,0.3,0.1,0.4,0.2c0.1,0.1,0.2,0.3,0.2,0.4v1.9h1.9c0.2,0,0.3,0.1,0.4,0.2s0.2,0.3,0.2,0.4
	v3.8c0,0.2-0.1,0.3-0.2,0.4c-0.1,0.1-0.3,0.2-0.4,0.2h-1.9v1.9c0,0.2-0.1,0.3-0.2,0.4S15,18,14.8,18h-3.8c-0.2,0-0.3-0.1-0.4-0.2
	s-0.2-0.3-0.2-0.4v-1.9H8.6c-0.2,0-0.3-0.1-0.4-0.2C8,15.1,7.9,15,7.9,14.8v-3.8c0-0.2,0.1-0.3,0.2-0.4s0.3-0.2,0.4-0.2h1.9V8.6
	c0-0.2,0.1-0.3,0.2-0.4S10.9,7.9,11.1,7.9z"/>
</svg>
