<svg fill="currentColor" xmlns="http://www.w3.org/2000/svg" width="32" height="32" viewBox="0 0 32 32"><path d="M13.1 1c1.6 0 3.2.3 4.7 1 1.5.6 2.8 1.5 3.9 2.6s1.9 2.4 2.6 3.9 1 3.1 1 4.7c0 2.4-.7 4.5-2 6.6l7.5 7.5c.1.1.2.3.2.5s-.1.3-.2.5L28.1 31c-.1-.1-.3 0-.5 0s-.3-.1-.5-.2l-7.5-7.5c-2 1.3-4.2 1.9-6.5 1.9-1.6 0-3.2-.3-4.7-1-1.5-.6-2.8-1.5-3.9-2.6s-1.9-2.4-2.6-3.9-1-3.1-1-4.7.3-3.2 1-4.7 1.5-2.8 2.6-3.9S6.9 2.6 8.4 2s3.1-1 4.7-1zm0 3.9c-1.5 0-2.9.3-4.1 1.1S6.7 7.7 6 9s-1.1 2.7-1.1 4.2.4 2.9 1.1 4.1 1.7 2.3 3 3c1.3.7 2.7 1.1 4.1 1.1s2.9-.4 4.2-1.1c1.3-.7 2.3-1.7 3-3s1.1-2.7 1.1-4.1c0-1.5-.4-2.9-1.1-4.2s-1.7-2.3-3-3-2.7-1.1-4.2-1.1zm-2 3h3.8c.2 0 .3.1.4.2.1.1.2.3.2.4v1.9h1.9c.2 0 .3.1.4.2s.2.3.2.4v3.8c0 .2-.1.3-.2.4-.1.1-.3.2-.4.2h-1.9v1.9c0 .2-.1.3-.2.4s-.3.3-.5.3H11c-.2 0-.3-.1-.4-.2s-.2-.3-.2-.4v-1.9H8.6c-.2 0-.3-.1-.4-.2-.2-.2-.3-.3-.3-.5V11c0-.2.1-.3.2-.4s.3-.2.4-.2h1.9V8.6c0-.2.1-.3.2-.4s.3-.3.5-.3z"/></svg>