<?xml version="1.0" encoding="utf-8"?>
<!-- Generator: Adobe Illustrator 22.0.0, SVG Export Plug-In . SVG Version: 6.00 Build 0)  -->
<svg version="1.1" id="Ebene_1" xmlns="http://www.w3.org/2000/svg" xmlns:xlink="http://www.w3.org/1999/xlink" x="0px" y="0px"
	 viewBox="0 0 16 16" enable-background="new 0 0 16 16" xml:space="preserve">
<path fill="#FFFFFF" d="M1,4h2.8c1.7,0,3,0.5,3,2.2c0,0.8-0.4,1.7-1.1,1.9v0.1c0.8,0.2,1.5,0.9,1.5,2.1C7.2,12.2,5.8,13,4,13H1V4z
	 M3.7,7.6C4.6,7.6,5,7.2,5,6.5c0-0.7-0.4-1-1.3-1H2.8v2H3.7z M3.9,11.4c1,0,1.5-0.4,1.5-1.2c0-0.8-0.5-1.1-1.5-1.1h-1v2.3H3.9z"/>
<path fill="#FFFFFF" d="M8,4h2.8C12.6,4,14,4.7,14,6.9c0,2.1-1.5,3.1-3.2,3.1h-1V13H8V4z M10.7,8.3c1,0,1.5-0.5,1.5-1.4
	c0-0.9-0.5-1.3-1.5-1.3H9.8v2.7H10.7z"/>
</svg>
