<?xml version="1.0" encoding="utf-8"?>
<!-- Generator: Adobe Illustrator 18.1.1, SVG Export Plug-In . SVG Version: 6.00 Build 0)  -->
<!DOCTYPE svg PUBLIC "-//W3C//DTD SVG 1.1//EN" "http://www.w3.org/Graphics/SVG/1.1/DTD/svg11.dtd">
<svg version="1.1" id="Ebene_1" xmlns="http://www.w3.org/2000/svg" xmlns:xlink="http://www.w3.org/1999/xlink" x="0px" y="0px"
	 viewBox="0 0 24 24" enable-background="new 0 0 24 24" xml:space="preserve">
<g id="Background_1_">
	<rect id="Background" fill="#4D99CE" width="24" height="24"/>
</g>
<g id="Icon">
	<g>
		<rect x="4.5" y="4.5" fill="#A2CDE5" width="15" height="7"/>
		<path fill="#FFFFFF" d="M19,5v6H5V5H19 M20,4h-1H5H4v1v6v1h1h14h1v-1V5V4L20,4z"/>
	</g>
	<g>
		<rect x="4.5" y="13.5" fill="#A2CDE5" width="15" height="2"/>
		<path fill="#FFFFFF" d="M19,14v1H5v-1H19 M20,13h-1H5H4v1v1v1h1h14h1v-1v-1V13L20,13z"/>
	</g>
	<g>
		<rect x="4.5" y="17.5" fill="#A2CDE5" width="15" height="2"/>
		<path fill="#FFFFFF" d="M19,18v1H5v-1H19 M20,17h-1H5H4v1v1v1h1h14h1v-1v-1V17L20,17z"/>
	</g>
</g>
<g id="Highlight">
	<rect x="1" opacity="0.15" fill="#010202" enable-background="new    " width="23" height="1"/>
	<rect x="23" y="1" opacity="0.15" fill="#010202" enable-background="new    " width="1" height="23"/>
	<rect opacity="0.2" fill="#010202" enable-background="new    " width="1" height="23"/>
	<rect y="23" opacity="0.2" fill="#010202" enable-background="new    " width="23" height="1"/>
</g>
</svg>
