<?xml version="1.0" encoding="utf-8"?>
<!-- Generator: Adobe Illustrator 18.1.1, SVG Export Plug-In . SVG Version: 6.00 Build 0)  -->
<!DOCTYPE svg PUBLIC "-//W3C//DTD SVG 1.1//EN" "http://www.w3.org/Graphics/SVG/1.1/DTD/svg11.dtd">
<svg version="1.1" id="Ebene_1" xmlns="http://www.w3.org/2000/svg" xmlns:xlink="http://www.w3.org/1999/xlink" x="0px" y="0px"
	 viewBox="0 0 24 24" enable-background="new 0 0 24 24" xml:space="preserve">
<g id="Background_1_">
	<rect id="Background" fill="#4D99CE" width="24" height="24"/>
</g>
<g id="Icon">
	<g>
		<path fill="#A2CDE5" d="M8.8,17c-0.2,0-0.4,0-0.6-0.1c-0.4-0.2-0.7-0.7-0.7-1.1V8.2c0-0.4,0.3-0.8,0.4-1C8.1,7.1,8.4,7,8.7,7
			C9,7,9.2,7,9.4,7.2l6.4,3.8c0.5,0.1,0.7,0.7,0.7,1.1c0,0.3-0.2,0.8-0.6,1l-6.4,3.8C9.2,17,9.1,17,8.8,17z"/>
		<path fill="#FFFFFF" d="M8.7,7.5c0.2,0,0.3,0,0.4,0.1l6.5,3.9c0.2,0,0.4,0.4,0.4,0.6c0,0.2-0.2,0.5-0.3,0.5l-6.5,3.8
			C9,16.5,9,16.5,8.8,16.5s-0.3,0-0.4-0.1C8.2,16.4,8,16,8,15.8V8.2C8,8,8.2,7.7,8.3,7.6C8.4,7.5,8.6,7.5,8.7,7.5 M8.7,6.5
			c-0.4,0-0.8,0.2-1.1,0.4C7.4,7.1,7,7.6,7,8.2v7.6c0,0.5,0.4,1.3,1,1.5c0.3,0.2,0.6,0.2,0.8,0.2c0.4,0,0.5,0,0.8-0.2l0,0l0,0
			l6.4-3.8c0.5-0.2,0.9-0.9,0.9-1.4c0-0.6-0.4-1.3-1-1.5L9.7,6.8C9.4,6.6,9.1,6.5,8.7,6.5L8.7,6.5z"/>
	</g>
</g>
<g id="Highlight">
	<rect x="1" opacity="0.15" fill="#010202" enable-background="new    " width="23" height="1"/>
	<rect x="23" y="1" opacity="0.15" fill="#010202" enable-background="new    " width="1" height="23"/>
	<rect opacity="0.2" fill="#010202" enable-background="new    " width="1" height="23"/>
	<rect y="23" opacity="0.2" fill="#010202" enable-background="new    " width="23" height="1"/>
</g>
</svg>
