<?xml version="1.0" encoding="utf-8"?>
<!-- Generator: Adobe Illustrator 18.1.0, SVG Export Plug-In . SVG Version: 6.00 Build 0)  -->
<svg version="1.1" id="Ebene_1" xmlns="http://www.w3.org/2000/svg" xmlns:xlink="http://www.w3.org/1999/xlink" x="0px" y="0px"
	 viewBox="0 0 612 792" enable-background="new 0 0 612 792" xml:space="preserve">
<g id="Background_1_">
	<rect id="Background" y="90" fill="#4D99CE" width="612" height="612"/>
</g>
<g id="Icon">
	<g>
		<rect x="114.8" y="354.5" fill="#A2CDE5" width="382.5" height="178.5"/>
		<path fill="#FFFFFF" d="M484.5,367.2v153h-357v-153H484.5 M510,341.8h-25.5h-357H102v25.5v153v25.5h25.5h357H510v-25.5v-153V341.8
			L510,341.8z"/>
	</g>
	<g>
		<rect x="105.6" y="262" fill="#A2CDE5" width="78.6" height="51"/>
		<path fill="#FFFFFF" d="M180.6,274.8v25.5h-73.3v-25.5H180.6 M185.8,249.2h-5.2h-73.3H102v25.5v25.5v25.5h5.2h73.3h5.2v-25.5
			v-25.5V249.2L185.8,249.2z"/>
	</g>
	<g>
		<rect x="206.6" y="262" fill="#A2CDE5" width="78.6" height="51"/>
		<path fill="#FFFFFF" d="M281.6,274.8v25.5h-73.3v-25.5H281.6 M286.8,249.2h-5.2h-73.3H203v25.5v25.5v25.5h5.2h73.3h5.2v-25.5
			v-25.5V249.2L286.8,249.2z"/>
	</g>
	<g>
		<rect x="308" y="262" fill="#A2CDE5" width="78.6" height="51"/>
		<path fill="#FFFFFF" d="M382.9,274.8v25.5h-73.3v-25.5H382.9 M388.1,249.2h-5.2h-73.3h-5.2v25.5v25.5v25.5h5.2h73.3h5.2v-25.5
			v-25.5V249.2L388.1,249.2z"/>
	</g>
</g>
<g id="Highlight">
	<rect x="25.5" y="90" opacity="0.15" fill="#010202" enable-background="new    " width="586.5" height="25.5"/>
	<rect x="586.5" y="115.5" opacity="0.15" fill="#010202" enable-background="new    " width="25.5" height="586.5"/>
	<rect y="90" opacity="0.2" fill="#010202" enable-background="new    " width="25.5" height="586.5"/>
	<rect y="676.5" opacity="0.2" fill="#010202" enable-background="new    " width="586.5" height="25.5"/>
</g>
</svg>
