<?xml version="1.0" encoding="utf-8"?>
<!-- Generator: Adobe Illustrator 18.1.1, SVG Export Plug-In . SVG Version: 6.00 Build 0)  -->
<!DOCTYPE svg PUBLIC "-//W3C//DTD SVG 1.1//EN" "http://www.w3.org/Graphics/SVG/1.1/DTD/svg11.dtd">
<svg version="1.1" id="Ebene_1" xmlns="http://www.w3.org/2000/svg" xmlns:xlink="http://www.w3.org/1999/xlink" x="0px" y="0px"
	 viewBox="0 0 24 24" enable-background="new 0 0 24 24" xml:space="preserve">
<g id="Background_1_">
	<rect id="Background" fill="#4D99CE" width="24" height="24"/>
</g>
<g id="Icon">
	<g>
		<rect x="4.5" y="9.5" fill="#A2CDE5" width="15" height="8"/>
		<path fill="#FFFFFF" d="M19,10v7H5v-7H19 M20,9h-1H5H4v1v7v1h1h14h1v-1v-7V9L20,9z"/>
	</g>
	<g>
		<rect x="8.5" y="6.5" fill="#A2CDE5" width="4" height="3"/>
		<path fill="#FFFFFF" d="M12,7v2H9V7H12 M13,6h-1H9H8v1v2v1h1h3h1V9V7V6L13,6z"/>
	</g>
	<g>
		<rect x="4.5" y="6.5" fill="#A2CDE5" width="4" height="3"/>
		<path fill="#FFFFFF" d="M8,7v2H5V7H8 M9,6H8H5H4v1v2v1h1h3h1V9V7V6L9,6z"/>
	</g>
	<g>
		<rect x="12.5" y="6.5" fill="#A2CDE5" width="4" height="3"/>
		<path fill="#FFFFFF" d="M16,7v2h-3V7H16 M17,6h-1h-3h-1v1v2v1h1h3h1V9V7V6L17,6z"/>
	</g>
</g>
<g id="Highlight">
	<rect x="1" opacity="0.15" fill="#010202" enable-background="new    " width="23" height="1"/>
	<rect x="23" y="1" opacity="0.15" fill="#010202" enable-background="new    " width="1" height="23"/>
	<rect opacity="0.2" fill="#010202" enable-background="new    " width="1" height="23"/>
	<rect y="23" opacity="0.2" fill="#010202" enable-background="new    " width="23" height="1"/>
</g>
</svg>
