<?xml version="1.0" encoding="utf-8"?>
<!-- Generator: Adobe Illustrator 18.1.1, SVG Export Plug-In . SVG Version: 6.00 Build 0)  -->
<!DOCTYPE svg PUBLIC "-//W3C//DTD SVG 1.1//EN" "http://www.w3.org/Graphics/SVG/1.1/DTD/svg11.dtd">
<svg version="1.1" id="Ebene_1" xmlns="http://www.w3.org/2000/svg" xmlns:xlink="http://www.w3.org/1999/xlink" x="0px" y="0px"
	 viewBox="0 0 24 24" enable-background="new 0 0 24 24" xml:space="preserve">
<g id="Background_1_">
	<rect id="Background" fill="#4D99CE" width="24" height="24"/>
</g>
<g id="Icon">
	<g>
		<rect x="5.5" y="12.5" fill="#A2CDE5" width="13" height="2"/>
		<path fill="#FFFFFF" d="M18,13v1H6v-1H18 M19,12h-1H6H5v1v1v1h1h12h1v-1v-1V12L19,12z"/>
	</g>
	<g>
		<rect x="5.5" y="16.5" fill="#A2CDE5" width="13" height="2"/>
		<path fill="#FFFFFF" d="M18,17v1H6v-1H18 M19,16h-1H6H5v1v1v1h1h12h1v-1v-1V16L19,16z"/>
	</g>
	<g>
		<rect x="9.5" y="5.5" fill="#A2CDE5" width="5" height="5"/>
		<path fill="#FFFFFF" d="M14,6v4h-4V6H14 M15,5h-1h-4H9v1v4v1h1h4h1v-1V6V5L15,5z"/>
	</g>
</g>
<g id="Highlight">
	<rect x="1" opacity="0.15" fill="#010202" enable-background="new    " width="23" height="1"/>
	<rect x="23" y="1" opacity="0.15" fill="#010202" enable-background="new    " width="1" height="23"/>
	<rect opacity="0.2" fill="#010202" enable-background="new    " width="1" height="23"/>
	<rect y="23" opacity="0.2" fill="#010202" enable-background="new    " width="23" height="1"/>
</g>
</svg>
