<?xml version="1.0" encoding="utf-8"?>
<!-- Generator: Adobe Illustrator 22.0.1, SVG Export Plug-In . SVG Version: 6.00 Build 0)  -->
<svg version="1.1" id="Ebene_1" xmlns="http://www.w3.org/2000/svg" xmlns:xlink="http://www.w3.org/1999/xlink" x="0px" y="0px"
	 viewBox="0 0 512 512" style="enable-background:new 0 0 512 512;" xml:space="preserve">
<path d="M464,0H48C21.6,0,0,21.6,0,48v416c0,26.4,21.6,48,48,48h416c26.4,0,48-21.6,48-48V48C512,21.6,490.4,0,464,0z M192,416h-64
	V192h64V416z M160,160c-17.7,0-32-14.3-32-32s14.3-32,32-32s32,14.3,32,32S177.7,160,160,160z M416,416h-64V288
	c0-17.7-14.3-32-32-32s-32,14.3-32,32v128h-64V192h64v39.7c13.2-18.1,33.4-39.7,56-39.7c39.8,0,72,35.8,72,80V416z"/>
</svg>
