<?xml version="1.0" encoding="utf-8"?>
<!-- Generator: Adobe Illustrator 22.0.1, SVG Export Plug-In . SVG Version: 6.00 Build 0)  -->
<svg version="1.1" id="Ebene_1" xmlns="http://www.w3.org/2000/svg" xmlns:xlink="http://www.w3.org/1999/xlink" x="0px" y="0px"
	 viewBox="0 0 512 512" style="enable-background:new 0 0 512 512;" xml:space="preserve">
<path d="M511.7,136.9c-2.3,49.8-37.1,118.1-104.4,204.7c-69.6,90.4-128.5,135.7-176.7,135.7c-29.8,0-55.1-27.5-75.7-82.6
	c-13.8-50.5-27.5-101-41.3-151.5c-15.3-55.1-31.7-82.6-49.3-82.6c-3.8,0-17.2,8.1-40.2,24.1L0,153.7c25.3-22.2,50.2-44.4,74.7-66.6
	c33.7-29.1,59-44.4,75.9-46c39.8-3.8,64.4,23.4,73.6,81.7c9.9,62.9,16.8,102,20.7,117.3c11.5,52.2,24.1,78.3,37.9,78.3
	c10.7,0,26.8-16.9,48.3-50.8c21.4-33.8,32.9-59.6,34.5-77.3c3.1-29.2-8.4-43.9-34.5-43.9c-12.3,0-24.9,2.8-37.9,8.4
	c25.2-82.4,73.2-122.4,144.2-120.1C489.9,36.1,514.8,70.2,511.7,136.9L511.7,136.9z"/>
</svg>
