<svg fill="currentColor" xmlns="http://www.w3.org/2000/svg" width="32" height="32" viewBox="0 0 512 512"><path d="M296 192V16h-80v176h-88l128 128 128-128z"/><path d="M328 43.8v34.1c23.6 9.5 45.2 23.8 63.8 42.3C428 156.5 448 204.7 448 256s-20 99.5-56.2 135.8C355.5 428 307.3 448 256 448s-99.5-20-135.8-56.2C84 355.5 64 307.3 64 256s20-99.5 56.2-135.8c18.5-18.5 40.2-32.8 63.8-42.3V43.8C95.6 73.8 32 157.5 32 256c0 123.7 100.3 224 224 224s224-100.3 224-224c0-98.5-63.6-182.2-152-212.2z"/><path d="M128 352h256v16H128z"/></svg>