<svg fill="currentColor" xmlns="http://www.w3.org/2000/svg" width="32" height="32" viewBox="0 0 512 512"><path d="M416 352c-22.1 0-42.1 9-56.6 23.4L174.3 272.6c1.1-5.4 1.7-10.9 1.7-16.6 0-5.7-.6-11.2-1.7-16.6l185.2-102.8C373.9 151 393.9 160 416 160c44.2 0 80-35.8 80-80S460.2 0 416 0s-80 35.8-80 80c0 4.8.4 9.4 1.2 14L150.7 197.6C136.3 184.2 117.1 176 96 176c-44.2 0-80 35.8-80 80s35.8 80 80 80c21.1 0 40.3-8.2 54.7-21.6L337.2 418c-.8 4.5-1.2 9.2-1.2 14 0 44.2 35.8 80 80 80s80-35.8 80-80-35.8-80-80-80z"/></svg>