<svg fill="currentColor" xmlns="http://www.w3.org/2000/svg" width="32" height="32" viewBox="0 0 512 512"><path d="M332.6 266.6c-24.3-10.3-50-15.5-76.6-15.5s-52.4 5.2-76.6 15.5c-19.9 8.4-38.1 19.9-54.2 34.3l54 60.7c21.4-16.1 48-25.6 76.8-25.6 28.8 0 55.4 9.5 76.8 25.6l54-60.7c-16.1-14.3-34.3-25.9-54.2-34.3z"/><path d="M256 352c-24.1 0-47.1 7.6-66.2 21.6l66.2 74.5 66.2-74.5c-19.1-14-42.1-21.6-66.2-21.6zm116.2-173.4c-36.8-15.6-75.9-23.4-116.2-23.4s-79.4 7.9-116.2 23.4c-29 12.3-55.6 28.9-79.3 49.5l54.1 60.9c37.6-33.4 87.1-53.8 141.4-53.8 54.3 0 103.8 20.3 141.4 53.8l54.1-60.8c-23.7-20.7-50.3-37.3-79.3-49.6z"/><path d="M256 63.9c-98 0-187.6 36.3-256 96.1l49.9 56.1c55.2-47.9 127.3-77 206.1-77 78.9 0 150.9 29 206.1 77L512 160c-68.5-59.9-158-96.1-256-96.1z"/></svg>