<svg fill="currentColor" xmlns="http://www.w3.org/2000/svg" width="32" height="32" viewBox="0 0 512 512"><path d="M175.997 216.47c28.297 0 52.478-17.47 62.188-42.47H113.812c9.708 25 33.889 42.47 62.185 42.47z"/><path d="M32 32v288h20.502c8.944-35.068 33.231-61.875 72.866-73.969 14.94 8.49 32.218 13.385 50.629 13.385 18.415 0 35.695-4.883 50.637-13.376 39.639 12.087 63.926 38.892 72.864 73.96H320V32H32zm143.997 207.222c-49.145 0-88.983-39.84-88.983-88.986 0-49.144 39.839-88.983 88.983-88.983 49.146 0 88.984 39.839 88.984 88.983 0 49.146-39.838 88.986-88.984 88.986zM352 32h128v128H352zm0 160h128v128H352zm0 160h128v128H352zm-160 0h128v128H192zm-160 0h128v128H32z"/></svg>