<svg fill="currentColor" xmlns="http://www.w3.org/2000/svg" width="32" height="32" viewBox="0 0 512 512"><path d="M450.5 350.3c-37.4-27.6-63.4-46.3-75.7-40-15.4 7.7-23.6 25.1-39.3 55.7-5.6 11.1-18.3 32.1-28 28.3-12.3-4.9-48-24.4-95.6-68.6-4.3-4-8.8-8.2-13.3-12.7-53.1-54.1-75.8-95.3-81.1-108.7-3.8-9.6 17.3-22.3 28.3-27.9 30.6-15.7 48-23.9 55.7-39.3 6.2-12.3-12.4-38.3-40-75.7C133.9 24 116.8 4.9 100.3 1.2c-19-4.2-26.9 7.2-64.4 40C-.9 73.4 0 102.4 0 125.1c0 22.6 18 68.4 54.2 127.9 13.6 22.3 33.5 48.9 54.1 74.1 8.4 10.3 19.9 22.7 32.1 35.2 17.3 17.8 36.4 35.9 51.1 48 25.2 20.7 51.8 40.5 74.1 54.1 59.5 36.2 98.6 47.5 121.2 47.5 22.7 0 51.7 1 83.9-36 32.8-37.5 44.2-45.4 40-64.4-3.7-16.5-22.7-33.6-60.2-61.2zM417 94.9c30.7 30.7 48.7 71.1 52 113.1h42.7C504.7 96 416 7.2 304 .1v42.7c42.2 3.4 82.3 21.4 113 52.1zm-113-4.5v44.4c34 11.8 61.2 39.2 73 73.2h44.4C407.2 151 361 104.7 304 90.4z"/></svg>