<svg fill="currentColor" xmlns="http://www.w3.org/2000/svg" width="32" height="32" viewBox="0 0 512 512"><path d="M478.6 276c-16.7-16.7-41.2-18.2-57.9-1.5L373 322.1c-12.4 12.4-27.4 12.4-36.1 2.1-5.8-6.8-3.5-27.9-1.9-41.2l24-196.4c2.1-17.5-10.4-34.5-27.9-36.6-17.6-2.1-33.5 11.4-35.7 28.9L269 233.2c-1.4 3.8-4.3 4.5-4.7-.7l-9-200.5c0-17.7-14.3-32-32-32s-32 14.3-32 32l-.6 202c.2 2.3-1.8 3-2.2.3L160 76.7c-3.1-17.4-19.8-29.9-37.2-26.8-17.4 3.1-29 20.7-25.9 38.1l25.4 184.5c0 3.3-1.1 5.2-2.6 1L81.8 172.3c-5.9-16.7-24.2-26.4-40.9-20.4-16.7 5.9-25.4 25.2-19.5 41.9l66.4 216.7c.3 1.2.7 2.4 1.1 3.6l.1.4v.1c18.4 56.5 71.5 97.4 134.3 97.4 40.2 0 81.9-14.1 113.6-38.5C371.2 452.9 481 334.8 481 334.8c16.8-16.6 14.3-42.1-2.4-58.8z"/></svg>