<svg fill="currentColor" xmlns="http://www.w3.org/2000/svg" width="32" height="32" viewBox="0 0 512 512"><path d="M324.9 331.4c-20.3 11.5-43.8 18.1-68.9 18.1-25 0-48.5-6.6-68.9-18.1-53.9 16.4-86.9 52.6-99 100.6H424c-12.2-48-45.2-84.2-99.1-100.6zM256 80.1c-66.8 0-121 54.1-121 120.9s54.2 121 121 121 121-54.2 121-121S322.8 80.1 256 80.1zm0 212.6c-38.5 0-71.4-25.7-84.6-57.7h169.1c-13.1 32-46 57.7-84.5 57.7zM411.9 362H512c-7.3-29-27.1-50.7-59.5-60.6-12.2 6.9-26.3 10.8-41.4 10.8-15 0-29.2-3.9-41.4-10.8-11.5 3.5-21.5 8.6-29.8 14.9 29.8 10 53.8 25.7 72 45.7z"/><path d="M411.1 150.3c-11.9 0-23.1 2.9-33 7.9 5.6 14.5 8.6 30.3 8.6 46.8 0 13.2-2 25.9-5.6 37.9h80.8c-7.9 20-27.7 34.6-50.8 34.6-14.6 0-27.9-5.9-37.7-15.2-2.7 5.6-5.9 10.9-9.3 16 12.7 10.7 29.1 17.2 47 17.2 40.2 0 72.7-32.5 72.7-72.7s-32.6-72.5-72.7-72.5zm-239 166c-8.4-6.3-18.3-11.4-29.9-14.9-12.2 6.9-26.3 10.8-41.4 10.8-15 0-29.2-3.8-41.4-10.8C27.2 311.3 7.3 333 0 362h100.1c18.3-20 42.2-35.7 72-45.7zm-71.2-38.7C77.8 277.6 58 263 50.1 243h80.8c-3.6-12-5.6-24.8-5.6-37.9 0-16.5 3.1-32.3 8.6-46.8-9.9-5.1-21.1-8-33-8-40.2 0-72.7 32.5-72.7 72.7s32.6 72.7 72.7 72.7c17.9 0 34.3-6.5 47-17.2-3.5-5.1-6.6-10.4-9.3-16-9.8 9.3-23.1 15.1-37.7 15.1z"/></svg>