<svg fill="currentColor" xmlns="http://www.w3.org/2000/svg" width="32" height="32" viewBox="0 0 512 512"><path d="M236.8 363.4c-20.3 11.5-43.8 18.1-68.8 18.1s-48.5-6.6-68.8-18.1C45.3 379.8 12.3 416.6.2 464h335.7c-12.2-47.5-45.2-84.2-99.1-100.6zM168 112.2c-66.8 0-120.9 54.1-120.9 120.9s54.1 121 120.9 121S288.9 300 288.9 233.2s-54.1-121-120.9-121zm0 212.5c-38.5 0-71.3-25.7-84.5-57.7h169c-13.2 32-46 57.7-84.5 57.7z"/><path d="M332.1 400h179.8c-12.2-47.5-45.2-84.2-99-100.6-20.3 11.5-43.8 18.1-68.8 18.1-16.9 0-33.2-3-48.2-8.6-8.5 14.2-19.3 26.9-32 37.6 30.1 11.6 52.8 30.1 68.2 53.5zm-18.4-197h114.8c-13.2 32-46.1 57.7-84.5 57.7-10.1 0-19.9-1.8-29-5-1.5 9.9-4 19.6-7.4 28.8 11.5 3.6 23.7 5.6 36.4 5.6 66.8 0 120.9-54.1 120.9-120.9s-54.1-121-120.9-121c-42.8 0-80.4 22.3-101.9 55.8 36.3 20.9 63 56.7 71.6 99z"/></svg>