<svg fill="currentColor" xmlns="http://www.w3.org/2000/svg" width="32" height="32" viewBox="0 0 512 512"><path d="M510.2 442.2l-113-113c-4.3-4.3-15.3-.8-27.9 8l-40-40c24.3-31.2 38.8-70.4 38.8-113.1C368 82.4 285.6 0 184 0S0 82.4 0 184.1s82.4 184.1 184 184.1c42.6 0 81.9-14.5 113.1-38.8l40.1 39.9c-8.7 12.6-12.2 23.6-7.9 27.9l113 113c6.2 6.2 26.5-3.9 45.3-22.6 18.7-18.8 28.8-39.1 22.6-45.4zM184 328.1c-38.5 0-74.6-15-101.8-42.2S40 222.6 40 184.1s15-74.7 42.2-101.9S145.5 40 184 40s74.6 15 101.8 42.2C313 109.4 328 145.6 328 184.1s-15 74.7-42.2 101.9c-27.2 27.2-63.3 42.1-101.8 42.1z"/></svg>