<svg fill="currentColor" xmlns="http://www.w3.org/2000/svg" width="32" height="32" viewBox="0 0 512 512"><path d="M448 256c0-14.5-1.6-28.6-4.7-42.2l58.4-44.2-48-83.1-67.5 28.5c-20.7-19.1-45.6-33.7-73.1-42.3L304 0h-96l-9.1 72.6c-27.6 8.6-52.4 23.2-73.1 42.3L58.3 86.4l-48 83.1 58.4 44.2C65.6 227.4 64 241.5 64 256c0 14.5 1.6 28.6 4.7 42.2l-58.4 44.2 48 83.1 67.5-28.5c20.7 19.1 45.6 33.7 73.1 42.3L208 512h96l9.1-72.6c27.6-8.6 52.4-23.2 73.1-42.3l67.5 28.5 48-83.1-58.4-44.2c3.1-13.7 4.7-27.8 4.7-42.3zm-192 64c-35.4 0-64-28.7-64-64s28.7-64 64-64c35.4 0 64 28.7 64 64s-28.6 64-64 64z"/></svg>