<svg fill="currentColor" xmlns="http://www.w3.org/2000/svg" width="32" height="32" viewBox="0 0 512 512"><path d="M140.1 441h-1c-27-2-41-6.8-42.9-40.7-.8-13.5 0-26.4.8-40.5.9-14.7 2.7-28.9 3.7-42.8 2.1-31.6-3-49.4-23.6-61 20.6-11.6 25.7-29.3 23.6-61-.9-13.9-2.8-28.1-3.7-42.8-.8-14.1-1.6-27.1-.8-40.5C98.1 77.8 112.1 73 139.1 71h1c10.3 0 18.7-7.7 19.6-17.8.1-.5.1-.9.1-1.5 0-.3 0-.7-.1-1-.5-10.4-9.1-18.6-19.6-18.6h-7.7c-45.8 0-79.9 20.3-79.9 77 0 15.2 1.4 30.8 2.9 46.1 1.5 15 2.9 31.1 2.9 45s-1.6 34.1-36.7 34.1C9.8 234.2 0 244 0 256s9.8 21.7 21.7 21.7c35.1 0 36.7 20.3 36.7 34.1s-1.4 29.9-2.9 45c-1.5 15.3-2.9 30.9-2.9 46.1 0 56.8 34.1 77 79.9 77h7.7c10.5 0 19.1-8.3 19.6-18.6 0-.3.1-.7.1-1 0-.6 0-1-.1-1.5-.9-10.1-9.4-17.8-19.7-17.8zm231.6 0h1c27-2 41-6.8 42.9-40.7.8-13.5 0-26.4-.8-40.5-.9-14.7-2.7-28.9-3.7-42.8-2.1-31.6 3-49.4 23.6-61-20.6-11.6-25.7-29.3-23.6-61 .9-13.9 2.8-28.1 3.7-42.8.8-14.1 1.6-27.1.8-40.5-1.9-33.9-15.9-38.7-42.9-40.7h-1c-10.3 0-18.7-7.7-19.6-17.8-.1-.5-.1-.9-.1-1.5 0-.3 0-.7.1-1 .5-10.4 9.1-18.6 19.6-18.6h7.7c45.8 0 79.9 20.3 79.9 77 0 15.2-1.4 30.8-2.9 46.1-1.5 15-2.9 31.1-2.9 45s1.7 34.1 36.8 34.1c11.9 0 21.8 9.7 21.8 21.7s-9.9 21.7-21.8 21.7c-35.1 0-36.7 20.3-36.7 34.1s1.4 29.9 2.8 45c1.5 15.3 2.9 30.9 2.9 46.1 0 56.8-34.1 77-79.9 77h-7.7c-10.5 0-19.1-8.3-19.6-18.6 0-.3-.1-.7-.1-1 0-.6 0-1 .1-1.5.8-10.1 9.3-17.8 19.6-17.8z"/></svg>