<svg fill="currentColor" xmlns="http://www.w3.org/2000/svg" width="32" height="32" viewBox="0 0 512 512"><path d="M233.5 0C192 0 160 64 96 160H32c-17.7 0-32 43-32 96s14.3 96 32 96h64c64 96 96 160 137.5 160C288 512 304 397.4 304 256S288 0 233.5 0zm6.4 462c-17.6 0-23.9-77.9-27-144 27.7-7.1 43.1-32.1 43.1-62s-15.5-54.9-43.1-62c3.2-66.2 9.5-144.2 27.1-144.2 23.9 0 34.4 82.3 34.4 206.1-.1 123.8-10.5 206.1-34.5 206.1zM465.5 78.1l-23.6 23.5c4.4 8.3 8.5 16.9 12.2 25.7C471.3 168 480 211 480 256c0 44.6-8.7 87.9-26 128.6-3.7 8.7-7.8 17.3-12.2 25.6l23.6 23.6C495.1 381.3 512 320.6 512 256c0-65-16.9-125.4-46.5-177.9z"/><path d="M411.3 153.3L388.6 176c17.8 22.7 27.4 50 27.4 80 0 29.3-9.7 57.2-27.4 79.9l22.8 22.8C434.2 330.7 448 295 448 256s-13.8-74.8-36.7-102.7zm-35.9 65.4l-30 11.8c4.2 7.6 6.6 16.5 6.6 25.5 0 9.3-2.4 18.1-6.6 25.8l30 11.7c5.5-11.3 8.6-24 8.6-37.4 0-13.1-3.1-26.1-8.6-37.4z"/></svg>