<svg id="Layer_1" xmlns="http://www.w3.org/2000/svg" width="32" height="32" viewBox="0 0 512 512"><style>.st0{fill:#010101}</style><path class="st0" d="M160 86c0 5.5-4.5 10-10 10H74c-5.5 0-10-4.5-10-10V10c0-5.5 4.5-10 10-10h76c5.5 0 10 4.5 10 10v76zM307 86c0 5.5-4.5 10-10 10h-76c-5.5 0-10-4.5-10-10V10c0-5.5 4.5-10 10-10h76c5.5 0 10 4.5 10 10v76zM448 86c0 5.5-4.5 10-10 10h-76c-5.5 0-10-4.5-10-10V10c0-5.5 4.5-10 10-10h76c5.5 0 10 4.5 10 10v76zM160 214c0 5.5-4.5 10-10 10H74c-5.5 0-10-4.5-10-10v-76c0-5.5 4.5-10 10-10h76c5.5 0 10 4.5 10 10v76zM307 214c0 5.5-4.5 10-10 10h-76c-5.5 0-10-4.5-10-10v-76c0-5.5 4.5-10 10-10h76c5.5 0 10 4.5 10 10v76zM448 214c0 5.5-4.5 10-10 10h-76c-5.5 0-10-4.5-10-10v-76c0-5.5 4.5-10 10-10h76c5.5 0 10 4.5 10 10v76zM160 342c0 5.5-4.5 10-10 10H74c-5.5 0-10-4.5-10-10v-76c0-5.5 4.5-10 10-10h76c5.5 0 10 4.5 10 10v76zM307 342c0 5.5-4.5 10-10 10h-76c-5.5 0-10-4.5-10-10v-76c0-5.5 4.5-10 10-10h76c5.5 0 10 4.5 10 10v76zM307 470c0 5.5-4.5 10-10 10h-76c-5.5 0-10-4.5-10-10v-76c0-5.5 4.5-10 10-10h76c5.5 0 10 4.5 10 10v76zM448 342c0 5.5-4.5 10-10 10h-76c-5.5 0-10-4.5-10-10v-76c0-5.5 4.5-10 10-10h76c5.5 0 10 4.5 10 10v76z"/></svg>