<svg fill="currentColor" xmlns="http://www.w3.org/2000/svg" width="32" height="32" viewBox="0 0 512 512"><path d="M160 86c0 5.5-4.5 10-10 10H74c-5.5 0-10-4.5-10-10V10c0-5.5 4.5-10 10-10h76c5.5 0 10 4.5 10 10v76zm147 0c0 5.5-4.5 10-10 10h-76c-5.5 0-10-4.5-10-10V10c0-5.5 4.5-10 10-10h76c5.5 0 10 4.5 10 10v76zm141 0c0 5.5-4.5 10-10 10h-76c-5.5 0-10-4.5-10-10V10c0-5.5 4.5-10 10-10h76c5.5 0 10 4.5 10 10v76zM160 214c0 5.5-4.5 10-10 10H74c-5.5 0-10-4.5-10-10v-76c0-5.5 4.5-10 10-10h76c5.5 0 10 4.5 10 10v76zm147 0c0 5.5-4.5 10-10 10h-76c-5.5 0-10-4.5-10-10v-76c0-5.5 4.5-10 10-10h76c5.5 0 10 4.5 10 10v76zm141 0c0 5.5-4.5 10-10 10h-76c-5.5 0-10-4.5-10-10v-76c0-5.5 4.5-10 10-10h76c5.5 0 10 4.5 10 10v76zM160 342c0 5.5-4.5 10-10 10H74c-5.5 0-10-4.5-10-10v-76c0-5.5 4.5-10 10-10h76c5.5 0 10 4.5 10 10v76zm147 0c0 5.5-4.5 10-10 10h-76c-5.5 0-10-4.5-10-10v-76c0-5.5 4.5-10 10-10h76c5.5 0 10 4.5 10 10v76zm0 128c0 5.5-4.5 10-10 10h-76c-5.5 0-10-4.5-10-10v-76c0-5.5 4.5-10 10-10h76c5.5 0 10 4.5 10 10v76zm141-128c0 5.5-4.5 10-10 10h-76c-5.5 0-10-4.5-10-10v-76c0-5.5 4.5-10 10-10h76c5.5 0 10 4.5 10 10v76z"/></svg>