<svg fill="currentColor" xmlns="http://www.w3.org/2000/svg" width="32" height="32" viewBox="0 0 512 512"><path d="M256 32C132.3 32 32 132.3 32 256s100.3 224 224 224 224-100.3 224-224S379.7 32 256 32zM120.2 391.8zm151.7 55.5L264 400h-16l-7.9 47.3c-40-3.3-77.6-18.8-108.2-44.8l27.9-39.1-11.3-11.3-39.1 27.9c-26-30.6-41.5-68.1-44.8-108.2L112 264v-16l-47.3-7.9c3.3-40 18.8-77.6 44.8-108.2l39.1 27.9 11.3-11.3-27.9-39.1c30.6-26 68.1-41.5 108.2-44.8L256 112v144l124 146.6c-30.6 26-68.1 41.5-108.1 44.7z"/></svg>