<svg fill="currentColor" xmlns="http://www.w3.org/2000/svg" width="32" height="32" viewBox="0 0 512 512"><path d="M305.9 245.9C392.6 204.3 416 58.5 416 32H96c0 27.4 23.4 172.6 110.1 213.9C119.4 292.2 96 452.6 96 480h320c0-28.2-23.4-188-110.1-234.1zM157 143.5C144.2 115.7 136.4 85 132.2 64h247.5s-1.2 6.9-2 10.1c-3.8 17.2-10.9 43.1-22.8 69-11.7 25.4-25.6 45.2-41.1 59-17.2 15.2-36.1 22-57.8 22-21.7 0-40.7-6.8-57.9-21.9-15.5-13.8-29.3-33.4-41.1-58.7zM380.2 448H131.8c4.2-25 12.1-57.7 25.8-90.6 12-28.9 26.1-51.7 41.9-67.3 17-16.8 35.5-25.1 56.5-25.1s39.5 8.1 56.6 24.9c15.8 15.6 29.9 38.3 41.9 67.2 13.6 32.9 21.6 65.9 25.7 90.9z"/></svg>