<svg id="Layer_1" xmlns="http://www.w3.org/2000/svg" width="32" height="32" viewBox="0 0 512 512"><style>.st0{fill:#010101}</style><path class="st0" d="M0 81h304v32H0zM432 81h80v32h-80zM0 240h80v32H0zM208 240h304v32H208zM0 402h304v32H0zM432 402h80v32h-80zM192 312.2c0 22-21.4 39.8-47.8 39.8h-.4c-26.4 0-47.8-17.8-47.8-39.8V199.8c0-22 21.4-39.8 47.8-39.8h.4c26.4 0 47.8 17.8 47.8 39.8v112.4zM416 152.2c0 22-21.4 39.8-47.8 39.8h-.4c-26.4 0-47.8-17.8-47.8-39.8V39.8c0-22 21.4-39.8 47.8-39.8h.4C394.6 0 416 17.8 416 39.8v112.4zM416 472.2c0 22-21.4 39.8-47.8 39.8h-.4c-26.4 0-47.8-17.8-47.8-39.8V359.8c0-22 21.4-39.8 47.8-39.8h.4c26.4 0 47.8 17.8 47.8 39.8v112.4z"/></svg>