<svg fill="currentColor" xmlns="http://www.w3.org/2000/svg" width="32" height="32" viewBox="0 0 512 512"><path d="M256 48C132.3 48 32 148.3 32 272s100.3 224 224 224 224-100.3 224-224S379.7 48 256 48zm135.8 359.8C355.5 444 307.3 464 256 464s-99.5-20-135.8-56.2C84 371.5 64 323.3 64 272s20-99.5 56.2-135.8C156.5 100 204.7 80 256 80s99.5 20 135.8 56.2C428 172.5 448 220.7 448 272s-20 99.5-56.2 135.8z"/><path d="M224 288l16-176h24l8 160 80 96-16 16zM388 16l-15 28.3C396.6 56.4 418.1 72 437 91c19 19 34.6 40.4 46.7 64l28.2-15C484.6 86.9 441.1 43.4 388 16zm-264 0l15 28.3C115.4 56.4 93.9 72 75 91c-19 19-34.6 40.4-46.7 64L0 139.9C27.4 86.9 70.9 43.4 124 16z"/></svg>