<svg fill="currentColor" xmlns="http://www.w3.org/2000/svg" width="32" height="32" viewBox="0 0 512 512"><path d="M272 64.6V48h32V0h-96v48h32v16.6C123.8 72.8 32 169.7 32 288c0 123.7 100.3 224 224 224s224-100.3 224-224c0-118.3-91.8-215.2-208-223.4zm119.8 359.2C355.5 460 307.3 480 256 480s-99.5-20-135.8-56.2C84 387.5 64 339.3 64 288s20-99.5 56.2-135.8C156.5 116 204.7 96 256 96s99.5 20 135.8 56.2C428 188.5 448 236.7 448 288s-20 99.5-56.2 135.8z"/><path d="M369.2 174.8c-3.1-3.1-8.2-3.1-11.3 0l-74.1 74.1c-7.8-5.6-17.4-8.9-27.8-8.9-26.5 0-48 21.5-48 48s21.5 48 48 48 48-21.5 48-48c0-10.4-3.3-19.9-8.9-27.8l74.1-74.1c3.2-3.2 3.2-8.2 0-11.3zM256 320c-17.7 0-32-14.3-32-32s14.3-32 32-32 32 14.3 32 32-14.3 32-32 32z"/></svg>