<svg fill="currentColor" xmlns="http://www.w3.org/2000/svg" width="32" height="32" viewBox="0 0 512 512"><path d="M438.8 396.2l-49.3-73-47.8-72.4-2.7-4.1c-12.8-20.3-19-44.4-19-70.2v-93c0-19.5 15-30.4 15-39.1 0-8.7-7-12.4-15.7-12.4H192.5c-8.7 0-15.8 3.9-15.8 12.6S192 64.8 192 84v92.5c0 25.8-7.3 49.8-20.1 70.2l-2.3 3.8-47.3 72.7-49.2 72.9c-5.8 9-9.1 20.2-9.1 31.7 0 28 16.3 52.2 63.2 52.2h257.6c47 0 63.2-24.2 63.2-52.2-.1-11.5-3.4-22.6-9.2-31.6zM409.2 441c-4.4 4.2-11.601 7-24.5 7H127.1c-12.8 0-20.8-3-25.2-7.2-2.7-2.6-6-6.8-6-13.1 0-5 1.4-10 3.9-14l49-72.5.1-.2.1-.2 47.1-72.5 3-4.899c15.7-25.2 24.8-55.2 24.8-86.9v-74.4c0-6.1.1-17.9-1-22.2C218.1 61.8 224 64 232.8 64h47c8.8 0 13.7-2 9.101 15.7-1 3.9-1 15.7-1 22.3v74.4c0 31.2 7.8 61.3 23.899 87 1.3 2.1 3.2 5 3.2 5l47.8 72.1.101.2.1.2 49 72.5c2.5 4 3.9 9 3.9 14-.001 6.4-4.001 11-6.701 13.6z"/><path d="M391.2 410.8l-13-19.8-11.9-18.2-40.5-61.8-1.1-1.7c-.3-.399-.7-.8-1-1.2l-.1-.2-13.2-19.9H201l-11.7 17.9-.1.1c-.2.3-.5.6-.7.9l-42.9 65.7-15.1 23.2-.6.9-.4.6-.5.8-8.4 12.801c-1.5 2.1-2.3 4.8-2.3 7.6 0 7.5 6.1 13.5 13.5 13.5h248.3c7.5 0 13.5-6.1 13.5-13.5 0-2.5-.6-4.9-1.899-6.9-.201-.301-.301-.501-.501-.801zM302 341.7c-1.5-1.5-2.3-3.601-2.3-5.7s.899-4.2 2.3-5.7c1.5-1.5 3.6-2.3 5.6-2.3 2.101 0 4.2.8 5.601 2.3 1.5 1.5 2.3 3.601 2.3 5.7s-.9 4.2-2.3 5.7c-1.5 1.5-3.5 2.3-5.601 2.3-2 0-4.1-.9-5.6-2.3zm36 56.7l-23.5-35.9c-2.4-3.7-1.4-8.7 2.3-11.1 1.4-.9 2.9-1.301 4.4-1.301 2.6 0 5.1 1.301 6.5 3.601l23.5 35.899c2.399 3.7 1.399 8.7-2.3 11.101-1.4.899-2.9 1.3-4.301 1.3-2.499 0-5.099-1.3-6.599-3.6z"/><path d="M188.5 307c-.3.4-3.6 5.4 0 0z"/></svg>