<svg xmlns="http://www.w3.org/2000/svg" width="32" height="32" fill="currentColor" viewBox="0 0 512 512"><path d="M0 96v256h512V96zm192.508 224H80.129c0-26.582-21.549-48.129-48.129-48.129V192c35.346 0 64-28.653 64-64h96.509C172.576 151.455 160 185.767 160 224s12.576 72.545 32.508 96m105.581-58.752q-3.873 6.274-10.189 10.257c-4.214 2.655-9.004 4.607-14.375 5.835a74 74 0 0 1-8.524 1.432V288h-18v-9.43a65 65 0 0 1-8.072-1.541c-5.688-1.475-10.641-3.659-14.851-6.709-4.214-3.047-7.584-6.803-10.11-11.573-2.42-4.561-3.728-10.747-3.928-15.747h19.735c.096 3 .828 6.532 2.201 9.184 1.473 2.853 3.526 4.883 6.16 6.7 2.572 1.78 5.532 3.082 8.863 3.919v-34.358a1411 1411 0 0 1-7.758-1.938q-7.268-1.77-12.085-4.646-4.82-2.877-7.661-6.417-2.844-3.539-4.028-7.522a28.3 28.3 0 0 1-1.186-8.113q0-7.964 3.556-13.791 3.553-5.825 9.398-9.662 5.843-3.833 13.27-5.679a63 63 0 0 1 6.494-1.248V160h18v9.499c2.46.353 4.856.838 7.18 1.473q7.822 2.139 13.744 6.414c3.95 2.854 7.083 6.364 9.4 10.542 2.109 3.811 3.258 8.072 3.445 13.072h-19.866c-.753-6-3.175-10.326-7.274-12.923-1.966-1.246-4.186-2.196-6.629-2.887v30.368c2.589.639 5.15 1.268 7.654 1.878q5.132 1.256 7.346 1.844 5.528 1.625 9.637 4.425 4.106 2.804 6.873 6.417 2.762 3.616 4.107 7.744c.893 2.753 1.343 5.51 1.343 8.262.001 5.899-1.291 10.942-3.87 15.12M480 271.871c-26 0-48 21.547-48 48.129H319.491C339.424 296.545 352 262.233 352 224s-12.576-72.545-32.51-96H416c0 35.347 28.653 64 64 64z"/><circle cx="96" cy="224" r="32"/><circle cx="416" cy="224" r="32"/><path d="M272.893 235.21a122 122 0 0 0-7.893-2.389v30.856c1.592-.23 3.069-.547 4.416-.959q4.58-1.401 7.425-3.613c2.845-2.212 3.264-3.171 4.107-5.089q1.263-2.875 1.263-5.827-.001-6.047-2.921-8.924-2.926-2.873-6.397-4.055m-36.889-44.251q-1.976 2.655-1.975 6.638-.001 5.607 3.712 8.776c2.377 2.034 5.468 3.583 9.259 4.661v-26.356c-2.18.45-4.192 1.135-6.02 2.078a14.25 14.25 0 0 0-4.976 4.203M0 368h512v16H0zm0 32h512v16H0z"/></svg>