<svg fill="currentColor" xmlns="http://www.w3.org/2000/svg" width="32" height="32" viewBox="0 0 512 512"><path d="M256 32C132.3 32 32 132.3 32 256s100.3 224 224 224 224-100.3 224-224S379.7 32 256 32zm169 132.7l-5-8.7c1.7 2.8 3.4 5.7 5 8.7zM356 92l-8.6-5c2.9 1.6 5.8 3.3 8.6 5zm-191.1-5.1l-9.1 5.3c3-1.9 6-3.7 9.1-5.3zm-72.8 69l-5.2 9c1.7-3.1 3.4-6.1 5.2-9zm-5.2 191.2l5.3 9.2c-1.9-3.1-3.7-6.1-5.3-9.2zm68.8 72.7l9.3 5.4c-3.1-1.7-6.2-3.5-9.3-5.4zm191.6 5.2l8.8-5.1c-2.9 1.8-5.9 3.5-8.8 5.1zm44.5-33.2c-10.1 10.1-21.1 18.9-32.9 26.4L343 390.6l-13.9 8 16 27.6c-24.8 13-52.4 20.5-81 21.6V416h-16v31.8c-28.7-1.2-56.2-8.6-81-21.6l16-27.6-13.9-8-15.9 27.6c-11.8-7.5-22.8-16.3-32.9-26.4-10.1-10.1-18.9-21.1-26.4-32.9l27.6-15.9-8-13.9-27.6 16c-13-24.8-20.5-52.4-21.6-81H96v-16H64.2c1.2-28.7 8.6-56.2 21.6-81l27.6 16 8-13.9-27.6-15.9c7.5-11.8 16.3-22.8 26.4-32.9 10.1-10.1 21.1-18.9 32.9-26.4l15.9 27.6 13.9-8-16-27.6c24.8-13 52.4-20.5 81-21.6V96h16V64.2c28.7 1.2 56.2 8.6 81 21.6l-16 27.6 13.9 8 15.9-27.6c11.8 7.5 22.8 16.3 32.9 26.4 10.1 10.1 18.9 21.1 26.4 32.9L390.4 169l8 13.9 27.6-16c13 24.8 20.5 52.4 21.6 81H416v16h31.8c-1.2 28.7-8.6 56.2-21.6 81l-27.6-16-8 13.9 27.6 15.9c-7.5 11.9-16.3 23-26.4 33.1zm33.3-44.6c-1.6 3-3.4 6-5.2 8.9l5.2-8.9z"/><path d="M400 249H287.2c-2-8.8-7.6-16.3-15.2-20.7V144h-32v84.3c-9.6 5.5-16 15.9-16 27.7 0 7.4 2.5 14.2 6.8 19.7l-70.4 70.7 5.7 5.7 70.4-70.7c5.4 4.2 12.2 6.7 19.6 6.7 14.5 0 26.8-9.7 30.7-23H400V249z"/></svg>