<svg fill="currentColor" xmlns="http://www.w3.org/2000/svg" width="32" height="32" viewBox="0 0 512 512"><path d="M340.5 127c.6-.3 1.3-.6 1.9-.9.6-.3 1.3-.3 1.3-.3s.8 0 1 .8c.5 2.2.8 4 1.1 6.3.2 1.2.7 2.3 1.5 3.2 1.2 1.4 2.7 1.9 4.6 1.7 1.2-.1 2.4-.6 3.5-1.2 1.7-.9 3.2-2.1 4.7-3.4-.2-.6-.3-1.2-.4-1.8-1.2-4.1-3.2-7.9-6.2-11-1.4-1.4-2.9-2.6-4.8-3.4-.7-.3-1.3-.7-1.8-1.3-.5-.5-.9-1.1-1.3-1.6s-.9-1-1.4-1.4c-.2-.2-.6-.4-.9-.5-1.3-.2-2.4.2-3.3 1.1-.4.5-.5 1-.2 1.6.5 1 .7 2.1 1 3.2.1.2.1.5.1.8-.4.3-.8.7-1.3 1-.4.3-.8.6-1.3 1-.5.3-.9.7-1.3 1-.4.3-.9.6-1.2 1-.7.6 2.2 5.1 3.4 4.7.7-.3.7-.3 1.3-.6zm-55.6-30.3c1.2 1.1 2.5 2 4.1 2.4 2.5.7 5 1.2 7.6 1.5h.9c.1-.3.2-.5.2-.7.3-1.1.7-2.2 1-3.3.1-.5.3-.9.8-1.2.3-.2.5-.4.8-.6 1.5-1.5 1.5-2.9 0-4.4-1-1-2.2-1.7-3.5-2.2-.3.1-.5.1-.7.2-3.5 1.3-6.9 2.6-10.4 3.9-.2.1-.4.1-.6.2-1.1.5-1.6 1.9-1.1 3 .3.5.6.9.9 1.2zm-118.6 81.2c.6 0 1.3-.2 1.8-.4.7-.3.9-1 .5-1.6-.2-.2-.4-.5-.6-.6-.4-.2-.8-.4-1.2-.5-.7-.2-1.4-.3-2.1-.4-1.5-.2-3-.3-4.5-.4-2.2-.1-4.2-.8-5.9-2.2l-1.2-.9c-.3-.3-.7-.5-1.1-.7-1-.6-2.1-1-3.3-.9-.7.1-1.5.1-2.2.3-.8.2-1.6.5-2.3 1-1 .8-2.2 3-2.2 3.4s.2.8.5.9c.6.2 1.2.5 1.8.6.9.2 1.9.3 2.8.5 4.5.8 9.1 1.6 13.7 2 1.9-.1 3.7 0 5.5-.1zm10 7.5c-1-.6-2-1.3-2.9-1.9-.3-.2-.8-.3-1-.3s-.5.1-.8.2c-2.5 1.1-5 2.3-7.4 3.4l-1.8.9c-.2.1-.5.4-.7.6-.2.2-.1.5.1.6.3.1.7.3 1 .3 1.2.2 2.5.1 3.7.1 1.1 0 2.3-.1 3.4-.1 2.5 0 4.8.5 7 1.7.3.1.6.3.9.4.3.1.5-.1.7-.3.1-.1.1-.2.2-.4.4-1.3.7-2.9.5-3.4s-.6-.9-1.2-1.1c-.6-.1-1.2-.4-1.7-.7z"/><path d="M256 32C132.3 32 32 132.3 32 256s100.3 224 224 224 224-100.3 224-224S379.7 32 256 32zM120.2 391.8C84 355.5 64 307.3 64 256c0-36.2 10-70.9 28.6-100.9.1.1.1.3.2.3.2.1.3.3.4.4.2.1.3.2.5.3-.1.6-.1 1.2-.2 1.8-.4 3.3-.9 6.5-1.3 9.8-.3 2 .1 3.9.9 5.7.6 1.4 1.5 2.7 2.6 3.9 1.3 1.5 2.8 2.7 4.4 3.8 2.7 1.9 5.6 3.3 8.6 4.5.3.1.5.2.9.3-.1 1.4-.3 2.7-.5 4-.2 1.3-.5 2-.4 3.1.1.7.3 1.4.6 1.6 1.6 1.4 3.2 2.9 4.9 4.3.5.4 1.1 2.4 1.2 3 .8 3.5 1.3 5.3 2.2 8.8.1.6.4 1.1.9 1.4 1.8 1.3 3.5 2.7 5.2 4 .3.2.7.5 1 .6 1.7.9 2.7 2.2 3.2 4 .3 1.1.4 2.2.4 3.4 0 2.2-.5 4.2-1.1 6.3-.4 1.5-1.1 2.9-1.9 4.1-1.3 1.8-2.5 3.6-3.8 5.4-1.6 2.2-3.2 4.5-4.7 6.7-.6.8-1.1 1.8-1.6 2.6-1.2 1.9-1.7 3.9-2 6.1-.3 2.5-.4 4.9-.2 7.4.2 2.3.6 4.5 1.4 6.6.2.5.2.9.1 1.5-.5 2.3-.2 4.4.7 6.5.5 1.3 1.2 2.5 2 3.6.9 1.2 1.8 2.3 2.7 3.5 1.5 1.8 2.9 3.5 4.3 5.4 3 4 6.7 7.2 10.8 9.9.3.2.6.4 1 .6-.1.3-.1.5-.2.8-.6 1.8-1 3.7-1 5.7-.1 2.8.5 5.4 2.1 7.7.7 1 1.2 1.5 2.7 2.7.1.4 0 .8-.1 1.3-.4 3.2-.9 6.4-1.3 9.6-.2 1.7-.4 3.4-.7 5.1-.1.7-.2 1.4-.4 2-.7 2.4-1.2 4.8-1.5 7.2-.1 1.6-.2 3.1.1 4.7.2 1.3.7 2.6 1.7 3.6l-.3 2.4c-.3 2.6-.7 5.1-1 7.7-.2 1.2-.4 2.3-.6 3.4-.4 2.6-.6 5.2-.5 7.8.1 1.4.2 2.7.6 4 .3 1.1.7 2.2 1.4 3.1.2.2.3.5.3.8.5 3.4.9 6.7 1.4 10.1.3 2.1.6 4.3.9 6.4.1.4.2.7.3 1 2.4 4.1 3.4 9.5 6.5 13.1 1.9 2.2 4.7 4.8 7 6.5.8.6 2.1 2.1 3.5 3.5-13.1-7.9-25.4-17.5-36.7-28.7zm314.4-194.7c-1.8-.4-3.6-.6-5.4-.7-3-.2-6.1-.3-9.1-.1h-.6c-.6.1-1.1-.1-1.5-.5-4.6-3.6-9.2-7.1-13.8-10.7-.6-.4-1.1-.8-1.7-1.3-.7-.5-1.4-.9-2.2-1.2-1.8-.6-3.6-.9-5.5-1.2-2.8-.3-5.5-.3-8.3-.2-.7 0-1.3-.1-1.9-.3-2.5-1-5.2-1.7-7.9-2.1-2.5-.4-5-.5-7.6-.4-2.8.1-5.6.5-8.3 1.4l-10.8 3.3c-.6.2-1.1.5-1.5 1-2.5 3-5 5.9-7.4 8.9-.4.4-.8.7-1.3.8-6.8 1.6-11.8 5.5-15 11.8-.3.7-.6 1.3-.9 2-.2.4-.3.8-.4 1.2-.2.6-.1 1.2.2 1.8.1.1.1.2.2.4.5.9.7 1.8.7 2.8.1 1.6-.1 3.2-.3 4.8-.3 2-.7 4-1.3 5.9-1.5 4.8-2.6 9.6-3.5 14.5-.7 3.7-1.2 7.5-1.1 11.3 0 1.8.2 3.5.6 5.2.1.4.3.9.4 1.3.1.4.4.7.7 1 3.4 3.3 6.7 6.6 10.2 9.7 3.1 2.8 6.3 5.4 9.8 7.7 2.6 1.7 5.4 3.2 8.3 4.3 3.2 1.2 6.5 1.7 9.9 1.4 3.5-.3 7-.5 10.6-.6 2.5-.1 5 0 7.5.5.8.2 1.6.4 2.4.8.9.4 1.7 1 2.3 1.9.1.2.2.3.4.5.6.7 1.4 1 2.3.8.5-.1 1-.3 1.4-.5.5-.2 1-.4 1.5-.7.4-.2.8-.3 1.2-.5 1-.3 1.7 0 2.1 1 .2.6.4 1.2.5 1.8.6 2.5.9 5 .5 7.6-.2 1.8-.7 3.5-1.3 5.2-.6 1.7-1.3 3.3-1.9 5-.5 1.2-.9 2.5-1.3 3.8-1.1 3.4-1.1 6.9-.1 10.3.5 1.8 1.2 3.5 1.8 5.3.7 1.8 1.3 3.6 1.7 5.5.7 3.1.4 6.1-.8 9-.8 2.1-1.9 3.9-3.4 5.6l-3.3 3.6c-.4.4-.8.9-1.2 1.3-1.7 1.9-3.2 3.9-4.3 6.2-.9 1.8-1.8 3.7-2.5 5.6-1 2.8-1.2 5.6-.6 8.5.5 2.2 1 4.4 1.4 6.6.3 1.4.5 2.8.7 4.1.1.7.1 1.5-.1 2.2-.3 1.2-.7 2.3-1.2 3.5-1.2 3.1-2.7 6-4.1 9-1.6 3.3-3.1 6.6-4.6 9.9-.7 1.6-1.3 3.3-1.8 5-.2.7-.3 1.5-.4 2.3-.1 1 .6 2.2 1.6 2.8-31.8 22-69.5 33.9-109 33.9-32.7 0-64.1-8.1-91.9-23.4 0-.3-.1-.6-.1-.9-1.2-6.5-3.6-19-4.8-25.4-.1-.7-.2-1.5-.2-1.9s.1-1.4.3-1.8c1-2.1 1.7-3.8 2.7-5.9.9-1.9 1.7-3.8 2.6-5.7.3-.6.7-1.2 1.2-1.7 2.3-2.2 4.5-4.4 6.7-6.5.3-.3.7-.6 1.1-.9 4.3-2.9 8.7-5.8 13-8.7.7-.5 1.2-1 1.7-1.7 1.9-2.9 3.9-5.8 5.8-8.8.8-1.3 1.5-2.6 2.3-3.9.2-.3.4-.6.6-.8 2.6-3.3 5.2-6.6 7.7-9.9.4-.5.8-.8 1.5-.9 4.2-.9 8.3-2.2 12.1-4.1l2.7-1.5c.4-.2.7-.5.9-.9 2.8-3.8 5.5-7.7 8.3-11.5.3-.4.5-.9.7-1.3 1.9-5.2 3.9-10.3 5.8-15.5.2-.6.5-1 1-1.3 5.5-3.6 8.8-8.6 9.8-15.1.2-1.5.3-2.9.1-4.4-.2-1.5-1-2.9-1.6-3.6-2.6-3.2-4.8-4.6-8.3-6.7-4.5-2.6-9.2-4.4-14.3-5.6-1.2-.3-2.9-.8-3.3-1s-.7-.4-.8-.8c-1.1-2.2-2.2-4.4-3.6-6.4-1.2-1.8-2.5-3.5-4.1-5-.3-.3-.4-.6-.5-1-.4-1.3-.8-2.7-1.3-4-1.7-4.3-4.2-8.1-7.4-11.4-5.3-5.4-11.7-9.2-18.9-11.6-.6-.2-1-.5-1.4-1-2.7-3.8-6.3-6.4-10.5-8.1-1.5-.6-3-1.1-4.6-1.4-.4-.1-.8-.2-1.1-.4-2.8-1.4-5.7-2.8-8.5-4.2-.5-.2-.9-.5-1.2-.9-.7-.8-1.6-1.4-2.5-2-1.1-.6-2.2-.9-3.4-.9-1.4.1-2.6.7-3.6 1.7-.2.2-.4.5-.6.8-.7 1.2-1.4 2.4-2.4 3.4-1.5 1.5-3.2 2.5-5.4 2.8-1.4.2-2.9 0-4.2-.4-1.8-.5-3.4-1.4-5-2.5-.4-.3-.8-.5-1.3-.8-2.9-1.7-4.7-4.2-5.2-7.5-.1-.7-.1-1.4-.2-2.1-.1-3.1.1-6.3.4-9.4.1-.8.2-1.1.2-1.6 0-.4-.2-1.1-.7-1.3-.7-.3-1.3-.7-1.8-1.2-.4-.3-.7-.7-1-1.1-.6-.9.2-1.5.7-2.5.4-.8 0-1.8.8-2.3.8-.5 1.7-1.1 2.5-1.7.9-.7 1.7-1.4 2.5-2.3.4-.5.7-1 .9-1.6.4-1.2.3-2.3-.5-3.3-.7-.9-1-1.6-2.1-2.1-.3-.1-1.2 0-1.5.1-1.2.3-2.3.6-3.5.8-1.5.3-3.1.3-4.7-.1-2-.5-3.3-1.7-4.1-3.6-.5-1.4-.7-2.8-.6-4.3.1-2.9.7-5.7 1.6-8.4.1-.3.2-.6.4-.9 4.6-6.5 10.6-11.1 18.3-13.4 1.9-.5 3.7-.9 5.7-1.1.8-.1 1.5 0 2.3.1 2.2.2 4.3.6 6.3 1.4 1.2.4 2.2 1 3.2 1.8 2.1 1.6 3.3 3.6 3.5 6.2.1 1.7.6 3.3 1.2 4.8.3 1 .7 1.9 1.2 2.9.3.6.6 1.1 1 1.6.3.4.7.7 1.1 1 .7.5 1.5.4 2.3.1.4-.2.7-.5.8-1 .1-.9.3-1.8.4-2.8.6-3.7 1.2-7.4 1.7-11 .3-1.9.6-3.7.9-5.6 0-.2.1-.4.1-.6 3.7-5.5 16.7-6.4 22-12.1.2.1.3.2.5.4.6.5 1.2.7 1.9.7 1 .1 2-.1 3-.3 1.4-.4 2.8-.9 4.1-1.6 1.1-.5 2.1-1.1 3.1-1.7.5-.3.9-.5 1.5-.6l9.3-2.7c.6-.2 1.2-.2 1.8-.1 2.6.3 5.2.3 7.9 0 1.8-.2 3.5-.5 5.2-1l.9-.3c.4-.1.6-.3.8-.7.4-.8.9-1.5 1.4-2.2.4-.6.9-1.1 1.5-1.6.4-.3.8-.6 1.3-.8.9-.4 1.9-.4 2.9-.1.8.3 1.4.7 2 1.3.5.5 1 .8 1.6 1.1.8.4 1.7.7 2.6.9 2 .4 3.8-.1 5.2-1.5.8-.7 1.3-1.6 1.8-2.5.8-1.5 1.3-3 1.7-4.7.5-2 .8-4 1-6.1V103c-.2.1-.5.1-.6.2-.9.4-1.7.7-2.6.9-.3 0-.5.1-.8 0-.6-.1-.9-.5-.8-1.1.1-.5.2-1 .5-1.4.5-.9 1-1.7 1.5-2.6.6-1 1.2-1.9 1.7-2.9.3-.6.5-1.3.5-2 .1-.9-.2-1.7-.9-2.3-.4-.4-.9-.8-1.4-1.1-.6-.4-1.2-.8-1.8-1.3-.9-.7-1.7-1.5-2.3-2.6-.1-.1-.2-.3-.3-.4-1.1-1.6-2.6-2.1-4.4-1.6-1.4.4-2.6 1.2-3.7 2.3l-1.7 1.7c-.7.6-1.5 1.2-2.3 1.6-1.4.7-2.9.7-4.3 0-.4-.2-.7-.4-1.1-.6-.2-.1-.5-.2-.7-.3-.6-.2-1-.1-1.4.5-.2.3-.4.6-.5 1-.5 1.5-1.5 2.7-2.6 3.8-1.4 1.3-2.9 2.3-4.6 3.2-1.3.7-2.6 1.2-4 1.8-.5.2-1.1.3-1.7.3-1.6-.1-2.7-.8-3.4-2.3-.4-1-.6-2-.6-3-.1-1.9.1-3.7.5-5.6.1-.7.3-1.3.4-1.9.1-.5.3-.8.7-1 1.9-1.2 3.7-2.4 5.5-3.6.2-.1.4-.3.7-.4 1.3-.8 2.5-1.7 3.6-2.7.9-.9 2-1.7 3.1-2.4.5-.3 1-.5 1.5-.7.2-.1.5-.1.8-.2.8-.1 1.4.2 1.8.9.8 1.6 2.2 1.9 3.8 1.8.8 0 1.7-.2 2.5-.4.9-.2 1.7-.6 2.5-.9.4-.2.8-.3 1.3-.3 2-.1 3.9-.1 5.9-.2.3 0 .6 0 .9.3 1.6 1.1 3.1 2.2 4.5 3.5.9.9 1.2 1.3 1.7 2.4.2-.2.5-.4.7-.6 1.7-1.5 3.3-3.1 5-4.6.4-.3.8-.7 1.1-1 1.7-1.3 3.3-2.5 5-3.8.3-.2.5-.4.8-.6.1-.4-.2-.7-.3-1-1.1-2.5-2.3-4.9-3.5-7.4l-.3-.6h3.4c1.7 0 3.3 0 5 .1.2.6.5 1.2.7 1.8.1.3.2.6 0 1-.3.9-.7 1.7-1 2.6l-3.6 9.3c-.2.5-.3.9-.2 1.5.4 4 1.1 7.8 2.6 11.6.9 2.2 2 4.4 3.5 6.3 1.4 1.8 3.1 3.3 5.2 4.3.2.1.5.2.7.3h.3c.2-.2.4-.5.6-.7 2.8-3.5 5.7-7 8.5-10.4 1.9-2.3 3.9-4.5 5.9-6.8.2-.2.4-.4.5-.6 1-1.1 1-1.1 2.5-1.4 2.1-.4 4.2-.7 6.3-1.1 1.2-.2.9 0 1.5-1.1l6.6-10.5c.1-.2.3-.4.4-.6 20.3 4.9 39.5 13.2 57.1 24.4-3.2.4-6.4.6-9.5 1-.1.2-.1.4-.1.6-.4 3.9-.4 7.8.2 11.7.3 1.6.7 3.3 1.4 4.8.5 1.1 1.1 2 2 2.8.4.4.8.6 1.4.7 1.7.2 3.3.4 4.9.7.4.1.8.1 1.3.2 1.3 2.1 2.5 4.2 3.8 6.3 3 .5 6.1.8 9.1 1.3 0 .8-.2 1.5-.2 2.2-.2 1.7-.5 3.4-.7 5-.1.5 0 1 .2 1.6.7 1.5 1.3 3.1 2 4.6.1.3.2.5.3.8-.2.2-.3.5-.5.7-1.6 2.1-3.2 4.1-4.7 6.2-.2.3-.5.6-.8.8-2.4 1.5-4.8 3-7.1 4.5-.9-.1-1.8-.2-2.6-.2-1.8 0-3.6.3-5.4.8-1.2.3-2.3.8-3.5 1.2-.3.1-.6.2-.8.4-1.4.8-2.8 1.6-4.3 2.4-.1.1-.3.2-.4.3l.3.6c1.9 3.4 3.7 6.8 5.6 10.1 1.1 2 2.6 3.8 4.3 5.4 1.3 1.2 2.7 2.1 4.3 2.7 2 .8 4.1.9 6.2.4 2.8-.7 5.7-1.4 8.5-2.2.3-.1.5-.2.8-.2.1-.5.1-.9.2-1.4.3-2.5.5-5 .9-7.5.2-1.5.5-3 .8-4.4.1-.5.3-.9.5-1.4 0-.1.2-.2.3-.2.1 0 .3.1.3.2.2.8 2.7-1.5 2.7-1.5s6.2-4.4 23.6 16 27.1 14.4 27.1 14.4c1.1 1.3 2 2.8 2.7 4.3.9 2 1.5 4.1 1.8 6.2v.8c-1.2-.3-1.5-.4-1.9-.4z"/></svg>