<svg fill="currentColor" xmlns="http://www.w3.org/2000/svg" width="32" height="32" viewBox="0 0 512 512"><path d="M255.907 32C132.195 32 32 67.817 32 112c0 8.476 3.68 16.642 10.52 24.309l.008.008C74.415 175.213 192 313 192 352v87h.02c.415 22.688 28.894 41 63.98 41s63.565-18.312 63.98-41h.02v-83.088c.153-1.241.056-2.54.056-3.912C320.056 313 436 177.432 471 134.062v-.002c6-7.007 9-14.408 9-22.06 0-44.183-100.381-80-224.093-80zM256 160c-106.039 0-192-25.072-192-56s85.961-56 192-56 192 25.072 192 56-85.961 56-192 56z"/></svg>