<svg fill="currentColor" xmlns="http://www.w3.org/2000/svg" width="32" height="32" viewBox="0 0 512 512"><path d="M377.8 100.1C332.9 86.8 318.8 112 256 112s-76.9-25.3-121.8-11.9c-44.9 13.3-67.3 60.4-88.5 148.8-21.2 88.5-17.3 152.4 7.7 164.3 25 11.9 53.2-15.4 80.1-49.1C155.3 337.7 166.2 336 256 336c89.7 0 99 .7 122.5 28.1 26.9 33.7 55.1 61 80.1 49.1 25-11.9 28.9-75.8 7.7-164.3-21.2-88.4-43.7-135.4-88.5-148.8zM128.2 263.7c-21.7 0-39.3-17.7-39.3-39.6 0-21.8 17.6-39.6 39.3-39.6 21.7 0 39.3 17.8 39.3 39.6s-17.6 39.6-39.3 39.6zm181.5-20.1c-10.6 0-19.3-8.7-19.3-19.4s8.7-19.4 19.3-19.4c10.7 0 19.4 8.7 19.4 19.4-.1 10.7-8.7 19.4-19.4 19.4zm42.2 42.4c-10.6 0-19.3-8.7-19.3-19.4 0-10.8 8.7-19.4 19.3-19.4 10.7 0 19.4 8.7 19.4 19.4 0 10.8-8.7 19.4-19.4 19.4zm0-84.9c-10.6 0-19.3-8.7-19.3-19.4s8.7-19.4 19.3-19.4c10.7 0 19.4 8.7 19.4 19.4s-8.7 19.4-19.4 19.4zm42.3 42.5c-10.7 0-19.3-8.7-19.3-19.4s8.7-19.4 19.3-19.4c10.6 0 19.3 8.7 19.3 19.4s-8.6 19.4-19.3 19.4z"/></svg>