<svg fill="currentColor" xmlns="http://www.w3.org/2000/svg" width="32" height="32" viewBox="0 0 512 512"><path d="M32 255.4C32 320.6 81.5 368 142.7 368h226.6c61.2 0 110.7-47.4 110.7-112.6S430.5 144 369.3 144H142.7C81.5 144 32 190.3 32 255.4zm372.8-22.1c10.7 0 19.4 8.5 19.4 19s-8.7 19-19.4 19-19.4-8.5-19.4-19 8.7-19 19.4-19zm-42.5-41.5c10.8 0 19.5 8.5 19.5 19s-8.7 19-19.5 19c-10.7 0-19.4-8.5-19.4-19s8.7-19 19.4-19zm0 83.1c10.8 0 19.5 8.4 19.5 19 0 10.5-8.7 18.9-19.5 18.9-10.7 0-19.4-8.5-19.4-18.9.1-10.6 8.7-19 19.4-19zm-42.5-41.6c10.8 0 19.5 8.5 19.5 19s-8.7 19-19.5 19c-10.7 0-19.4-8.5-19.4-19s8.7-19 19.4-19zM88 245.3c0-2.7 1.8-5.3 4.3-5.3H128v-38.8c0-2.8 2.1-5.2 4.8-5.2h21.9c2.7 0 5.4 2.4 5.4 5.2V240h37.8c2.7 0 5.2 2.5 5.2 5.3V267c0 2.9-2.5 5-5.2 5H160v39.1c0 2.8-2.7 4.9-5.4 4.9h-21.9c-2.6 0-4.8-1.9-4.8-4.5V272H92.6c-2.7 0-4.6-2.1-4.6-5v-21.7z"/></svg>