<svg xmlns="http://www.w3.org/2000/svg" width="32" height="32" fill="currentColor" viewBox="0 0 512 512"><path d="M256 48c-8.044 0-15.975.473-23.782 1.361C128.555 61.166 48 149.18 48 256c0 114.863 93.137 208 208 208 106.827 0 194.833-80.553 206.638-184.218A210 210 0 0 0 464 256c0-114.863-93.13-208-208-208m3.939 398.614a209 209 0 0 0-3.209-25.804l-21.511 6.896-4.885-15.234 22.812-7.314a208 208 0 0 0-8.02-23.794 208 208 0 0 0-6.341-14.105l-19.464 13.186-8.972-13.247 20.744-14.054c-7.416-12.429-16.149-24.057-26.119-34.803l-16.852 16.853-11.313-11.313 16.852-16.852c-10.442-9.689-21.721-18.202-33.757-25.48l-14.216 20.988-13.247-8.973 13.403-19.788a209 209 0 0 0-15.206-6.9 209 209 0 0 0-22.725-7.717l-7.5 23.392-15.236-4.885 7.115-22.192a208 208 0 0 0-26.904-3.412c.109-5.373.438-10.695.984-15.953a226 226 0 0 1 30.827 4.068l7.518-23.454 15.237 4.886-7.159 22.328a222.8 222.8 0 0 1 42.09 16.494l13.449-19.854 13.248 8.973-12.7 18.748a224 224 0 0 1 36.1 27.411l17.082-17.082 11.314 11.314-17.083 17.082a223.8 223.8 0 0 1 28.044 37.151l18.999-12.869 8.973 13.248-20.183 13.67a222.6 222.6 0 0 1 16.232 42.058l22.919-7.349 4.885 15.236-24.122 7.734a225 225 0 0 1 3.854 29.727c-5.259.548-10.582.875-15.957.985m151.022-171.321-8.529 26.604-15.236-4.885 8.174-25.493a223 223 0 0 1-41.218-16.116l-15.335 22.641-13.248-8.973 14.564-21.499a224 224 0 0 1-36.644-27.746l-19.205 19.204-11.312-11.314 19.202-19.203c-10.381-11.135-19.427-23.062-27.114-35.59l-21.248 14.393-8.974-13.248 22.335-15.127a222.7 222.7 0 0 1-16.384-41.241l-24.918 7.99-4.885-15.237 25.951-8.321a226 226 0 0 1-4.522-35.337 191 191 0 0 1 15.754-1.284c.507 10.743 1.859 21.334 3.972 31.807l19.744-6.359 4.907 15.212-20.789 6.658a208 208 0 0 0 7.333 21.348 208 208 0 0 0 7.174 15.731l17.315-11.729 8.973 13.246-18.477 12.516c7.209 11.846 15.619 22.957 25.174 33.254l14.729-14.731 11.314 11.313-14.732 14.731c10.602 9.836 22.062 18.463 34.302 25.813l12.352-18.235 13.248 8.973-11.512 16.994a207 207 0 0 0 14.635 6.608 208 208 0 0 0 22.421 7.631l6.484-20.22 15.233 4.885L415.865 260c10.116 1.984 20.286 3.311 30.626 3.824a192 192 0 0 1-1.285 15.768 226 226 0 0 1-34.245-4.299"/></svg>