<svg xmlns="http://www.w3.org/2000/svg" width="32" height="32" fill="currentColor" viewBox="0 0 512 512"><path d="m374.1 128-13.6 10.3C384.6 171.2 399 211.9 399 256s-14.4 84.8-38.6 117.7L374 384c26.3-35.7 41.9-80 41.9-128s-15.5-92.3-41.8-128M320 351.8c20-26.8 32-59.9 32-95.8s-12-69-32-95.8l-13.6 10.1c17.9 24 28.6 53.6 28.6 85.7s-10.7 61.7-28.6 85.7zm-46.9-31.9C286.8 302 295 280 295 256s-8.2-46-21.9-63.9l-13.5 9.8c11.6 15.1 18.5 33.8 18.5 54.1s-6.9 38.9-18.5 54.1zM153.9 216H96v80h57.9l70.1 56V160z"/></svg>