<svg fill="currentColor" xmlns="http://www.w3.org/2000/svg" width="32" height="32" viewBox="0 0 512 512"><path d="M247 96h18v56h-18zm0 260h18v60h-18zm113-109h56v18h-56zm-264 0h60v18H96zm274.26 105.285l-11.879 11.88-33.8-33.8 11.879-11.879zM193.547 175.48l-11.88 11.88-33.87-33.87 11.879-11.88zm164.788-33.735l11.88 11.88-33.8 33.799-11.88-11.88zM181.563 318.404l11.878 11.881-33.876 33.865-11.878-11.881zM256 331.8c-41.8 0-75.8-34-75.8-75.8s34-75.8 75.8-75.8 75.8 34 75.8 75.8-34 75.8-75.8 75.8z"/></svg>