<svg xmlns="http://www.w3.org/2000/svg" width="32" height="32" fill="currentColor" viewBox="0 0 512 512"><path d="M256 48C141.137 48 48 141.136 48 256s93.137 208 208 208c114.872 0 208-93.138 208-208S370.87 48 256 48m41.151 394.179c-13.514 2.657-30.327 4.187-44 4.45a190.5 190.5 0 0 1-38.5-4.493 978 978 0 0 1-6.805-1.777l-24.417-65.435L203.074 336h105.854l.57 1.076 19.34 38.852-23.618 64.282a190 190 0 0 1-8.069 1.969M189.578 77.28 247 116.576v58.147l-70.997 60.067-49.403-22.51-4.167-1.899-22.332-64.019c22.009-31.204 53.138-55.532 89.477-69.082m221.986 68.787-22.432 64.483-53.992 24.388L264 174.723v-58.147l57.596-39.415c36.362 13.483 67.905 37.752 89.968 68.906M66.144 273.414l53.756-46.518 49.539 22.599.559.255 19.718 77.287-20.433 38.529-69.86-.915c-18.348-26.36-30.214-57.546-33.279-91.237m276.575 92.151-20.434-38.529 19.752-77.416 49.997-22.781 53.822 46.575c-3.065 33.691-14.932 64.877-33.277 91.236z"/></svg>