<svg xmlns="http://www.w3.org/2000/svg" width="32" height="32" fill="currentColor" viewBox="0 0 512 512"><path d="M352 104c8.837 0 16 7.163 16 16s-7.163 16-16 16-16-7.163-16-16 7.163-16 16-16m0-16c-17.645 0-32 14.355-32 32s14.355 32 32 32 32-14.355 32-32-14.355-32-32-32m0 288c8.837 0 16 7.163 16 16s-7.163 16-16 16-16-7.163-16-16 7.163-16 16-16m0-16c-17.645 0-32 14.355-32 32s14.355 32 32 32 32-14.355 32-32-14.355-32-32-32M160 240c8.837 0 16 7.163 16 16s-7.163 16-16 16-16-7.163-16-16 7.163-16 16-16m0-16c-17.645 0-32 14.355-32 32s14.355 32 32 32 32-14.355 32-32-14.355-32-32-32m47.32 24H480v16H207.32c.439-2.604.68-5.273.68-8s-.24-5.396-.68-8M112 256c0 2.727.24 5.396.68 8H32v-16h80.68a48 48 0 0 0-.68 8m287.32 128H480v16h-80.68c.439-2.604.68-5.273.68-8s-.24-5.396-.68-8M304 392c0 2.727.24 5.396.68 8H32v-16h272.68a48 48 0 0 0-.68 8m95.32-280H480v16h-80.68c.439-2.604.68-5.273.68-8s-.24-5.396-.68-8m-94.64 0c-.439 2.604-.68 5.273-.68 8s.24 5.396.68 8H32v-16z"/></svg>