<svg fill="currentColor" xmlns="http://www.w3.org/2000/svg" width="32" height="32" viewBox="0 0 512 512"><path d="M396.7 131.4c-.1-.1-.2-.1-.3-.2-.6-.2-1.1-.5-1.6-.7h-.1C352.3 112.3 305.4 102 256 102c-49.4 0-96.3 10-138.7 28h-.1c-.6 1-1.2.8-1.9 1.1-.1 0-.1.1-.1.2-4.8 2.5-8.1 7.4-8.1 13.1 0 1.8.3 3.6 1 5.1v.1L256 480l147.6-329.9c.8-1.8 1.2-3.7 1.2-5.8 0-5.5-3.3-10.4-8.1-12.9zM247.3 118c3.8-2.2 8.7-.8 10.9 3 .1.2 3.4 5.8 9.3 9.5 7.1 4.6 14.8 4.5 23.5-.4 3.8-2.2 8.7-.8 10.9 3 2.2 3.8.8 8.7-3 10.9-14 7.9-28.4 7.7-40.7-.5-8.7-5.9-13.4-13.8-13.8-14.7-2.3-3.7-1-8.6 2.9-10.8zM160 160.1c0-17.7 14.3-32 32-32s32 14.3 32 32-14.3 32-32 32-32-14.4-32-32zm53.8 101.3c-.3 4.4-4.2 7.7-8.6 7.4-4.4-.3-7.7-4.2-7.4-8.6 1.2-16 9.4-27.9 23.1-33.5 9.7-4 18.9-3.4 19.9-3.3 4.4.3 7.7 4.2 7.4 8.6-.3 4.4-4.2 7.7-8.5 7.4-.2 0-6.7-.4-13.1 2.4-7.9 3.2-12 9.7-12.8 19.6zm54.3 133.7c-9.3 5-18.4 5.4-19.4 5.4-4.4.1-8.1-3.3-8.2-7.8-.1-4.4 3.3-8.1 7.7-8.2.2 0 6.7-.3 12.8-3.7 7.4-4.2 10.8-11 10.5-21-.1-4.4 3.3-8.1 7.8-8.2 4.4-.1 8.1 3.3 8.2 7.8.5 16-6.4 28.7-19.4 35.7zm-12.1-56c-17.7 0-32-14.3-32-32s14.3-32 32-32 32 14.3 32 32-14.3 32-32 32zm64-115c-17.7 0-32-14.3-32-32s14.3-32 32-32 32 14.3 32 32-14.3 32-32 32z"/><path d="M423.7 65.9c-.6-.3-1.2-.9-1.8-.9h-.1C371.1 44 315 31.9 256 31.9c-58.9 0-115.1 11.9-165.8 33.3-.7.3-1.3.6-2 .9h-.1c-4.8 2.5-8.1 7.4-8.1 13 0 1.7.3 3.4.9 5 .1.4.2.7.4 1l6.6 15.9 1 2.4c2.5 4.9 7.7 8.2 13.8 8.2 2.1 0 4.2-.4 6-1.2.2-.1.5-.2.7-.3 44.9-19 94.5-29.6 146.7-29.6 52.2 0 101.8 10.6 146.7 29.6.2.1.5.2.7.3 1.8.8 3.8 1.2 6 1.2 6 0 11.2-3.3 13.7-8.1l1.1-2.6 6.5-15.8c.2-.3.3-.6.4-1 .6-1.6.9-3.3.9-5-.1-5.7-3.5-10.7-8.4-13.2z"/></svg>