<svg fill="currentColor" xmlns="http://www.w3.org/2000/svg" width="32" height="32" viewBox="0 0 512 512"><path d="M471.036 150.483l-34.951-35.296c-5.819-5.801-13.506-9.188-21.645-9.188h-.111c-8.142 0-15.827 3.375-21.694 9.208l-139.73 140.436-61.774-62.064c-5.714-5.762-13.63-9.066-21.804-9.066-8.064.024-15.957 3.297-21.68 9.003l-34.956 35.021c-11.986 11.99-11.993 31.492-.042 43.446l118.355 118.942a30.688 30.688 0 0 0 16.562 8.597l.693.434 4.659.014c8.18 0 15.896-3.189 21.791-9.04l196.295-197.004c11.951-11.957 11.967-31.443.032-43.443zM252.859 367.522l-116.661-117.24 33.157-33.218 83.533 83.925 161.48-162.091 33.122 33.28-194.631 195.344zm116.829-242.75l-77.184-77.408 77.184 77.408zm-79.137-79.268c-19.894-18.006-50.493-18.006-70.387 0C230.111 36.501 242.734 32 255.357 32s25.247 4.501 35.194 13.504z"/><path d="M463.391 218.745l-.82-.818-22.59 22.665.77.769c7.904 7.95 7.898 21.358-.02 29.298L269.853 442.037c-3.836 3.845-8.981 5.963-14.489 5.963s-10.653-2.118-14.486-5.961L69.982 270.656c-7.924-7.945-7.924-21.369.002-29.316L240.867 69.963c3.836-3.846 8.981-5.963 14.49-5.963s10.654 2.117 14.486 5.959l77.253 77.479 22.591-22.665-77.184-77.408a52.442 52.442 0 0 0-1.953-1.86C280.604 36.501 267.98 32 255.357 32s-25.246 4.501-35.193 13.504c-.663.6-1.314 1.221-1.953 1.86L47.324 218.745c-20.432 20.488-20.432 54.021 0 74.508l170.893 171.381C228.434 474.878 241.898 480 255.363 480s26.93-5.122 37.146-15.366L463.39 293.253C474.665 281.909 480.012 268.747 480 256c-.014-13.57-6.074-26.688-16.609-37.255z"/></svg>