<svg fill="currentColor" xmlns="http://www.w3.org/2000/svg" width="32" height="32" viewBox="0 0 512 512"><path d="M475.695 145.772l-34.908-35.062c-2.807-2.798-6.465-4.341-10.404-4.326-3.936-.015-7.623 1.532-10.418 4.311l-167.07 167.621-73.129-73.472a14.642 14.642 0 0 0-10.393-4.332c-3.863.012-7.654 1.564-10.404 4.307l-34.965 35.029c-5.756 5.758-5.777 15.086-.016 20.849l118.359 118.947a14.533 14.533 0 0 0 8.719 4.219c.555.075 1.119.106 1.684.103.035 0 .072 0 .107-.006l.016.01c3.949.012 7.699-1.553 10.502-4.335l212.311-213.017c2.799-2.8 4.314-6.679 4.314-10.243s-1.357-7.641-4.305-10.603z"/><path d="M462.568 217.927L282.74 398.354c-7.768 7.713-18.043 11.957-28.98 11.957l-7.982-.01-1.363-.22c-7.324-1.75-14.416-6.442-19.771-11.834L106.326 279.342c-7.756-7.76-12.029-18.079-12.023-29.058 0-10.991 4.277-21.32 12.027-29.068l35.008-35.078c7.604-7.582 18.125-11.945 28.959-11.967 10.799 0 21.359 4.416 28.947 12.066l54.551 54.806 115.891-116.271-77.184-77.408C282.447 37.283 269.8 32 255.998 32s-27.41 4.959-37.789 15.364L47.322 218.745C37.107 228.989 32 242.719 32 256.029s5.107 26.98 15.322 37.224l170.893 171.381c20.434 20.488 53.859 20.488 74.293 0l170.881-171.381C474.648 281.562 480 269.969 480 255.999s-6.029-26.641-16.611-37.254l-.821-.818z"/></svg>