<svg xmlns="http://www.w3.org/2000/svg" width="32" height="32" fill="currentColor" viewBox="0 0 512 512"><path d="M177 77.1 64 151l78.3 63L256 143.2zm-85.6 76.2 84.5-56.8 52.9 46-85.4 52.5z"/><path d="M369.8 213 256 284.1l79 66.1 19-12.6v20.2L256 417l-98-58.5V338l19 12.2 79-66.1L142.2 213 64 276.3l78 51.5v39.4L256 435l114-68.5v-39.2l78-51.2zm-226.4 17.9 85.4 55.4-52.9 44.1-84.5-55.8zm139.8 55.4 85.4-55.4 52.1 43.6-84.5 55.8z"/><path d="M448 151 335 77.1l-79 66.1L369.8 214zm-164.8-8.4 52.9-46 84.5 56.8-52 41.6z"/></svg>