<?xml version="1.0" encoding="utf-8"?>
<!-- Generator: Adobe Illustrator 22.0.1, SVG Export Plug-In . SVG Version: 6.00 Build 0)  -->
<svg version="1.1" id="Ebene_1" xmlns="http://www.w3.org/2000/svg" xmlns:xlink="http://www.w3.org/1999/xlink" x="0px" y="0px"
	 width="86" height="128" viewBox="0 0 86 128" enable-background="new 0 0 86 128" xml:space="preserve">
<rect fill="#FFFFFF" width="86" height="128"/>
<rect x="2" y="106" fill="#333333" width="26" height="20"/>
<rect x="30" y="106" fill="#333333" width="26" height="20"/>
<rect x="58" y="106" fill="#333333" width="26" height="20"/>
<rect x="2" y="2" fill="#333333" width="82" height="26"/>
<rect x="2" y="30" fill="#333333" width="82" height="16"/>
<rect x="2" y="96" fill="#333333" width="40" height="8"/>
<rect x="2" y="86" fill="#333333" width="40" height="8"/>
<rect x="44" y="96" fill="#333333" width="40" height="8"/>
<rect x="44" y="86" fill="#333333" width="40" height="8"/>
<rect x="2" y="58" fill="#333333" width="40" height="8"/>
<rect x="2" y="48" fill="#333333" width="40" height="8"/>
<rect x="44" y="58" fill="#333333" width="40" height="8"/>
<rect x="44" y="48" fill="#333333" width="40" height="8"/>
<rect x="2" y="68" fill="#333333" width="82" height="16"/>
</svg>
