<?xml version="1.0" encoding="utf-8"?>
<svg version="1.1" id="Ebene_1" xmlns="http://www.w3.org/2000/svg" xmlns:xlink="http://www.w3.org/1999/xlink" x="0px" y="0px"
	 viewBox="0 0 64 64" enable-background="new 0 0 64 64" xml:space="preserve">
<path fill="#008FCD" d="M0,0h64v64H0V0z"/>
<path fill="#FFFFFF" d="M49.5,29.3L44,27.7c-0.1-0.4-0.3-0.9-0.5-1.3l2.8-5c0.1-0.3,0.1-0.6-0.1-0.8l-3-3c-0.2-0.2-0.5-0.2-0.8-0.1
	l-5,2.8c-0.4-0.2-0.8-0.4-1.3-0.5l-1.6-5.5c-0.1-0.3-0.3-0.5-0.6-0.5h-4.2c-0.3,0-0.5,0.2-0.6,0.5l-1.6,5.5
	c-0.4,0.2-0.9,0.3-1.3,0.5l-5-2.8c-0.3-0.1-0.6-0.1-0.8,0.1l-2.9,2.9c-0.2,0.2-0.2,0.5-0.1,0.8l2.8,5c-0.2,0.4-0.4,0.8-0.5,1.3
	l-5.5,1.6c-0.3,0.1-0.5,0.3-0.5,0.6V34c0,0.3,0.2,0.5,0.5,0.6l5.5,1.6c0.2,0.4,0.3,0.9,0.5,1.3l-2.8,5c-0.1,0.3-0.1,0.6,0.1,0.8l3,3
	c0.2,0.2,0.5,0.2,0.8,0.1l5-2.8c0.4,0.2,0.8,0.4,1.3,0.5l1.6,5.5c0.1,0.3,0.3,0.5,0.6,0.5H34c0.3,0,0.5-0.2,0.6-0.5l1.6-5.5
	c0.4-0.2,0.9-0.3,1.3-0.5l5,2.8c0.3,0.1,0.6,0.1,0.8-0.1l3-3c0.2-0.2,0.2-0.5,0.1-0.8l-2.8-5c0.2-0.4,0.4-0.8,0.5-1.3l5.5-1.6
	c0.3-0.1,0.5-0.3,0.5-0.6v-4.2C50,29.6,49.8,29.4,49.5,29.3z"/>
<circle fill="#008FCD" cx="32" cy="32" r="6.7"/>
</svg>
