<?xml version="1.0" encoding="utf-8"?>
<!-- Generator: Adobe Illustrator 27.6.1, SVG Export Plug-In . SVG Version: 6.00 Build 0)  -->
<svg version="1.1" id="Ebene_1" xmlns="http://www.w3.org/2000/svg" xmlns:xlink="http://www.w3.org/1999/xlink" x="0px" y="0px"
	 viewBox="0 0 16 16" enable-background="new 0 0 16 16" xml:space="preserve">
<path fill="#FFFFFF" d="M3,15V1h10v14H3z"/>
<rect x="14" y="13" fill="#B9B9B9" width="1" height="2"/>
<rect x="14" y="10" fill="#B9B9B9" width="1" height="2"/>
<rect x="14" y="4" fill="#B9B9B9" width="1" height="2"/>
<rect x="14" y="1" fill="#B9B9B9" width="1" height="2"/>
<rect x="14" y="7" fill="#B9B9B9" width="1" height="2"/>
<rect x="1" y="13" fill="#B9B9B9" width="1" height="2"/>
<rect x="1" y="10" fill="#B9B9B9" width="1" height="2"/>
<rect x="1" y="4" fill="#B9B9B9" width="1" height="2"/>
<rect x="1" y="1" fill="#B9B9B9" width="1" height="2"/>
<rect x="1" y="7" fill="#B9B9B9" width="1" height="2"/>
<path fill="#666666" d="M3,15h10V1H3V15z M4,14V2h8v12H4z"/>
<rect x="5" y="3" fill="#B9B9B9" width="6" height="10"/>
</svg>
